
<svg width="24" height="24" viewBox="0 0 24 24" fill="none" xmlns="http://www.w3.org/2000/svg">
<g clip-path="url(#clip0_1335_4964)">
<path d="M15.5502 7.2C14.7502 7.2 14.0002 7.6 13.4002 7.95C13.6002 6.95 14.2502 5.2 15.9502 4.7C16.2002 4.6 16.3502 4.35 16.3002 4.1C16.2002 3.85 15.9502 3.7 15.7002 3.75C14.5002 4.1 13.7502 4.85 13.2502 5.7C11.9002 2.3 8.60019 0 4.95019 0C4.10019 0 3.25019 0.1 2.45019 0.35C2.15019 0.45 2.00019 0.7 2.10019 1C3.05019 4.3 5.90019 6.75 9.20019 7.3C6.05019 7.7 3.60019 10.4 3.60019 13.65C3.60019 17.1 6.35019 24.05 10.0002 24.05C10.7002 24.05 11.4002 23.8 12.0502 23.3C12.4502 23 13.0002 23 13.4002 23.3C14.1002 23.8 14.8002 24.05 15.4502 24.05C19.1002 24.05 21.8502 17.1 21.8502 13.65C21.9002 10.1 19.0502 7.2 15.5502 7.2ZM12.3502 8.05C11.9502 7.8 11.5002 7.55 10.9502 7.35C11.5002 7.35 12.0002 7.25 12.5502 7.15C12.4502 7.5 12.4002 7.8 12.3502 8.05ZM3.20019 1.2C3.80019 1.05 4.35019 1 4.95019 1C8.25019 1 11.2502 3.1 12.3502 6.2C11.8002 6.35 11.2002 6.4 10.6502 6.4C7.30019 6.4 4.35019 4.25 3.20019 1.2ZM15.5502 23C15.0502 23 14.5502 22.8 14.0502 22.45C13.7002 22.2 13.2502 22.05 12.8002 22.05C12.3502 22.05 11.9002 22.2 11.5502 22.45C11.0502 22.8 10.5502 23 10.0502 23C7.20019 23 4.65019 16.6 4.65019 13.6C4.65019 10.6 7.05019 8.2 10.0502 8.2C10.6502 8.2 11.3502 8.6 11.8502 8.9C12.1002 9.05 12.4002 9.15 12.7502 9.15C12.7502 9.15 12.7502 9.15 12.8002 9.15C12.8002 9.15 12.8002 9.15 12.8502 9.15C12.8502 9.15 12.8502 9.15 12.9002 9.15C13.2002 9.15 13.5502 9.05 13.8002 8.9C14.3502 8.6 15.0002 8.2 15.6002 8.2C18.6002 8.2 21.0002 10.6 21.0002 13.6C20.9002 16.6 18.3502 23 15.5502 23Z" fill="#EDEFFF"/>
<path d="M15.5498 9.20001C15.2498 9.20001 15.0498 9.40001 15.0498 9.70001C15.0498 10 15.2498 10.2 15.5498 10.2C17.3998 10.2 18.9498 11.7 18.9498 13.6C18.9498 13.9 19.1498 14.1 19.4498 14.1C19.7498 14.1 19.9498 13.9 19.9498 13.6C19.8998 11.2 17.9498 9.20001 15.5498 9.20001Z" fill="#EDEFFF"/>
</g>
<defs>
<clipPath id="clip0_1335_4964">
<rect width="24" height="24" fill="white"/>
</clipPath>
</defs>
</svg>
