<svg width="48" height="48" viewBox="0 0 48 48" fill="none" xmlns="http://www.w3.org/2000/svg">
<path d="M39.517 12.6C38.7171 12.6 38.1171 12.1001 37.8171 11.5001C37.417 10.5 36.9171 9.60003 36.217 9.00003C35.5169 8.29992 34.8171 7.99992 34.117 7.90015C33.6171 7.90015 33.1169 8.30026 33.0171 8.80015C33.0171 9.40015 33.4172 9.80026 33.9171 9.90003C34.0172 9.90003 34.3172 10.0001 34.717 10.3999C35.2169 10.8 35.5169 11.4998 35.8169 12.1999C36.3167 13.5998 37.6169 14.4998 39.217 14.5999H39.3171C39.817 14.5999 40.3172 14.1998 40.3172 13.6999C40.417 13.0999 40.0172 12.7001 39.517 12.6H39.517Z" fill="#EDEFFF"/>
<path d="M34.4171 17.6999C33.6172 17.6999 33.0172 17.2 32.7172 16.6C32.3171 15.5999 31.8172 14.6999 31.1171 14.0999C30.417 13.3998 29.7172 13.0998 29.0171 13C28.5172 13 28.017 13.4001 27.9172 13.9C27.9172 14.5 28.3174 14.9001 28.8172 14.9999C28.9174 14.9999 29.2174 15.1 29.6171 15.4998C30.117 15.8999 30.417 16.5997 30.717 17.2998C31.2169 18.6997 32.517 19.5997 34.1171 19.6998H34.2172C34.7171 19.6998 35.2174 19.2997 35.2174 18.7998C35.4172 18.1998 35.0171 17.6999 34.4171 17.6999H34.4171Z" fill="#EDEFFF"/>
<path d="M29.4174 22.6996C28.6175 22.6996 28.0175 22.1998 27.7175 21.5998C27.3174 20.5996 26.8175 19.6996 26.1174 19.0996C25.4173 18.3995 24.7175 18.0995 24.0174 17.9998C23.4174 17.9998 23.0173 18.3999 22.9175 18.8998C22.9175 19.4998 23.3176 19.8999 23.8175 19.9996C23.9176 19.9996 24.2176 20.0998 24.6174 20.4995C25.1173 20.8996 25.4173 21.5994 25.7173 22.2995C26.2171 23.6994 27.5173 24.5994 29.1174 24.6995H29.2175C29.7174 24.6995 30.2176 24.2994 30.2176 23.7995C30.3174 23.1999 29.9173 22.7998 29.4174 22.6996H29.4174Z" fill="#EDEFFF"/>
<path d="M24.3173 27.7997C23.5174 27.7997 22.9174 27.2999 22.6174 26.6999C22.2173 25.6997 21.7174 24.7997 21.0173 24.1997C20.3172 23.4996 19.6174 23.1996 18.9173 23.0999C18.4174 23.0999 17.9172 23.5 17.8174 23.9999C17.8174 24.5999 18.2175 25 18.7174 25.0997C18.8175 25.0997 19.1175 25.1999 19.5173 25.5996C20.0172 25.9997 20.3172 26.6995 20.6172 27.3996C21.117 28.7995 22.4172 29.6995 24.0173 29.7996H24.1174C24.6173 29.7996 25.1175 29.3995 25.1175 28.8996C25.3174 28.3 24.9173 27.7997 24.3173 27.7997H24.3173Z" fill="#EDEFFF"/>
<path d="M19.3175 32.8002C18.5176 32.8002 17.9176 32.3003 17.6176 31.7003C17.2175 30.7002 16.7176 29.8002 16.0175 29.2002C15.3174 28.5001 14.6176 28.2001 13.9175 28.1003C13.3175 28.1003 12.9174 28.5005 12.8176 29.0003C12.8176 29.6003 13.2177 30.0005 13.7176 30.1002C13.8177 30.1002 14.1177 30.2003 14.5175 30.6001C15.0174 31.0002 15.3174 31.7 15.6174 32.4001C16.1173 33.8 17.4174 34.7 19.0175 34.8001H19.1176C19.6175 34.8001 20.1177 34.4 20.1177 33.9001C20.2175 33.3001 19.8174 32.9 19.3175 32.8002H19.3175Z" fill="#EDEFFF"/>
<path d="M14.2177 37.9003C13.4178 37.9003 12.8178 37.4004 12.5178 36.8004C12.1177 35.8003 11.6178 34.9003 10.9177 34.3003C10.2175 33.6002 9.51777 33.3002 8.81766 33.2004C8.31777 33.2004 7.81754 33.6006 7.71777 34.1004C7.71777 34.7004 8.11789 35.1006 8.61777 35.2003C8.71789 35.2003 9.01789 35.3004 9.41766 35.7002C9.91754 36.1003 10.2175 36.8001 10.5175 37.5002C11.0174 38.9001 12.3175 39.8001 13.9177 39.9002H14.0178C14.5177 39.9002 15.0179 39.5001 15.0179 39.0002C15.2174 38.4002 14.8177 37.9003 14.2177 37.9003H14.2177Z" fill="#EDEFFF"/>
<path d="M46.5173 1.5C45.5172 0.499886 44.1173 0 42.4174 0C36.2172 0 25.6174 6.40011 16.0174 16.0003C10.1172 21.9002 5.31687 28.2 2.51744 33.7997C-0.482563 39.6996 -0.782563 44.1994 1.51732 46.5C2.51744 47.5001 3.91732 48 5.61721 48C11.8171 48 22.4172 41.5999 32.0172 31.9997C43.1172 20.8997 51.5172 6.49971 46.5175 1.5H46.5173ZM30.6173 30.6C21.517 39.7003 11.2176 46.0003 5.61704 46.0003C4.41704 46.0003 3.51704 45.7003 2.91704 45.1003C1.31692 43.5002 1.91692 39.6002 4.31692 34.7006C7.01692 29.3006 11.617 23.2003 17.4166 17.4009C26.5169 8.30057 36.8172 2.00057 42.4169 2.00057C43.6169 2.00057 44.5169 2.30057 45.1169 2.90057C48.2167 6.00069 43.0169 18.1011 30.6166 30.6009L30.6173 30.6Z" fill="#EDEFFF"/>
</svg>
