<svg width="49" height="48" viewBox="0 0 49 48" fill="none" xmlns="http://www.w3.org/2000/svg">
<path d="M16.6328 9.25681C16.6328 10.5584 16.9328 11.4594 17.3329 12.1599C17.5328 12.4603 17.8328 12.5605 18.1328 12.5605C18.3327 12.5605 18.5329 12.4603 18.7328 12.3604C19.2327 12.06 19.3328 11.4594 18.9327 10.9589C18.8326 10.7588 18.5326 10.258 18.5326 9.15693C18.5326 8.1557 18.7325 6.95437 19.1326 5.75303C19.8327 4.05126 19.6328 2.04881 18.5326 0.447257C18.2326 -0.0531842 17.6326 -0.15341 17.1327 0.247149C16.6328 0.547483 16.5327 1.14815 16.9328 1.64859C17.6329 2.64982 17.8328 4.05126 17.4327 5.25259C16.8327 6.65404 16.6328 7.9556 16.6328 9.25681Z" fill="#EDEFFF"/>
<path d="M22.5327 9.25685C22.5327 10.5584 22.8327 11.4594 23.2328 12.16C23.4327 12.4603 23.7327 12.5605 24.0327 12.5605C24.2326 12.5605 24.4328 12.4603 24.6327 12.3604C25.1326 12.0601 25.2327 11.4594 24.8326 10.959C24.7325 10.7589 24.4325 10.2581 24.4325 9.15696C24.4325 8.15574 24.6324 6.9544 25.0325 5.75307C25.8327 4.05129 25.5327 2.04884 24.4328 0.447292C24.1328 0.0467329 23.5328 -0.0534841 23.0326 0.246849C22.5327 0.547183 22.4326 1.14785 22.8327 1.64829C23.5328 2.64952 23.7327 4.05096 23.3326 5.25229C22.8327 6.65408 22.5327 7.95564 22.5327 9.25686L22.5327 9.25685Z" fill="#EDEFFF"/>
<path d="M28.5327 9.25685C28.5327 10.5584 28.8327 11.4594 29.2329 12.16C29.4327 12.4603 29.7327 12.5605 30.0327 12.5605C30.2326 12.5605 30.4329 12.4603 30.6327 12.3604C31.1326 12.0601 31.2327 11.4594 30.8326 10.959C30.7325 10.7589 30.4325 10.2581 30.4325 9.15696C30.4325 8.15574 30.6324 6.9544 31.0325 5.75307C31.7326 4.05129 31.4326 2.04884 30.3327 0.447292C30.0327 0.0467329 29.4327 -0.0534841 28.9328 0.246849C28.433 0.547183 28.3328 1.14785 28.733 1.64829C29.4331 2.64952 29.633 4.05096 29.2328 5.25229C28.7326 6.65408 28.4326 7.95564 28.5327 9.25686L28.5327 9.25685Z" fill="#EDEFFF"/>
<path d="M48.0326 18.2669C48.0326 17.6662 47.6325 17.2656 47.0325 17.2656L37.0331 17.266L46.4334 10.5584C46.8335 10.2581 47.0334 9.65742 46.6333 9.15697C46.3332 8.65653 45.7332 8.55631 45.2334 8.95687L33.5334 17.266H1.03307C0.433073 17.266 0.032959 17.6665 0.032959 18.2672C0.032959 28.5789 6.53285 37.6885 16.233 40.9922L12.933 44.2958C12.333 44.8965 12.1331 45.8977 12.4331 46.6985C12.7331 47.4993 13.533 48 14.433 48H33.5327C34.4327 48 35.2326 47.4996 35.5326 46.6985C35.8326 45.8977 35.7324 44.8965 35.0327 44.2958L31.7327 40.9922C41.5332 37.6885 48.033 28.6785 48.033 18.2663L48.0326 18.2669ZM33.7329 45.9979C33.7329 46.0982 33.6328 46.0982 33.533 46.0982H14.4324C14.4324 46.0982 14.3323 46.0982 14.2326 45.9979V45.7978L18.7326 41.2928H29.1323L33.6323 45.7978C33.8322 45.7978 33.8322 45.8977 33.7324 45.9979H33.7329ZM30.8327 39.2904H17.2332C8.43296 36.3873 2.43296 28.4784 2.03267 19.2684H46.0324C45.6326 28.4784 39.6326 36.3874 30.8327 39.2904Z" fill="#EDEFFF"/>
</svg>
