<svg width="49" height="48" viewBox="0 0 49 48" fill="none" xmlns="http://www.w3.org/2000/svg">
<g clip-path="url(#clip0_174_1417)">
<path d="M32.6331 10.5C32.6331 4.6 29.5331 0 25.6331 0C21.7331 0 18.6331 4.6 18.6331 10.5C18.6331 14.7 20.2331 18.5 22.7331 20.1L21.7331 43.9C21.6331 45 22.0331 46 22.8331 46.7C23.5331 47.5 24.5331 47.9 25.6331 47.9C26.7331 47.9 27.7331 47.5 28.4331 46.7C29.1331 45.9 29.5331 44.9 29.5331 43.9L28.5331 20.1C31.0331 18.5 32.6331 14.7 32.6331 10.5ZM27.0331 18.7C26.7331 18.9 26.4331 19.2 26.5331 19.6L27.5331 44C27.5331 44.5 27.3331 45 27.0331 45.4C26.3331 46.1 25.0331 46.1 24.3331 45.4C23.9331 45 23.8331 44.5 23.8331 44L24.8331 19.6C24.8331 19.2 24.6331 18.8 24.3331 18.7C22.2331 17.6 20.7331 14.3 20.7331 10.5C20.7331 5.9 23.0331 2 25.7331 2C28.4331 2 30.7331 5.9 30.7331 10.5C30.6331 14.2 29.1331 17.6 27.0331 18.7Z" fill="#EDEFFF"/>
<path d="M14.933 0C14.333 0 13.933 0.4 13.933 1V11.9H11.333V1C11.333 0.4 10.933 0 10.333 0C9.73296 0 9.33296 0.4 9.33296 1V11.9H6.63296V1C6.63296 0.4 6.23296 0 5.63296 0C5.03296 0 4.63296 0.4 4.63296 1V11.9H2.03296V1C2.03296 0.4 1.63296 0 1.03296 0C0.432959 0 0.032959 0.4 0.032959 1V12.9C0.032959 16.3 2.13296 19.1 5.13296 20.3L4.13296 44C4.03296 45 4.43296 46 5.13296 46.8C5.93296 47.6 6.93296 48 7.93296 48C9.03296 48 10.033 47.6 10.733 46.8C11.433 46 11.833 45 11.833 44L10.833 20.3C13.833 19.1 15.933 16.3 15.933 12.9V1C15.933 0.4 15.433 0 14.933 0ZM9.33296 45.4C8.63296 46.1 7.33296 46.1 6.63296 45.4C6.23296 45 6.13296 44.5 6.13296 44L7.13296 20.7C7.43296 20.7 7.73296 20.8 8.03296 20.8C8.33296 20.8 8.63296 20.8 8.93296 20.7L9.93296 44C9.83296 44.6 9.63296 45.1 9.33296 45.4ZM7.93296 18.8C5.03296 18.8 2.53296 16.7 2.13296 13.9H13.833C13.333 16.6 10.933 18.8 7.93296 18.8Z" fill="#EDEFFF"/>
<path d="M40.233 0.199984C39.933 -1.62125e-05 39.533 -0.100016 39.133 0.0999838C38.833 0.299984 38.533 0.599984 38.533 0.999984V30.3V47C38.533 47.6 38.933 48 39.533 48H44.333C44.933 48 45.333 47.6 45.333 47V31.3H47.033C47.633 31.3 48.033 30.9 48.033 30.3V16.2C48.033 9.89999 45.233 4.09998 40.233 0.199984ZM43.433 46H40.633V31.3H43.433V46ZM46.033 29.3H40.633V3.19998C44.133 6.59998 46.033 11.3 46.033 16.2V29.3Z" fill="#EDEFFF"/>
</g>
<defs>
<clipPath id="clip0_174_1417">
<rect width="48" height="48" fill="white" transform="translate(0.032959)"/>
</clipPath>
</defs>
</svg>
