<svg width="49" height="48" viewBox="0 0 49 48" fill="none" xmlns="http://www.w3.org/2000/svg">
<path d="M48.5801 7.90014C47.1824 4.50002 42.2899 0 39.1953 0C38.3966 0 37.7976 0.300001 37.2981 0.700117C35.8004 2.20012 34.3028 4.90013 33.5041 7.40026C33.1046 8.60026 32.9051 9.60038 32.9051 10.6002C32.6055 10.2 32.306 9.90004 32.0065 9.50026C31.4074 8.70037 30.5088 8.30026 29.6102 8.30026C28.8116 8.30026 28.1125 8.60026 27.5135 9.20026L10.2398 26.5C9.64072 27.1 9.34118 28 9.34118 28.7999C9.44114 29.6999 9.84029 30.4998 10.5393 31.0001C10.9388 31.3001 11.2383 31.6001 11.6375 31.9001C8.14305 32.0999 3.74966 34.3001 1.75288 36.3C1.15382 36.9 0.55475 38.1 1.45335 40.0999C2.8514 43.5 7.7439 48 10.839 48C11.6377 48 12.2367 47.7 12.7362 47.2999C14.2338 45.7999 15.7315 43.0999 16.5302 40.5997C16.9297 39.4999 17.1292 38.3996 17.1292 37.3998C17.4288 37.8 17.7283 38.1 18.0278 38.4997C18.6269 39.2996 19.4255 39.6997 20.4241 39.6997C21.2227 39.6997 21.9218 39.3997 22.5208 38.7997L39.7945 21.4991C40.3936 20.8991 40.6931 19.9991 40.6931 19.0991C40.5931 18.1991 40.194 17.3992 39.395 16.899C38.9955 16.599 38.696 16.299 38.2968 15.999C41.7913 15.7991 46.2843 13.599 48.2816 11.5991C48.8803 10.9994 49.3797 9.89952 48.5808 7.89963L48.5801 7.90014ZM14.6335 39.9C13.9345 42.1999 12.5368 44.5999 11.3386 45.7999C11.2387 45.9 11.0391 46.0001 10.8392 46.0001C8.84242 46.0001 4.549 42.2002 3.35086 39.4001C3.15129 39 2.85175 38.1 3.2509 37.8C5.0481 36 9.34153 33.8999 12.337 33.8999C13.3356 33.8999 14.0343 34.0998 14.5337 34.6001C15.3324 35.3999 15.3324 37.3998 14.6337 39.9L14.6335 39.9ZM21.1233 37.3998C20.7238 37.8 20.0251 37.8 19.6256 37.2997C17.4289 34.2997 14.7331 31.6998 11.7378 29.3996C11.5382 29.1997 11.3383 28.9995 11.3383 28.6995C11.3383 28.3995 11.4383 28.0995 11.6378 27.8996L17.5285 21.9997L23.3196 35.0994L21.1233 37.3998ZM24.9173 33.5999L19.1262 20.5002L25.2168 14.4001L31.0079 27.4998L24.9173 33.5999ZM38.5965 19.3996C38.5965 19.6996 38.4966 19.9996 38.297 20.1995L32.5059 25.9996L26.7148 12.8999L29.0111 10.6C29.2107 10.4001 29.4106 10.3 29.7101 10.3C30.0097 10.3 30.3092 10.4001 30.5088 10.7001C32.8051 13.9 35.4013 16.5002 38.1967 18.5001C38.3966 18.7998 38.5965 19 38.5965 19.3998L38.5965 19.3996ZM46.7836 10.1999C44.9864 11.9999 40.6929 14.0999 37.6974 14.0999C36.6989 14.0999 36.0002 13.9 35.5007 13.3998C34.6021 12.4998 34.6021 10.4999 35.4008 8.09986C36.0998 5.79996 37.4975 3.39996 38.6956 2.19995C38.7959 2.09984 38.9955 1.99973 39.1954 1.99973C41.1922 1.99973 45.4856 5.79963 46.6838 8.59975C46.8833 8.99987 47.1829 9.89987 46.7834 10.1999L46.7836 10.1999Z" fill="#EDEFFF"/>
</svg>
