<svg width="24" height="24" viewBox="0 0 24 24" fill="none" xmlns="http://www.w3.org/2000/svg">
<g clip-path="url(#clip0_1335_5164)">
<path d="M23.6998 6.30001C21.6498 5.50001 19.5998 6.30001 18.4498 6.90001C19.3498 6.20001 20.9498 5.20001 22.7998 5.40001C23.0998 5.45001 23.2998 5.25001 23.3498 4.95001C23.3998 4.70001 23.1998 4.45001 22.8998 4.40001C21.2998 4.20001 19.8998 4.75001 18.8498 5.40001C19.6498 4.65001 20.7498 3.90001 22.1998 3.70001C22.4498 3.65001 22.6498 3.40001 22.6498 3.15001C22.5998 2.90001 22.3498 2.70001 22.0998 2.70001C20.9998 2.85001 20.0998 3.25001 19.3498 3.75001C19.6498 2.95001 19.7998 2.05001 19.6998 1.10001C19.6498 0.850012 19.4498 0.650012 19.1498 0.650012C18.8998 0.700012 18.6998 0.950012 18.6998 1.20001C18.8998 3.05001 17.9498 4.60001 17.2498 5.55001C17.8498 4.40001 18.5998 2.35001 17.8498 0.300012C17.7498 0.0500121 17.4498 -0.0999879 17.1998 1.20737e-05C16.9498 0.100012 16.7998 0.400012 16.8998 0.650012C17.6998 2.80001 16.4498 5.00001 15.9498 5.70001C15.6998 5.60001 15.4498 5.55001 15.1498 5.55001C13.7998 5.55001 12.0998 6.65001 9.64981 9.10001C7.49981 11.25 4.89981 14.45 2.84981 17.55C-0.650189 22.85 -0.0501887 23.5 0.249811 23.75C0.349811 23.95 0.599811 24 0.849811 24C2.74981 24 10.7498 18.55 14.8498 14.45C17.9998 11.3 18.7498 9.55001 18.2498 8.15001C18.8998 7.70001 21.1498 6.40001 23.2998 7.20001C23.5498 7.30001 23.8498 7.15001 23.9498 6.90001C24.0498 6.65001 23.9498 6.40001 23.6998 6.30001ZM14.1498 13.75C10.0498 17.85 2.74981 22.6 0.999811 23C1.29981 21.4 5.79981 14.35 10.2498 9.90001C12.4498 7.70001 13.9998 6.60001 15.0498 6.60001C15.5998 6.60001 15.9998 6.90001 16.5498 7.45001C17.5498 8.45001 18.4998 9.35001 14.1498 13.75Z" fill="#EDEFFF"/>
<path d="M15.3498 9.94999C15.1498 9.74999 14.8498 9.74999 14.6498 9.94999L14.4498 10.15C14.2498 10.35 14.2498 10.65 14.4498 10.85C14.7998 11.1 15.0498 10.95 15.1498 10.85L15.3498 10.65C15.5498 10.5 15.5498 10.15 15.3498 9.94999Z" fill="#EDEFFF"/>
<path d="M14.1496 8.19999C13.9496 7.99999 13.6496 7.99999 13.4496 8.19999L13.2496 8.39999C13.0496 8.59999 13.0496 8.89999 13.2496 9.09999C13.3496 9.19999 13.4996 9.24999 13.5996 9.24999C13.7496 9.24999 13.8496 9.19999 13.9496 9.09999L14.1496 8.89999C14.3496 8.69999 14.3496 8.39999 14.1496 8.19999Z" fill="#EDEFFF"/>
<path d="M12.3002 10.65L12.1002 10.85C11.9002 11.05 11.9002 11.35 12.1002 11.55C12.2002 11.65 12.3502 11.7 12.4502 11.7C12.6002 11.7 12.7002 11.65 12.8002 11.55L13.0002 11.35C13.2002 11.15 13.2002 10.85 13.0002 10.65C12.8002 10.45 12.5002 10.45 12.3002 10.65Z" fill="#EDEFFF"/>
<path d="M9.94961 12.1L9.74961 12.3C9.54961 12.5 9.54961 12.8 9.74961 13C9.84961 13.1 9.99961 13.15 10.0996 13.15C10.2496 13.15 10.3496 13.1 10.4496 13L10.6496 12.8C10.8496 12.6 10.8496 12.3 10.6496 12.1C10.4496 11.9 10.1496 11.9 9.94961 12.1Z" fill="#EDEFFF"/>
<path d="M9.5502 14.95L9.3502 15.15C9.1502 15.35 9.1502 15.65 9.3502 15.85C9.4502 15.95 9.60019 16 9.70019 16C9.85019 16 9.9502 15.95 10.0502 15.85L10.2502 15.65C10.4502 15.45 10.4502 15.15 10.2502 14.95C10.0502 14.75 9.7502 14.75 9.5502 14.95Z" fill="#EDEFFF"/>
<path d="M6.1 17.85L5.9 18.05C5.7 18.25 5.7 18.55 5.9 18.75C6 18.85 6.15 18.9 6.25 18.9C6.4 18.9 6.5 18.85 6.6 18.75L6.8 18.55C7 18.35 7 18.05 6.8 17.85C6.6 17.65 6.3 17.65 6.1 17.85Z" fill="#EDEFFF"/>
<path d="M6.6 15.4L6.4 15.6C6.2 15.8 6.2 16.1 6.4 16.3C6.5 16.4 6.65 16.45 6.75 16.45C6.9 16.45 7 16.4 7.1 16.3L7.3 16.1C7.5 15.9 7.5 15.6 7.3 15.4C7.1 15.2 6.8 15.2 6.6 15.4Z" fill="#EDEFFF"/>
</g>
<defs>
<clipPath id="clip0_1335_5164">
<rect width="24" height="24" fill="white"/>
</clipPath>
</defs>
</svg>
