<svg width="48" height="48" viewBox="0 0 48 48" fill="none" xmlns="http://www.w3.org/2000/svg">
<g clip-path="url(#clip0_174_1415)">
<path d="M22.7 35.5C20.5 35.5 18.7 37.3 18.7 39.5C18.7 41.7 20.5 43.5 22.7 43.5C24.9 43.5 26.7 41.7 26.7 39.5C26.7 37.3 24.9 35.5 22.7 35.5ZM22.7 41.5C21.6 41.5 20.7 40.6 20.7 39.5C20.7 38.4 21.6 37.5 22.7 37.5C23.8 37.5 24.7 38.4 24.7 39.5C24.7 40.6 23.8 41.5 22.7 41.5Z" fill="#EDEFFF"/>
<path d="M20.5 26.3C20.5 24.1 18.7 22.3 16.5 22.3C14.3 22.3 12.5 24.1 12.5 26.3C12.5 28.5 14.3 30.3 16.5 30.3C18.7 30.4 20.5 28.6 20.5 26.3ZM16.5 28.4C15.4 28.4 14.5 27.5 14.5 26.4C14.5 25.3 15.4 24.4 16.5 24.4C17.6 24.4 18.5 25.3 18.5 26.4C18.5 27.4 17.6 28.4 16.5 28.4Z" fill="#EDEFFF"/>
<path d="M26.3999 16.9001C24.1999 16.9001 22.3999 18.7001 22.3999 20.9001C22.3999 23.1001 24.1999 24.9001 26.3999 24.9001C28.5999 24.9001 30.3999 23.1001 30.3999 20.9001C30.4999 18.7001 28.6999 16.9001 26.3999 16.9001ZM26.3999 22.9001C25.2999 22.9001 24.3999 22.0001 24.3999 20.9001C24.3999 19.8001 25.2999 18.9001 26.3999 18.9001C27.4999 18.9001 28.3999 19.8001 28.3999 20.9001C28.4999 22.0001 27.5999 22.9001 26.3999 22.9001Z" fill="#EDEFFF"/>
<path d="M43.4999 11.7001C43.4999 6.70008 39.4999 2.70008 34.4999 2.70008C29.8999 2.70008 25.9999 6.20008 25.4999 10.7001H17.2999L13.9999 4.20008C13.8999 4.00008 13.6999 3.80008 13.4999 3.70008L5.99993 0.100078C5.49993 -0.0999218 4.89993 0.100078 4.69993 0.600078C4.49993 1.10008 4.69993 1.70008 5.19993 1.90008L12.4999 5.40008L15.1999 10.7001H6.09993C5.79993 10.7001 5.49993 10.8001 5.39993 11.0001C5.19993 11.2001 5.09993 11.5001 5.19993 11.8001L9.49993 47.1001C9.59993 47.6001 9.99993 48.0001 10.4999 48.0001H31.1999C31.6999 48.0001 32.0999 47.6001 32.1999 47.1001L35.3999 20.7001C39.8999 20.2001 43.4999 16.4001 43.4999 11.7001ZM30.1999 46.0001H11.2999L7.29993 12.7001H34.2999L30.1999 46.0001ZM35.5999 18.6001L36.3999 11.8001C36.3999 11.5001 36.2999 11.2001 36.1999 11.0001C35.9999 10.8001 35.6999 10.7001 35.4999 10.7001H27.5999C28.0999 7.30008 30.9999 4.70008 34.4999 4.70008C38.3999 4.70008 41.4999 7.80008 41.4999 11.7001C41.4999 15.2001 38.8999 18.1001 35.5999 18.6001Z" fill="#EDEFFF"/>
</g>
<defs>
<clipPath id="clip0_174_1415">
<rect width="48" height="48" fill="white"/>
</clipPath>
</defs>
</svg>
