<svg width="24" height="24" viewBox="0 0 24 24" fill="none" xmlns="http://www.w3.org/2000/svg">
<g clip-path="url(#clip0_1335_5188)">
<path d="M22.1004 12.8C21.2004 11.9 20.1004 11.3 18.9004 11.05C16.0504 10.45 13.6004 9.14999 11.8004 7.34999C11.3504 6.89999 10.7004 6.64999 10.0504 6.64999C9.75039 6.64999 9.45039 6.69999 9.15039 6.79999L6.95039 4.59999L7.00039 4.54999C8.00039 3.49999 8.00039 1.79999 7.00039 0.799988C6.50039 0.299988 5.85039 0.0499878 5.15039 0.0499878C4.45039 0.0499878 3.75039 0.299988 3.25039 0.799988C2.80039 1.24999 2.55039 1.84999 2.50039 2.49999C1.85039 2.54999 1.25039 2.79999 0.750391 3.29999C-0.299609 4.34999 -0.299609 5.99999 0.750391 7.04999C1.25039 7.54999 1.90039 7.79999 2.60039 7.79999C3.30039 7.79999 4.00039 7.49999 4.50039 6.99999L4.55039 6.94999L6.70039 9.09999C6.55039 9.39999 6.45039 9.69999 6.45039 10.05C6.45039 10.65 6.65039 11.15 7.10039 11.55C9.15039 13.6 10.5004 16.05 11.0004 18.75C11.2504 20.1 11.9504 21.3 12.9004 22.25C14.1004 23.4 15.7004 24.05 17.4004 24.05C19.0504 24.05 20.6504 23.45 21.8504 22.35C23.2004 21.1 23.9504 19.45 23.9504 17.65C24.0504 15.75 23.3504 14.05 22.1004 12.8ZM4.85039 5.84999C4.75039 5.74999 4.65039 5.69999 4.50039 5.69999H4.45039C4.30039 5.69999 4.15039 5.79999 4.10039 5.94999C4.00039 6.09999 3.95039 6.19999 3.85039 6.29999C3.25039 6.89999 2.15039 6.89999 1.55039 6.29999C0.85039 5.64999 0.850391 4.59999 1.50039 3.99999C1.90039 3.59999 2.45039 3.44999 2.95039 3.54999C3.10039 3.59999 3.30039 3.54999 3.40039 3.39999C3.50039 3.29999 3.55039 3.09999 3.50039 2.94999C3.40039 2.39999 3.60039 1.84999 3.95039 1.49999C4.55039 0.899988 5.65039 0.899988 6.25039 1.49999C6.90039 2.14999 6.90039 3.19999 6.25039 3.79999C6.15039 3.89999 6.05039 3.99999 5.90039 4.04999C5.75039 4.14999 5.65039 4.24999 5.65039 4.39999C5.65039 4.54999 5.70039 4.69999 5.80039 4.79999L8.25039 7.24999L7.30039 8.19999L4.85039 5.84999ZM21.2004 21.55C20.2004 22.5 18.8504 23 17.4504 23C16.0004 23 14.6504 22.45 13.6004 21.5C12.7504 20.7 12.2004 19.7 11.9504 18.55C11.4004 15.7 9.95039 13.05 7.75039 10.85C7.55039 10.65 7.40039 10.35 7.40039 10.05C7.40039 9.74999 7.50039 9.44999 7.75039 9.24999L9.00039 7.99999C9.30039 7.69999 9.65039 7.54999 10.0504 7.54999C10.4504 7.54999 10.8004 7.69999 11.1004 7.99999C13.0504 9.94999 15.6504 11.35 18.7004 12C19.7504 12.25 20.6504 12.75 21.4004 13.5C22.5004 14.6 23.0504 16 23.0504 17.55C22.9504 19.1 22.3504 20.5 21.2004 21.55Z" fill="#EDEFFF"/>
<path d="M20.6005 14.25C20.0005 13.65 19.2505 13.25 18.4005 13.05C18.1505 13 17.8505 13.15 17.8005 13.45C17.7505 13.7 17.9005 14 18.2005 14.05C18.8505 14.2 19.4505 14.5 19.9005 15C20.5505 15.65 20.9005 16.55 20.9005 17.45C20.9005 18.4 20.5505 19.25 19.9005 19.9C19.7005 20.1 19.7005 20.4 19.9005 20.6C20.0005 20.7 20.1505 20.75 20.2505 20.75C20.4005 20.75 20.5005 20.7 20.6005 20.6C21.4505 19.75 21.9005 18.6 21.9005 17.4C21.9505 16.25 21.4505 15.1 20.6005 14.25Z" fill="#EDEFFF"/>
</g>
<defs>
<clipPath id="clip0_1335_5188">
<rect width="24" height="24" fill="white"/>
</clipPath>
</defs>
</svg>
