<svg width="48" height="48" viewBox="0 0 48 48" fill="none" xmlns="http://www.w3.org/2000/svg">
<path d="M47.4018 34.0997C44.7085 32.4995 41.7159 31.3997 38.424 30.9995C38.5239 22.1992 35.6308 14.3992 30.2441 8.79946C24.7576 2.99967 17.0767 0 7.99889 0C5.90407 0 3.60986 0.199886 1.41517 0.499888C0.91652 0.600002 0.617261 0.900003 0.517393 1.39989C0.318001 3.10013 0.1186 4.90013 0.0187412 6.60002V6.70014C-0.0811261 9.90004 0.218134 13.0002 0.91652 16.0002V16.1003C2.01369 20.8002 4.00898 25 7.00158 28.4998C12.5877 35.0998 21.0668 38.5995 30.8423 38.5001C31.341 41.8001 32.3386 44.8001 33.9348 47.5001C34.1342 47.8001 34.4334 48 34.8326 48H34.9324C35.3316 48 35.6308 47.8001 35.8302 47.4C38.1244 42.4999 42.1147 38.5003 46.9028 36L47.4015 35.8001C47.7007 35.6002 47.9001 35.3002 48 34.9001C47.9001 34.6001 47.7007 34.3001 47.4015 34.0998L47.4018 34.0997ZM7.99872 1.99955C10.9913 1.99955 13.7845 2.39967 16.378 2.99967C16.1786 6.09979 14.8817 8.89958 12.687 11.0997C9.99367 13.7997 6.40255 15.0998 2.61221 14.7998C2.21342 12.4996 2.01369 10.0996 2.01369 7.69957H5.00629C5.60481 7.69957 6.00394 7.29946 6.00394 6.69945C6.00394 6.09945 5.60481 5.69934 5.00629 5.69934L2.11356 5.69967C2.21343 4.59978 2.31295 3.49955 2.41282 2.39966C4.30824 2.09966 6.20333 1.99954 7.99889 1.99954L7.99872 1.99955ZM34.8329 44.8997C33.7357 42.5998 33.0374 40.1998 32.7381 37.4998C32.6382 36.9999 32.2394 36.5998 31.7404 36.5998C22.1641 36.8998 13.8849 33.5998 8.59741 27.2998C6.00394 24.2997 4.20838 20.7998 3.21073 16.9H3.80925C7.69963 16.9 11.3906 15.4 14.1833 12.5999C16.5774 10.1999 18.0737 6.99997 18.3729 3.70013C22.4631 4.9999 26.0542 7.20003 28.9471 10.2C34.1344 15.6001 36.8277 23.1001 36.5284 31.8001C36.5284 32.3 36.9276 32.8002 37.4262 32.8002C40.1195 33.1002 42.6135 33.8003 44.8078 34.9002C40.6182 37.3002 37.127 40.7 34.8331 44.8997H34.8329Z" fill="#EDEFFF"/>
<path d="M21.7646 11.3998L22.6624 10.4998C23.0615 10.0997 23.0615 9.49966 22.6624 9.09989C22.2633 8.69978 21.6648 8.69978 21.266 9.09989L20.2683 9.99989C19.8692 10.4 19.8692 11 20.2683 11.3998C20.4677 11.5997 20.767 11.6998 20.9667 11.6998C21.1661 11.6998 21.5652 11.5997 21.7646 11.3998Z" fill="#EDEFFF"/>
<path d="M16.0788 16.9996L16.9766 16.0996C17.3757 15.6995 17.3757 15.0995 16.9766 14.6997C16.5775 14.2996 15.979 14.2996 15.5802 14.6997L14.6824 15.5997C14.2833 15.9999 14.2833 16.5999 14.6824 16.9996C14.8818 17.1995 15.1811 17.2996 15.3808 17.2996C15.68 17.2996 15.8794 17.1999 16.0788 16.9996H16.0788Z" fill="#EDEFFF"/>
<path d="M9.99424 20.2997L9.09646 21.1997C8.69734 21.5998 8.69734 22.1998 9.09646 22.5996C9.29586 22.7995 9.59512 22.8996 9.79485 22.8996C10.0941 22.8996 10.2935 22.7995 10.4932 22.5996L11.391 21.6996C11.7901 21.2995 11.7901 20.6995 11.391 20.2997C10.9916 19.9997 10.2935 19.9997 9.99424 20.2997V20.2997Z" fill="#EDEFFF"/>
<path d="M30.0447 17.8997C30.4439 17.4996 30.4439 16.8996 30.0447 16.4998C29.6456 16.0997 29.0471 16.0997 28.6483 16.4998L27.7505 17.3998C27.3514 17.7999 27.3514 18.3999 27.7505 18.7997C27.9499 18.9996 28.2492 19.0997 28.4489 19.0997C28.7482 19.0997 28.9476 18.9996 29.1473 18.7997L30.0447 17.8997Z" fill="#EDEFFF"/>
<path d="M24.3588 23.5996C24.7579 23.1995 24.7579 22.5995 24.3588 22.1997C23.9597 21.7996 23.3611 21.7996 22.9624 22.1997L22.0642 22.9996C21.6651 23.3997 21.6651 23.9998 22.0642 24.3995C22.2636 24.5994 22.5629 24.6995 22.7626 24.6995C23.0619 24.6995 23.2613 24.5994 23.461 24.3995L24.3588 23.5996Z" fill="#EDEFFF"/>
<path d="M17.3758 27.7996L16.4781 28.6996C16.0789 29.0997 16.0789 29.6997 16.4781 30.0995C16.6774 30.2994 16.9767 30.3995 17.1764 30.3995C17.4757 30.3995 17.6751 30.2994 17.8748 30.0995L18.7726 29.1995C19.1717 28.7994 19.1717 28.1994 18.7726 27.7996C18.3735 27.3998 17.775 27.3998 17.3758 27.7996Z" fill="#EDEFFF"/>
<path d="M23.3609 16.9002C23.76 16.5001 23.76 15.9001 23.3609 15.5003C22.9618 15.1002 22.3632 15.1002 21.9645 15.5003L21.0667 16.4003C20.6676 16.8004 20.6676 17.4004 21.0667 17.8002C21.2661 18.0001 21.5653 18.1002 21.7651 18.1002C21.9645 18.1002 22.2637 18.0001 22.4635 17.8002L23.3609 16.9002Z" fill="#EDEFFF"/>
<path d="M17.7751 22.5C18.1742 22.0999 18.1742 21.4999 17.7751 21.1001C17.3759 20.7 16.7774 20.7 16.3786 21.1001L15.4805 22.0001C15.0814 22.4003 15.0814 23.0003 15.4805 23.4C15.6799 23.5999 15.9792 23.7 16.1789 23.7C16.4781 23.7 16.6775 23.5999 16.8773 23.4L17.7751 22.5Z" fill="#EDEFFF"/>
<path d="M29.7455 23.2996L28.8477 24.1996C28.4486 24.5997 28.4486 25.1997 28.8477 25.5995C29.0471 25.7994 29.3463 25.8995 29.5461 25.8995C29.8453 25.8995 30.0447 25.7994 30.2445 25.5995L31.1422 24.6995C31.5414 24.2994 31.5414 23.6994 31.1422 23.2996C30.8426 22.8998 30.1442 22.8998 29.7455 23.2996Z" fill="#EDEFFF"/>
<path d="M24.1588 28.9995L23.261 29.8995C22.8619 30.2997 22.8619 30.8997 23.261 31.2994C23.4604 31.4993 23.7597 31.5994 23.9594 31.5994C24.2587 31.5994 24.4581 31.4993 24.6578 31.2994L25.5556 30.3994C25.9547 29.9993 25.9547 29.3993 25.5556 28.9995C25.1564 28.5998 24.5579 28.5998 24.1588 28.9995Z" fill="#EDEFFF"/>
<path d="M10.692 6.10009H11.9889C12.5874 6.10009 12.9865 5.69997 12.9865 5.09997C12.9865 4.49997 12.5874 4.09985 11.9889 4.09985H10.692C10.0935 4.09985 9.69434 4.49997 9.69434 5.09997C9.69467 5.69997 10.1933 6.10009 10.692 6.10009Z" fill="#EDEFFF"/>
</svg>
