<svg width="48" height="48" viewBox="0 0 48 48" fill="none" xmlns="http://www.w3.org/2000/svg">
<path d="M45.3615 2.71697C43.5591 0.905657 41.1558 0 38.3519 0C34.7471 0 30.9421 1.61017 28.0378 4.52829C26.5358 3.72337 24.8336 3.32074 23.0312 3.32074C19.3261 3.32074 15.4209 5.03131 12.5171 8.05017C9.91373 10.6664 8.31147 13.8867 7.91082 17.2077C7.51016 20.6291 8.41137 23.648 10.5142 25.7612C10.5142 25.7612 10.7143 26.0631 10.5142 27.2706C10.0136 29.9876 8.71178 32.6038 6.60895 34.6166L0.300489 40.9562C-0.100163 41.3589 -0.100163 41.9626 0.300489 42.3649L5.6075 47.6981C5.80765 47.8993 6.00815 48 6.30855 48C6.60895 48 6.80911 47.8993 7.00961 47.6981L13.3181 41.3585C15.4209 39.2453 17.9244 37.937 20.628 37.434C21.0286 37.3333 21.429 37.3333 21.6295 37.3333C21.9299 37.3333 22.0301 37.434 22.0301 37.434C23.8325 39.2453 26.2358 40.151 29.0396 40.151C32.7447 40.151 36.65 38.4404 39.5537 35.4215C43.9595 30.994 45.4616 24.9565 43.3587 20.4282C45.8622 17.8119 47.4641 14.6923 47.8648 11.3716C48.3653 7.84937 47.4641 4.83052 45.3613 2.71697H45.3615ZM45.9623 10.9686C45.6619 13.7863 44.1599 16.6037 41.9568 18.9184C41.8565 19.0191 41.7566 19.1195 41.7566 19.1195L41.5565 19.3207C41.2561 19.6226 41.1558 20.1256 41.3563 20.5282C43.4591 24.2516 42.1573 29.8867 38.252 33.8112C35.6487 36.4274 32.3442 37.9369 29.1395 37.9369C26.9365 37.9369 24.9339 37.2323 23.5321 35.8237C23.1315 35.421 22.5307 35.2199 21.6295 35.2199C21.2288 35.2199 20.8285 35.2199 20.2277 35.3206C17.1234 35.9244 14.2196 37.4338 11.8164 39.7482L6.20899 45.3833L2.30375 41.4587L8.01106 35.8237C10.314 33.5093 11.9163 30.5909 12.4169 27.3709C12.617 26.2641 12.7173 24.9558 11.9163 24.1509C10.2141 22.4403 9.51308 20.0252 9.81348 17.3082C10.1139 14.4905 11.6159 11.6731 13.819 9.35846C16.5226 6.74223 19.827 5.2328 23.031 5.2328C24.7332 5.2328 26.3355 5.73583 27.6373 6.54109C28.038 6.84297 28.6388 6.74223 28.9392 6.44034L29.0391 6.23886C29.0391 6.13812 29.1394 6.13812 29.2393 6.03772C31.8427 3.42149 35.1471 1.91207 38.3518 1.91207C40.5549 1.91207 42.5574 2.61658 43.9592 4.12601C45.5615 5.83658 46.3628 8.25167 45.9621 10.9686L45.9623 10.9686Z" fill="#EDEFFF"/>
<path d="M36.8498 9.35854L31.1421 15.0944C30.2409 13.8868 29.7404 12.4781 29.7404 10.9687C29.7404 10.3649 29.3397 9.96231 28.7389 9.96231C28.1381 9.96231 27.7374 10.3649 27.7374 10.9687C27.7374 13.0819 28.4385 14.994 29.74 16.6038L26.3353 20.0253C25.4341 18.8177 24.9336 17.4091 24.9336 15.8996C24.9336 15.2959 24.5329 14.8932 23.9321 14.8932C23.3313 14.8932 22.9307 15.2959 22.9307 15.8996C22.9307 18.0128 23.6317 19.9249 24.9332 21.5347L21.5285 24.9562C20.6273 23.7487 20.1268 22.34 20.1268 20.8305C20.1268 20.2268 19.7261 19.8241 19.1253 19.8241C18.5245 19.8241 18.1239 20.2268 18.1239 20.8305C18.1239 22.9437 18.8249 24.8558 20.1264 26.4656L10.3144 35.9241C9.91375 36.3268 9.91375 36.9305 10.3144 37.3328C10.5146 37.534 10.815 37.6347 11.0155 37.6347C11.3159 37.6347 11.516 37.534 11.7165 37.3328L21.4298 27.5716C22.9319 28.7791 24.9344 29.584 27.0372 29.584C27.6381 29.584 28.0387 29.1814 28.0387 28.5776C28.0387 27.9739 27.6381 27.5712 27.0372 27.5712C25.435 27.5712 24.0332 27.0682 22.9319 26.1625L26.3365 22.741C27.8386 23.9486 29.8411 24.7535 31.9439 24.7535C32.5448 24.7535 32.9454 24.3509 32.9454 23.7471C32.9454 23.1433 32.5448 22.7407 31.9439 22.7407C30.3417 22.7407 28.9399 22.2377 27.8386 21.332L31.2432 17.9105C32.7453 19.1181 34.7478 19.923 36.8506 19.923C37.4515 19.923 37.8521 19.5204 37.8521 18.9166C37.8521 18.3128 37.4515 17.9102 36.8506 17.9102C35.2484 17.9102 33.8466 17.4072 32.7453 16.5015L38.4529 10.7657C38.8536 10.363 38.8536 9.75927 38.4529 9.35699C37.8514 8.95538 37.2506 8.95538 36.85 9.358L36.8498 9.35854Z" fill="#EDEFFF"/>
</svg>
