<svg width="24" height="24" viewBox="0 0 24 24" fill="none" xmlns="http://www.w3.org/2000/svg">
<g clip-path="url(#clip0_1335_1671)">
<path d="M8.35039 3.45H8.50039C8.80039 3.45 9.00039 3.25 9.00039 2.95V0.5C9.00039 0.2 8.80039 0 8.50039 0H2.65039C2.35039 0 2.15039 0.2 2.15039 0.5V2.95C2.15039 3.25 2.35039 3.45 2.65039 3.45H2.80039C2.80039 4.65 2.45039 5.85 1.80039 6.9C1.05039 8.15 0.650391 9.55 0.650391 10.95V22.05C0.650391 23.1 1.50039 24 2.60039 24H8.55039C9.60039 24 10.5004 23.15 10.5004 22.05V10.95C10.5004 9.5 10.1004 8.1 9.35039 6.9C8.70039 5.85 8.35039 4.7 8.35039 3.45ZM3.15039 1H8.00039V2.45H7.85039H3.35039H3.15039V1ZM9.50039 16.7C9.25039 16.95 8.75039 16.95 8.50039 16.7C7.85039 16.05 6.75039 16.05 6.10039 16.7C5.85039 16.95 5.35039 16.95 5.10039 16.7C4.45039 16.05 3.35039 16.05 2.70039 16.7C2.45039 16.95 2.00039 16.95 1.70039 16.7V12.2C2.30039 12.4 2.95039 12.25 3.40039 11.8C3.65039 11.55 4.15039 11.55 4.40039 11.8C5.05039 12.45 6.15039 12.45 6.80039 11.8C7.05039 11.55 7.50039 11.55 7.80039 11.8C8.10039 12.1 8.55039 12.3 9.00039 12.3C9.15039 12.3 9.35039 12.25 9.50039 12.2V16.7ZM8.55039 23H2.60039C2.10039 23 1.65039 22.6 1.65039 22.05V17.8C2.25039 18 2.90039 17.85 3.35039 17.4C3.60039 17.15 4.10039 17.15 4.35039 17.4C5.00039 18.05 6.10039 18.05 6.75039 17.4C7.00039 17.15 7.45039 17.15 7.75039 17.4C8.05039 17.7 8.50039 17.9 8.95039 17.9C9.10039 17.9 9.30039 17.85 9.45039 17.8V22.05C9.50039 22.6 9.05039 23 8.55039 23ZM9.50039 11.05C9.25039 11.3 8.75039 11.3 8.50039 11.05C7.85039 10.4 6.75039 10.4 6.10039 11.05C5.85039 11.3 5.35039 11.3 5.10039 11.05C4.45039 10.4 3.35039 10.4 2.70039 11.05C2.45039 11.3 2.00039 11.3 1.70039 11.05V10.95C1.70039 9.7 2.05039 8.45 2.70039 7.4C3.45039 6.2 3.85039 4.85 3.85039 3.45H7.35039C7.35039 4.85 7.75039 6.2 8.50039 7.4C9.15039 8.45 9.50039 9.7 9.50039 10.95V11.05Z" fill="#EDEFFF"/>
<path d="M23.2009 8.55002C23.1009 8.45002 22.9509 8.40002 22.8009 8.40002H11.5509C11.4009 8.40002 11.2509 8.45002 11.1509 8.55002C11.0509 8.65002 11.0009 8.80002 11.0509 8.95002L13.2009 23.55C13.2509 23.8 13.4509 24 13.7009 24H20.7009C20.9509 24 21.1509 23.8 21.2009 23.55L23.3509 8.95002C23.3509 8.80002 23.3009 8.65002 23.2009 8.55002ZM14.1009 23L13.9009 21.75H20.4009L20.2509 23H14.1009ZM20.6009 20.75H13.8009L12.1509 9.40002H22.2509L20.6009 20.75Z" fill="#EDEFFF"/>
</g>
<defs>
<clipPath id="clip0_1335_1671">
<rect width="24" height="24" fill="white"/>
</clipPath>
</defs>
</svg>
