<svg width="50" height="48" viewBox="0 0 50 48" fill="none" xmlns="http://www.w3.org/2000/svg">
<path d="M49.0136 35.5054C44.7152 17.9118 31.121 4.31777 13.5274 0.0191909C13.0277 -0.0808837 12.428 0.218997 12.3279 0.719028L11.1284 5.51713L1.03265 46.8005C0.932576 47.1004 1.03265 47.5003 1.33253 47.7001C1.53234 47.8999 1.73249 48 2.03237 48H2.23217L48.2142 36.7048C48.814 36.6047 49.1139 36.0049 49.0138 35.5052L49.0136 35.5054ZM12.8283 7.0167C27.1223 10.9152 38.1177 21.9105 42.0161 36.2046L3.4317 45.6011L12.8283 7.0167ZM43.9156 35.705C39.9171 20.711 28.3218 9.11587 13.3278 5.11717L14.0276 2.21843C30.1209 6.5165 42.5163 18.9115 46.814 35.0049L43.9156 35.705Z" fill="#EDEFFF"/>
<path d="M13.6275 34.4053C11.8283 34.4053 10.3289 35.9047 10.3289 37.704C10.3289 39.5033 11.8283 41.0027 13.6275 41.0027C15.4268 41.0027 16.9262 39.5033 16.9262 37.704C16.9262 35.9047 15.4268 34.4053 13.6275 34.4053ZM13.6275 39.1036C12.9277 39.1036 12.328 38.5039 12.328 37.804C12.328 37.1042 12.9277 36.5044 13.6275 36.5044C14.3274 36.5044 14.9271 37.1042 14.9271 37.804C14.9271 38.5039 14.3274 39.1036 13.6275 39.1036Z" fill="#EDEFFF"/>
<path d="M26.2228 26.509C24.4235 26.509 22.9241 28.0084 22.9241 29.8077C22.9241 31.607 24.4235 33.1064 26.2228 33.1064C28.0221 33.1064 29.5215 31.607 29.5215 29.8077C29.5215 28.0084 28.0221 26.509 26.2228 26.509ZM26.2228 31.2071C25.5229 31.2071 24.9232 30.6073 24.9232 29.9075C24.9232 29.2076 25.5229 28.6079 26.2228 28.6079C26.9226 28.6079 27.5224 29.2076 27.5224 29.9075C27.5224 30.6073 26.9226 31.2071 26.2228 31.2071Z" fill="#EDEFFF"/>
<path d="M17.6263 12.1147C15.827 12.1147 14.3276 13.6142 14.3276 15.4134C14.3276 17.2127 15.827 18.7121 17.6263 18.7121C19.4256 18.7121 20.925 17.2127 20.925 15.4134C20.925 13.6142 19.4256 12.1147 17.6263 12.1147ZM17.6263 16.8128C16.9265 16.8128 16.3267 16.213 16.3267 15.5132C16.3267 14.8133 16.9265 14.2136 17.6263 14.2136C18.3262 14.2136 18.9259 14.8133 18.9259 15.5132C18.9256 16.213 18.3258 16.8128 17.6263 16.8128Z" fill="#EDEFFF"/>
<path d="M36.9182 33.1062L34.5191 30.7072C34.1192 30.3072 33.5194 30.3072 33.1198 30.7072C32.7198 31.1071 32.7198 31.7069 33.1198 32.1065L35.5188 34.5056C35.7186 34.7054 36.0185 34.8055 36.2187 34.8055C36.5186 34.8055 36.7184 34.7054 36.9185 34.5056C37.3181 34.1056 37.3181 33.5059 36.9182 33.1062H36.9182Z" fill="#EDEFFF"/>
<path d="M14.1271 29.4074C14.3269 29.6072 14.6268 29.7073 14.827 29.7073C15.1269 29.7073 15.3267 29.6072 15.5268 29.4074C15.9268 29.0075 15.9268 28.4077 15.5268 28.0081L13.1278 25.609C12.7278 25.2091 12.128 25.2091 11.7284 25.609C11.3285 26.009 11.3285 26.6088 11.7284 27.0084L14.1271 29.4074Z" fill="#EDEFFF"/>
<path d="M26.7221 22.9104C26.9219 23.1102 27.2218 23.2102 27.4219 23.2102C27.7218 23.2102 27.9216 23.1102 28.1218 22.9104C28.5217 22.5104 28.5217 21.9106 28.1218 21.511L25.7227 19.112C25.3228 18.712 24.723 18.712 24.3234 19.112C23.9234 19.5119 23.9234 20.1117 24.3234 20.5113L26.7221 22.9104Z" fill="#EDEFFF"/>
</svg>
