<svg width="49" height="48" viewBox="0 0 49 48" fill="none" xmlns="http://www.w3.org/2000/svg">
<path d="M18.1663 18.1333C18.1663 16.9664 18.7068 15.8472 19.6689 15.0221C20.631 14.1969 21.9359 13.7333 23.2965 13.7333H24.7623C26.1229 13.7333 27.4278 14.1969 28.39 15.0221C29.3521 15.8472 29.8926 16.9664 29.8926 18.1333C29.9465 19.0856 29.6898 20.0296 29.1611 20.8232C28.6324 21.6168 27.8602 22.2169 26.961 22.5333C26.0618 22.9552 25.2896 23.7554 24.7609 24.8136C24.2322 25.8717 23.9755 27.1303 24.0294 28.4M24.033 34.2667V34.2911M46.033 24C46.033 36.1503 36.1832 46 24.033 46C11.8827 46 2.03296 36.1503 2.03296 24C2.03296 11.8497 11.8827 2 24.033 2C36.1832 2 46.033 11.8497 46.033 24Z" stroke="#EDEFFF" stroke-width="2" stroke-linecap="round" stroke-linejoin="round"/>
</svg>
