<svg width="49" height="48" viewBox="0 0 49 48" fill="none" xmlns="http://www.w3.org/2000/svg">
<path d="M16.2952 38.7C15.6952 38.7 15.2952 39.1 15.2952 39.7V41C15.2952 41.6 15.6952 42 16.2952 42C16.8952 42 17.2952 41.6 17.2952 41V39.7C17.2952 39.2 16.7952 38.7 16.2952 38.7Z" fill="#EDEFFF"/>
<path d="M22.0952 38.7C21.4952 38.7 21.0952 39.1 21.0952 39.7V41C21.0952 41.6 21.4952 42 22.0952 42C22.6952 42 23.0952 41.6 23.0952 41V39.7C23.0952 39.2 22.5952 38.7 22.0952 38.7Z" fill="#EDEFFF"/>
<path d="M27.8953 38.7C27.2953 38.7 26.8953 39.1 26.8953 39.7V41C26.8953 41.6 27.2953 42 27.8953 42C28.4953 42 28.8953 41.6 28.8953 41V39.7C28.8953 39.2 28.4953 38.7 27.8953 38.7Z" fill="#EDEFFF"/>
<path d="M33.6953 38.7C33.0953 38.7 32.6953 39.1 32.6953 39.7V41C32.6953 41.6 33.0953 42 33.6953 42C34.2953 42 34.6953 41.6 34.6953 41V39.7C34.6953 39.2 34.2953 38.7 33.6953 38.7Z" fill="#EDEFFF"/>
<path d="M39.4952 35.7L40.9952 11.3C40.9952 11.3 40.9952 9.9 39.4952 10.4L38.2952 11V1C38.2952 0.4 37.8952 0 37.2952 0H11.8952C11.2952 0 10.8952 0.4 10.8952 1V13.7V26.1L9.49521 26.9C9.09521 27.1 8.89521 27.5 8.99521 27.9C8.99521 28 8.99521 28 8.99521 28.1L10.0952 35.8C10.4952 39.5 10.0952 43.2 8.99521 46.7C8.99521 47 8.99521 47.3 9.19521 47.6C9.39521 47.9 9.69521 48 9.99521 48H39.9952C40.2952 48 40.5952 47.8 40.7952 47.6C40.9952 47.3 40.9952 47 40.8952 46.7C39.7952 43.1 39.2952 39.5 39.4952 35.7ZM25.5952 2H36.2952V12.1L35.1952 12.7H25.5952V2ZM37.2952 13.9L27.5952 30.7L12.9952 27.4L37.2952 13.9ZM25.5952 14.7H31.5952L25.5952 18V14.7ZM12.8952 2H23.5952V12.7H12.8952V2ZM12.8952 14.7H23.5952V19.1L12.8952 25V14.7ZM38.5952 46H11.3952C12.2952 42.6 12.5952 39.1 12.1952 35.6L11.1952 29L27.8952 32.8C27.9952 32.8 27.9952 32.8 28.0952 32.8C28.4952 32.8 28.7952 32.6 28.9952 32.3L38.6952 15.4L37.4952 35.6C37.3952 39.1 37.6952 42.6 38.5952 46Z" fill="#EDEFFF"/>
</svg>
