<svg width="49" height="49" viewBox="0 0 49 49" fill="none" xmlns="http://www.w3.org/2000/svg">
<path d="M39.4331 15.0024C39.4331 10.4023 38.5331 5.40248 37.0331 0.702795C36.933 0.302683 36.5329 0.00268555 36.033 0.00268555H12.0331C11.633 0.00268555 11.2333 0.302683 11.1332 0.702795C9.53305 5.40265 8.63306 10.4022 8.63306 15.0024C8.63306 26.4023 14.033 33.3023 23.033 33.802V46.0025H17.7331C17.1331 46.0025 16.733 46.4026 16.733 47.0026C16.733 47.6026 17.1331 48.0027 17.7331 48.0027H30.333C30.933 48.0027 31.3331 47.6026 31.3331 47.0026C31.3331 46.4026 30.933 46.0025 30.333 46.0025H25.0332V33.802C34.0331 33.3021 39.4331 26.4022 39.4331 15.0024ZM10.6333 15.0024C10.6333 10.9026 11.3334 6.30247 12.7333 2.00221H35.3334C36.6335 6.3023 37.4334 10.9019 37.4334 15.0024C37.4334 25.6026 32.4335 31.9026 24.0337 31.9026C15.6335 31.9026 10.6333 25.6026 10.6333 15.0024Z" fill="#EDEFFF"/>
<path d="M18.1333 11.2028C17.9334 11.0029 17.7332 10.9028 17.4332 10.9028C17.1332 10.9028 16.9333 11.0029 16.7331 11.2028L13.9333 14.0026C13.7334 14.2025 13.6333 14.4027 13.6333 14.7027C13.6333 15.0027 13.7334 15.2026 13.9333 15.4028L16.7334 18.2029C16.9333 18.4028 17.2333 18.5029 17.4335 18.5029C17.7335 18.5029 17.9334 18.4028 18.1336 18.2029L20.9337 15.4028C21.3338 15.0027 21.3338 14.4027 20.9337 14.0029L18.1333 11.2028ZM17.4332 16.0028L16.1331 14.7027L17.4332 13.4026L18.7333 14.7027L17.4332 16.0028Z" fill="#EDEFFF"/>
<path d="M26.4328 27.0025C26.7328 27.0025 26.9327 26.9024 27.1329 26.7025L29.933 23.9024C30.3332 23.5023 30.3332 22.9023 29.933 22.5025L27.1329 19.7024C26.7328 19.3023 26.1328 19.3023 25.7331 19.7024L23.0327 22.5025C22.6326 22.9026 22.6326 23.5026 23.0327 23.9024L25.8328 26.7025C25.933 26.9024 26.233 27.0025 26.4328 27.0025ZM26.4328 21.9025L27.7329 23.2026L26.4328 24.5027L25.1327 23.2026L26.4328 21.9025Z" fill="#EDEFFF"/>
<path d="M26.6326 12.6024C26.8324 12.8023 27.1324 12.9024 27.3327 12.9024C27.6327 12.9024 27.8325 12.8023 28.0328 12.6024L30.8329 9.80228C30.9326 9.7025 31.0327 9.40251 31.0327 9.20229C31.0327 8.90229 30.9326 8.70241 30.7327 8.50218L28.0328 5.70243C27.6327 5.30232 27.0327 5.30232 26.6329 5.70243L23.8328 8.50252C23.4327 8.90263 23.4327 9.50263 23.8328 9.9024L26.6326 12.6024ZM27.3327 7.80241L28.6328 9.10252L27.3327 10.4026L26.0326 9.10252L27.3327 7.80241Z" fill="#EDEFFF"/>
</svg>
