<svg width="25" height="24" viewBox="0 0 25 24" fill="none" xmlns="http://www.w3.org/2000/svg">
<path fill-rule="evenodd" clip-rule="evenodd" d="M0 12.1086C0 5.42287 5.42283 0 12.1086 0C18.7944 0 24.2172 5.42287 24.2915 12.1086C24.2915 17.4572 20.8743 21.9886 16.0457 23.6229C15.4515 23.6972 15.2286 23.3258 15.2286 23.0286V19.6858C15.2286 18.5715 14.8572 17.8286 14.4115 17.4572C17.0858 17.1601 19.9086 16.1943 19.9086 11.5143C19.9086 10.1772 19.3886 9.06288 18.6458 8.24574C18.6516 8.2224 18.6598 8.1931 18.6695 8.15813C18.7832 7.74789 19.1132 6.55736 18.4972 5.05144C18.4972 5.05144 17.4572 4.7543 15.1543 6.31431C14.1886 6.09145 13.1486 5.94287 12.1086 5.94287C11.0686 5.94287 10.0286 6.01716 9.06289 6.31431C6.75998 4.7543 5.72001 5.05144 5.72001 5.05144C5.06348 6.65634 5.48149 7.90306 5.56711 8.15843L5.57147 8.17145C4.75426 9.06288 4.30854 10.1029 4.30854 11.44C4.30854 16.12 7.13148 17.1601 9.80578 17.4572C9.5086 17.7543 9.1372 18.2743 9.06289 19.0915C8.39431 19.3886 6.68576 19.9086 5.57147 18.0515C5.57147 18.0515 4.90289 16.8629 3.71428 16.7886C3.71428 16.7886 2.52576 16.7886 3.64006 17.5315C3.64006 17.5315 4.45717 17.9029 4.97711 19.3143C4.97711 19.3143 5.72001 21.6915 9.06289 20.9486V23.0286C9.06289 23.3258 8.84003 23.6972 8.24577 23.6229C3.49142 21.9886 0 17.4572 0 12.1086Z" fill="#EDEFFF"/>
</svg>
