<svg width="392" height="309" viewBox="0 0 392 309" fill="none" xmlns="http://www.w3.org/2000/svg">
<g opacity="0.5" filter="url(#filter0_d_1479_36715)">
<path d="M70.8553 44.9979C70.9358 42.2376 73.2386 40.0652 75.9989 40.1457L315.897 47.14C318.657 47.2205 320.83 49.5233 320.749 52.2836L319.846 83.2704C319.765 86.0307 317.462 88.2031 314.702 88.1226L74.804 81.1283C72.0438 81.0478 69.8714 78.745 69.9519 75.9847L70.8553 44.9979Z" fill="#23242D"/>
</g>
<path d="M85.3111 63.3652L82.153 63.273L81.5864 64.7686L79.9165 64.7199L82.9996 56.8626L84.8512 56.9166L87.4708 64.9404L85.7895 64.8913L85.3111 63.3652ZM84.9165 62.0803L83.866 58.7297L82.6218 62.0133L84.9165 62.0803Z" fill="#EDEFFF"/>
<path d="M90.3723 56.6116L90.1269 65.0179L88.5366 64.9715L88.7819 56.5652L90.3723 56.6116Z" fill="#EDEFFF"/>
<path d="M93.534 56.7039L93.2886 65.1101L91.6982 65.0637L91.9436 56.6575L93.534 56.7039Z" fill="#EDEFFF"/>
<path d="M99.3143 59.8969C99.5271 59.615 99.8143 59.3847 100.176 59.2057C100.545 59.0194 100.961 58.933 101.423 58.9465C101.96 58.9622 102.441 59.1089 102.865 59.3865C103.297 59.6644 103.63 60.0531 103.866 60.5527C104.109 61.0449 104.221 61.6128 104.203 62.2566C104.184 62.9003 104.038 63.4683 103.766 63.9606C103.502 64.4456 103.146 64.818 102.699 65.0778C102.259 65.3378 101.771 65.46 101.233 65.4443C100.771 65.4308 100.365 65.3242 100.014 65.1245C99.6716 64.925 99.3945 64.6782 99.1833 64.384L99.0696 68.2804L97.4792 68.234L97.7504 58.9417L99.3408 58.9881L99.3143 59.8969ZM102.578 62.2092C102.589 61.8305 102.519 61.5025 102.368 61.2253C102.225 60.9406 102.026 60.7226 101.773 60.5712C101.527 60.42 101.257 60.3401 100.962 60.3315C100.674 60.3231 100.399 60.3909 100.137 60.5348C99.8829 60.6714 99.6722 60.8775 99.505 61.1531C99.3454 61.4289 99.26 61.7561 99.249 62.1347C99.2379 62.5134 99.304 62.845 99.4473 63.1297C99.5982 63.4145 99.7963 63.6363 100.042 63.7951C100.295 63.9465 100.566 64.0264 100.853 64.0348C101.149 64.0434 101.424 63.9756 101.678 63.8315C101.94 63.6875 102.151 63.4776 102.31 63.2019C102.478 62.9263 102.567 62.5954 102.578 62.2092Z" fill="#EDEFFF"/>
<path d="M107.011 60.1897C107.225 59.8624 107.498 59.6089 107.829 59.4291C108.168 59.2495 108.549 59.1659 108.974 59.1782L108.925 60.8481L108.505 60.8359C108.005 60.8213 107.623 60.9276 107.358 61.1549C107.101 61.3823 106.965 61.7877 106.948 62.3708L106.856 65.5061L105.266 65.4597L105.449 59.1663L107.04 59.2128L107.011 60.1897Z" fill="#EDEFFF"/>
<path d="M112.65 65.7775C112.044 65.7598 111.503 65.6114 111.026 65.3322C110.549 65.0454 110.178 64.6518 109.912 64.1514C109.654 63.6511 109.534 63.0792 109.553 62.4354C109.571 61.7917 109.728 61.2278 110.023 60.7437C110.325 60.2599 110.726 59.8926 111.226 59.6419C111.726 59.3836 112.279 59.2633 112.885 59.281C113.491 59.2987 114.036 59.451 114.52 59.738C115.005 60.0175 115.38 60.4074 115.646 60.9078C115.919 61.4085 116.047 61.9807 116.028 62.6244C116.009 63.2681 115.845 63.8318 115.535 64.3155C115.233 64.7993 114.828 65.1703 114.32 65.4283C113.82 65.679 113.263 65.7954 112.65 65.7775ZM112.69 64.3916C112.978 64.4 113.249 64.3397 113.503 64.2107C113.765 64.0743 113.975 63.8682 114.135 63.5924C114.295 63.3166 114.38 62.9781 114.392 62.5767C114.409 61.9784 114.264 61.5156 113.955 61.1882C113.654 60.8535 113.276 60.6795 112.822 60.6663C112.367 60.653 111.98 60.8047 111.66 61.1212C111.348 61.4305 111.183 61.8842 111.166 62.4825C111.148 63.0808 111.283 63.5471 111.568 63.8814C111.862 64.2083 112.236 64.3784 112.69 64.3916Z" fill="#EDEFFF"/>
<path d="M116.786 62.6238C116.805 61.9877 116.946 61.4271 117.21 60.9421C117.482 60.4574 117.842 60.0889 118.289 59.8367C118.736 59.5844 119.228 59.4661 119.766 59.4818C120.175 59.4938 120.562 59.596 120.928 59.7886C121.294 59.9736 121.582 60.217 121.793 60.5188L121.88 57.5311L123.494 57.5782L123.248 65.9845L121.635 65.9374L121.662 65.0059C121.456 65.3107 121.173 65.5525 120.811 65.7315C120.45 65.9104 120.034 65.993 119.565 65.9793C119.035 65.9638 118.554 65.8134 118.123 65.5279C117.691 65.2425 117.354 64.8499 117.111 64.3501C116.876 63.843 116.767 63.2675 116.786 62.6238ZM121.738 62.7911C121.75 62.4048 121.683 62.0732 121.54 61.7961C121.397 61.5115 121.198 61.2935 120.945 61.1421C120.692 60.9831 120.418 60.8993 120.122 60.8907C119.827 60.8821 119.552 60.9461 119.298 61.0827C119.044 61.2193 118.833 61.4253 118.666 61.7009C118.507 61.9691 118.422 62.2926 118.411 62.6712C118.399 63.0499 118.465 63.3853 118.609 63.6775C118.759 63.9624 118.958 64.1842 119.203 64.3429C119.456 64.5019 119.727 64.5856 120.014 64.594C120.31 64.6026 120.588 64.5387 120.85 64.4024C121.112 64.2584 121.323 64.0523 121.482 63.7841C121.642 63.5083 121.727 63.1773 121.738 62.7911Z" fill="#EDEFFF"/>
<path d="M130.926 59.9099L130.743 66.2032L129.141 66.1565L129.164 65.3613C128.952 65.628 128.677 65.8359 128.339 65.9853C128.009 66.1272 127.65 66.1926 127.264 66.1813C126.772 66.1669 126.34 66.052 125.967 65.8364C125.594 65.6133 125.304 65.2979 125.096 64.8901C124.896 64.475 124.804 63.9872 124.821 63.4268L124.928 59.7348L126.519 59.7812L126.418 63.246C126.403 63.7458 126.517 64.1357 126.759 64.4156C127.001 64.688 127.338 64.8305 127.769 64.8431C128.209 64.8559 128.557 64.7334 128.815 64.4756C129.073 64.2103 129.209 63.8277 129.223 63.3279L129.325 59.8631L130.926 59.9099Z" fill="#EDEFFF"/>
<path d="M131.995 63.0904C132.014 62.4391 132.163 61.875 132.442 61.398C132.721 60.9135 133.1 60.5456 133.577 60.2942C134.055 60.0353 134.596 59.9147 135.202 59.9323C135.982 59.9551 136.62 60.1708 137.116 60.5794C137.62 60.9807 137.948 61.536 138.102 62.2454L136.387 62.1953C136.304 61.92 136.155 61.7035 135.94 61.5456C135.732 61.3804 135.469 61.2931 135.151 61.2838C134.697 61.2706 134.332 61.4267 134.058 61.7522C133.783 62.0701 133.637 62.532 133.619 63.1378C133.602 63.7361 133.721 64.2057 133.976 64.5467C134.232 64.8801 134.587 65.0534 135.041 65.0666C135.685 65.0854 136.113 64.8099 136.327 64.2401L138.042 64.2902C137.848 64.9667 137.488 65.4981 136.961 65.8844C136.435 66.2708 135.785 66.4527 135.012 66.4302C134.407 66.4125 133.873 66.2642 133.411 65.9855C132.949 65.6991 132.593 65.3098 132.342 64.8173C132.092 64.3173 131.976 63.7417 131.995 63.0904Z" fill="#EDEFFF"/>
<path d="M141.143 61.5155L141.054 64.56C141.048 64.772 141.092 64.9287 141.188 65.03C141.291 65.124 141.464 65.1745 141.706 65.1816L142.445 65.2031L142.406 66.5436L141.406 66.5144C140.066 66.4753 139.414 65.8044 139.452 64.5019L139.541 61.4688L138.791 61.4469L138.829 60.1405L139.579 60.1624L139.624 58.6061L141.226 58.6528L141.181 60.2091L142.589 60.2503L142.551 61.5566L141.143 61.5155Z" fill="#EDEFFF"/>
<path d="M145.955 66.7495C145.44 66.7345 144.981 66.6301 144.577 66.4364C144.174 66.2352 143.855 65.9719 143.622 65.6468C143.397 65.3219 143.278 64.966 143.267 64.5791L144.869 64.6258C144.892 64.869 145.003 65.0732 145.203 65.2382C145.411 65.4034 145.67 65.4905 145.98 65.4996C146.283 65.5084 146.52 65.4547 146.69 65.3384C146.867 65.2223 146.959 65.0696 146.965 64.8803C146.97 64.6758 146.869 64.5212 146.66 64.4166C146.458 64.3046 146.132 64.1814 145.681 64.0469C145.215 63.9196 144.832 63.791 144.533 63.661C144.241 63.5312 143.989 63.3381 143.777 63.0818C143.572 62.8257 143.476 62.4856 143.488 62.0615C143.498 61.7131 143.606 61.3979 143.811 61.1159C144.024 60.8341 144.319 60.6153 144.695 60.4595C145.078 60.3039 145.524 60.2336 146.031 60.2484C146.781 60.2702 147.373 60.477 147.809 60.8687C148.245 61.2529 148.477 61.7637 148.504 62.4011L146.981 62.3567C146.966 62.1061 146.866 61.9061 146.68 61.7567C146.503 61.6 146.259 61.517 145.949 61.508C145.661 61.4996 145.436 61.5461 145.274 61.6475C145.119 61.7491 145.039 61.8945 145.034 62.0839C145.028 62.2959 145.129 62.4618 145.338 62.5816C145.547 62.6938 145.873 62.8133 146.316 62.9399C146.767 63.0668 147.139 63.1951 147.431 63.3249C147.722 63.4547 147.971 63.6514 148.175 63.9151C148.387 64.1714 148.491 64.5079 148.487 64.9247C148.476 65.2882 148.364 65.6109 148.152 65.8927C147.946 66.1747 147.652 66.3935 147.268 66.5491C146.893 66.6973 146.455 66.7641 145.955 66.7495Z" fill="#EDEFFF"/>
<path d="M238.235 63.2144L235.444 63.1329L235.391 64.946C235.518 64.7799 235.702 64.6473 235.944 64.5483C236.185 64.4439 236.444 64.3957 236.72 64.4038C237.16 64.4166 237.515 64.5198 237.785 64.7134C238.056 64.9017 238.245 65.1433 238.353 65.4383C238.467 65.7281 238.519 66.0347 238.509 66.3581C238.498 66.7398 238.416 67.0796 238.265 67.3776C238.113 67.6756 237.886 67.9078 237.584 68.074C237.287 68.2405 236.921 68.3174 236.487 68.3047C235.93 68.2884 235.483 68.1321 235.147 67.8358C234.811 67.5395 234.613 67.1517 234.552 66.6724L235.26 66.6931C235.32 66.9972 235.459 67.2374 235.677 67.4135C235.895 67.5897 236.173 67.6827 236.512 67.6926C236.931 67.7048 237.25 67.5894 237.47 67.3465C237.689 67.0982 237.805 66.7673 237.817 66.3538C237.829 65.9403 237.732 65.6192 237.527 65.3903C237.321 65.1562 237.012 65.0331 236.598 65.021C236.317 65.0128 236.069 65.0745 235.853 65.2062C235.642 65.3327 235.486 65.5111 235.383 65.7416L234.7 65.7217L234.794 62.4773L238.253 62.5782L238.235 63.2144Z" fill="#B6B8CA"/>
<path d="M242.745 64.0862C242.646 63.4943 242.291 63.1895 241.682 63.1717C241.21 63.158 240.852 63.3306 240.608 63.6895C240.364 64.0432 240.233 64.6363 240.214 65.4687C240.344 65.1966 240.552 64.9878 240.837 64.8423C241.128 64.6916 241.448 64.6214 241.798 64.6316C242.344 64.6475 242.774 64.8298 243.087 65.1785C243.406 65.5274 243.557 66.0014 243.539 66.6004C243.529 66.9609 243.448 67.2822 243.296 67.5643C243.15 67.8465 242.931 68.0683 242.64 68.2296C242.354 68.391 242.01 68.4659 241.607 68.4541C241.061 68.4382 240.638 68.3038 240.337 68.051C240.037 67.7981 239.832 67.4552 239.723 67.0223C239.613 66.5893 239.568 66.0574 239.586 65.4266C239.643 63.481 240.35 62.528 241.707 62.5676C242.227 62.5828 242.631 62.7352 242.919 63.0248C243.208 63.3144 243.373 63.6747 243.413 64.1057L242.745 64.0862ZM241.629 65.2395C241.401 65.2328 241.185 65.2742 240.981 65.3638C240.777 65.448 240.608 65.5837 240.476 65.7709C240.348 65.9528 240.281 66.179 240.273 66.4494C240.261 66.8523 240.368 67.1844 240.594 67.4456C240.82 67.7016 241.15 67.8359 241.585 67.8486C241.956 67.8594 242.254 67.754 242.478 67.5324C242.707 67.3057 242.827 66.9961 242.839 66.6039C242.851 66.1904 242.754 65.8639 242.549 65.6244C242.344 65.3797 242.037 65.2514 241.629 65.2395Z" fill="#B6B8CA"/>
<path d="M247.527 65.0534C247.677 64.8085 247.895 64.6079 248.181 64.4518C248.472 64.2905 248.806 64.2153 249.183 64.2263C249.57 64.2376 249.917 64.3406 250.224 64.5353C250.537 64.7301 250.778 64.9998 250.949 65.3443C251.119 65.6835 251.198 66.0758 251.185 66.5211C251.172 66.9611 251.07 67.3508 250.88 67.6901C250.69 68.0294 250.433 68.2899 250.109 68.4714C249.791 68.6532 249.438 68.7384 249.051 68.7271C248.68 68.7162 248.354 68.6245 248.072 68.4518C247.796 68.2739 247.588 68.0583 247.447 67.8048L247.363 70.6754L246.639 70.6543L246.827 64.2292L247.55 64.2503L247.527 65.0534ZM250.445 66.4995C250.455 66.1709 250.397 65.8827 250.272 65.6349C250.146 65.3872 249.971 65.1964 249.747 65.0625C249.528 64.9288 249.284 64.858 249.013 64.8501C248.748 64.8424 248.5 64.9014 248.268 65.0273C248.042 65.148 247.856 65.331 247.711 65.5761C247.571 65.8161 247.496 66.0978 247.487 66.4212C247.477 66.7498 247.535 67.0407 247.661 67.2937C247.791 67.5416 247.966 67.7351 248.185 67.8741C248.409 68.008 248.654 68.0788 248.919 68.0865C249.189 68.0944 249.437 68.038 249.664 67.9172C249.896 67.7914 250.081 67.6084 250.221 67.3684C250.361 67.1232 250.436 66.8335 250.445 66.4995Z" fill="#B6B8CA"/>
<path d="M252.903 65.1148C253.038 64.8694 253.224 64.6812 253.461 64.5501C253.704 64.4193 253.995 64.3588 254.334 64.3687L254.312 65.1162L254.121 65.1106C253.31 65.0869 252.892 65.5151 252.866 66.3951L252.797 68.7648L252.073 68.7436L252.201 64.386L252.924 64.4071L252.903 65.1148Z" fill="#B6B8CA"/>
<path d="M256.938 68.9572C256.53 68.9453 256.162 68.8417 255.833 68.6464C255.51 68.4513 255.258 68.1813 255.077 67.8365C254.901 67.4865 254.82 67.0862 254.833 66.6356C254.846 66.1902 254.953 65.8007 255.154 65.467C255.36 65.1282 255.633 64.8735 255.972 64.703C256.311 64.5272 256.688 64.4453 257.101 64.4574C257.515 64.4695 257.886 64.5732 258.214 64.7684C258.543 64.9584 258.798 65.2259 258.979 65.5707C259.165 65.9157 259.252 66.3135 259.239 66.7641C259.225 67.2147 259.113 67.6094 258.902 67.9481C258.696 68.2816 258.42 68.5362 258.075 68.7119C257.731 68.8875 257.352 68.9693 256.938 68.9572ZM256.957 68.3211C257.216 68.3287 257.462 68.2748 257.694 68.1595C257.925 68.0443 258.113 67.8667 258.258 67.6269C258.409 67.3872 258.489 67.0924 258.499 66.7425C258.509 66.3927 258.449 66.0938 258.318 65.8459C258.188 65.598 258.013 65.4125 257.793 65.2894C257.574 65.161 257.335 65.093 257.075 65.0854C256.81 65.0776 256.564 65.1315 256.338 65.2469C256.117 65.3572 255.937 65.5323 255.798 65.7723C255.658 66.0123 255.583 66.3073 255.573 66.6571C255.562 67.0123 255.617 67.3137 255.737 67.5613C255.863 67.809 256.032 67.997 256.246 68.1253C256.46 68.2482 256.697 68.3135 256.957 68.3211Z" fill="#B6B8CA"/>
<path d="M259.92 66.776C259.933 66.3307 260.034 65.9437 260.224 65.615C260.414 65.281 260.669 65.0258 260.987 64.8494C261.31 64.6731 261.668 64.5907 262.06 64.6021C262.4 64.612 262.713 64.7008 263 64.8683C263.287 65.0306 263.504 65.2412 263.65 65.5001L263.717 63.1941L264.449 63.2154L264.277 69.0998L263.545 69.0784L263.569 68.2594C263.419 68.515 263.2 68.7235 262.914 68.8849C262.629 69.0411 262.298 69.1137 261.921 69.1027C261.534 69.0914 261.184 68.9857 260.872 68.7855C260.565 68.5856 260.326 68.3107 260.156 67.9608C259.986 67.611 259.907 67.216 259.92 66.776ZM263.609 66.8917C263.619 66.563 263.561 66.2748 263.436 66.0271C263.31 65.7793 263.135 65.5885 262.911 65.4547C262.692 65.3156 262.448 65.2422 262.177 65.2343C261.907 65.2264 261.659 65.2828 261.432 65.4035C261.206 65.5243 261.023 65.7046 260.883 65.9446C260.744 66.1846 260.669 66.4689 260.659 66.7976C260.65 67.1316 260.707 67.4251 260.833 67.6781C260.958 67.9259 261.13 68.1192 261.349 68.2583C261.568 68.392 261.813 68.4628 262.083 68.4707C262.353 68.4786 262.602 68.4222 262.828 68.3014C263.06 68.1756 263.246 67.9926 263.385 67.7526C263.525 67.5073 263.6 67.2204 263.609 66.8917Z" fill="#B6B8CA"/>
<path d="M269.492 64.8906L269.365 69.2483L268.641 69.2272L268.66 68.583C268.515 68.8017 268.317 68.971 268.064 69.0909C267.816 69.2057 267.544 69.2588 267.247 69.2502C266.908 69.2403 266.605 69.1624 266.339 69.0167C266.073 68.8657 265.864 68.6474 265.713 68.3618C265.568 68.0763 265.501 67.7321 265.513 67.3292L265.587 64.7767L266.303 64.7976L266.231 67.2547C266.219 67.6841 266.318 68.0186 266.528 68.2582C266.739 68.4925 267.033 68.6151 267.409 68.6261C267.796 68.6374 268.104 68.527 268.334 68.295C268.563 68.0629 268.685 67.7189 268.698 67.263L268.768 64.8695L269.492 64.8906Z" fill="#B6B8CA"/>
<path d="M270.38 67.0893C270.393 66.6387 270.494 66.249 270.684 65.9203C270.875 65.5863 271.131 65.3311 271.455 65.1549C271.784 64.9788 272.155 64.8967 272.568 64.9088C273.104 64.9244 273.54 65.0672 273.877 65.337C274.219 65.6069 274.439 65.9742 274.537 66.4386L273.758 66.4159C273.691 66.1486 273.552 65.935 273.339 65.7749C273.131 65.615 272.869 65.5304 272.55 65.5211C272.137 65.509 271.799 65.6424 271.536 65.9213C271.273 66.1948 271.134 66.5913 271.119 67.1109C271.104 67.6357 271.219 68.0449 271.465 68.3386C271.712 68.6323 272.041 68.7852 272.455 68.7973C272.773 68.8066 273.04 68.7401 273.257 68.5978C273.473 68.4556 273.625 68.2478 273.712 67.9744L274.492 67.9972C274.362 68.4391 274.118 68.7901 273.761 69.0503C273.403 69.3051 272.962 69.4249 272.437 69.4096C272.023 69.3975 271.658 69.294 271.34 69.099C271.027 68.9042 270.786 68.6345 270.615 68.2899C270.445 67.9454 270.366 67.5452 270.38 67.0893Z" fill="#B6B8CA"/>
<path d="M276.409 65.6894L276.334 68.2579C276.328 68.4699 276.368 68.6223 276.456 68.7151C276.544 68.8025 276.699 68.8495 276.921 68.856L277.454 68.8715L277.436 69.4838L276.784 69.4648C276.381 69.453 276.082 69.3515 275.886 69.16C275.69 68.9686 275.598 68.6609 275.61 68.2368L275.685 65.6683L275.121 65.6518L275.138 65.0554L275.703 65.0719L275.735 63.9745L276.458 63.9957L276.426 65.093L277.563 65.1262L277.546 65.7226L276.409 65.6894Z" fill="#B6B8CA"/>
<path d="M279.854 69.626C279.52 69.6163 279.222 69.5519 278.96 69.4328C278.698 69.3084 278.493 69.1433 278.346 68.9374C278.198 68.7261 278.12 68.4877 278.112 68.2222L278.859 68.244C278.874 68.462 278.97 68.6425 279.146 68.7856C279.327 68.9289 279.567 69.0048 279.863 69.0135C280.139 69.0215 280.358 68.9669 280.521 68.8496C280.683 68.7323 280.767 68.5809 280.773 68.3954C280.778 68.2045 280.698 68.0616 280.531 67.9665C280.364 67.8661 280.104 67.7657 279.752 67.6652C279.431 67.571 279.168 67.4784 278.964 67.3875C278.765 67.2915 278.594 67.1566 278.45 66.9826C278.312 66.8035 278.247 66.5734 278.256 66.2925C278.262 66.0698 278.334 65.8676 278.472 65.686C278.61 65.5043 278.803 65.364 279.05 65.2651C279.297 65.1609 279.577 65.1133 279.889 65.1225C280.372 65.1365 280.758 65.2698 281.048 65.5224C281.337 65.7749 281.487 66.1135 281.496 66.5382L280.772 66.5171C280.763 66.2887 280.675 66.1031 280.51 65.9603C280.349 65.8177 280.129 65.7423 279.848 65.7341C279.588 65.7265 279.38 65.7761 279.223 65.883C279.066 65.9898 278.985 66.1333 278.979 66.3136C278.975 66.4567 279.017 66.5773 279.104 66.6754C279.197 66.7683 279.311 66.8459 279.447 66.9082C279.589 66.9654 279.783 67.0321 280.03 67.1083C280.341 67.2022 280.593 67.2945 280.786 67.385C280.98 67.4703 281.144 67.5971 281.277 67.7654C281.415 67.9339 281.483 68.1508 281.481 68.416C281.474 68.6546 281.401 68.8674 281.263 69.0543C281.125 69.2413 280.932 69.3869 280.685 69.4911C280.444 69.5902 280.166 69.6351 279.854 69.626Z" fill="#B6B8CA"/>
<path d="M304.461 64.429L307.218 67.3518L304.295 70.1089" stroke="#EDEFFF" stroke-width="0.710292" stroke-linecap="round" stroke-linejoin="round"/>
<g filter="url(#filter1_d_1479_36715)">
<path d="M46.1591 82.4009C46.0716 79.418 48.4188 76.929 51.4017 76.8415L337.472 68.4511C340.455 68.3636 342.944 70.7108 343.031 73.6937L344.151 111.871C344.239 114.854 341.891 117.343 338.909 117.43L52.8382 125.82C49.8554 125.908 47.3663 123.561 47.2788 120.578L46.1591 82.4009Z" fill="#23242D"/>
</g>
<g filter="url(#filter2_d_1479_36715)">
<path d="M57.08 90.7004C57.0363 89.209 58.2099 87.9645 59.7013 87.9207L81.2887 87.2876C82.7802 87.2438 84.0247 88.4174 84.0684 89.9088L84.7016 111.496C84.7453 112.988 83.5717 114.232 82.0803 114.276L60.4929 114.909C59.0015 114.953 57.7569 113.779 57.7132 112.288L57.08 90.7004Z" fill="#FF5252"/>
</g>
<path d="M72.6467 97.3916C72.1066 97.4075 71.6082 97.6925 71.2101 97.9407C71.3253 97.2616 71.7294 96.0672 72.8671 95.6959C73.0339 95.6234 73.1302 95.4517 73.0915 95.2839C73.019 95.1171 72.8473 95.0208 72.6795 95.0595C71.8763 95.3196 71.3848 95.8408 71.0642 96.4246C70.0853 94.156 67.8117 92.6687 65.3475 92.7412C64.7737 92.758 64.2018 92.8424 63.6667 93.0271C63.4661 93.1005 63.3698 93.2723 63.4433 93.4728C64.1501 95.6819 66.1229 97.2794 68.3617 97.5852C66.243 97.9178 64.6425 99.7892 64.707 101.983C64.7755 104.313 66.77 108.95 69.2342 108.878C69.7068 108.864 70.1744 108.681 70.6033 108.331C70.8674 108.12 71.2388 108.109 71.5148 108.304C71.9973 108.627 72.4748 108.782 72.9136 108.769C75.3778 108.697 77.0965 103.95 77.028 101.621C76.9913 99.2235 75.0096 97.3222 72.6467 97.3916ZM70.5032 98.029C70.2282 97.8682 69.9194 97.7083 69.5441 97.5842C69.9154 97.5733 70.251 97.4959 70.6204 97.4174C70.5598 97.6557 70.532 97.8592 70.5032 98.029ZM64.1899 93.586C64.592 93.4729 64.9623 93.4282 65.3674 93.4163C67.5953 93.3508 69.6623 94.709 70.4665 96.78C70.0981 96.8922 69.6941 96.9379 69.3227 96.9488C67.0611 97.0153 65.0268 95.6223 64.1899 93.586ZM72.9603 108.059C72.6228 108.068 72.2812 107.943 71.9367 107.717C71.6955 107.555 71.3887 107.463 71.0849 107.472C70.7811 107.481 70.4802 107.591 70.2489 107.767C69.9183 108.013 69.5847 108.158 69.2471 108.168C67.3231 108.224 65.4745 103.954 65.4149 101.929C65.3554 99.9034 66.928 98.2355 68.9534 98.1759C69.3585 98.164 69.839 98.4202 70.1825 98.6128C70.3543 98.7091 70.5588 98.7707 70.7951 98.7637C70.7951 98.7637 70.7951 98.7637 70.8288 98.7627C70.8288 98.7627 70.8288 98.7627 70.8626 98.7617C70.8626 98.7617 70.8626 98.7617 70.8963 98.7607C71.0989 98.7548 71.3332 98.6803 71.499 98.5741C71.8644 98.3606 72.2952 98.0777 72.7003 98.0658C74.7257 98.0062 76.3936 99.5789 76.4532 101.604C76.4452 103.632 74.8507 108.003 72.9603 108.059Z" fill="#EDEFFF"/>
<path d="M72.6864 98.7418C72.4839 98.7477 72.3528 98.8867 72.3588 99.0893C72.3648 99.2918 72.5037 99.4229 72.7063 99.4169C73.9553 99.3802 75.0315 100.362 75.0692 101.645C75.0751 101.847 75.2141 101.978 75.4167 101.972C75.6192 101.967 75.7503 101.828 75.7443 101.625C75.6629 100.006 74.3067 98.6941 72.6864 98.7418Z" fill="#EDEFFF"/>
<path d="M96.8552 95.0215L96.9001 96.5473L92.9708 96.6628L93.0419 99.0798L96.0529 98.9912L96.097 100.49L93.086 100.579L93.2031 104.562L91.3127 104.617L91.0356 95.1926L96.8552 95.0215Z" fill="#EDEFFF"/>
<path d="M100.177 98.0321C100.409 97.6289 100.715 97.3091 101.095 97.0727C101.485 96.836 101.931 96.7102 102.435 96.6954L102.494 98.6803L101.994 98.6949C101.4 98.7124 100.954 98.8652 100.656 99.1532C100.367 99.441 100.233 99.9315 100.253 100.625L100.363 104.351L98.4727 104.407L98.2528 96.9265L100.143 96.8709L100.177 98.0321Z" fill="#EDEFFF"/>
<path d="M110.774 96.5584L110.993 104.039L109.09 104.095L109.062 103.15C108.828 103.481 108.516 103.747 108.126 103.947C107.744 104.139 107.324 104.241 106.865 104.255C106.279 104.272 105.758 104.166 105.301 103.936C104.844 103.697 104.477 103.343 104.202 102.873C103.936 102.395 103.793 101.822 103.773 101.156L103.644 96.768L105.535 96.7124L105.656 100.831C105.673 101.425 105.835 101.879 106.142 102.195C106.448 102.501 106.858 102.647 107.371 102.632C107.893 102.616 108.298 102.447 108.586 102.123C108.873 101.79 109.008 101.327 108.991 100.733L108.87 96.6143L110.774 96.5584Z" fill="#EDEFFF"/>
<path d="M113.571 95.5842C113.238 95.594 112.956 95.4987 112.725 95.2983C112.502 95.0886 112.387 94.8262 112.377 94.5111C112.368 94.1961 112.468 93.9319 112.678 93.7185C112.897 93.4958 113.173 93.3796 113.506 93.3698C113.839 93.36 114.117 93.46 114.339 93.6696C114.57 93.8701 114.691 94.1278 114.7 94.4429C114.709 94.7579 114.604 95.0268 114.386 95.2494C114.176 95.4628 113.904 95.5744 113.571 95.5842ZM114.529 96.448L114.749 103.928L112.859 103.984L112.639 96.5035L114.529 96.448Z" fill="#EDEFFF"/>
<path d="M118.643 97.8811L118.75 101.5C118.757 101.752 118.821 101.935 118.941 102.048C119.071 102.153 119.279 102.2 119.567 102.192L120.445 102.166L120.492 103.759L119.304 103.794C117.71 103.841 116.891 103.091 116.845 101.542L116.739 97.9371L115.848 97.9633L115.803 96.4105L116.694 96.3843L116.639 94.5345L118.543 94.4785L118.598 96.3284L120.272 96.2791L120.318 97.8319L118.643 97.8811Z" fill="#EDEFFF"/>
<path d="M124.718 103.757C124.105 103.775 123.553 103.683 123.061 103.481C122.568 103.27 122.172 102.98 121.873 102.611C121.583 102.241 121.417 101.827 121.377 101.368L123.281 101.313C123.325 101.6 123.472 101.834 123.72 102.016C123.978 102.197 124.291 102.283 124.66 102.272C125.02 102.261 125.297 102.181 125.491 102.031C125.694 101.881 125.792 101.694 125.785 101.469C125.778 101.226 125.647 101.049 125.391 100.94C125.145 100.821 124.749 100.697 124.205 100.569C123.643 100.45 123.18 100.324 122.815 100.191C122.46 100.057 122.147 99.8458 121.878 99.5564C121.617 99.2667 121.479 98.8699 121.464 98.3658C121.452 97.9517 121.558 97.5702 121.782 97.2213C122.015 96.8721 122.349 96.5919 122.784 96.3809C123.229 96.1697 123.752 96.0552 124.355 96.0374C125.247 96.0112 125.964 96.2154 126.509 96.6498C127.053 97.0753 127.363 97.6653 127.439 98.4199L125.63 98.4731C125.594 98.1768 125.461 97.9465 125.231 97.782C125.01 97.6084 124.715 97.527 124.345 97.5378C124.003 97.5479 123.74 97.6187 123.554 97.7503C123.378 97.8816 123.293 98.0598 123.3 98.2848C123.307 98.5368 123.439 98.7267 123.695 98.8543C123.951 98.9729 124.346 99.0919 124.881 99.2113C125.425 99.3305 125.875 99.4569 126.23 99.5906C126.586 99.7243 126.894 99.9405 127.155 100.239C127.425 100.528 127.571 100.921 127.595 101.415C127.607 101.847 127.497 102.238 127.264 102.587C127.04 102.936 126.706 103.216 126.262 103.428C125.826 103.63 125.312 103.739 124.718 103.757Z" fill="#EDEFFF"/>
<path d="M248.992 94.4239C248.635 94.2956 248.358 94.102 248.162 93.8429C247.965 93.5838 247.861 93.2652 247.85 92.8871C247.84 92.5469 247.916 92.2388 248.078 91.9628C248.24 91.6806 248.485 91.4558 248.815 91.2884C249.15 91.1146 249.557 91.0206 250.036 91.0065C250.515 90.9925 250.924 91.0624 251.263 91.2164C251.608 91.364 251.869 91.5739 252.048 91.8461C252.232 92.1119 252.329 92.4149 252.339 92.7551C252.35 93.1206 252.262 93.4448 252.075 93.7278C251.887 94.0045 251.625 94.214 251.289 94.3564C251.683 94.4646 251.998 94.6666 252.234 94.9624C252.476 95.2517 252.603 95.6074 252.615 96.0296C252.627 96.4392 252.537 96.8013 252.344 97.116C252.152 97.4244 251.872 97.6691 251.505 97.8502C251.144 98.0247 250.725 98.1191 250.246 98.1331C249.767 98.1472 249.342 98.0777 248.972 97.9246C248.608 97.7651 248.321 97.537 248.11 97.2405C247.899 96.9376 247.788 96.5814 247.776 96.1719C247.763 95.7497 247.866 95.384 248.084 95.0749C248.302 94.7658 248.605 94.5488 248.992 94.4239ZM251.51 92.8836C251.499 92.4992 251.364 92.2067 251.106 92.0062C250.848 91.8057 250.499 91.7119 250.057 91.7249C249.623 91.7377 249.282 91.8517 249.036 92.0671C248.79 92.2824 248.673 92.5854 248.685 92.9761C248.695 93.329 248.833 93.6087 249.097 93.8154C249.368 94.0218 249.712 94.1189 250.127 94.1067C250.55 94.0943 250.887 93.9772 251.139 93.7553C251.397 93.527 251.521 93.2364 251.51 92.8836ZM250.147 94.7683C249.681 94.782 249.303 94.9035 249.013 95.1328C248.723 95.3557 248.585 95.6846 248.597 96.1193C248.609 96.5226 248.761 96.843 249.051 97.0804C249.348 97.3176 249.74 97.4291 250.225 97.4148C250.71 97.4005 251.091 97.2664 251.367 97.0123C251.643 96.7582 251.776 96.4295 251.764 96.0263C251.751 95.6041 251.597 95.287 251.301 95.075C251.004 94.8566 250.619 94.7544 250.147 94.7683Z" fill="#B6B8CA"/>
<path d="M257.209 93.5106C257.371 93.2095 257.615 92.9563 257.944 92.7512C258.278 92.5395 258.669 92.4271 259.116 92.414C259.576 92.4005 259.995 92.4985 260.374 92.7081C260.758 92.9176 261.063 93.2207 261.29 93.6177C261.515 94.0084 261.636 94.4684 261.652 94.9977C261.667 95.5207 261.574 95.9901 261.372 96.406C261.169 96.8218 260.883 97.1488 260.511 97.3867C260.146 97.6245 259.733 97.7501 259.274 97.7637C258.832 97.7766 258.439 97.6904 258.093 97.5051C257.753 97.3133 257.49 97.0719 257.305 96.7809L257.406 100.193L256.546 100.218L256.321 92.5813L257.181 92.556L257.209 93.5106ZM260.773 95.0235C260.761 94.6328 260.672 94.2949 260.506 94.0097C260.34 93.7245 260.12 93.5102 259.844 93.367C259.575 93.2235 259.28 93.1565 258.959 93.166C258.644 93.1752 258.353 93.2626 258.087 93.4281C257.826 93.5871 257.619 93.8171 257.464 94.1181C257.315 94.4125 257.246 94.752 257.257 95.1363C257.268 95.527 257.357 95.8681 257.524 96.1596C257.696 96.4447 257.917 96.6621 258.186 96.8118C258.461 96.9551 258.757 97.0221 259.072 97.0128C259.393 97.0034 259.684 96.9191 259.944 96.7601C260.21 96.5946 260.418 96.3646 260.567 96.0702C260.716 95.7694 260.784 95.4205 260.773 95.0235Z" fill="#B6B8CA"/>
<path d="M263.593 93.2094C263.736 92.9088 263.943 92.6726 264.216 92.5006C264.494 92.3284 264.835 92.2364 265.239 92.2245L265.265 93.113L265.038 93.1197C264.074 93.148 263.607 93.6852 263.638 94.7312L263.721 97.5478L262.861 97.5731L262.708 92.3935L263.568 92.3682L263.593 93.2094Z" fill="#B6B8CA"/>
<path d="M268.648 97.4881C268.163 97.5023 267.718 97.405 267.315 97.1961C266.918 96.9871 266.6 96.6843 266.361 96.2877C266.129 95.8846 266.004 95.4152 265.989 94.8796C265.973 94.3503 266.073 93.8807 266.288 93.4708C266.509 93.0543 266.815 92.7332 267.206 92.5073C267.596 92.2751 268.037 92.1517 268.529 92.1373C269.02 92.1228 269.467 92.22 269.871 92.4289C270.274 92.6315 270.595 92.9311 270.834 93.3277C271.079 93.7241 271.209 94.1901 271.225 94.7257C271.241 95.2613 271.135 95.7374 270.908 96.154C270.686 96.5641 270.377 96.8854 269.98 97.1178C269.584 97.3502 269.139 97.4736 268.648 97.4881ZM268.626 96.7319C268.934 96.7228 269.222 96.6419 269.489 96.489C269.756 96.3361 269.967 96.1123 270.122 95.8176C270.284 95.5228 270.358 95.1674 270.346 94.7515C270.334 94.3357 270.241 93.9852 270.069 93.7002C269.897 93.4151 269.676 93.2072 269.407 93.0763C269.139 92.9392 268.85 92.8752 268.541 92.8842C268.226 92.8935 267.938 92.9745 267.678 93.1272C267.424 93.2734 267.222 93.4938 267.073 93.7882C266.924 94.0827 266.856 94.4379 266.868 94.8538C266.88 95.276 266.966 95.6298 267.126 95.9152C267.292 96.2004 267.506 96.4117 267.769 96.549C268.031 96.68 268.317 96.741 268.626 96.7319Z" fill="#B6B8CA"/>
<path d="M272.034 94.6924C272.019 94.1631 272.112 93.6969 272.315 93.2936C272.517 92.884 272.801 92.5635 273.166 92.332C273.538 92.1004 273.957 91.9777 274.423 91.964C274.826 91.9521 275.204 92.0356 275.556 92.2145C275.908 92.387 276.18 92.6218 276.371 92.9189L276.291 90.1779L277.16 90.1523L277.366 97.1466L276.497 97.1722L276.468 96.1986C276.307 96.5124 276.062 96.775 275.734 96.9865C275.406 97.1916 275.018 97.3008 274.571 97.3139C274.111 97.3274 273.689 97.2263 273.304 97.0106C272.925 96.7947 272.623 96.4851 272.397 96.0818C272.17 95.6786 272.05 95.2154 272.034 94.6924ZM276.42 94.573C276.409 94.1823 276.32 93.8443 276.154 93.5591C275.988 93.2739 275.767 93.0597 275.492 92.9164C275.222 92.7666 274.927 92.6965 274.606 92.7059C274.284 92.7154 273.994 92.7996 273.733 92.9586C273.473 93.1176 273.269 93.3444 273.12 93.6389C272.971 93.9333 272.902 94.2759 272.913 94.6666C272.925 95.0636 273.014 95.4078 273.18 95.6993C273.346 95.9846 273.564 96.202 273.833 96.3518C274.102 96.4952 274.397 96.5622 274.719 96.5528C275.04 96.5433 275.331 96.4591 275.591 96.3001C275.857 96.1346 276.065 95.9046 276.214 95.6101C276.363 95.3093 276.432 94.9636 276.42 94.573Z" fill="#B6B8CA"/>
<path d="M283.261 91.7893L283.413 96.9688L282.553 96.9941L282.53 96.2285C282.374 96.498 282.151 96.7127 281.859 96.8726C281.573 97.0261 281.254 97.108 280.901 97.1184C280.498 97.1302 280.133 97.0589 279.807 96.9046C279.481 96.7439 279.218 96.4993 279.019 96.1709C278.827 95.8423 278.723 95.4386 278.709 94.9597L278.62 91.9257L279.471 91.9007L279.557 94.8213C279.572 95.3317 279.712 95.7217 279.979 95.9914C280.245 96.2547 280.602 96.3798 281.049 96.3667C281.509 96.3531 281.867 96.2007 282.124 95.9094C282.38 95.6181 282.5 95.2014 282.484 94.6595L282.401 91.8146L283.261 91.7893Z" fill="#B6B8CA"/>
<path d="M284.468 94.3364C284.452 93.8008 284.545 93.3313 284.748 92.9281C284.95 92.5185 285.237 92.1979 285.609 91.9662C285.987 91.7344 286.421 91.6112 286.913 91.5968C287.549 91.5781 288.077 91.7171 288.495 92.0138C288.92 92.3103 289.207 92.7307 289.355 93.275L288.429 93.3023C288.332 92.9898 288.151 92.746 287.887 92.5709C287.63 92.3956 287.312 92.3134 286.934 92.3246C286.443 92.339 286.051 92.5208 285.758 92.87C285.466 93.2128 285.328 93.693 285.347 94.3105C285.365 94.9343 285.53 95.4119 285.843 95.7433C286.155 96.0747 286.557 96.2331 287.049 96.2187C287.427 96.2076 287.739 96.1101 287.986 95.9262C288.233 95.7424 288.399 95.4852 288.484 95.1548L289.41 95.1276C289.287 95.661 289.022 96.0944 288.616 96.428C288.209 96.7553 287.694 96.9281 287.07 96.9464C286.579 96.9609 286.137 96.8635 285.747 96.6543C285.362 96.4448 285.057 96.1416 284.831 95.7447C284.604 95.3477 284.483 94.8783 284.468 94.3364Z" fill="#B6B8CA"/>
<path d="M291.524 92.2558L291.614 95.3087C291.621 95.5608 291.68 95.7388 291.79 95.8428C291.901 95.9404 292.088 95.9854 292.353 95.9776L292.986 95.959L293.007 96.6868L292.232 96.7095C291.753 96.7236 291.391 96.6239 291.145 96.4104C290.899 96.1969 290.769 95.8381 290.754 95.334L290.664 92.2811L289.993 92.3009L289.972 91.592L290.643 91.5722L290.605 90.2679L291.465 90.2426L291.503 91.547L292.855 91.5072L292.876 92.2161L291.524 92.2558Z" fill="#B6B8CA"/>
<path d="M295.885 96.6873C295.489 96.6989 295.131 96.6433 294.812 96.5202C294.492 96.3908 294.238 96.2091 294.048 95.975C293.858 95.7347 293.749 95.4572 293.721 95.1427L294.61 95.1166C294.642 95.3742 294.768 95.5818 294.987 95.7393C295.213 95.8967 295.502 95.9701 295.855 95.9598C296.182 95.9501 296.439 95.8701 296.623 95.7196C296.808 95.5691 296.897 95.3836 296.891 95.1631C296.884 94.9362 296.778 94.7722 296.574 94.671C296.369 94.5635 296.053 94.4624 295.628 94.3677C295.241 94.2782 294.923 94.1866 294.674 94.093C294.431 93.993 294.219 93.8447 294.037 93.6483C293.86 93.4453 293.767 93.1769 293.758 92.8429C293.75 92.5783 293.821 92.3334 293.972 92.1082C294.123 91.883 294.342 91.7032 294.628 91.5686C294.914 91.4278 295.243 91.3519 295.615 91.3409C296.188 91.3241 296.656 91.4554 297.017 91.7349C297.378 92.0144 297.579 92.4058 297.619 92.9091L296.759 92.9344C296.732 92.664 296.615 92.4499 296.409 92.292C296.209 92.1339 295.942 92.0597 295.608 92.0696C295.299 92.0786 295.055 92.152 294.876 92.2897C294.698 92.4274 294.611 92.6034 294.618 92.8176C294.623 92.9878 294.68 93.128 294.791 93.2382C294.907 93.342 295.049 93.4262 295.214 93.4906C295.386 93.5487 295.622 93.6143 295.92 93.6875C296.295 93.7774 296.6 93.8693 296.837 93.9633C297.072 94.0509 297.275 94.19 297.445 94.3805C297.621 94.5709 297.716 94.8235 297.732 95.1383C297.74 95.4219 297.669 95.6794 297.518 95.9109C297.367 96.1423 297.149 96.3285 296.863 96.4693C296.583 96.6037 296.257 96.6763 295.885 96.6873Z" fill="#B6B8CA"/>
<path d="M324.755 89.8739L328.229 93.1503L324.953 96.6251" stroke="#EDEFFF" stroke-width="0.844267" stroke-linecap="round" stroke-linejoin="round"/>
<g filter="url(#filter3_d_1479_36715)">
<path d="M38.1404 119.3C38.2003 116.317 40.6675 113.947 43.651 114.007L348.783 120.132C351.766 120.192 354.137 122.659 354.077 125.643L353.25 166.828C353.19 169.811 350.723 172.181 347.739 172.121L42.6074 165.996C39.6238 165.936 37.2537 163.469 37.3136 160.486L38.1404 119.3Z" fill="#23242D"/>
</g>
<g filter="url(#filter4_d_1479_36715)">
<path d="M48.943 128.874C48.9749 127.287 50.2877 126.026 51.8751 126.058L75.1205 126.524C76.708 126.556 77.9691 127.869 77.9372 129.456L77.4706 152.702C77.4387 154.289 76.126 155.55 74.5385 155.519L51.2931 155.052C49.7056 155.02 48.4446 153.707 48.4764 152.12L48.943 128.874Z" fill="#66BB6A"/>
</g>
<path d="M71.5788 136.35C70.1172 135.745 68.6325 136.291 67.7975 136.705C68.4543 136.215 69.6185 135.52 70.945 135.69C71.1598 135.73 71.3064 135.59 71.3467 135.375C71.3862 135.196 71.2461 135.013 71.0312 134.973C69.8844 134.806 68.8704 135.181 68.1065 135.633C68.6922 135.106 69.4934 134.583 70.5383 134.46C70.7187 134.428 70.866 134.251 70.8696 134.071C70.8372 133.891 70.6605 133.743 70.4808 133.74C69.6882 133.832 69.0357 134.106 68.4896 134.455C68.7167 133.884 68.8374 133.24 68.7792 132.556C68.7469 132.375 68.606 132.229 68.3905 132.224C68.2101 132.257 68.0628 132.433 68.0592 132.613C68.1763 133.945 67.4713 135.045 66.9546 135.718C67.4023 134.9 67.9708 133.438 67.4613 131.954C67.3931 131.773 67.1797 131.661 66.9986 131.729C66.8175 131.797 66.7054 132.011 66.7736 132.192C67.3176 133.748 66.3877 135.311 66.0183 135.807C65.8401 135.732 65.6611 135.692 65.4456 135.688C64.4755 135.668 63.238 136.434 61.4422 138.16C59.8663 139.674 57.9519 141.936 56.4341 144.134C53.8428 147.892 54.2646 148.368 54.4765 148.552C54.5455 148.697 54.7244 148.736 54.9041 148.74C56.2694 148.767 62.0966 144.966 65.1019 142.079C67.4108 139.861 67.9749 138.614 67.6358 137.601C68.1093 137.287 69.7449 136.385 71.2784 136.991C71.4566 137.066 71.6743 136.963 71.7498 136.785C71.8252 136.606 71.757 136.425 71.5788 136.35ZM64.6089 141.566C61.6037 144.453 56.2896 147.761 55.0263 148.024C55.2649 146.878 58.6 141.877 61.8618 138.743C63.4744 137.194 64.6041 136.426 65.3586 136.441C65.7538 136.449 66.0369 136.67 66.4242 137.073C67.1284 137.806 67.7982 138.467 64.6089 141.566Z" fill="#EDEFFF"/>
<path d="M65.526 138.853C65.3852 138.706 65.1696 138.702 65.023 138.843L64.8764 138.983C64.7298 139.124 64.7255 139.34 64.8664 139.486C65.1143 139.671 65.2961 139.567 65.3694 139.496L65.516 139.356C65.6619 139.251 65.6669 138.999 65.526 138.853Z" fill="#EDEFFF"/>
<path d="M64.6891 137.578C64.5483 137.431 64.3327 137.427 64.1861 137.568L64.0395 137.709C63.8929 137.849 63.8886 138.065 64.0294 138.212C64.0999 138.285 64.2069 138.323 64.2788 138.324C64.3866 138.327 64.4592 138.292 64.5325 138.222L64.6791 138.081C64.8257 137.94 64.83 137.724 64.6891 137.578Z" fill="#EDEFFF"/>
<path d="M63.3241 139.312L63.1775 139.453C63.0309 139.593 63.0265 139.809 63.1674 139.956C63.2378 140.029 63.3449 140.067 63.4167 140.068C63.5245 140.071 63.5971 140.036 63.6704 139.966L63.817 139.825C63.9636 139.684 63.9679 139.468 63.8271 139.322C63.6862 139.175 63.4707 139.171 63.3241 139.312Z" fill="#EDEFFF"/>
<path d="M61.6146 140.32L61.468 140.461C61.3214 140.602 61.3171 140.817 61.4579 140.964C61.5283 141.037 61.6354 141.075 61.7073 141.077C61.815 141.079 61.8876 141.044 61.9609 140.974L62.1075 140.833C62.2541 140.692 62.2584 140.477 62.1176 140.33C61.9768 140.183 61.7612 140.179 61.6146 140.32Z" fill="#EDEFFF"/>
<path d="M61.2862 142.362L61.1396 142.503C60.993 142.644 60.9887 142.859 61.1295 143.006C61.2 143.079 61.307 143.117 61.3789 143.119C61.4867 143.121 61.5593 143.086 61.6326 143.016L61.7792 142.875C61.9258 142.734 61.9301 142.519 61.7892 142.372C61.6484 142.226 61.4328 142.221 61.2862 142.362Z" fill="#EDEFFF"/>
<path d="M58.7652 144.396L58.6186 144.537C58.472 144.678 58.4677 144.894 58.6085 145.04C58.679 145.113 58.786 145.152 58.8579 145.153C58.9657 145.155 59.0383 145.121 59.1116 145.05L59.2582 144.909C59.4048 144.769 59.4091 144.553 59.2682 144.406C59.1274 144.26 58.9118 144.255 58.7652 144.396Z" fill="#EDEFFF"/>
<path d="M59.1597 142.643L59.0132 142.784C58.8666 142.925 58.8622 143.14 59.0031 143.287C59.0735 143.36 59.1806 143.398 59.2524 143.4C59.3602 143.402 59.4328 143.367 59.5061 143.297L59.6527 143.156C59.7993 143.015 59.8036 142.8 59.6628 142.653C59.5219 142.507 59.3063 142.502 59.1597 142.643Z" fill="#EDEFFF"/>
<path d="M93.3131 135.848L89.433 145.806L86.9897 145.757L83.5115 135.652L85.6673 135.695L88.2669 143.727L91.1717 135.805L93.3131 135.848Z" fill="#EDEFFF"/>
<path d="M101.803 141.899C101.797 142.186 101.773 142.444 101.73 142.674L95.9096 142.557C95.946 143.133 96.1382 143.587 96.4862 143.92C96.8341 144.253 97.2668 144.425 97.7842 144.435C98.5315 144.45 99.0697 144.14 99.3988 143.504L101.569 143.547C101.324 144.309 100.87 144.933 100.209 145.418C99.5474 145.894 98.7425 146.122 97.7939 146.103C97.0274 146.088 96.3409 145.906 95.7345 145.558C95.1377 145.201 94.6732 144.708 94.3407 144.078C94.0178 143.449 93.8646 142.727 93.8809 141.913C93.8974 141.089 94.0795 140.369 94.4274 139.752C94.7752 139.136 95.2543 138.667 95.8646 138.343C96.4749 138.02 97.1729 137.866 97.9586 137.882C98.7155 137.897 99.3877 138.074 99.9752 138.411C100.572 138.749 101.028 139.223 101.341 139.833C101.665 140.434 101.819 141.123 101.803 141.899ZM99.7308 141.282C99.7316 140.765 99.553 140.349 99.1951 140.035C98.8373 139.711 98.395 139.544 97.868 139.534C97.3698 139.524 96.9451 139.669 96.5941 139.968C96.2528 140.259 96.0384 140.671 95.951 141.206L99.7308 141.282Z" fill="#EDEFFF"/>
<path d="M106.469 138.053C107.063 138.065 107.583 138.195 108.029 138.443C108.475 138.682 108.823 138.991 109.074 139.37L109.097 138.235L111.123 138.275L110.963 146.295C110.948 147.033 110.786 147.686 110.478 148.255C110.169 148.833 109.714 149.284 109.114 149.608C108.513 149.941 107.791 150.099 106.947 150.082C105.817 150.059 104.893 149.777 104.175 149.236C103.467 148.694 103.074 147.968 102.997 147.055L104.994 147.095C105.092 147.462 105.312 147.754 105.653 147.971C106.003 148.199 106.427 148.317 106.925 148.327C107.509 148.339 107.987 148.171 108.358 147.824C108.729 147.487 108.922 146.963 108.936 146.254L108.961 145.018C108.695 145.387 108.329 145.691 107.864 145.931C107.409 146.171 106.889 146.285 106.305 146.273C105.634 146.26 105.024 146.075 104.476 145.719C103.927 145.363 103.496 144.87 103.182 144.241C102.879 143.602 102.735 142.876 102.752 142.061C102.768 141.257 102.94 140.546 103.269 139.93C103.607 139.313 104.053 138.843 104.605 138.519C105.168 138.194 105.789 138.039 106.469 138.053ZM109.017 142.216C109.027 141.727 108.94 141.308 108.755 140.96C108.57 140.601 108.317 140.328 107.995 140.139C107.673 139.941 107.325 139.838 106.951 139.831C106.578 139.823 106.231 139.907 105.911 140.083C105.591 140.259 105.327 140.522 105.119 140.872C104.92 141.214 104.816 141.624 104.807 142.103C104.797 142.582 104.885 143.005 105.069 143.373C105.263 143.732 105.516 144.01 105.829 144.208C106.15 144.406 106.494 144.509 106.858 144.516C107.231 144.524 107.583 144.44 107.912 144.264C108.242 144.079 108.506 143.816 108.704 143.475C108.903 143.124 109.007 142.704 109.017 142.216Z" fill="#EDEFFF"/>
<path d="M120.414 142.271C120.408 142.559 120.384 142.817 120.341 143.046L114.52 142.93C114.556 143.506 114.749 143.96 115.097 144.293C115.445 144.626 115.877 144.797 116.395 144.808C117.142 144.823 117.68 144.512 118.009 143.877L120.179 143.92C119.934 144.682 119.481 145.306 118.819 145.791C118.158 146.266 117.353 146.495 116.404 146.476C115.638 146.46 114.951 146.279 114.345 145.931C113.748 145.574 113.284 145.081 112.951 144.451C112.628 143.822 112.475 143.1 112.491 142.285C112.508 141.461 112.69 140.741 113.038 140.125C113.386 139.509 113.865 139.04 114.475 138.716C115.085 138.393 115.783 138.239 116.569 138.255C117.326 138.27 117.998 138.447 118.586 138.784C119.183 139.122 119.638 139.596 119.952 140.206C120.275 140.807 120.429 141.495 120.414 142.271ZM118.341 141.655C118.342 141.137 118.164 140.722 117.806 140.408C117.448 140.084 117.005 139.917 116.478 139.907C115.98 139.897 115.556 140.041 115.205 140.341C114.863 140.631 114.649 141.044 114.562 141.579L118.341 141.655Z" fill="#EDEFFF"/>
<path d="M124.268 140.192L124.191 144.044C124.186 144.312 124.244 144.51 124.366 144.637C124.498 144.754 124.717 144.816 125.024 144.822L125.958 144.841L125.924 146.537L124.659 146.512C122.963 146.478 122.132 145.637 122.165 143.989L122.242 140.151L121.293 140.132L121.326 138.48L122.275 138.499L122.314 136.53L124.341 136.57L124.301 138.539L126.083 138.575L126.05 140.228L124.268 140.192Z" fill="#EDEFFF"/>
<path d="M126.934 142.546C126.95 141.741 127.123 141.03 127.451 140.414C127.789 139.798 128.235 139.327 128.788 139.003C129.35 138.679 129.972 138.523 130.652 138.537C131.246 138.549 131.761 138.679 132.197 138.927C132.642 139.176 132.996 139.485 133.257 139.854L133.279 138.719L135.306 138.76L135.146 146.722L133.12 146.681L133.143 145.517C132.877 145.885 132.511 146.19 132.047 146.43C131.591 146.66 131.067 146.769 130.473 146.758C129.802 146.744 129.192 146.559 128.644 146.203C128.104 145.847 127.678 145.355 127.365 144.726C127.061 144.087 126.918 143.36 126.934 142.546ZM133.2 142.7C133.209 142.211 133.122 141.793 132.937 141.444C132.753 141.086 132.499 140.812 132.177 140.624C131.855 140.425 131.508 140.323 131.134 140.315C130.76 140.308 130.413 140.392 130.094 140.568C129.774 140.743 129.51 141.006 129.301 141.357C129.103 141.698 128.999 142.108 128.989 142.587C128.98 143.066 129.067 143.49 129.251 143.858C129.445 144.216 129.699 144.494 130.011 144.692C130.333 144.89 130.676 144.993 131.04 145C131.414 145.008 131.765 144.924 132.095 144.748C132.424 144.563 132.688 144.3 132.887 143.959C133.086 143.608 133.19 143.189 133.2 142.7Z" fill="#EDEFFF"/>
<path d="M139.26 140.003C139.526 139.625 139.887 139.321 140.342 139.091C140.807 138.86 141.331 138.751 141.916 138.763C142.596 138.776 143.206 138.956 143.745 139.303C144.294 139.649 144.721 140.137 145.024 140.766C145.338 141.386 145.486 142.103 145.47 142.917C145.454 143.732 145.276 144.452 144.938 145.078C144.609 145.694 144.164 146.169 143.601 146.503C143.048 146.837 142.431 146.997 141.751 146.983C141.157 146.972 140.637 146.846 140.191 146.607C139.755 146.359 139.407 146.045 139.146 145.666L139.124 146.801L137.111 146.761L137.324 136.126L139.337 136.166L139.26 140.003ZM143.415 142.876C143.424 142.397 143.332 141.983 143.138 141.634C142.953 141.276 142.7 141.002 142.378 140.814C142.065 140.625 141.722 140.527 141.348 140.52C140.984 140.512 140.638 140.601 140.308 140.786C139.988 140.962 139.724 141.225 139.516 141.576C139.317 141.926 139.213 142.341 139.203 142.82C139.194 143.299 139.281 143.718 139.466 144.076C139.66 144.435 139.913 144.713 140.225 144.911C140.547 145.1 140.891 145.198 141.255 145.205C141.628 145.212 141.975 145.124 142.295 144.938C142.625 144.753 142.889 144.485 143.088 144.135C143.296 143.784 143.405 143.365 143.415 142.876Z" fill="#EDEFFF"/>
<path d="M154.336 142.951C154.331 143.238 154.306 143.497 154.263 143.726L148.443 143.609C148.479 144.185 148.671 144.639 149.019 144.972C149.367 145.305 149.8 145.477 150.317 145.487C151.065 145.502 151.603 145.192 151.932 144.556L154.102 144.6C153.857 145.362 153.403 145.985 152.742 146.47C152.081 146.946 151.276 147.174 150.327 147.155C149.561 147.14 148.874 146.958 148.268 146.611C147.671 146.254 147.206 145.76 146.874 145.131C146.551 144.501 146.398 143.779 146.414 142.965C146.431 142.141 146.613 141.421 146.961 140.805C147.308 140.189 147.787 139.719 148.398 139.396C149.008 139.072 149.706 138.919 150.492 138.934C151.249 138.95 151.921 139.126 152.508 139.464C153.106 139.802 153.561 140.276 153.875 140.886C154.198 141.486 154.352 142.175 154.336 142.951ZM152.264 142.334C152.265 141.817 152.086 141.401 151.728 141.087C151.371 140.764 150.928 140.597 150.401 140.586C149.903 140.576 149.478 140.721 149.127 141.021C148.786 141.311 148.572 141.724 148.484 142.259L152.264 142.334Z" fill="#EDEFFF"/>
<path d="M158.766 147.324C158.115 147.311 157.532 147.184 157.02 146.944C156.507 146.694 156.102 146.365 155.803 145.957C155.514 145.548 155.36 145.099 155.341 144.61L157.368 144.651C157.4 144.958 157.543 145.215 157.798 145.421C158.062 145.628 158.391 145.735 158.783 145.743C159.167 145.751 159.465 145.68 159.679 145.531C159.903 145.382 160.017 145.188 160.021 144.948C160.027 144.69 159.896 144.495 159.631 144.365C159.375 144.226 158.961 144.074 158.389 143.909C157.798 143.754 157.312 143.595 156.932 143.434C156.561 143.273 156.24 143.032 155.969 142.71C155.707 142.389 155.581 141.96 155.592 141.423C155.601 140.983 155.733 140.583 155.99 140.224C156.256 139.865 156.626 139.584 157.099 139.383C157.583 139.182 158.145 139.088 158.787 139.101C159.736 139.12 160.488 139.374 161.043 139.865C161.599 140.345 161.898 140.989 161.939 141.795L160.014 141.756C159.991 141.44 159.862 141.188 159.626 141.001C159.4 140.805 159.091 140.703 158.698 140.695C158.334 140.687 158.05 140.749 157.846 140.879C157.651 141.009 157.552 141.194 157.547 141.434C157.542 141.702 157.672 141.911 157.937 142.06C158.203 142.199 158.617 142.347 159.179 142.502C159.751 142.657 160.222 142.815 160.593 142.976C160.964 143.136 161.28 143.382 161.542 143.714C161.813 144.035 161.948 144.46 161.947 144.987C161.938 145.447 161.801 145.856 161.535 146.215C161.278 146.574 160.908 146.854 160.425 147.056C159.951 147.247 159.399 147.337 158.766 147.324Z" fill="#EDEFFF"/>
<path d="M254.946 141.575C254.813 140.828 254.361 140.447 253.59 140.431C252.993 140.419 252.542 140.642 252.238 141.098C251.934 141.549 251.775 142.3 251.76 143.353C251.921 143.008 252.182 142.741 252.541 142.554C252.907 142.36 253.312 142.267 253.754 142.276C254.445 142.29 254.991 142.516 255.391 142.953C255.799 143.391 255.995 143.988 255.979 144.746C255.97 145.202 255.872 145.61 255.683 145.968C255.502 146.327 255.228 146.61 254.861 146.817C254.501 147.025 254.067 147.123 253.557 147.113C252.866 147.099 252.329 146.934 251.946 146.618C251.564 146.302 251.3 145.87 251.157 145.324C251.014 144.778 250.95 144.105 250.966 143.307C251.015 140.846 251.898 139.632 253.615 139.667C254.273 139.68 254.786 139.868 255.154 140.231C255.523 140.594 255.735 141.048 255.791 141.592L254.946 141.575ZM253.548 143.047C253.259 143.041 252.986 143.096 252.729 143.212C252.472 143.321 252.261 143.494 252.095 143.732C251.936 143.964 251.853 144.251 251.846 144.593C251.836 145.103 251.975 145.522 252.264 145.849C252.553 146.171 252.972 146.337 253.522 146.348C253.991 146.357 254.366 146.22 254.647 145.937C254.935 145.648 255.084 145.255 255.094 144.759C255.104 144.236 254.978 143.824 254.716 143.523C254.453 143.216 254.064 143.057 253.548 143.047Z" fill="#B6B8CA"/>
<path d="M261.005 142.743C261.193 142.432 261.466 142.176 261.826 141.975C262.192 141.768 262.613 141.669 263.09 141.678C263.579 141.688 264.02 141.814 264.411 142.057C264.808 142.3 265.117 142.638 265.336 143.072C265.556 143.499 265.66 143.994 265.649 144.557C265.638 145.114 265.514 145.608 265.277 146.04C265.04 146.471 264.718 146.803 264.311 147.037C263.91 147.27 263.465 147.382 262.976 147.372C262.506 147.363 262.092 147.251 261.734 147.035C261.383 146.814 261.117 146.543 260.935 146.224L260.863 149.856L259.947 149.838L260.11 141.709L261.025 141.727L261.005 142.743ZM264.713 144.539C264.721 144.123 264.645 143.759 264.483 143.447C264.322 143.135 264.099 142.896 263.813 142.729C263.535 142.563 263.225 142.476 262.883 142.469C262.547 142.462 262.234 142.54 261.942 142.702C261.657 142.857 261.424 143.091 261.244 143.402C261.07 143.708 260.979 144.065 260.97 144.474C260.962 144.89 261.039 145.257 261.2 145.575C261.368 145.887 261.591 146.13 261.87 146.303C262.155 146.47 262.465 146.557 262.801 146.564C263.143 146.57 263.456 146.496 263.741 146.341C264.033 146.179 264.266 145.946 264.439 145.64C264.613 145.328 264.705 144.961 264.713 144.539Z" fill="#B6B8CA"/>
<path d="M267.806 142.759C267.973 142.447 268.206 142.207 268.505 142.038C268.81 141.87 269.178 141.79 269.607 141.799L269.588 142.744L269.346 142.739C268.32 142.719 267.796 143.265 267.774 144.379L267.714 147.377L266.798 147.358L266.909 141.845L267.824 141.864L267.806 142.759Z" fill="#B6B8CA"/>
<path d="M272.954 147.572C272.437 147.562 271.97 147.435 271.552 147.192C271.141 146.949 270.819 146.61 270.586 146.176C270.36 145.735 270.253 145.23 270.264 144.66C270.276 144.097 270.406 143.603 270.656 143.178C270.913 142.747 271.255 142.422 271.682 142.203C272.11 141.976 272.585 141.868 273.108 141.879C273.631 141.889 274.102 142.016 274.519 142.259C274.937 142.496 275.263 142.831 275.496 143.265C275.735 143.699 275.849 144.202 275.838 144.772C275.826 145.342 275.689 145.842 275.425 146.273C275.169 146.697 274.823 147.023 274.389 147.249C273.955 147.475 273.477 147.583 272.954 147.572ZM272.97 146.767C273.298 146.774 273.609 146.703 273.9 146.554C274.192 146.406 274.428 146.179 274.608 145.874C274.795 145.569 274.893 145.196 274.902 144.753C274.911 144.31 274.832 143.933 274.663 143.621C274.495 143.309 274.272 143.076 273.993 142.923C273.714 142.763 273.411 142.68 273.082 142.673C272.747 142.667 272.437 142.738 272.152 142.886C271.874 143.028 271.648 143.252 271.474 143.557C271.3 143.862 271.209 144.236 271.2 144.679C271.191 145.128 271.264 145.509 271.419 145.82C271.58 146.132 271.797 146.368 272.069 146.528C272.341 146.681 272.641 146.761 272.97 146.767Z" fill="#B6B8CA"/>
<path d="M276.7 144.779C276.711 144.215 276.835 143.725 277.071 143.307C277.308 142.882 277.627 142.556 278.027 142.33C278.434 142.103 278.886 141.995 279.382 142.004C279.811 142.013 280.208 142.122 280.573 142.33C280.938 142.532 281.215 142.796 281.403 143.122L281.461 140.204L282.387 140.223L282.238 147.668L281.312 147.649L281.333 146.613C281.145 146.938 280.872 147.204 280.512 147.412C280.152 147.612 279.734 147.708 279.258 147.698C278.768 147.689 278.325 147.559 277.927 147.309C277.536 147.06 277.231 146.715 277.012 146.275C276.793 145.834 276.689 145.336 276.7 144.779ZM281.368 144.882C281.376 144.467 281.299 144.103 281.138 143.791C280.976 143.479 280.753 143.24 280.468 143.073C280.189 142.9 279.879 142.81 279.537 142.803C279.195 142.796 278.882 142.87 278.597 143.025C278.312 143.181 278.082 143.411 277.909 143.716C277.735 144.021 277.644 144.382 277.635 144.798C277.627 145.22 277.703 145.591 277.865 145.909C278.026 146.221 278.246 146.464 278.524 146.637C278.803 146.804 279.113 146.89 279.455 146.897C279.797 146.904 280.111 146.83 280.396 146.675C280.687 146.513 280.92 146.279 281.094 145.974C281.268 145.662 281.359 145.298 281.368 144.882Z" fill="#B6B8CA"/>
<path d="M288.785 142.283L288.674 147.796L287.759 147.778L287.775 146.963C287.595 147.241 287.346 147.458 287.027 147.613C286.716 147.761 286.372 147.831 285.996 147.823C285.567 147.815 285.183 147.72 284.845 147.539C284.506 147.351 284.24 147.077 284.046 146.717C283.859 146.358 283.77 145.924 283.78 145.414L283.845 142.184L284.75 142.203L284.688 145.311C284.677 145.854 284.806 146.276 285.075 146.577C285.345 146.871 285.717 147.023 286.193 147.032C286.683 147.042 287.072 146.899 287.359 146.603C287.647 146.306 287.797 145.87 287.808 145.293L287.869 142.265L288.785 142.283Z" fill="#B6B8CA"/>
<path d="M289.933 145.054C289.945 144.484 290.069 143.99 290.305 143.572C290.542 143.147 290.864 142.822 291.271 142.595C291.685 142.368 292.153 142.26 292.676 142.271C293.354 142.284 293.907 142.46 294.336 142.797C294.772 143.135 295.055 143.597 295.184 144.183L294.198 144.163C294.111 143.826 293.932 143.557 293.661 143.357C293.396 143.157 293.063 143.053 292.661 143.045C292.138 143.035 291.711 143.208 291.382 143.563C291.053 143.912 290.882 144.415 290.869 145.073C290.856 145.737 291.006 146.253 291.321 146.622C291.636 146.99 292.054 147.18 292.578 147.19C292.98 147.198 293.317 147.111 293.589 146.929C293.861 146.746 294.051 146.482 294.159 146.135L295.145 146.155C294.986 146.715 294.682 147.162 294.232 147.495C293.783 147.822 293.226 147.978 292.562 147.965C292.039 147.954 291.575 147.828 291.171 147.585C290.773 147.342 290.464 147.004 290.245 146.57C290.026 146.136 289.922 145.631 289.933 145.054Z" fill="#B6B8CA"/>
<path d="M297.543 143.214L297.478 146.463C297.472 146.731 297.525 146.924 297.637 147.04C297.749 147.15 297.946 147.207 298.228 147.213L298.902 147.226L298.886 148.001L298.061 147.984C297.551 147.974 297.171 147.849 296.921 147.609C296.671 147.37 296.551 146.981 296.562 146.445L296.627 143.195L295.913 143.181L295.928 142.426L296.642 142.441L296.67 141.052L297.586 141.071L297.558 142.459L298.996 142.488L298.981 143.242L297.543 143.214Z" fill="#B6B8CA"/>
<path d="M301.945 148.153C301.523 148.144 301.145 148.066 300.813 147.919C300.48 147.765 300.219 147.558 300.03 147.299C299.841 147.034 299.739 146.733 299.726 146.397L300.672 146.416C300.693 146.692 300.816 146.919 301.04 147.098C301.272 147.277 301.575 147.37 301.951 147.378C302.299 147.385 302.576 147.313 302.78 147.163C302.985 147.013 303.089 146.82 303.094 146.586C303.099 146.344 302.995 146.164 302.782 146.046C302.57 145.921 302.241 145.797 301.794 145.674C301.387 145.558 301.053 145.444 300.794 145.332C300.541 145.213 300.323 145.044 300.14 144.826C299.963 144.601 299.878 144.31 299.886 143.955C299.891 143.673 299.98 143.417 300.153 143.185C300.325 142.954 300.567 142.774 300.878 142.646C301.189 142.512 301.543 142.448 301.938 142.456C302.549 142.469 303.039 142.633 303.408 142.949C303.778 143.265 303.97 143.691 303.986 144.228L303.071 144.21C303.056 143.921 302.944 143.688 302.733 143.509C302.528 143.33 302.248 143.237 301.893 143.23C301.564 143.224 301.301 143.289 301.104 143.426C300.907 143.563 300.806 143.745 300.801 143.973C300.797 144.154 300.851 144.306 300.963 144.429C301.081 144.546 301.227 144.643 301.4 144.72C301.58 144.791 301.826 144.873 302.14 144.966C302.533 145.082 302.853 145.195 303.099 145.308C303.345 145.413 303.553 145.572 303.724 145.783C303.901 145.995 303.989 146.268 303.989 146.604C303.983 146.905 303.894 147.175 303.721 147.413C303.549 147.652 303.307 147.838 302.995 147.973C302.691 148.101 302.341 148.161 301.945 148.153Z" fill="#B6B8CA"/>
<path d="M332.993 142.089L336.514 145.754L332.85 149.275" stroke="#EDEFFF" stroke-width="0.898424" stroke-linecap="round" stroke-linejoin="round"/>
<g filter="url(#filter5_d_1479_36715)">
<path d="M30.2657 170.993C30.1195 167.683 32.6841 164.882 35.9939 164.735L353.686 150.698C356.996 150.552 359.798 153.116 359.944 156.426L361.798 198.387C361.944 201.697 359.38 204.499 356.07 204.645L38.3776 218.683C35.0678 218.829 32.2661 216.264 32.1198 212.954L30.2657 170.993Z" fill="#23242D"/>
</g>
<g filter="url(#filter6_d_1479_36715)">
<path d="M43.1333 178.997C43.0602 177.342 44.3425 175.941 45.9974 175.868L69.9752 174.808C71.6301 174.735 73.031 176.017 73.1041 177.672L74.1636 201.65C74.2367 203.305 72.9544 204.706 71.2995 204.779L47.3217 205.838C45.6668 205.912 44.2659 204.629 44.1928 202.974L43.1333 178.997Z" fill="#FF4081"/>
</g>
<path d="M65.756 190.642C65.052 189.997 64.208 189.584 63.3008 189.437C61.1459 189.082 59.2675 188.189 57.8594 186.9C57.5074 186.578 57.0122 186.412 56.5253 186.434C56.3005 186.444 56.0774 186.491 55.856 186.576L54.135 185.001L54.1708 184.962C54.8852 184.142 54.8288 182.869 54.0466 182.153C53.6554 181.795 53.1602 181.629 52.6358 181.652C52.1114 181.675 51.5953 181.886 51.2374 182.277C50.9152 182.629 50.7478 183.087 50.7318 183.575C50.2466 183.634 49.8054 183.841 49.4474 184.233C48.6956 185.054 48.7503 186.29 49.5717 187.042C49.9628 187.4 50.458 187.565 50.9824 187.542C51.5068 187.519 52.0212 187.271 52.3792 186.88L52.415 186.841L54.0969 188.38C53.9945 188.61 53.9295 188.838 53.9411 189.1C53.961 189.55 54.1274 189.918 54.4777 190.202C56.0814 191.67 57.1739 193.461 57.6379 195.467C57.87 196.47 58.4341 197.346 59.1773 198.026C60.1143 198.847 61.3345 199.281 62.608 199.225C63.844 199.17 65.0227 198.668 65.8852 197.804C66.8551 196.823 67.3623 195.562 67.3026 194.214C67.3146 192.787 66.7338 191.537 65.756 190.642ZM52.6033 186.007C52.5251 185.935 52.4485 185.901 52.3361 185.906L52.2987 185.908C52.1863 185.913 52.0773 185.993 52.0448 186.107C51.9748 186.222 51.9407 186.299 51.8691 186.377C51.4395 186.847 50.6155 186.883 50.1461 186.453C49.6002 185.99 49.5654 185.203 50.0324 184.732C50.3188 184.419 50.7259 184.289 51.1038 184.347C51.2178 184.379 51.3659 184.335 51.4359 184.22C51.5075 184.141 51.5383 183.99 51.4959 183.879C51.4027 183.47 51.5343 183.052 51.7849 182.778C52.2145 182.309 53.0386 182.272 53.5079 182.702C54.0164 183.167 54.0512 183.954 53.5841 184.425C53.5125 184.503 53.4409 184.581 53.3302 184.624C53.2212 184.704 53.1496 184.782 53.1546 184.894C53.1595 185.007 53.202 185.117 53.2802 185.189L55.1967 186.943L54.5165 187.686L52.6033 186.007ZM65.3718 197.226C64.6541 197.971 63.6594 198.39 62.6106 198.437C61.5244 198.485 60.4949 198.118 59.6768 197.441C59.0135 196.87 58.5684 196.139 58.343 195.285C57.8365 193.169 56.6625 191.232 54.9415 189.656C54.785 189.513 54.6627 189.293 54.6528 189.069C54.6428 188.844 54.7078 188.616 54.8884 188.458L55.7834 187.48C55.9982 187.245 56.2554 187.121 56.5551 187.108C56.8547 187.095 57.1219 187.196 57.3566 187.41C58.882 188.807 60.8761 189.769 63.1825 190.155C63.9773 190.307 64.6681 190.652 65.2548 191.189C66.1153 191.977 66.5737 193.007 66.6251 194.168C66.6015 195.333 66.1985 196.402 65.3718 197.226Z" fill="#EDEFFF"/>
<path d="M64.6804 191.778C64.211 191.348 63.6359 191.073 62.9925 190.951C62.8036 190.922 62.5838 191.045 62.5563 191.271C62.5271 191.46 62.6495 191.68 62.8758 191.707C63.3677 191.798 63.8272 192.003 64.1808 192.363C64.6893 192.828 64.9813 193.491 65.0112 194.165C65.0426 194.876 64.8086 195.525 64.3432 196.033C64.2 196.19 64.21 196.414 64.3664 196.558C64.4447 196.629 64.5587 196.662 64.6336 196.658C64.746 196.653 64.8192 196.613 64.8908 196.534C65.4994 195.87 65.7984 194.993 65.7586 194.094C65.758 193.231 65.3453 192.386 64.6804 191.778Z" fill="#EDEFFF"/>
<path d="M91.3326 183.436L91.7952 193.894L89.6977 193.987L89.3967 187.185L86.8959 194.111L85.3078 194.181L82.1902 187.504L82.4911 194.306L80.3936 194.398L79.9309 183.941L82.3131 183.835L85.9832 191.464L88.9653 183.541L91.3326 183.436Z" fill="#EDEFFF"/>
<path d="M101.393 189.131C101.407 189.431 101.399 189.701 101.369 189.943L95.3014 190.211C95.3778 190.808 95.6083 191.268 95.9929 191.592C96.3775 191.915 96.8395 192.065 97.3789 192.041C98.158 192.006 98.6975 191.647 98.9975 190.963L101.26 190.863C101.055 191.673 100.625 192.352 99.969 192.902C99.3123 193.441 98.4895 193.733 97.5007 193.777C96.7016 193.812 95.9747 193.669 95.32 193.348C94.6749 193.016 94.1581 192.533 93.7698 191.9C93.3915 191.266 93.1836 190.525 93.146 189.676C93.108 188.817 93.2494 188.055 93.5703 187.39C93.8912 186.726 94.3585 186.205 94.9723 185.827C95.5861 185.45 96.3025 185.243 97.1216 185.207C97.9106 185.172 98.6223 185.31 99.2566 185.623C99.9009 185.934 100.407 186.397 100.774 187.012C101.151 187.615 101.358 188.322 101.393 189.131ZM99.1944 188.628C99.1606 188.089 98.9468 187.668 98.5531 187.365C98.159 187.052 97.6872 186.908 97.1379 186.932C96.6185 186.955 96.1861 187.135 95.8406 187.47C95.5047 187.795 95.3092 188.239 95.254 188.802L99.1944 188.628Z" fill="#EDEFFF"/>
<path d="M102.392 189.237C102.355 188.398 102.486 187.646 102.787 186.983C103.098 186.318 103.531 185.799 104.084 185.424C104.648 185.049 105.285 184.846 105.994 184.814C106.613 184.787 107.158 184.888 107.629 185.117C108.109 185.346 108.498 185.644 108.794 186.011L108.742 184.828L110.854 184.734L111.221 193.035L109.109 193.128L109.055 191.914C108.803 192.316 108.443 192.657 107.975 192.938C107.516 193.208 106.977 193.357 106.358 193.385C105.659 193.416 105.012 193.264 104.417 192.93C103.831 192.596 103.354 192.112 102.986 191.477C102.627 190.833 102.429 190.086 102.392 189.237ZM108.925 188.978C108.903 188.468 108.784 188.038 108.568 187.688C108.352 187.327 108.07 187.059 107.722 186.884C107.373 186.7 107.004 186.616 106.615 186.633C106.225 186.65 105.87 186.761 105.549 186.966C105.228 187.17 104.97 187.461 104.777 187.84C104.593 188.209 104.512 188.643 104.534 189.142C104.556 189.641 104.676 190.077 104.892 190.447C105.118 190.808 105.401 191.08 105.739 191.265C106.087 191.45 106.451 191.534 106.831 191.517C107.221 191.5 107.581 191.389 107.912 191.184C108.243 190.97 108.5 190.678 108.684 190.31C108.867 189.931 108.948 189.487 108.925 188.978Z" fill="#EDEFFF"/>
<path d="M115.421 186.259L115.599 190.274C115.611 190.554 115.685 190.755 115.821 190.88C115.966 190.993 116.198 191.043 116.518 191.029L117.492 190.986L117.57 192.754L116.252 192.812C114.484 192.89 113.562 192.07 113.486 190.352L113.309 186.352L112.32 186.396L112.244 184.673L113.232 184.629L113.142 182.576L115.254 182.483L115.345 184.536L117.203 184.453L117.279 186.176L115.421 186.259Z" fill="#EDEFFF"/>
<path d="M130.694 192.173L129.506 191.1C128.576 192.012 127.411 192.498 126.013 192.56C125.244 192.594 124.559 192.495 123.958 192.261C123.367 192.017 122.901 191.662 122.56 191.197C122.219 190.722 122.034 190.164 122.005 189.525C121.975 188.836 122.142 188.208 122.508 187.641C122.873 187.075 123.427 186.605 124.172 186.232C123.887 185.914 123.679 185.608 123.545 185.314C123.412 185.009 123.337 184.682 123.322 184.333C123.301 183.853 123.407 183.418 123.64 183.028C123.872 182.627 124.213 182.307 124.663 182.067C125.123 181.826 125.662 181.692 126.281 181.665C126.911 181.637 127.455 181.733 127.915 181.953C128.375 182.173 128.724 182.478 128.962 182.867C129.199 183.257 129.314 183.697 129.305 184.188L127.268 184.278C127.263 183.948 127.172 183.702 126.995 183.54C126.817 183.368 126.583 183.288 126.294 183.301C126.014 183.313 125.783 183.408 125.601 183.586C125.428 183.754 125.347 183.968 125.359 184.228C125.37 184.477 125.456 184.724 125.617 184.967C125.777 185.2 126.035 185.489 126.391 185.833L129.143 188.324C129.162 188.303 129.176 188.282 129.185 188.262C129.194 188.241 129.203 188.221 129.213 188.2L130.004 186.739L132.191 186.643L131.224 188.532C131.041 188.93 130.843 189.309 130.629 189.669L133.271 192.059L130.694 192.173ZM125.996 190.82C126.815 190.783 127.526 190.462 128.13 189.855L125.44 187.422C124.49 187.894 124.033 188.525 124.068 189.314C124.088 189.763 124.274 190.135 124.628 190.43C124.98 190.714 125.436 190.844 125.996 190.82Z" fill="#EDEFFF"/>
<path d="M143.875 181.112L143.95 182.805L139.59 182.998L139.708 185.679L143.049 185.532L143.123 187.195L139.782 187.343L139.977 191.762L137.88 191.855L137.417 181.397L143.875 181.112Z" fill="#EDEFFF"/>
<path d="M146.478 182.167C146.108 182.184 145.793 182.083 145.533 181.864C145.283 181.635 145.15 181.346 145.135 180.996C145.119 180.646 145.226 180.351 145.456 180.111C145.695 179.86 145.999 179.727 146.369 179.71C146.738 179.694 147.048 179.8 147.299 180.03C147.559 180.248 147.696 180.532 147.712 180.882C147.727 181.232 147.615 181.532 147.376 181.782C147.147 182.023 146.847 182.151 146.478 182.167ZM147.555 183.111L147.922 191.411L145.825 191.504L145.458 183.203L147.555 183.111Z" fill="#EDEFFF"/>
<path d="M153.177 191.314C152.498 191.344 151.883 191.251 151.333 191.035C150.783 190.809 150.338 190.493 150 190.088C149.672 189.682 149.482 189.225 149.429 188.717L151.542 188.624C151.596 188.942 151.762 189.199 152.041 189.397C152.33 189.595 152.679 189.684 153.089 189.666C153.489 189.648 153.795 189.555 154.007 189.385C154.23 189.215 154.336 189.005 154.325 188.756C154.313 188.486 154.164 188.293 153.879 188.175C153.603 188.047 153.162 187.917 152.555 187.783C151.929 187.661 151.413 187.529 151.007 187.386C150.61 187.244 150.26 187.014 149.955 186.697C149.661 186.38 149.502 185.942 149.477 185.382C149.456 184.923 149.568 184.498 149.811 184.107C150.064 183.715 150.43 183.399 150.91 183.157C151.399 182.916 151.979 182.78 152.648 182.75C153.637 182.706 154.437 182.921 155.048 183.395C155.659 183.858 156.013 184.508 156.11 185.344L154.103 185.433C154.058 185.105 153.907 184.851 153.649 184.672C153.4 184.483 153.071 184.398 152.662 184.416C152.282 184.433 151.99 184.516 151.787 184.665C151.593 184.813 151.502 185.013 151.513 185.262C151.525 185.542 151.675 185.751 151.961 185.888C152.247 186.015 152.688 186.141 153.284 186.265C153.89 186.388 154.391 186.521 154.788 186.664C155.184 186.806 155.53 187.041 155.825 187.368C156.129 187.685 156.298 188.118 156.332 188.667C156.354 189.146 156.238 189.582 155.985 189.973C155.742 190.364 155.376 190.681 154.886 190.923C154.406 191.154 153.836 191.284 153.177 191.314Z" fill="#EDEFFF"/>
<path d="M162.461 182.331C163.09 182.303 163.656 182.418 164.158 182.676C164.659 182.924 165.056 183.312 165.35 183.84C165.653 184.357 165.821 184.99 165.854 185.739L166.07 190.608L163.972 190.701L163.769 186.116C163.74 185.457 163.553 184.96 163.208 184.625C162.862 184.28 162.405 184.12 161.836 184.145C161.256 184.171 160.805 184.371 160.481 184.745C160.167 185.11 160.024 185.621 160.054 186.281L160.256 190.865L158.159 190.958L157.668 179.871L159.766 179.778L159.935 183.599C160.189 183.227 160.536 182.932 160.977 182.712C161.417 182.482 161.912 182.355 162.461 182.331Z" fill="#EDEFFF"/>
<path d="M254.543 184.926C255.4 184.173 256.07 183.559 256.553 183.082C257.036 182.598 257.438 182.101 257.758 181.589C258.086 181.07 258.239 180.57 258.217 180.087C258.197 179.633 258.07 179.281 257.835 179.032C257.606 178.776 257.247 178.659 256.758 178.681C256.282 178.702 255.918 178.868 255.666 179.181C255.42 179.486 255.298 179.887 255.299 180.384L254.376 180.425C254.369 179.641 254.58 179.026 255.009 178.579C255.437 178.133 256.005 177.894 256.711 177.863C257.431 177.831 258.01 178.005 258.447 178.385C258.891 178.765 259.129 179.304 259.159 180.003C259.185 180.584 259.035 181.158 258.71 181.726C258.392 182.286 258.022 182.786 257.6 183.225C257.177 183.657 256.636 184.164 255.975 184.747L259.583 184.587L259.618 185.384L254.574 185.608L254.543 184.926Z" fill="#B6B8CA"/>
<path d="M264.426 180.559C264.6 180.222 264.867 179.937 265.228 179.703C265.596 179.463 266.028 179.332 266.524 179.31C267.035 179.287 267.502 179.389 267.925 179.616C268.355 179.842 268.699 180.173 268.957 180.61C269.214 181.04 269.356 181.549 269.382 182.136C269.407 182.717 269.311 183.239 269.094 183.704C268.876 184.169 268.563 184.537 268.155 184.807C267.753 185.077 267.297 185.223 266.787 185.246C266.298 185.268 265.859 185.178 265.472 184.978C265.092 184.771 264.796 184.507 264.586 184.187L264.754 187.973L263.799 188.016L263.424 179.542L264.379 179.499L264.426 180.559ZM268.406 182.179C268.387 181.746 268.283 181.372 268.094 181.058C267.905 180.744 267.656 180.51 267.348 180.356C267.047 180.201 266.718 180.131 266.362 180.147C266.012 180.163 265.691 180.264 265.398 180.453C265.112 180.633 264.885 180.892 264.718 181.229C264.557 181.558 264.486 181.936 264.505 182.362C264.525 182.796 264.629 183.173 264.818 183.494C265.014 183.808 265.263 184.045 265.564 184.207C265.872 184.362 266.201 184.431 266.551 184.416C266.907 184.4 267.229 184.302 267.515 184.121C267.808 183.933 268.035 183.674 268.195 183.345C268.355 183.008 268.426 182.62 268.406 182.179Z" fill="#B6B8CA"/>
<path d="M271.507 180.119C271.661 179.783 271.887 179.517 272.187 179.322C272.493 179.126 272.87 179.019 273.318 178.999L273.361 179.985L273.11 179.996C272.04 180.043 271.531 180.647 271.582 181.808L271.72 184.933L270.766 184.975L270.512 179.228L271.466 179.186L271.507 180.119Z" fill="#B6B8CA"/>
<path d="M277.189 184.786C276.651 184.81 276.156 184.709 275.705 184.484C275.26 184.258 274.902 183.927 274.631 183.491C274.366 183.047 274.22 182.528 274.194 181.934C274.168 181.347 274.271 180.824 274.503 180.365C274.742 179.899 275.076 179.537 275.506 179.28C275.936 179.016 276.423 178.872 276.968 178.848C277.514 178.824 278.012 178.924 278.463 179.149C278.914 179.368 279.276 179.695 279.547 180.131C279.826 180.567 279.978 181.083 280.004 181.677C280.031 182.271 279.921 182.801 279.675 183.268C279.437 183.727 279.099 184.088 278.662 184.353C278.225 184.617 277.734 184.762 277.189 184.786ZM277.152 183.947C277.495 183.932 277.813 183.837 278.106 183.663C278.4 183.489 278.63 183.237 278.798 182.907C278.972 182.577 279.049 182.181 279.029 181.72C279.009 181.259 278.9 180.871 278.704 180.557C278.508 180.244 278.26 180.017 277.96 179.876C277.659 179.728 277.337 179.662 276.995 179.677C276.645 179.692 276.327 179.787 276.04 179.961C275.761 180.127 275.54 180.375 275.38 180.704C275.219 181.034 275.149 181.429 275.17 181.891C275.19 182.359 275.292 182.75 275.474 183.065C275.663 183.379 275.904 183.61 276.198 183.758C276.491 183.899 276.809 183.962 277.152 183.947Z" fill="#B6B8CA"/>
<path d="M280.902 181.627C280.876 181.039 280.972 180.52 281.191 180.069C281.408 179.611 281.718 179.251 282.12 178.988C282.529 178.724 282.992 178.581 283.509 178.558C283.957 178.539 284.377 178.625 284.771 178.818C285.165 179.004 285.47 179.26 285.688 179.586L285.553 176.545L286.518 176.502L286.861 184.263L285.897 184.306L285.849 183.226C285.675 183.577 285.408 183.872 285.047 184.112C284.686 184.345 284.258 184.473 283.761 184.495C283.251 184.518 282.78 184.412 282.35 184.179C281.926 183.946 281.585 183.607 281.327 183.163C281.07 182.719 280.928 182.207 280.902 181.627ZM285.769 181.422C285.75 180.988 285.646 180.615 285.457 180.301C285.268 179.987 285.019 179.753 284.711 179.598C284.41 179.436 284.081 179.363 283.724 179.379C283.367 179.395 283.046 179.493 282.76 179.674C282.474 179.855 282.25 180.11 282.09 180.439C281.929 180.769 281.858 181.15 281.878 181.583C281.897 182.024 282.001 182.405 282.191 182.725C282.38 183.039 282.625 183.277 282.926 183.439C283.227 183.594 283.556 183.663 283.913 183.648C284.269 183.632 284.591 183.534 284.877 183.353C285.17 183.165 285.397 182.906 285.557 182.577C285.718 182.24 285.788 181.855 285.769 181.422Z" fill="#B6B8CA"/>
<path d="M293.317 178.219L293.571 183.966L292.617 184.009L292.579 183.159C292.41 183.461 292.165 183.703 291.844 183.885C291.53 184.06 291.177 184.156 290.785 184.174C290.338 184.193 289.932 184.12 289.567 183.954C289.202 183.781 288.907 183.514 288.68 183.153C288.461 182.791 288.34 182.345 288.316 181.813L288.168 178.447L289.111 178.405L289.255 181.646C289.28 182.212 289.442 182.643 289.743 182.938C290.043 183.226 290.441 183.359 290.937 183.337C291.448 183.314 291.843 183.139 292.123 182.812C292.402 182.484 292.529 182.019 292.502 181.418L292.363 178.261L293.317 178.219Z" fill="#B6B8CA"/>
<path d="M294.698 181.027C294.672 180.432 294.768 179.91 294.986 179.459C295.204 179.001 295.518 178.64 295.926 178.377C296.342 178.113 296.822 177.969 297.368 177.945C298.074 177.914 298.662 178.06 299.132 178.382C299.608 178.704 299.933 179.166 300.107 179.768L299.079 179.814C298.966 179.468 298.761 179.201 298.466 179.011C298.177 178.82 297.823 178.734 297.404 178.753C296.858 178.777 296.426 178.985 296.107 179.378C295.788 179.763 295.644 180.298 295.674 180.984C295.704 181.676 295.896 182.203 296.248 182.566C296.601 182.929 297.049 183.098 297.595 183.074C298.014 183.055 298.36 182.942 298.631 182.734C298.902 182.526 299.081 182.237 299.17 181.869L300.198 181.824C300.07 182.418 299.783 182.903 299.338 183.28C298.892 183.65 298.323 183.851 297.63 183.881C297.085 183.905 296.594 183.805 296.156 183.579C295.726 183.353 295.382 183.021 295.125 182.584C294.867 182.147 294.725 181.628 294.698 181.027Z" fill="#B6B8CA"/>
<path d="M302.498 178.601L302.648 181.989C302.66 182.268 302.728 182.465 302.852 182.579C302.976 182.685 303.185 182.732 303.479 182.719L304.181 182.688L304.217 183.495L303.357 183.533C302.826 183.557 302.422 183.452 302.145 183.219C301.869 182.986 301.718 182.59 301.693 182.031L301.543 178.643L300.799 178.676L300.764 177.89L301.509 177.857L301.445 176.409L302.399 176.367L302.463 177.814L303.963 177.748L303.998 178.535L302.498 178.601Z" fill="#B6B8CA"/>
<path d="M307.412 183.449C306.972 183.468 306.573 183.412 306.217 183.281C305.861 183.142 305.575 182.945 305.361 182.688C305.146 182.425 305.02 182.118 304.984 181.77L305.97 181.726C306.011 182.011 306.154 182.24 306.399 182.411C306.652 182.582 306.974 182.659 307.366 182.642C307.73 182.625 308.013 182.532 308.215 182.362C308.418 182.192 308.514 181.985 308.503 181.74C308.492 181.488 308.372 181.308 308.143 181.199C307.913 181.083 307.562 180.976 307.088 180.878C306.657 180.785 306.302 180.689 306.025 180.589C305.754 180.482 305.515 180.321 305.31 180.105C305.111 179.883 305.003 179.587 304.987 179.216C304.974 178.922 305.049 178.649 305.213 178.397C305.377 178.144 305.617 177.941 305.932 177.787C306.247 177.626 306.611 177.536 307.024 177.518C307.66 177.49 308.181 177.628 308.587 177.932C308.992 178.237 309.222 178.668 309.274 179.226L308.32 179.268C308.286 178.968 308.153 178.733 307.921 178.561C307.696 178.389 307.399 178.311 307.028 178.327C306.685 178.342 306.416 178.428 306.22 178.584C306.023 178.739 305.931 178.936 305.941 179.174C305.949 179.363 306.016 179.517 306.14 179.638C306.271 179.751 306.429 179.842 306.615 179.911C306.807 179.973 307.069 180.042 307.401 180.118C307.819 180.212 308.159 180.309 308.423 180.409C308.686 180.502 308.914 180.654 309.105 180.862C309.304 181.071 309.414 181.349 309.436 181.699C309.45 182.013 309.375 182.3 309.212 182.56C309.048 182.819 308.809 183.03 308.494 183.191C308.185 183.344 307.825 183.43 307.412 183.449Z" fill="#B6B8CA"/>
<path d="M339.293 174.187L343.205 177.767L339.625 181.678" stroke="#EDEFFF" stroke-width="0.937319" stroke-linecap="round" stroke-linejoin="round"/>
<g filter="url(#filter7_d_1479_36715)">
<path d="M38.7108 208.992C38.8709 205.683 41.6834 203.13 44.9926 203.29L347.641 217.933C350.95 218.093 353.503 220.906 353.343 224.215L351.432 263.716C351.271 267.025 348.459 269.578 345.15 269.418L42.5015 254.775C39.1923 254.615 36.6395 251.803 36.7996 248.493L38.7108 208.992Z" fill="#23242D"/>
</g>
<g filter="url(#filter8_d_1479_36715)">
<path d="M49.8622 217.863C49.9387 216.282 51.2826 215.062 52.8639 215.138L76.1036 216.263C77.6849 216.339 78.9048 217.683 78.8283 219.265L77.7039 242.504C77.6274 244.086 76.2835 245.305 74.7022 245.229L51.4625 244.105C49.8812 244.028 48.6613 242.684 48.7378 241.103L49.8622 217.863Z" fill="#0288D1"/>
</g>
<path d="M61.6645 224.016L61.7718 224.021C61.9866 224.031 62.1367 223.895 62.1471 223.68L62.232 221.927C62.2424 221.712 62.1062 221.562 61.8915 221.551L57.7041 221.348C57.4893 221.338 57.3392 221.474 57.3288 221.689L57.2439 223.443C57.2335 223.657 57.3697 223.808 57.5844 223.818L57.6918 223.823C57.6502 224.682 57.358 225.529 56.8563 226.258C56.2761 227.127 55.9413 228.115 55.8927 229.117L55.5078 237.062C55.4714 237.814 56.0486 238.488 56.836 238.526L61.095 238.732C61.8465 238.769 62.5202 238.191 62.5584 237.404L62.9433 229.459C62.9936 228.421 62.7559 227.405 62.2606 226.52C61.8318 225.746 61.6211 224.91 61.6645 224.016ZM58.0273 222.082L61.4989 222.25L61.4486 223.288L61.3412 223.282L58.1202 223.126L57.977 223.119L58.0273 222.082ZM62.0281 233.54C61.8405 233.71 61.4826 233.693 61.3123 233.505C60.8696 233.017 60.0822 232.979 59.5944 233.422C59.4068 233.592 59.0489 233.575 58.8786 233.387C58.4359 232.899 57.6485 232.861 57.1607 233.304C56.9731 233.474 56.651 233.459 56.4449 233.269L56.601 230.048C57.0235 230.212 57.494 230.127 57.8317 229.821C58.0193 229.651 58.3772 229.668 58.5475 229.856C58.9902 230.343 59.7776 230.381 60.2654 229.939C60.453 229.768 60.7751 229.784 60.9812 229.973C61.1855 230.199 61.5007 230.357 61.8228 230.373C61.9302 230.378 62.0751 230.349 62.1842 230.319L62.0281 233.54ZM61.1296 238.016L56.8706 237.81C56.5127 237.793 56.2045 237.491 56.2236 237.097L56.371 234.055C56.7935 234.219 57.264 234.134 57.6017 233.828C57.7893 233.657 58.1472 233.675 58.3175 233.862C58.7602 234.35 59.5476 234.388 60.0354 233.945C60.223 233.775 60.5451 233.791 60.7512 233.98C60.9555 234.205 61.2707 234.364 61.5928 234.38C61.7002 234.385 61.8451 234.356 61.9542 234.325L61.8068 237.368C61.8235 237.763 61.4875 238.034 61.1296 238.016ZM62.2241 229.496C62.0364 229.666 61.6785 229.648 61.5083 229.461C61.0655 228.973 60.2782 228.935 59.7904 229.378C59.6027 229.548 59.2448 229.531 59.0746 229.343C58.6318 228.855 57.8445 228.817 57.3566 229.26C57.169 229.43 56.8469 229.414 56.6408 229.225L56.6443 229.153C56.6877 228.259 56.9815 227.376 57.4832 226.647C58.0617 225.814 58.3948 224.862 58.4434 223.86L60.9487 223.981C60.9001 224.983 61.1396 225.963 61.6348 226.848C62.0637 227.622 62.2709 228.529 62.2275 229.424L62.2241 229.496Z" fill="#EDEFFF"/>
<path d="M72.1174 228.181C72.0493 228.106 71.9437 228.065 71.8363 228.06L63.7836 227.67C63.6762 227.665 63.5671 227.695 63.492 227.763C63.417 227.831 63.376 227.937 63.4066 228.046L64.4392 238.571C64.4664 238.752 64.6026 238.902 64.7815 238.911L69.7921 239.154C69.9711 239.162 70.1212 239.026 70.1656 238.849L72.2109 228.473C72.2161 228.365 72.1855 228.256 72.1174 228.181ZM65.1025 238.209L65.0027 237.307L69.6554 237.533L69.5047 238.422L65.1025 238.209ZM69.8332 236.824L64.9658 236.588L64.1784 228.406L71.4079 228.757L69.8332 236.824Z" fill="#EDEFFF"/>
<path d="M88.7458 226.452C89.7956 226.503 90.7067 226.753 91.4789 227.201C92.2607 227.651 92.8479 228.267 93.2404 229.052C93.6429 229.827 93.8198 230.716 93.7713 231.718C93.7227 232.72 93.4607 233.587 92.9851 234.32C92.5196 235.044 91.876 235.591 91.0545 235.963C90.2424 236.335 89.3115 236.495 88.2616 236.445L84.7686 236.275L85.2527 226.283L88.7458 226.452ZM88.2726 234.737C89.3224 234.788 90.1476 234.541 90.7479 233.996C91.3483 233.451 91.6737 232.659 91.7241 231.619C91.7745 230.578 91.5275 229.753 90.9831 229.143C90.4391 228.524 89.6422 228.189 88.5924 228.138L87.1751 228.069L86.8553 234.669L88.2726 234.737Z" fill="#EDEFFF"/>
<path d="M94.7083 232.753C94.7472 231.952 94.9391 231.248 95.2841 230.643C95.6386 230.038 96.096 229.582 96.6562 229.275C97.2259 228.967 97.8496 228.83 98.5272 228.863C99.119 228.892 99.6286 229.036 100.056 229.296C100.493 229.556 100.836 229.874 101.086 230.25L101.141 229.119L103.159 229.217L102.775 237.148L100.757 237.05L100.813 235.89C100.537 236.25 100.164 236.543 99.694 236.769C99.2338 236.986 98.7079 237.08 98.1162 237.051C97.4481 237.019 96.8456 236.817 96.3087 236.447C95.7814 236.077 95.3705 235.574 95.076 234.938C94.7916 234.293 94.669 233.565 94.7083 232.753ZM100.949 233.084C100.972 232.598 100.897 232.178 100.723 231.825C100.549 231.463 100.304 231.183 99.9885 230.986C99.6733 230.779 99.3295 230.667 98.9573 230.649C98.5851 230.631 98.2371 230.705 97.9134 230.871C97.5896 231.037 97.319 231.292 97.1015 231.635C96.894 231.97 96.7786 232.375 96.7555 232.852C96.7324 233.33 96.8075 233.754 96.9808 234.126C97.1641 234.489 97.4086 234.773 97.7143 234.98C98.0296 235.186 98.3685 235.298 98.7312 235.316C99.1034 235.334 99.4562 235.26 99.7894 235.095C100.123 234.919 100.394 234.665 100.601 234.33C100.809 233.986 100.925 233.571 100.949 233.084Z" fill="#EDEFFF"/>
<path d="M106.179 228.416C105.826 228.399 105.535 228.275 105.307 228.044C105.089 227.803 104.989 227.516 105.005 227.182C105.021 226.848 105.149 226.577 105.389 226.369C105.638 226.151 105.94 226.051 106.293 226.068C106.646 226.085 106.931 226.214 107.149 226.454C107.377 226.685 107.483 226.968 107.467 227.302C107.451 227.636 107.318 227.911 107.068 228.129C106.829 228.337 106.532 228.433 106.179 228.416ZM107.121 229.409L106.737 237.34L104.733 237.243L105.117 229.311L107.121 229.409Z" fill="#EDEFFF"/>
<path d="M111.046 230.833C111.324 230.425 111.674 230.112 112.096 229.894C112.527 229.675 113.01 229.579 113.545 229.605L113.443 231.709L112.913 231.684C112.283 231.653 111.799 231.778 111.46 232.058C111.131 232.339 110.948 232.847 110.913 233.581L110.721 237.533L108.717 237.436L109.101 229.504L111.106 229.602L111.046 230.833Z" fill="#EDEFFF"/>
<path d="M122.477 230.153L117 241.596L114.867 241.493L116.777 237.625L113.973 229.741L116.221 229.849L117.999 235.489L120.344 230.049L122.477 230.153Z" fill="#EDEFFF"/>
<path d="M255.857 236.093L252.339 235.923L252.229 238.208C252.393 238.001 252.628 237.839 252.935 237.72C253.243 237.594 253.57 237.539 253.918 237.556C254.472 237.583 254.918 237.722 255.254 237.972C255.59 238.216 255.823 238.526 255.952 238.9C256.088 239.268 256.146 239.656 256.127 240.064C256.103 240.545 255.992 240.971 255.793 241.344C255.595 241.716 255.303 242.003 254.918 242.205C254.54 242.408 254.077 242.496 253.529 242.469C252.828 242.435 252.268 242.227 251.852 241.846C251.435 241.464 251.194 240.97 251.13 240.364L252.022 240.407C252.09 240.792 252.259 241.099 252.53 241.326C252.8 241.553 253.149 241.677 253.576 241.698C254.104 241.724 254.509 241.586 254.792 241.285C255.075 240.977 255.229 240.563 255.254 240.042C255.279 239.521 255.165 239.113 254.911 238.82C254.658 238.52 254.271 238.357 253.75 238.332C253.396 238.314 253.081 238.386 252.805 238.547C252.536 238.701 252.335 238.923 252.2 239.211L251.338 239.169L251.537 235.08L255.896 235.292L255.857 236.093Z" fill="#B6B8CA"/>
<path d="M261.168 238.329C261.364 238.024 261.643 237.776 262.008 237.587C262.379 237.39 262.801 237.304 263.276 237.327C263.763 237.35 264.199 237.488 264.582 237.741C264.971 237.995 265.269 238.341 265.475 238.779C265.682 239.211 265.772 239.708 265.745 240.269C265.718 240.823 265.58 241.312 265.332 241.735C265.084 242.159 264.754 242.481 264.341 242.702C263.935 242.923 263.489 243.022 263.001 242.999C262.533 242.976 262.124 242.852 261.773 242.628C261.43 242.397 261.172 242.12 261 241.797L260.825 245.414L259.913 245.37L260.305 237.273L261.217 237.317L261.168 238.329ZM264.813 240.224C264.833 239.809 264.767 239.445 264.615 239.129C264.463 238.814 264.247 238.569 263.967 238.395C263.694 238.221 263.388 238.125 263.047 238.109C262.713 238.093 262.398 238.161 262.103 238.314C261.815 238.461 261.576 238.687 261.387 238.993C261.205 239.292 261.104 239.645 261.085 240.053C261.064 240.467 261.13 240.835 261.282 241.157C261.441 241.473 261.657 241.721 261.929 241.902C262.209 242.076 262.515 242.171 262.849 242.188C263.19 242.204 263.505 242.139 263.793 241.992C264.088 241.839 264.327 241.613 264.509 241.314C264.691 241.008 264.792 240.644 264.813 240.224Z" fill="#B6B8CA"/>
<path d="M267.946 238.537C268.122 238.231 268.36 237.998 268.663 237.839C268.972 237.68 269.34 237.61 269.768 237.631L269.722 238.573L269.482 238.561C268.459 238.512 267.922 239.042 267.868 240.151L267.723 243.137L266.811 243.093L267.077 237.601L267.989 237.645L267.946 238.537Z" fill="#B6B8CA"/>
<path d="M272.94 243.48C272.426 243.455 271.964 243.316 271.554 243.061C271.151 242.807 270.84 242.461 270.62 242.022C270.407 241.576 270.315 241.069 270.342 240.502C270.37 239.94 270.514 239.452 270.775 239.036C271.043 238.614 271.393 238.299 271.825 238.092C272.257 237.879 272.734 237.785 273.255 237.81C273.776 237.835 274.242 237.975 274.651 238.229C275.061 238.477 275.376 238.82 275.596 239.259C275.822 239.699 275.922 240.203 275.894 240.77C275.867 241.338 275.715 241.833 275.44 242.255C275.173 242.671 274.819 242.985 274.38 243.198C273.941 243.411 273.461 243.505 272.94 243.48ZM272.979 242.678C273.306 242.694 273.617 242.632 273.912 242.493C274.207 242.353 274.449 242.133 274.637 241.835C274.832 241.536 274.941 241.166 274.962 240.725C274.983 240.284 274.915 239.906 274.756 239.59C274.597 239.275 274.381 239.036 274.108 238.876C273.834 238.709 273.534 238.617 273.207 238.601C272.873 238.585 272.562 238.647 272.274 238.787C271.993 238.921 271.761 239.137 271.579 239.436C271.397 239.736 271.296 240.106 271.274 240.547C271.253 240.994 271.315 241.376 271.46 241.691C271.612 242.006 271.821 242.247 272.088 242.414C272.355 242.574 272.652 242.663 272.979 242.678Z" fill="#B6B8CA"/>
<path d="M276.753 240.802C276.78 240.241 276.917 239.755 277.165 239.345C277.413 238.929 277.739 238.613 278.145 238.398C278.557 238.184 279.01 238.089 279.505 238.113C279.932 238.134 280.325 238.253 280.683 238.471C281.041 238.683 281.309 238.954 281.487 239.284L281.628 236.377L282.55 236.422L282.191 243.838L281.269 243.793L281.319 242.761C281.122 243.08 280.842 243.337 280.478 243.534C280.114 243.724 279.694 243.807 279.22 243.784C278.732 243.761 278.294 243.619 277.905 243.359C277.522 243.099 277.228 242.747 277.022 242.302C276.816 241.856 276.726 241.357 276.753 240.802ZM281.402 241.037C281.422 240.623 281.356 240.258 281.204 239.943C281.052 239.628 280.836 239.383 280.557 239.208C280.284 239.028 279.978 238.929 279.637 238.913C279.296 238.896 278.982 238.961 278.693 239.108C278.405 239.255 278.17 239.478 277.988 239.777C277.806 240.076 277.705 240.433 277.685 240.847C277.664 241.268 277.73 241.64 277.882 241.962C278.034 242.277 278.246 242.525 278.519 242.706C278.792 242.88 279.098 242.975 279.439 242.991C279.78 243.008 280.094 242.943 280.383 242.796C280.678 242.643 280.917 242.417 281.099 242.118C281.281 241.812 281.382 241.452 281.402 241.037Z" fill="#B6B8CA"/>
<path d="M288.868 238.657L288.602 244.148L287.69 244.104L287.729 243.293C287.542 243.565 287.288 243.773 286.966 243.919C286.651 244.057 286.307 244.118 285.932 244.099C285.505 244.079 285.125 243.973 284.793 243.783C284.461 243.586 284.203 243.306 284.02 242.942C283.843 242.579 283.767 242.143 283.792 241.635L283.948 238.418L284.85 238.462L284.7 241.559C284.673 242.1 284.79 242.524 285.05 242.831C285.31 243.132 285.677 243.294 286.151 243.317C286.639 243.34 287.03 243.208 287.325 242.921C287.621 242.634 287.782 242.204 287.81 241.629L287.956 238.613L288.868 238.657Z" fill="#B6B8CA"/>
<path d="M289.935 241.451C289.962 240.883 290.1 240.394 290.347 239.984C290.595 239.568 290.925 239.252 291.337 239.038C291.756 238.824 292.226 238.729 292.747 238.754C293.422 238.787 293.968 238.978 294.387 239.326C294.812 239.675 295.08 240.143 295.193 240.731L294.211 240.684C294.133 240.345 293.962 240.072 293.698 239.865C293.44 239.658 293.111 239.545 292.71 239.526C292.189 239.501 291.759 239.661 291.421 240.006C291.083 240.345 290.898 240.841 290.866 241.496C290.834 242.157 290.97 242.676 291.273 243.052C291.576 243.429 291.989 243.629 292.51 243.655C292.911 243.674 293.249 243.597 293.525 243.423C293.802 243.249 293.998 242.99 294.115 242.648L295.097 242.695C294.923 243.249 294.607 243.686 294.15 244.005C293.693 244.318 293.134 244.458 292.472 244.426C291.951 244.401 291.493 244.262 291.096 244.008C290.707 243.755 290.409 243.409 290.202 242.97C289.996 242.532 289.907 242.025 289.935 241.451Z" fill="#B6B8CA"/>
<path d="M297.571 239.832L297.414 243.069C297.401 243.336 297.449 243.529 297.557 243.648C297.665 243.761 297.86 243.824 298.14 243.837L298.812 243.87L298.774 244.641L297.952 244.601C297.445 244.577 297.07 244.442 296.827 244.195C296.584 243.949 296.476 243.559 296.502 243.024L296.659 239.788L295.947 239.753L295.984 239.002L296.695 239.036L296.762 237.653L297.674 237.697L297.607 239.08L299.04 239.15L299.004 239.901L297.571 239.832Z" fill="#B6B8CA"/>
<path d="M301.819 244.879C301.398 244.859 301.024 244.77 300.697 244.614C300.37 244.451 300.116 244.238 299.934 243.974C299.753 243.704 299.66 243.402 299.657 243.067L300.599 243.112C300.612 243.388 300.728 243.618 300.947 243.802C301.172 243.987 301.472 244.089 301.846 244.107C302.194 244.124 302.471 244.06 302.679 243.916C302.887 243.772 302.997 243.584 303.008 243.35C303.02 243.109 302.921 242.927 302.713 242.803C302.505 242.672 302.18 242.54 301.738 242.404C301.336 242.278 301.007 242.155 300.751 242.035C300.503 241.909 300.29 241.735 300.114 241.512C299.944 241.283 299.868 240.991 299.885 240.637C299.898 240.356 299.994 240.103 300.173 239.878C300.351 239.652 300.597 239.48 300.911 239.361C301.225 239.235 301.579 239.182 301.973 239.201C302.581 239.231 303.065 239.408 303.424 239.734C303.783 240.059 303.963 240.49 303.964 241.026L303.052 240.981C303.046 240.693 302.94 240.457 302.735 240.273C302.536 240.089 302.26 239.989 301.906 239.972C301.579 239.956 301.315 240.013 301.114 240.144C300.914 240.275 300.808 240.454 300.797 240.681C300.788 240.862 300.838 241.015 300.945 241.14C301.06 241.26 301.202 241.36 301.373 241.442C301.55 241.518 301.793 241.607 302.103 241.709C302.492 241.835 302.808 241.957 303.05 242.076C303.292 242.188 303.495 242.352 303.659 242.568C303.829 242.783 303.909 243.059 303.9 243.393C303.885 243.694 303.789 243.96 303.61 244.193C303.431 244.425 303.185 244.604 302.871 244.729C302.564 244.848 302.213 244.898 301.819 244.879Z" fill="#B6B8CA"/>
<path d="M332.936 239.705L336.341 243.458L332.589 246.863" stroke="#EDEFFF" stroke-width="0.895797" stroke-linecap="round" stroke-linejoin="round"/>
<defs>
<filter id="filter0_d_1479_36715" x="47.2204" y="15.1413" width="296.26" height="93.4399" filterUnits="userSpaceOnUse" color-interpolation-filters="sRGB">
<feFlood flood-opacity="0" result="BackgroundImageFix"/>
<feColorMatrix in="SourceAlpha" type="matrix" values="0 0 0 0 0 0 0 0 0 0 0 0 0 0 0 0 0 0 127 0" result="hardAlpha"/>
<feOffset dy="-2.27293"/>
<feGaussianBlur stdDeviation="11.3647"/>
<feComposite in2="hardAlpha" operator="out"/>
<feColorMatrix type="matrix" values="0 0 0 0 0.107778 0 0 0 0 0.110617 0 0 0 0 0.133333 0 0 0 1 0"/>
<feBlend mode="normal" in2="BackgroundImageFix" result="effect1_dropShadow_1479_36715"/>
<feBlend mode="normal" in="SourceGraphic" in2="effect1_dropShadow_1479_36715" result="shape"/>
</filter>
<filter id="filter1_d_1479_36715" x="19.1402" y="38.7305" width="352.03" height="111.407" filterUnits="userSpaceOnUse" color-interpolation-filters="sRGB">
<feFlood flood-opacity="0" result="BackgroundImageFix"/>
<feColorMatrix in="SourceAlpha" type="matrix" values="0 0 0 0 0 0 0 0 0 0 0 0 0 0 0 0 0 0 127 0" result="hardAlpha"/>
<feOffset dy="-2.70165"/>
<feGaussianBlur stdDeviation="13.5083"/>
<feComposite in2="hardAlpha" operator="out"/>
<feColorMatrix type="matrix" values="0 0 0 0 0.107778 0 0 0 0 0.110617 0 0 0 0 0.133333 0 0 0 1 0"/>
<feBlend mode="normal" in2="BackgroundImageFix" result="effect1_dropShadow_1479_36715"/>
<feBlend mode="normal" in="SourceGraphic" in2="effect1_dropShadow_1479_36715" result="shape"/>
</filter>
<filter id="filter2_d_1479_36715" x="43.5706" y="73.7781" width="54.6406" height="54.6406" filterUnits="userSpaceOnUse" color-interpolation-filters="sRGB">
<feFlood flood-opacity="0" result="BackgroundImageFix"/>
<feColorMatrix in="SourceAlpha" type="matrix" values="0 0 0 0 0 0 0 0 0 0 0 0 0 0 0 0 0 0 127 0" result="hardAlpha"/>
<feOffset/>
<feGaussianBlur stdDeviation="6.75413"/>
<feColorMatrix type="matrix" values="0 0 0 0 0.964706 0 0 0 0 0.411765 0 0 0 0 0.411765 0 0 0 0.3 0"/>
<feBlend mode="normal" in2="BackgroundImageFix" result="effect1_dropShadow_1479_36715"/>
<feBlend mode="normal" in="SourceGraphic" in2="effect1_dropShadow_1479_36715" result="shape"/>
</filter>
<filter id="filter3_d_1479_36715" x="10.296" y="84.2874" width="370.798" height="112.15" filterUnits="userSpaceOnUse" color-interpolation-filters="sRGB">
<feFlood flood-opacity="0" result="BackgroundImageFix"/>
<feColorMatrix in="SourceAlpha" type="matrix" values="0 0 0 0 0 0 0 0 0 0 0 0 0 0 0 0 0 0 127 0" result="hardAlpha"/>
<feOffset dy="-2.70165"/>
<feGaussianBlur stdDeviation="13.5083"/>
<feComposite in2="hardAlpha" operator="out"/>
<feColorMatrix type="matrix" values="0 0 0 0 0.107778 0 0 0 0 0.110617 0 0 0 0 0.133333 0 0 0 1 0"/>
<feBlend mode="normal" in2="BackgroundImageFix" result="effect1_dropShadow_1479_36715"/>
<feBlend mode="normal" in="SourceGraphic" in2="effect1_dropShadow_1479_36715" result="shape"/>
</filter>
<filter id="filter4_d_1479_36715" x="34.101" y="111.682" width="58.2115" height="58.2115" filterUnits="userSpaceOnUse" color-interpolation-filters="sRGB">
<feFlood flood-opacity="0" result="BackgroundImageFix"/>
<feColorMatrix in="SourceAlpha" type="matrix" values="0 0 0 0 0 0 0 0 0 0 0 0 0 0 0 0 0 0 127 0" result="hardAlpha"/>
<feOffset/>
<feGaussianBlur stdDeviation="7.18739"/>
<feColorMatrix type="matrix" values="0 0 0 0 0.368627 0 0 0 0 0.698039 0 0 0 0 0.541176 0 0 0 0.3 0"/>
<feBlend mode="normal" in2="BackgroundImageFix" result="effect1_dropShadow_1479_36715"/>
<feBlend mode="normal" in="SourceGraphic" in2="effect1_dropShadow_1479_36715" result="shape"/>
</filter>
<filter id="filter5_d_1479_36715" x="0.26556" y="117.698" width="391.533" height="127.985" filterUnits="userSpaceOnUse" color-interpolation-filters="sRGB">
<feFlood flood-opacity="0" result="BackgroundImageFix"/>
<feColorMatrix in="SourceAlpha" type="matrix" values="0 0 0 0 0 0 0 0 0 0 0 0 0 0 0 0 0 0 127 0" result="hardAlpha"/>
<feOffset dy="-2.99942"/>
<feGaussianBlur stdDeviation="14.9971"/>
<feComposite in2="hardAlpha" operator="out"/>
<feColorMatrix type="matrix" values="0 0 0 0 0.107778 0 0 0 0 0.110617 0 0 0 0 0.133333 0 0 0 1 0"/>
<feBlend mode="normal" in2="BackgroundImageFix" result="effect1_dropShadow_1479_36715"/>
<feBlend mode="normal" in="SourceGraphic" in2="effect1_dropShadow_1479_36715" result="shape"/>
</filter>
<filter id="filter6_d_1479_36715" x="28.1333" y="159.808" width="61.0303" height="61.0303" filterUnits="userSpaceOnUse" color-interpolation-filters="sRGB">
<feFlood flood-opacity="0" result="BackgroundImageFix"/>
<feColorMatrix in="SourceAlpha" type="matrix" values="0 0 0 0 0 0 0 0 0 0 0 0 0 0 0 0 0 0 127 0" result="hardAlpha"/>
<feOffset/>
<feGaussianBlur stdDeviation="7.49855"/>
<feColorMatrix type="matrix" values="0 0 0 0 0.945098 0 0 0 0 0.470588 0 0 0 0 0.713726 0 0 0 0.3 0"/>
<feBlend mode="normal" in2="BackgroundImageFix" result="effect1_dropShadow_1479_36715"/>
<feBlend mode="normal" in="SourceGraphic" in2="effect1_dropShadow_1479_36715" result="shape"/>
</filter>
<filter id="filter7_d_1479_36715" x="6.79827" y="170.289" width="376.546" height="126.131" filterUnits="userSpaceOnUse" color-interpolation-filters="sRGB">
<feFlood flood-opacity="0" result="BackgroundImageFix"/>
<feColorMatrix in="SourceAlpha" type="matrix" values="0 0 0 0 0 0 0 0 0 0 0 0 0 0 0 0 0 0 127 0" result="hardAlpha"/>
<feOffset dy="-2.99942"/>
<feGaussianBlur stdDeviation="14.9971"/>
<feComposite in2="hardAlpha" operator="out"/>
<feColorMatrix type="matrix" values="0 0 0 0 0.107778 0 0 0 0 0.110617 0 0 0 0 0.133333 0 0 0 1 0"/>
<feBlend mode="normal" in2="BackgroundImageFix" result="effect1_dropShadow_1479_36715"/>
<feBlend mode="normal" in="SourceGraphic" in2="effect1_dropShadow_1479_36715" result="shape"/>
</filter>
<filter id="filter8_d_1479_36715" x="34.4016" y="200.802" width="58.7629" height="58.7629" filterUnits="userSpaceOnUse" color-interpolation-filters="sRGB">
<feFlood flood-opacity="0" result="BackgroundImageFix"/>
<feColorMatrix in="SourceAlpha" type="matrix" values="0 0 0 0 0 0 0 0 0 0 0 0 0 0 0 0 0 0 127 0" result="hardAlpha"/>
<feOffset/>
<feGaussianBlur stdDeviation="7.16638"/>
<feColorMatrix type="matrix" values="0 0 0 0 0.305882 0 0 0 0 0.588235 0 0 0 0 0.74902 0 0 0 0.3 0"/>
<feBlend mode="normal" in2="BackgroundImageFix" result="effect1_dropShadow_1479_36715"/>
<feBlend mode="normal" in="SourceGraphic" in2="effect1_dropShadow_1479_36715" result="shape"/>
</filter>
</defs>
</svg>
