<svg width="362" height="309" viewBox="0 0 362 309" fill="none" xmlns="http://www.w3.org/2000/svg">
<path d="M23.5 49.0823C23.5 45.447 26.447 42.5 30.0824 42.5H316.918C320.553 42.5 323.5 45.447 323.5 49.0824V259.918C323.5 263.553 320.553 266.5 316.918 266.5H30.0824C26.447 266.5 23.5 263.553 23.5 259.918V49.0823Z" fill="#23242D" stroke="url(#paint0_linear_1479_36697)"/>
<rect x="-0.5" y="0.5" width="31" height="92" transform="matrix(-1 0 0 1 303.665 92.4082)" fill="#FF4081" stroke="#23242D"/>
<g opacity="0.3">
<mask id="path-3-inside-1_1479_36697" fill="white">
<path d="M74.4394 80.6936H43.3203V155.694H74.4394V80.6936Z"/>
<path d="M74.574 155.944H43.455V160.944H74.574V155.944Z"/>
<path d="M74.574 161.13H43.455V205.13H74.574V161.13Z"/>
<path d="M74.574 205.216H43.455V240.216H74.574V205.216Z"/>
<path d="M112.923 148.164H81.8035V200.164H112.923V148.164Z"/>
<path d="M112.923 200.029H81.8035V217.029H112.923V200.029Z"/>
<path d="M112.923 216.886H81.8035V239.886H112.923V216.886Z"/>
<path d="M151.271 113.154H120.152V142.154H151.271V113.154Z"/>
<path d="M151.271 141.681H120.152V193.681H151.271V141.681Z"/>
<path d="M151.271 193.546H120.152V225.546H151.271V193.546Z"/>
<path d="M151.271 225.962H120.152V239.962H151.271V225.962Z"/>
<path d="M189.62 192.25H158.501V204.25H189.62V192.25Z"/>
<path d="M189.62 203.919H158.501V220.919H189.62V203.919Z"/>
<path d="M189.62 220.776H158.501V234.776H189.62V220.776Z"/>
<path d="M189.62 235.039H158.501V240.039H189.62V235.039Z"/>
<path d="M227.968 140H196.849V169H227.968V140Z"/>
<path d="M227.968 168.526H196.849V193.526H227.968V168.526Z"/>
<path d="M227.968 193.162H196.849V225.162H227.968V193.162Z"/>
<path d="M227.968 225.578H196.849V239.578H227.968V225.578Z"/>
<path d="M266.317 128.714H235.198V177.714H266.317V128.714Z"/>
<path d="M266.317 177.987H235.198V186.987H266.317V177.987Z"/>
<path d="M266.317 187.063H235.198V203.063H266.317V187.063Z"/>
<path d="M266.317 202.623H235.198V240.623H266.317V202.623Z"/>
<path d="M304.665 185.766H273.546V206.766H304.665V185.766Z"/>
<path d="M304.665 206.513H273.546V218.513H304.665V206.513Z"/>
<path d="M304.665 218.182H273.546V240.182H304.665V218.182Z"/>
</mask>
<path d="M74.4394 80.6936H43.3203V155.694H74.4394V80.6936Z" fill="#78909C"/>
<path d="M74.574 155.944H43.455V160.944H74.574V155.944Z" fill="#0288D1"/>
<path d="M74.574 161.13H43.455V205.13H74.574V161.13Z" fill="#B388FF"/>
<path d="M74.574 205.216H43.455V240.216H74.574V205.216Z" fill="#26A69A"/>
<path d="M112.923 148.164H81.8035V200.164H112.923V148.164Z" fill="#FFA726"/>
<path d="M112.923 200.029H81.8035V217.029H112.923V200.029Z" fill="#B388FF"/>
<path d="M112.923 216.886H81.8035V239.886H112.923V216.886Z" fill="#66BB6A"/>
<path d="M151.271 113.154H120.152V142.154H151.271V113.154Z" fill="#FF7043"/>
<path d="M151.271 141.681H120.152V193.681H151.271V141.681Z" fill="#00ACC1"/>
<path d="M151.271 193.546H120.152V225.546H151.271V193.546Z" fill="#8D6E63"/>
<path d="M151.271 225.962H120.152V239.962H151.271V225.962Z" fill="#26A69A"/>
<path d="M189.62 192.25H158.501V204.25H189.62V192.25Z" fill="#FF7043"/>
<path d="M189.62 203.919H158.501V220.919H189.62V203.919Z" fill="#00ACC1"/>
<path d="M189.62 220.776H158.501V234.776H189.62V220.776Z" fill="#B388FF"/>
<path d="M189.62 235.039H158.501V240.039H189.62V235.039Z" fill="#66BB6A"/>
<path d="M227.968 140H196.849V169H227.968V140Z" fill="#FF7043"/>
<path d="M227.968 168.526H196.849V193.526H227.968V168.526Z" fill="#00ACC1"/>
<path d="M227.968 193.162H196.849V225.162H227.968V193.162Z" fill="#FFA726"/>
<path d="M227.968 225.578H196.849V239.578H227.968V225.578Z" fill="#FF4081"/>
<path d="M266.317 128.714H235.198V177.714H266.317V128.714Z" fill="#FF7043"/>
<path d="M266.317 177.987H235.198V186.987H266.317V177.987Z" fill="#00ACC1"/>
<path d="M266.317 187.063H235.198V203.063H266.317V187.063Z" fill="#B388FF"/>
<path d="M266.317 202.623H235.198V240.623H266.317V202.623Z" fill="#66BB6A"/>
<path d="M304.665 185.766H273.546V206.766H304.665V185.766Z" fill="#00ACC1"/>
<path d="M304.665 206.513H273.546V218.513H304.665V206.513Z" fill="#B388FF"/>
<path d="M304.665 218.182H273.546V240.182H304.665V218.182Z" fill="#66BB6A"/>
<path d="M74.4394 80.6936H43.3203V155.694H74.4394V80.6936Z" stroke="#23242D" stroke-width="2" mask="url(#path-3-inside-1_1479_36697)"/>
<path d="M74.574 155.944H43.455V160.944H74.574V155.944Z" stroke="#23242D" stroke-width="2" mask="url(#path-3-inside-1_1479_36697)"/>
<path d="M74.574 161.13H43.455V205.13H74.574V161.13Z" stroke="#23242D" stroke-width="2" mask="url(#path-3-inside-1_1479_36697)"/>
<path d="M74.574 205.216H43.455V240.216H74.574V205.216Z" stroke="#23242D" stroke-width="2" mask="url(#path-3-inside-1_1479_36697)"/>
<path d="M112.923 148.164H81.8035V200.164H112.923V148.164Z" stroke="#23242D" stroke-width="2" mask="url(#path-3-inside-1_1479_36697)"/>
<path d="M112.923 200.029H81.8035V217.029H112.923V200.029Z" stroke="#23242D" stroke-width="2" mask="url(#path-3-inside-1_1479_36697)"/>
<path d="M112.923 216.886H81.8035V239.886H112.923V216.886Z" stroke="#23242D" stroke-width="2" mask="url(#path-3-inside-1_1479_36697)"/>
<path d="M151.271 113.154H120.152V142.154H151.271V113.154Z" stroke="#23242D" stroke-width="2" mask="url(#path-3-inside-1_1479_36697)"/>
<path d="M151.271 141.681H120.152V193.681H151.271V141.681Z" stroke="#23242D" stroke-width="2" mask="url(#path-3-inside-1_1479_36697)"/>
<path d="M151.271 193.546H120.152V225.546H151.271V193.546Z" stroke="#23242D" stroke-width="2" mask="url(#path-3-inside-1_1479_36697)"/>
<path d="M151.271 225.962H120.152V239.962H151.271V225.962Z" stroke="#23242D" stroke-width="2" mask="url(#path-3-inside-1_1479_36697)"/>
<path d="M189.62 192.25H158.501V204.25H189.62V192.25Z" stroke="#23242D" stroke-width="2" mask="url(#path-3-inside-1_1479_36697)"/>
<path d="M189.62 203.919H158.501V220.919H189.62V203.919Z" stroke="#23242D" stroke-width="2" mask="url(#path-3-inside-1_1479_36697)"/>
<path d="M189.62 220.776H158.501V234.776H189.62V220.776Z" stroke="#23242D" stroke-width="2" mask="url(#path-3-inside-1_1479_36697)"/>
<path d="M189.62 235.039H158.501V240.039H189.62V235.039Z" stroke="#23242D" stroke-width="2" mask="url(#path-3-inside-1_1479_36697)"/>
<path d="M227.968 140H196.849V169H227.968V140Z" stroke="#23242D" stroke-width="2" mask="url(#path-3-inside-1_1479_36697)"/>
<path d="M227.968 168.526H196.849V193.526H227.968V168.526Z" stroke="#23242D" stroke-width="2" mask="url(#path-3-inside-1_1479_36697)"/>
<path d="M227.968 193.162H196.849V225.162H227.968V193.162Z" stroke="#23242D" stroke-width="2" mask="url(#path-3-inside-1_1479_36697)"/>
<path d="M227.968 225.578H196.849V239.578H227.968V225.578Z" stroke="#23242D" stroke-width="2" mask="url(#path-3-inside-1_1479_36697)"/>
<path d="M266.317 128.714H235.198V177.714H266.317V128.714Z" stroke="#23242D" stroke-width="2" mask="url(#path-3-inside-1_1479_36697)"/>
<path d="M266.317 177.987H235.198V186.987H266.317V177.987Z" stroke="#23242D" stroke-width="2" mask="url(#path-3-inside-1_1479_36697)"/>
<path d="M266.317 187.063H235.198V203.063H266.317V187.063Z" stroke="#23242D" stroke-width="2" mask="url(#path-3-inside-1_1479_36697)"/>
<path d="M266.317 202.623H235.198V240.623H266.317V202.623Z" stroke="#23242D" stroke-width="2" mask="url(#path-3-inside-1_1479_36697)"/>
<path d="M304.665 185.766H273.546V206.766H304.665V185.766Z" stroke="#23242D" stroke-width="2" mask="url(#path-3-inside-1_1479_36697)"/>
<path d="M304.665 206.513H273.546V218.513H304.665V206.513Z" stroke="#23242D" stroke-width="2" mask="url(#path-3-inside-1_1479_36697)"/>
<path d="M304.665 218.182H273.546V240.182H304.665V218.182Z" stroke="#23242D" stroke-width="2" mask="url(#path-3-inside-1_1479_36697)"/>
</g>
<path d="M45.164 68.2886C44.5529 67.9817 44.2474 67.5066 44.2474 66.8633C44.2474 66.5446 44.3299 66.2554 44.4949 65.9957C44.666 65.7301 44.9195 65.5206 45.2556 65.3671C45.5978 65.2078 46.0134 65.1281 46.5022 65.1281C46.9911 65.1281 47.4035 65.2078 47.7396 65.3671C48.0818 65.5206 48.3354 65.7301 48.5004 65.9957C48.6715 66.2554 48.757 66.5446 48.757 66.8633C48.757 67.1879 48.6745 67.4741 48.5096 67.722C48.3446 67.964 48.1246 68.1529 47.8496 68.2886C48.1857 68.4303 48.4484 68.6368 48.6379 68.9083C48.8273 69.1798 48.922 69.5015 48.922 69.8733C48.922 70.2746 48.8151 70.6258 48.6012 70.9268C48.3934 71.2219 48.1062 71.4491 47.7396 71.6085C47.373 71.7678 46.9605 71.8475 46.5022 71.8475C46.0439 71.8475 45.6314 71.7678 45.2648 71.6085C44.9043 71.4491 44.6171 71.2219 44.4032 70.9268C44.1954 70.6258 44.0916 70.2746 44.0916 69.8733C44.0916 69.5015 44.1863 69.1798 44.3757 68.9083C44.5651 68.6309 44.8279 68.4244 45.164 68.2886ZM47.5105 67.0404C47.5105 66.7512 47.4188 66.5269 47.2355 66.3675C47.0583 66.2082 46.8138 66.1285 46.5022 66.1285C46.1967 66.1285 45.9522 66.2082 45.7689 66.3675C45.5917 66.5269 45.5031 66.7541 45.5031 67.0492C45.5031 67.3148 45.5948 67.5273 45.7781 67.6866C45.9675 67.846 46.2089 67.9256 46.5022 67.9256C46.7955 67.9256 47.0369 67.846 47.2263 67.6866C47.4157 67.5214 47.5105 67.3059 47.5105 67.0404ZM46.5022 68.8286C46.1539 68.8286 45.8698 68.9142 45.6498 69.0854C45.4359 69.2565 45.329 69.5015 45.329 69.8202C45.329 70.1153 45.4328 70.3573 45.6406 70.5461C45.8545 70.7291 46.1417 70.8206 46.5022 70.8206C46.8627 70.8206 47.1469 70.7261 47.3546 70.5373C47.5624 70.3484 47.6663 70.1094 47.6663 69.8202C47.6663 69.5074 47.5593 69.2654 47.3455 69.0942C47.1316 68.9172 46.8505 68.8286 46.5022 68.8286Z" fill="white"/>
<path d="M50.3389 70.3071C50.9255 69.8349 51.393 69.4425 51.7413 69.1296C52.0896 68.8109 52.3798 68.4804 52.612 68.1381C52.8442 67.7958 52.9603 67.4594 52.9603 67.1289C52.9603 66.8279 52.887 66.5918 52.7404 66.4206C52.5937 66.2495 52.3676 66.1639 52.0621 66.1639C51.7566 66.1639 51.5213 66.2642 51.3563 66.4649C51.1913 66.6597 51.1058 66.9282 51.0997 67.2705H49.8531C49.8775 66.5623 50.0945 66.0252 50.5039 65.6593C50.9194 65.2934 51.4449 65.1104 52.0804 65.1104C52.777 65.1104 53.3117 65.2904 53.6845 65.6504C54.0572 66.0046 54.2436 66.4738 54.2436 67.0581C54.2436 67.5184 54.1153 67.9581 53.8586 68.3771C53.602 68.7962 53.3087 69.1621 52.9787 69.4749C52.6487 69.7818 52.2179 70.1536 51.6863 70.5904H54.3902V71.6173H49.8622V70.6966L50.3389 70.3071Z" fill="white"/>
<path d="M55.9138 71.7678C55.6816 71.7678 55.4891 71.7 55.3363 71.5642C55.1897 71.4226 55.1164 71.2485 55.1164 71.0419C55.1164 70.8353 55.1897 70.6642 55.3363 70.5284C55.4891 70.3868 55.6816 70.3159 55.9138 70.3159C56.1399 70.3159 56.3263 70.3868 56.4729 70.5284C56.6196 70.6642 56.6929 70.8353 56.6929 71.0419C56.6929 71.2485 56.6196 71.4226 56.4729 71.5642C56.3263 71.7 56.1399 71.7678 55.9138 71.7678Z" fill="white"/>
<path d="M57.5249 70.4487V69.4749L60.5221 65.3317H62.0162V69.3687H62.8228V70.4487H62.0162V71.7059H60.733V70.4487H57.5249ZM60.8154 66.6597L58.9364 69.3687H60.8154V66.6597Z" fill="white"/>
<path d="M67.8928 66.1905L65.4546 71.7059H64.1531L66.6096 66.3321H63.4748V65.2698H67.8928V66.1905Z" fill="white"/>
<path d="M73.3727 69.9264C73.3727 70.2333 73.2902 70.5225 73.1252 70.794C72.9663 71.0596 72.728 71.2809 72.4103 71.458C72.0986 71.6291 71.7289 71.7295 71.3012 71.759V72.4761H70.7146V71.7501C70.1035 71.697 69.6116 71.5199 69.2388 71.2189C68.8661 70.912 68.6736 70.4989 68.6614 69.9795H70.0363C70.0729 70.4045 70.299 70.6612 70.7146 70.7497V69.0588C70.2746 68.9526 69.9202 68.8464 69.6513 68.7401C69.3824 68.6339 69.1502 68.4627 68.9547 68.2266C68.7591 67.9906 68.6614 67.6689 68.6614 67.2617C68.6614 66.7482 68.8508 66.3292 69.2297 66.0046C69.6146 65.68 70.1096 65.494 70.7146 65.4468V64.7297H71.3012V65.4468C71.8878 65.494 72.3553 65.6652 72.7036 65.9603C73.058 66.2554 73.2566 66.6626 73.2994 67.182H71.9153C71.897 67.0108 71.8328 66.8633 71.7228 66.7394C71.6189 66.6095 71.4784 66.518 71.3012 66.4649V68.1381C71.7595 68.2503 72.12 68.3594 72.3828 68.4657C72.6516 68.566 72.8838 68.7342 73.0794 68.9703C73.2749 69.2005 73.3727 69.5192 73.3727 69.9264ZM69.9996 67.1997C69.9996 67.3945 70.0607 67.5538 70.1829 67.6778C70.3051 67.7958 70.4823 67.8932 70.7146 67.9699V66.4384C70.4946 66.4679 70.3204 66.5475 70.1921 66.6774C70.0638 66.8072 69.9996 66.9813 69.9996 67.1997ZM71.3012 70.7674C71.5334 70.7261 71.7136 70.6346 71.842 70.493C71.9764 70.3514 72.0436 70.1802 72.0436 69.9795C72.0436 69.7848 71.9795 69.6284 71.8511 69.5103C71.7228 69.3923 71.5395 69.2949 71.3012 69.2182V70.7674Z" fill="white"/>
<path d="M199.81 126.178C199.749 125.93 199.641 125.744 199.488 125.62C199.342 125.496 199.127 125.434 198.846 125.434C198.424 125.434 198.112 125.6 197.91 125.93C197.714 126.255 197.613 126.786 197.607 127.524C197.754 127.288 197.968 127.105 198.249 126.975C198.531 126.839 198.837 126.771 199.167 126.771C199.565 126.771 199.917 126.854 200.223 127.019C200.529 127.184 200.767 127.426 200.939 127.745C201.11 128.058 201.196 128.435 201.196 128.878C201.196 129.297 201.107 129.672 200.93 130.002C200.758 130.327 200.504 130.581 200.168 130.764C199.831 130.947 199.43 131.038 198.965 131.038C198.329 131.038 197.827 130.903 197.46 130.631C197.099 130.36 196.845 129.982 196.698 129.498C196.557 129.008 196.487 128.406 196.487 127.692C196.487 126.612 196.68 125.797 197.065 125.248C197.451 124.694 198.06 124.416 198.892 124.416C199.534 124.416 200.033 124.584 200.388 124.921C200.743 125.257 200.948 125.676 201.003 126.178H199.81ZM198.873 127.789C198.549 127.789 198.277 127.881 198.056 128.064C197.836 128.247 197.726 128.512 197.726 128.86C197.726 129.209 197.827 129.483 198.029 129.684C198.237 129.884 198.528 129.985 198.901 129.985C199.231 129.985 199.491 129.887 199.681 129.693C199.877 129.498 199.975 129.235 199.975 128.905C199.975 128.562 199.88 128.291 199.69 128.09C199.507 127.89 199.234 127.789 198.873 127.789Z" fill="white"/>
<path d="M202.055 125.709V124.567H204.268V131.021H202.946V125.709H202.055Z" fill="white"/>
<path d="M206.253 131.083C206.021 131.083 205.828 131.015 205.675 130.879C205.528 130.737 205.455 130.563 205.455 130.357C205.455 130.15 205.528 129.979 205.675 129.843C205.828 129.701 206.021 129.631 206.253 129.631C206.48 129.631 206.666 129.701 206.813 129.843C206.96 129.979 207.033 130.15 207.033 130.357C207.033 130.563 206.96 130.737 206.813 130.879C206.666 131.015 206.48 131.083 206.253 131.083Z" fill="white"/>
<path d="M212.419 125.638H209.445V127.152C209.574 126.998 209.757 126.874 209.996 126.78C210.235 126.68 210.489 126.629 210.758 126.629C211.248 126.629 211.648 126.733 211.96 126.939C212.273 127.146 212.499 127.412 212.64 127.736C212.78 128.055 212.851 128.397 212.851 128.763C212.851 129.442 212.649 129.988 212.245 130.401C211.847 130.814 211.278 131.021 210.538 131.021C209.84 131.021 209.283 130.852 208.867 130.516C208.451 130.18 208.215 129.74 208.16 129.197H209.409C209.464 129.433 209.586 129.622 209.776 129.763C209.972 129.905 210.219 129.976 210.519 129.976C210.88 129.976 211.153 129.867 211.336 129.648C211.52 129.43 211.612 129.141 211.612 128.781C211.612 128.415 211.517 128.137 211.327 127.949C211.144 127.754 210.871 127.656 210.51 127.656C210.253 127.656 210.039 127.718 209.868 127.842C209.696 127.966 209.574 128.132 209.5 128.338H208.27V124.549H212.419V125.638Z" fill="white"/>
<path d="M213.774 129.763V128.79L216.776 124.646H218.272V128.683H219.08V129.763H218.272V131.021H216.987V129.763H213.774ZM217.069 125.974L215.187 128.683H217.069V125.974Z" fill="white"/>
<path d="M224.616 129.241C224.616 129.548 224.533 129.837 224.368 130.109C224.209 130.374 223.97 130.596 223.652 130.773C223.34 130.944 222.97 131.044 222.541 131.074V131.791H221.954V131.065C221.342 131.012 220.849 130.835 220.476 130.534C220.103 130.227 219.91 129.814 219.898 129.294H221.275C221.311 129.719 221.538 129.976 221.954 130.064V128.374C221.513 128.267 221.158 128.161 220.889 128.055C220.62 127.949 220.387 127.777 220.191 127.541C219.996 127.305 219.898 126.984 219.898 126.576C219.898 126.063 220.087 125.644 220.467 125.319C220.852 124.995 221.348 124.809 221.954 124.762V124.044H222.541V124.762C223.129 124.809 223.597 124.98 223.946 125.275C224.301 125.57 224.5 125.977 224.542 126.497H223.156C223.138 126.326 223.074 126.178 222.964 126.054C222.86 125.924 222.719 125.833 222.541 125.78V127.453C223 127.565 223.361 127.674 223.624 127.78C223.894 127.881 224.126 128.049 224.322 128.285C224.518 128.515 224.616 128.834 224.616 129.241ZM221.238 126.514C221.238 126.709 221.299 126.869 221.421 126.992C221.544 127.111 221.721 127.208 221.954 127.285V125.753C221.734 125.783 221.559 125.862 221.431 125.992C221.302 126.122 221.238 126.296 221.238 126.514ZM222.541 130.082C222.774 130.041 222.954 129.949 223.083 129.808C223.218 129.666 223.285 129.495 223.285 129.294C223.285 129.099 223.221 128.943 223.092 128.825C222.964 128.707 222.78 128.61 222.541 128.533V130.082Z" fill="white"/>
<path d="M239.629 114.669C239.568 114.421 239.461 114.235 239.309 114.111C239.162 113.988 238.948 113.926 238.667 113.926C238.245 113.926 237.933 114.091 237.732 114.421C237.536 114.746 237.435 115.277 237.429 116.015C237.576 115.779 237.79 115.596 238.071 115.466C238.352 115.33 238.658 115.262 238.988 115.262C239.385 115.262 239.736 115.345 240.042 115.51C240.347 115.675 240.586 115.917 240.757 116.236C240.928 116.549 241.014 116.927 241.014 117.369C241.014 117.788 240.925 118.163 240.748 118.494C240.577 118.818 240.323 119.072 239.987 119.255C239.651 119.438 239.25 119.529 238.786 119.529C238.15 119.529 237.649 119.394 237.283 119.122C236.922 118.851 236.668 118.473 236.522 117.989C236.381 117.499 236.311 116.897 236.311 116.183C236.311 115.103 236.503 114.289 236.888 113.74C237.273 113.185 237.881 112.907 238.713 112.907C239.354 112.907 239.852 113.076 240.207 113.412C240.561 113.748 240.766 114.168 240.821 114.669H239.629ZM238.694 116.28C238.37 116.28 238.098 116.372 237.878 116.555C237.658 116.738 237.548 117.003 237.548 117.352C237.548 117.7 237.649 117.974 237.851 118.175C238.059 118.376 238.349 118.476 238.722 118.476C239.052 118.476 239.312 118.379 239.501 118.184C239.697 117.989 239.794 117.726 239.794 117.396C239.794 117.054 239.7 116.782 239.51 116.581C239.327 116.381 239.055 116.28 238.694 116.28Z" fill="white"/>
<path d="M241.973 118.255V117.281L244.971 113.138H246.465V117.175H247.272V118.255H246.465V119.512H245.182V118.255H241.973ZM245.264 114.466L243.385 117.175H245.264V114.466Z" fill="white"/>
<path d="M248.804 119.574C248.572 119.574 248.379 119.506 248.226 119.37C248.08 119.228 248.006 119.054 248.006 118.848C248.006 118.641 248.08 118.47 248.226 118.334C248.379 118.193 248.572 118.122 248.804 118.122C249.03 118.122 249.216 118.193 249.363 118.334C249.51 118.47 249.583 118.641 249.583 118.848C249.583 119.054 249.51 119.228 249.363 119.37C249.216 119.506 249.03 119.574 248.804 119.574Z" fill="white"/>
<path d="M250.874 118.113C251.46 117.641 251.928 117.248 252.276 116.936C252.625 116.617 252.915 116.286 253.147 115.944C253.379 115.602 253.495 115.265 253.495 114.935C253.495 114.634 253.422 114.398 253.275 114.227C253.129 114.055 252.903 113.97 252.597 113.97C252.291 113.97 252.056 114.07 251.891 114.271C251.726 114.466 251.641 114.734 251.634 115.076H250.388C250.412 114.368 250.629 113.831 251.039 113.465C251.454 113.099 251.98 112.916 252.615 112.916C253.312 112.916 253.847 113.096 254.22 113.456C254.592 113.81 254.779 114.28 254.779 114.864C254.779 115.324 254.65 115.764 254.394 116.183C254.137 116.602 253.844 116.968 253.514 117.281C253.184 117.588 252.753 117.96 252.221 118.396H254.926V119.423H250.397V118.503L250.874 118.113Z" fill="white"/>
<path d="M259.988 113.996L257.549 119.512H256.248L258.704 114.138H255.569V113.076H259.988V113.996Z" fill="white"/>
<path d="M265.469 117.732C265.469 118.039 265.386 118.328 265.221 118.6C265.062 118.865 264.824 119.087 264.506 119.264C264.194 119.435 263.825 119.535 263.397 119.565V120.282H262.81V119.556C262.199 119.503 261.707 119.326 261.334 119.025C260.961 118.718 260.769 118.305 260.757 117.785H262.132C262.168 118.21 262.394 118.467 262.81 118.556V116.865C262.37 116.758 262.016 116.652 261.747 116.546C261.478 116.44 261.246 116.269 261.05 116.033C260.854 115.796 260.757 115.475 260.757 115.068C260.757 114.554 260.946 114.135 261.325 113.81C261.71 113.486 262.205 113.3 262.81 113.253V112.536H263.397V113.253C263.983 113.3 264.451 113.471 264.799 113.766C265.154 114.061 265.352 114.469 265.395 114.988H264.011C263.993 114.817 263.928 114.669 263.818 114.545C263.715 114.415 263.574 114.324 263.397 114.271V115.944C263.855 116.056 264.216 116.165 264.479 116.272C264.747 116.372 264.98 116.54 265.175 116.776C265.371 117.006 265.469 117.325 265.469 117.732ZM262.095 115.006C262.095 115.2 262.156 115.36 262.278 115.484C262.401 115.602 262.578 115.699 262.81 115.776V114.244C262.59 114.274 262.416 114.353 262.288 114.483C262.159 114.613 262.095 114.787 262.095 115.006ZM263.397 118.573C263.629 118.532 263.809 118.441 263.938 118.299C264.072 118.157 264.139 117.986 264.139 117.785C264.139 117.591 264.075 117.434 263.947 117.316C263.818 117.198 263.635 117.101 263.397 117.024V118.573Z" fill="white"/>
<path d="M276.667 77.6993L274.23 83.2146H272.929L275.384 77.8409H272.25V76.7786H276.667V77.6993Z" fill="white"/>
<path d="M278.553 79.7974C277.942 79.4905 277.637 79.0154 277.637 78.3721C277.637 78.0534 277.719 77.7642 277.884 77.5045C278.055 77.2389 278.309 77.0294 278.645 76.8759C278.987 76.7166 279.402 76.6369 279.891 76.6369C280.38 76.6369 280.792 76.7166 281.128 76.8759C281.47 77.0294 281.723 77.2389 281.888 77.5045C282.059 77.7642 282.145 78.0534 282.145 78.3721C282.145 78.6967 282.062 78.9829 281.898 79.2308C281.733 79.4728 281.513 79.6617 281.238 79.7974C281.574 79.9391 281.836 80.1456 282.026 80.4171C282.215 80.6886 282.31 81.0103 282.31 81.3821C282.31 81.7834 282.203 82.1346 281.989 82.4356C281.781 82.7307 281.494 82.9579 281.128 83.1173C280.761 83.2766 280.349 83.3563 279.891 83.3563C279.433 83.3563 279.02 83.2766 278.654 83.1173C278.294 82.9579 278.006 82.7307 277.793 82.4356C277.585 82.1346 277.481 81.7834 277.481 81.3821C277.481 81.0103 277.576 80.6886 277.765 80.4171C277.954 80.1397 278.217 79.9332 278.553 79.7974ZM280.899 78.5491C280.899 78.2599 280.807 78.0357 280.624 77.8763C280.447 77.717 280.202 77.6373 279.891 77.6373C279.585 77.6373 279.341 77.717 279.158 77.8763C278.981 78.0357 278.892 78.2629 278.892 78.558C278.892 78.8236 278.984 79.0361 279.167 79.1954C279.356 79.3548 279.598 79.4344 279.891 79.4344C280.184 79.4344 280.425 79.3548 280.615 79.1954C280.804 79.0302 280.899 78.8147 280.899 78.5491ZM279.891 80.3374C279.543 80.3374 279.259 80.423 279.039 80.5942C278.825 80.7653 278.718 81.0103 278.718 81.329C278.718 81.6241 278.822 81.866 279.03 82.0549C279.243 82.2379 279.53 82.3293 279.891 82.3293C280.251 82.3293 280.535 82.2349 280.743 82.0461C280.951 81.8572 281.055 81.6182 281.055 81.329C281.055 81.0162 280.948 80.7742 280.734 80.603C280.52 80.426 280.239 80.3374 279.891 80.3374Z" fill="white"/>
<path d="M284.038 83.2766C283.806 83.2766 283.613 83.2087 283.461 83.073C283.314 82.9313 283.241 82.7572 283.241 82.5507C283.241 82.3441 283.314 82.1729 283.461 82.0372C283.613 81.8956 283.806 81.8247 284.038 81.8247C284.264 81.8247 284.45 81.8956 284.597 82.0372C284.743 82.1729 284.817 82.3441 284.817 82.5507C284.817 82.7572 284.743 82.9313 284.597 83.073C284.45 83.2087 284.264 83.2766 284.038 83.2766Z" fill="white"/>
<path d="M285.703 79.9036C285.703 78.8826 285.893 78.0829 286.271 77.5045C286.656 76.9261 287.291 76.6369 288.177 76.6369C289.063 76.6369 289.695 76.9261 290.074 77.5045C290.459 78.0829 290.651 78.8826 290.651 79.9036C290.651 80.9306 290.459 81.7362 290.074 82.3205C289.695 82.9048 289.063 83.1969 288.177 83.1969C287.291 83.1969 286.656 82.9048 286.271 82.3205C285.893 81.7362 285.703 80.9306 285.703 79.9036ZM289.387 79.9036C289.387 79.4669 289.356 79.101 289.295 78.8059C289.24 78.5049 289.124 78.2599 288.947 78.0711C288.776 77.8822 288.519 77.7878 288.177 77.7878C287.835 77.7878 287.576 77.8822 287.398 78.0711C287.227 78.2599 287.111 78.5049 287.05 78.8059C286.995 79.101 286.968 79.4669 286.968 79.9036C286.968 80.3522 286.995 80.7299 287.05 81.0368C287.105 81.3378 287.221 81.5828 287.398 81.7716C287.576 81.9546 287.835 82.0461 288.177 82.0461C288.519 82.0461 288.779 81.9546 288.956 81.7716C289.133 81.5828 289.249 81.3378 289.304 81.0368C289.359 80.7299 289.387 80.3522 289.387 79.9036Z" fill="white"/>
<path d="M291.645 78.4606C291.676 77.8704 291.89 77.416 292.287 77.0973C292.69 76.7727 293.218 76.6103 293.872 76.6103C294.318 76.6103 294.699 76.6871 295.017 76.8405C295.335 76.9881 295.573 77.1917 295.732 77.4514C295.897 77.7052 295.979 77.9944 295.979 78.319C295.979 78.6908 295.878 79.0065 295.677 79.2662C295.481 79.52 295.246 79.6912 294.971 79.7797V79.8151C295.326 79.9213 295.6 80.1102 295.796 80.3817C295.998 80.6532 296.098 81.0014 296.098 81.4263C296.098 81.7805 296.013 82.0962 295.842 82.3736C295.677 82.651 295.429 82.8694 295.1 83.0287C294.776 83.1822 294.385 83.2589 293.927 83.2589C293.236 83.2589 292.674 83.0907 292.241 82.7543C291.807 82.4179 291.578 81.9221 291.554 81.267H292.8C292.812 81.5562 292.913 81.7893 293.102 81.9664C293.298 82.1375 293.563 82.2231 293.899 82.2231C294.211 82.2231 294.449 82.1405 294.614 81.9752C294.785 81.8041 294.87 81.5857 294.87 81.3201C294.87 80.966 294.754 80.7122 294.522 80.5588C294.29 80.4053 293.93 80.3286 293.441 80.3286H293.175V79.3105H293.441C294.309 79.3105 294.742 79.0302 294.742 78.4695C294.742 78.2157 294.663 78.018 294.504 77.8763C294.351 77.7347 294.128 77.6638 293.835 77.6638C293.548 77.6638 293.325 77.7406 293.166 77.894C293.014 78.0416 292.925 78.2304 292.9 78.4606H291.645Z" fill="white"/>
<path d="M301.822 81.4352C301.822 81.7421 301.739 82.0313 301.574 82.3028C301.415 82.5684 301.177 82.7897 300.86 82.9668C300.548 83.1379 300.178 83.2383 299.751 83.2678V83.9848H299.164V83.2589C298.554 83.2058 298.062 83.0287 297.689 82.7277C297.317 82.4208 297.124 82.0077 297.112 81.4883H298.486C298.523 81.9133 298.749 82.17 299.164 82.2585V80.5676C298.725 80.4614 298.37 80.3551 298.102 80.2489C297.833 80.1427 297.601 79.9715 297.405 79.7354C297.21 79.4994 297.112 79.1777 297.112 78.7705C297.112 78.257 297.301 77.838 297.68 77.5133C298.065 77.1887 298.56 77.0028 299.164 76.9556V76.2385H299.751V76.9556C300.337 77.0028 300.805 77.174 301.153 77.4691C301.507 77.7642 301.706 78.1714 301.748 78.6908H300.365C300.346 78.5196 300.282 78.3721 300.172 78.2481C300.069 78.1183 299.928 78.0268 299.751 77.9737V79.6469C300.209 79.759 300.569 79.8682 300.832 79.9745C301.101 80.0748 301.333 80.243 301.528 80.4791C301.724 80.7093 301.822 81.028 301.822 81.4352ZM298.45 78.7085C298.45 78.9033 298.511 79.0626 298.633 79.1866C298.755 79.3046 298.932 79.402 299.164 79.4787V77.9471C298.945 77.9767 298.77 78.0563 298.642 78.1862C298.514 78.316 298.45 78.4901 298.45 78.7085ZM299.751 82.2762C299.983 82.2349 300.163 82.1434 300.292 82.0018C300.426 81.8601 300.493 81.689 300.493 81.4883C300.493 81.2936 300.429 81.1372 300.301 81.0191C300.172 80.9011 299.989 80.8037 299.751 80.727V82.2762Z" fill="white"/>
<path d="M86.5182 133.606H83.5518V135.12C83.68 134.966 83.8631 134.842 84.1012 134.748C84.3392 134.647 84.5925 134.597 84.8611 134.597C85.3494 134.597 85.7492 134.701 86.0605 134.907C86.3718 135.114 86.5976 135.379 86.738 135.704C86.8784 136.023 86.9486 136.365 86.9486 136.731C86.9486 137.41 86.7471 137.955 86.3443 138.369C85.9475 138.782 85.3799 138.988 84.6413 138.988C83.9455 138.988 83.3901 138.82 82.975 138.484C82.5599 138.147 82.325 137.708 82.27 137.165H83.5152C83.5701 137.401 83.6922 137.59 83.8814 137.731C84.0767 137.873 84.3239 137.944 84.623 137.944C84.9831 137.944 85.2548 137.834 85.4379 137.616C85.621 137.398 85.7125 137.109 85.7125 136.749C85.7125 136.383 85.6179 136.105 85.4287 135.916C85.2456 135.722 84.974 135.624 84.6139 135.624C84.3575 135.624 84.1439 135.686 83.973 135.81C83.8021 135.934 83.68 136.099 83.6067 136.306H82.3799V132.517H86.5182V133.606Z" fill="white"/>
<path d="M92.4104 133.606H89.444V135.12C89.5722 134.966 89.7553 134.842 89.9933 134.748C90.2314 134.647 90.4847 134.597 90.7532 134.597C91.2415 134.597 91.6413 134.701 91.9526 134.907C92.2639 135.114 92.4898 135.379 92.6301 135.704C92.7705 136.023 92.8407 136.365 92.8407 136.731C92.8407 137.41 92.6393 137.955 92.2365 138.369C91.8397 138.782 91.2721 138.988 90.5335 138.988C89.8377 138.988 89.2822 138.82 88.8672 138.484C88.4521 138.147 88.2171 137.708 88.1622 137.165H89.4074C89.4623 137.401 89.5844 137.59 89.7736 137.731C89.9689 137.873 90.2161 137.944 90.5152 137.944C90.8753 137.944 91.1469 137.834 91.33 137.616C91.5132 137.398 91.6047 137.109 91.6047 136.749C91.6047 136.383 91.5101 136.105 91.3209 135.916C91.1378 135.722 90.8662 135.624 90.506 135.624C90.2497 135.624 90.036 135.686 89.8651 135.81C89.6942 135.934 89.5722 136.099 89.4989 136.306H88.2721V132.517H92.4104V133.606Z" fill="white"/>
<path d="M94.5304 139.05C94.2985 139.05 94.1062 138.982 93.9536 138.847C93.8071 138.705 93.7339 138.531 93.7339 138.324C93.7339 138.118 93.8071 137.947 93.9536 137.811C94.1062 137.669 94.2985 137.598 94.5304 137.598C94.7563 137.598 94.9424 137.669 95.0889 137.811C95.2354 137.947 95.3087 138.118 95.3087 138.324C95.3087 138.531 95.2354 138.705 95.0889 138.847C94.9424 138.982 94.7563 139.05 94.5304 139.05Z" fill="white"/>
<path d="M97.6778 137.173C97.7267 137.433 97.8365 137.634 98.0074 137.775C98.1845 137.911 98.4195 137.979 98.7124 137.979C99.0909 137.979 99.3655 137.829 99.5364 137.528C99.7073 137.221 99.7928 136.707 99.7928 135.987C99.6524 136.176 99.454 136.324 99.1977 136.43C98.9474 136.536 98.6758 136.589 98.3828 136.589C97.9922 136.589 97.6382 136.512 97.3208 136.359C97.0095 136.2 96.7623 135.967 96.5792 135.66C96.3961 135.347 96.3045 134.969 96.3045 134.526C96.3045 133.871 96.5059 133.352 96.9088 132.968C97.3116 132.579 97.861 132.384 98.5568 132.384C99.4235 132.384 100.034 132.653 100.388 133.19C100.748 133.727 100.928 134.535 100.928 135.615C100.928 136.383 100.858 137.011 100.718 137.501C100.583 137.991 100.348 138.363 100.013 138.617C99.6829 138.87 99.2313 138.997 98.6575 138.997C98.2058 138.997 97.8213 138.915 97.5039 138.749C97.1865 138.578 96.9423 138.357 96.7714 138.085C96.6066 137.808 96.512 137.504 96.4876 137.173H97.6778ZM98.6483 135.58C98.9657 135.58 99.216 135.486 99.3991 135.297C99.5822 135.108 99.6738 134.854 99.6738 134.535C99.6738 134.187 99.5761 133.919 99.3808 133.73C99.1916 133.535 98.9322 133.438 98.6026 133.438C98.273 133.438 98.0105 133.538 97.8152 133.739C97.626 133.933 97.5314 134.193 97.5314 134.518C97.5314 134.83 97.6229 135.087 97.806 135.288C97.9952 135.483 98.276 135.58 98.6483 135.58Z" fill="white"/>
<path d="M103.043 135.571C102.432 135.264 102.127 134.789 102.127 134.146C102.127 133.827 102.21 133.538 102.374 133.278C102.545 133.013 102.799 132.803 103.134 132.65C103.476 132.49 103.891 132.411 104.38 132.411C104.868 132.411 105.28 132.49 105.616 132.65C105.957 132.803 106.211 133.013 106.376 133.278C106.546 133.538 106.632 133.827 106.632 134.146C106.632 134.47 106.549 134.757 106.385 135.005C106.22 135.246 106 135.435 105.725 135.571C106.061 135.713 106.324 135.919 106.513 136.191C106.702 136.462 106.797 136.784 106.797 137.156C106.797 137.557 106.69 137.908 106.476 138.209C106.269 138.504 105.982 138.732 105.616 138.891C105.249 139.05 104.837 139.13 104.38 139.13C103.922 139.13 103.51 139.05 103.144 138.891C102.783 138.732 102.497 138.504 102.283 138.209C102.075 137.908 101.972 137.557 101.972 137.156C101.972 136.784 102.066 136.462 102.255 136.191C102.445 135.913 102.707 135.707 103.043 135.571ZM105.387 134.323C105.387 134.034 105.295 133.809 105.112 133.65C104.935 133.491 104.691 133.411 104.38 133.411C104.074 133.411 103.83 133.491 103.647 133.65C103.47 133.809 103.382 134.037 103.382 134.332C103.382 134.597 103.473 134.81 103.656 134.969C103.845 135.128 104.087 135.208 104.38 135.208C104.673 135.208 104.914 135.128 105.103 134.969C105.292 134.804 105.387 134.588 105.387 134.323ZM104.38 136.111C104.032 136.111 103.748 136.197 103.528 136.368C103.314 136.539 103.208 136.784 103.208 137.103C103.208 137.398 103.311 137.64 103.519 137.829C103.733 138.012 104.019 138.103 104.38 138.103C104.74 138.103 105.024 138.009 105.231 137.82C105.439 137.631 105.542 137.392 105.542 137.103C105.542 136.79 105.436 136.548 105.222 136.377C105.008 136.2 104.727 136.111 104.38 136.111Z" fill="white"/>
<path d="M112.515 137.209C112.515 137.516 112.433 137.805 112.268 138.076C112.109 138.342 111.871 138.563 111.554 138.74C111.242 138.912 110.873 139.012 110.446 139.041V139.759H109.86V139.033C109.25 138.979 108.758 138.802 108.386 138.501C108.014 138.195 107.821 137.781 107.809 137.262H109.182C109.219 137.687 109.445 137.944 109.86 138.032V136.341C109.42 136.235 109.066 136.129 108.798 136.023C108.529 135.916 108.297 135.745 108.102 135.509C107.907 135.273 107.809 134.951 107.809 134.544C107.809 134.031 107.998 133.612 108.377 133.287C108.761 132.962 109.256 132.777 109.86 132.729V132.012H110.446V132.729C111.032 132.777 111.499 132.948 111.847 133.243C112.201 133.538 112.399 133.945 112.442 134.464H111.059C111.041 134.293 110.977 134.146 110.867 134.022C110.763 133.892 110.623 133.801 110.446 133.747V135.421C110.904 135.533 111.264 135.642 111.526 135.748C111.795 135.848 112.027 136.017 112.222 136.253C112.417 136.483 112.515 136.802 112.515 137.209ZM109.146 134.482C109.146 134.677 109.207 134.836 109.329 134.96C109.451 135.078 109.628 135.176 109.86 135.252V133.721C109.64 133.75 109.466 133.83 109.338 133.96C109.21 134.09 109.146 134.264 109.146 134.482ZM110.446 138.05C110.678 138.009 110.858 137.917 110.986 137.775C111.12 137.634 111.188 137.463 111.188 137.262C111.188 137.067 111.123 136.911 110.995 136.793C110.867 136.675 110.684 136.577 110.446 136.501V138.05Z" fill="white"/>
<path d="M159.943 178.499C159.973 177.909 160.188 177.454 160.586 177.136C160.991 176.811 161.522 176.649 162.178 176.649C162.626 176.649 163.009 176.725 163.328 176.879C163.647 177.026 163.886 177.23 164.045 177.49C164.211 177.743 164.294 178.033 164.294 178.357C164.294 178.729 164.192 179.045 163.99 179.305C163.794 179.558 163.558 179.73 163.282 179.818V179.853C163.637 179.96 163.913 180.149 164.11 180.42C164.312 180.692 164.413 181.04 164.413 181.465C164.413 181.819 164.327 182.135 164.156 182.412C163.99 182.689 163.742 182.908 163.411 183.067C163.086 183.221 162.693 183.297 162.233 183.297C161.54 183.297 160.976 183.129 160.54 182.793C160.105 182.456 159.875 181.96 159.851 181.305H161.102C161.114 181.595 161.215 181.828 161.405 182.005C161.601 182.176 161.868 182.261 162.205 182.261C162.518 182.261 162.757 182.179 162.923 182.014C163.095 181.842 163.181 181.624 163.181 181.358C163.181 181.004 163.064 180.751 162.831 180.597C162.598 180.444 162.236 180.367 161.746 180.367H161.479V179.349H161.746C162.616 179.349 163.052 179.068 163.052 178.508C163.052 178.254 162.972 178.056 162.813 177.915C162.659 177.773 162.435 177.702 162.141 177.702C161.853 177.702 161.629 177.779 161.47 177.932C161.316 178.08 161.227 178.269 161.203 178.499H159.943Z" fill="white"/>
<path d="M165.836 181.854C166.424 181.382 166.894 180.99 167.243 180.677C167.593 180.358 167.884 180.028 168.117 179.685C168.35 179.343 168.467 179.007 168.467 178.676C168.467 178.375 168.393 178.139 168.246 177.968C168.099 177.797 167.872 177.711 167.565 177.711C167.258 177.711 167.022 177.811 166.857 178.012C166.691 178.207 166.605 178.475 166.599 178.818H165.348C165.373 178.109 165.59 177.572 166.001 177.206C166.418 176.84 166.946 176.658 167.583 176.658C168.283 176.658 168.819 176.838 169.193 177.198C169.567 177.552 169.754 178.021 169.754 178.605C169.754 179.066 169.626 179.505 169.368 179.924C169.11 180.343 168.816 180.709 168.485 181.022C168.154 181.329 167.721 181.701 167.188 182.138H169.902V183.164H165.357V182.244L165.836 181.854Z" fill="white"/>
<path d="M171.431 183.315C171.198 183.315 171.004 183.247 170.851 183.111C170.704 182.97 170.63 182.796 170.63 182.589C170.63 182.382 170.704 182.211 170.851 182.076C171.004 181.934 171.198 181.863 171.431 181.863C171.657 181.863 171.844 181.934 171.992 182.076C172.139 182.211 172.212 182.382 172.212 182.589C172.212 182.796 172.139 182.97 171.992 183.111C171.844 183.247 171.657 183.315 171.431 183.315Z" fill="white"/>
<path d="M173.507 181.854C174.096 181.382 174.565 180.99 174.915 180.677C175.264 180.358 175.556 180.028 175.789 179.685C176.022 179.343 176.138 179.007 176.138 178.676C176.138 178.375 176.065 178.139 175.917 177.968C175.77 177.797 175.543 177.711 175.237 177.711C174.93 177.711 174.694 177.811 174.528 178.012C174.363 178.207 174.277 178.475 174.271 178.818H173.02C173.044 178.109 173.262 177.572 173.673 177.206C174.09 176.84 174.617 176.658 175.255 176.658C175.954 176.658 176.491 176.838 176.865 177.198C177.239 177.552 177.426 178.021 177.426 178.605C177.426 179.066 177.297 179.505 177.04 179.924C176.782 180.343 176.488 180.709 176.157 181.022C175.825 181.329 175.393 181.701 174.86 182.138H177.573V183.164H173.029V182.244L173.507 181.854Z" fill="white"/>
<path d="M178.228 177.941V176.799H180.445V183.253H179.121V177.941H178.228Z" fill="white"/>
<path d="M186.446 181.474C186.446 181.78 186.363 182.07 186.197 182.341C186.038 182.607 185.799 182.828 185.48 183.005C185.167 183.176 184.796 183.277 184.367 183.306V184.023H183.778V183.297C183.165 183.244 182.671 183.067 182.297 182.766C181.923 182.459 181.73 182.046 181.717 181.527H183.097C183.134 181.952 183.361 182.208 183.778 182.297V180.606C183.336 180.5 182.981 180.393 182.711 180.287C182.441 180.181 182.208 180.01 182.012 179.774C181.816 179.538 181.717 179.216 181.717 178.809C181.717 178.295 181.908 177.876 182.288 177.552C182.674 177.227 183.171 177.041 183.778 176.994V176.277H184.367V176.994C184.955 177.041 185.425 177.212 185.774 177.507C186.13 177.803 186.329 178.21 186.372 178.729H184.983C184.965 178.558 184.9 178.41 184.79 178.286C184.686 178.157 184.545 178.065 184.367 178.012V179.685C184.827 179.797 185.189 179.907 185.452 180.013C185.722 180.113 185.955 180.281 186.151 180.517C186.348 180.748 186.446 181.066 186.446 181.474ZM183.061 178.747C183.061 178.942 183.122 179.101 183.244 179.225C183.367 179.343 183.545 179.44 183.778 179.517V177.985C183.557 178.015 183.382 178.095 183.254 178.225C183.125 178.354 183.061 178.528 183.061 178.747ZM184.367 182.315C184.6 182.273 184.781 182.182 184.909 182.04C185.044 181.898 185.112 181.727 185.112 181.527C185.112 181.332 185.047 181.175 184.919 181.057C184.79 180.939 184.606 180.842 184.367 180.765V182.315Z" fill="white"/>
<path d="M122.701 99.6192C122.64 99.3713 122.533 99.1854 122.38 99.0614C122.233 98.9375 122.02 98.8755 121.738 98.8755C121.317 98.8755 121.005 99.0408 120.804 99.3713C120.608 99.6959 120.507 100.227 120.501 100.965C120.648 100.729 120.862 100.546 121.143 100.416C121.424 100.28 121.729 100.212 122.059 100.212C122.456 100.212 122.808 100.295 123.113 100.46C123.419 100.625 123.657 100.867 123.828 101.186C123.999 101.499 124.085 101.877 124.085 102.319C124.085 102.738 123.996 103.113 123.819 103.444C123.648 103.768 123.394 104.022 123.058 104.205C122.722 104.388 122.322 104.479 121.858 104.479C121.222 104.479 120.721 104.344 120.354 104.072C119.994 103.801 119.74 103.423 119.594 102.939C119.453 102.449 119.383 101.847 119.383 101.133C119.383 100.053 119.575 99.2385 119.96 98.6896C120.345 98.1348 120.953 97.8574 121.784 97.8574C122.426 97.8574 122.924 98.0256 123.278 98.362C123.633 98.6984 123.837 99.1175 123.892 99.6192H122.701ZM121.766 101.23C121.442 101.23 121.17 101.322 120.95 101.505C120.73 101.688 120.62 101.953 120.62 102.302C120.62 102.65 120.721 102.924 120.923 103.125C121.13 103.326 121.421 103.426 121.793 103.426C122.123 103.426 122.383 103.329 122.573 103.134C122.768 102.939 122.866 102.676 122.866 102.346C122.866 102.004 122.771 101.732 122.582 101.531C122.398 101.331 122.126 101.23 121.766 101.23Z" fill="white"/>
<path d="M126.584 102.647C126.633 102.907 126.743 103.107 126.914 103.249C127.091 103.385 127.326 103.452 127.62 103.452C127.999 103.452 128.273 103.302 128.445 103.001C128.616 102.694 128.701 102.181 128.701 101.461C128.561 101.649 128.362 101.797 128.105 101.903C127.855 102.009 127.583 102.063 127.29 102.063C126.899 102.063 126.544 101.986 126.226 101.832C125.915 101.673 125.667 101.44 125.484 101.133C125.301 100.82 125.209 100.442 125.209 99.9998C125.209 99.3447 125.411 98.8253 125.814 98.4417C126.217 98.0522 126.767 97.8574 127.464 97.8574C128.332 97.8574 128.943 98.126 129.297 98.663C129.658 99.2001 129.838 100.009 129.838 101.089C129.838 101.856 129.768 102.485 129.627 102.974C129.493 103.464 129.257 103.836 128.921 104.09C128.591 104.344 128.139 104.471 127.565 104.471C127.112 104.471 126.728 104.388 126.41 104.223C126.092 104.052 125.848 103.83 125.677 103.559C125.512 103.281 125.417 102.977 125.392 102.647H126.584ZM127.555 101.053C127.873 101.053 128.124 100.959 128.307 100.77C128.49 100.581 128.582 100.327 128.582 100.009C128.582 99.6605 128.484 99.3919 128.289 99.2031C128.099 99.0083 127.84 98.9109 127.51 98.9109C127.18 98.9109 126.917 99.0113 126.721 99.2119C126.532 99.4067 126.437 99.6664 126.437 99.991C126.437 100.304 126.529 100.561 126.712 100.761C126.902 100.956 127.183 101.053 127.555 101.053Z" fill="white"/>
<path d="M131.552 104.524C131.319 104.524 131.127 104.456 130.974 104.32C130.827 104.178 130.754 104.004 130.754 103.798C130.754 103.591 130.827 103.42 130.974 103.284C131.127 103.143 131.319 103.072 131.552 103.072C131.778 103.072 131.964 103.143 132.111 103.284C132.257 103.42 132.331 103.591 132.331 103.798C132.331 104.004 132.257 104.178 132.111 104.32C131.964 104.456 131.778 104.524 131.552 104.524Z" fill="white"/>
<path d="M133.236 99.7077C133.266 99.1175 133.48 98.663 133.878 98.3443C134.281 98.0197 134.809 97.8574 135.463 97.8574C135.909 97.8574 136.291 97.9341 136.609 98.0876C136.927 98.2351 137.165 98.4388 137.324 98.6984C137.489 98.9522 137.571 99.2414 137.571 99.566C137.571 99.9379 137.471 100.254 137.269 100.513C137.073 100.767 136.838 100.938 136.563 101.027V101.062C136.918 101.168 137.193 101.357 137.388 101.629C137.59 101.9 137.691 102.248 137.691 102.673C137.691 103.028 137.605 103.343 137.434 103.621C137.269 103.898 137.021 104.116 136.691 104.276C136.368 104.429 135.977 104.506 135.518 104.506C134.828 104.506 134.266 104.338 133.832 104.001C133.398 103.665 133.169 103.169 133.144 102.514H134.391C134.403 102.803 134.504 103.036 134.693 103.213C134.889 103.385 135.155 103.47 135.491 103.47C135.802 103.47 136.041 103.388 136.206 103.222C136.377 103.051 136.462 102.833 136.462 102.567C136.462 102.213 136.346 101.959 136.114 101.806C135.882 101.652 135.521 101.576 135.032 101.576H134.767V100.558H135.032C135.9 100.558 136.334 100.277 136.334 99.7165C136.334 99.4628 136.255 99.265 136.096 99.1234C135.943 98.9817 135.72 98.9109 135.427 98.9109C135.139 98.9109 134.916 98.9876 134.757 99.1411C134.605 99.2886 134.516 99.4775 134.492 99.7077H133.236Z" fill="white"/>
<path d="M139.108 103.063C139.694 102.591 140.162 102.198 140.51 101.886C140.859 101.567 141.149 101.236 141.381 100.894C141.613 100.552 141.729 100.215 141.729 99.8847C141.729 99.5837 141.656 99.3477 141.509 99.1765C141.363 99.0054 141.137 98.9198 140.831 98.9198C140.525 98.9198 140.29 99.0201 140.125 99.2208C139.96 99.4155 139.875 99.6841 139.869 100.026H138.622C138.647 99.3182 138.863 98.7811 139.273 98.4152C139.688 98.0492 140.214 97.8663 140.849 97.8663C141.546 97.8663 142.081 98.0463 142.453 98.4063C142.826 98.7604 143.012 99.2296 143.012 99.8139C143.012 100.274 142.884 100.714 142.628 101.133C142.371 101.552 142.078 101.918 141.748 102.231C141.418 102.538 140.987 102.909 140.455 103.346H143.159V104.373H138.631V103.452L139.108 103.063Z" fill="white"/>
<path d="M148.679 102.682C148.679 102.989 148.596 103.278 148.431 103.55C148.273 103.815 148.034 104.037 147.717 104.214C147.405 104.385 147.035 104.485 146.607 104.515V105.232H146.021V104.506C145.41 104.453 144.918 104.276 144.545 103.975C144.172 103.668 143.98 103.255 143.968 102.735H145.343C145.379 103.16 145.605 103.417 146.021 103.506V101.815C145.581 101.708 145.226 101.602 144.958 101.496C144.689 101.39 144.457 101.219 144.261 100.983C144.065 100.746 143.968 100.425 143.968 100.018C143.968 99.5041 144.157 99.085 144.536 98.7604C144.921 98.4358 145.416 98.2499 146.021 98.2027V97.4856H146.607V98.2027C147.194 98.2499 147.662 98.4211 148.01 98.7162C148.364 99.0113 148.563 99.4185 148.606 99.9379H147.222C147.203 99.7667 147.139 99.6192 147.029 99.4952C146.925 99.3654 146.785 99.2739 146.607 99.2208V100.894C147.066 101.006 147.426 101.115 147.689 101.222C147.958 101.322 148.19 101.49 148.386 101.726C148.581 101.956 148.679 102.275 148.679 102.682ZM145.306 99.9556C145.306 100.15 145.367 100.31 145.489 100.434C145.611 100.552 145.789 100.649 146.021 100.726V99.1942C145.801 99.2237 145.627 99.3034 145.498 99.4332C145.37 99.5631 145.306 99.7372 145.306 99.9556ZM146.607 103.523C146.84 103.482 147.02 103.391 147.148 103.249C147.283 103.107 147.35 102.936 147.35 102.735C147.35 102.541 147.286 102.384 147.157 102.266C147.029 102.148 146.846 102.051 146.607 101.974V103.523Z" fill="white"/>
<path d="M62.8296 246.266V253.618H61.8588V248.136L59.4051 253.618H58.7223L56.2579 248.125V253.618H55.2871V246.266H56.3326L59.0637 252.343L61.7948 246.266H62.8296Z" fill="white"/>
<path d="M100.182 246.213V246.999H98.1546V253.618H97.1838V246.999H95.1461V246.213H100.182Z" fill="white"/>
<path d="M141.242 246.213L139.087 253.618H137.999L136.27 247.658L134.478 253.618L133.4 253.628L131.32 246.213H132.355L133.977 252.492L135.769 246.213H136.857L138.564 252.47L140.196 246.213H141.242Z" fill="white"/>
<path d="M177.4 246.213V246.999H175.373V253.618H174.402V246.999H172.365V246.213H177.4Z" fill="white"/>
<path d="M215.834 246.213V246.999H212.602V249.496H215.226V250.282H212.602V253.618H211.631V246.213H215.834Z" fill="white"/>
<path d="M252.155 253.692C251.664 253.692 251.223 253.607 250.832 253.437C250.448 253.26 250.146 253.019 249.925 252.715C249.705 252.403 249.591 252.045 249.584 251.642H250.619C250.654 251.989 250.797 252.283 251.046 252.523C251.302 252.757 251.671 252.874 252.155 252.874C252.617 252.874 252.98 252.761 253.243 252.534C253.514 252.3 253.649 252.003 253.649 251.642C253.649 251.358 253.57 251.128 253.414 250.951C253.257 250.774 253.062 250.64 252.827 250.547C252.592 250.455 252.276 250.356 251.878 250.25C251.387 250.123 250.992 249.995 250.694 249.868C250.402 249.74 250.149 249.542 249.936 249.273C249.73 248.996 249.627 248.628 249.627 248.168C249.627 247.764 249.73 247.406 249.936 247.095C250.142 246.783 250.43 246.542 250.8 246.372C251.177 246.202 251.607 246.117 252.091 246.117C252.788 246.117 253.357 246.291 253.798 246.638C254.246 246.985 254.499 247.445 254.555 248.019H253.489C253.453 247.736 253.304 247.488 253.041 247.275C252.777 247.056 252.429 246.946 251.995 246.946C251.59 246.946 251.259 247.052 251.003 247.265C250.747 247.47 250.619 247.761 250.619 248.136C250.619 248.405 250.694 248.625 250.843 248.795C250.999 248.965 251.188 249.096 251.408 249.188C251.636 249.273 251.952 249.372 252.358 249.485C252.849 249.62 253.243 249.754 253.542 249.889C253.841 250.016 254.097 250.218 254.31 250.494C254.523 250.763 254.63 251.132 254.63 251.599C254.63 251.96 254.534 252.3 254.342 252.619C254.15 252.938 253.866 253.196 253.489 253.395C253.112 253.593 252.667 253.692 252.155 253.692Z" fill="white"/>
<path d="M290.764 253.692C290.274 253.692 289.833 253.607 289.441 253.437C289.057 253.26 288.755 253.019 288.535 252.715C288.314 252.403 288.2 252.045 288.193 251.642H289.228C289.264 251.989 289.406 252.283 289.655 252.523C289.911 252.757 290.281 252.874 290.764 252.874C291.227 252.874 291.589 252.761 291.852 252.534C292.123 252.3 292.258 252.003 292.258 251.642C292.258 251.358 292.18 251.128 292.023 250.951C291.867 250.774 291.671 250.64 291.436 250.547C291.202 250.455 290.885 250.356 290.487 250.25C289.996 250.123 289.601 249.995 289.303 249.868C289.011 249.74 288.759 249.542 288.545 249.273C288.339 248.996 288.236 248.628 288.236 248.168C288.236 247.764 288.339 247.406 288.545 247.095C288.752 246.783 289.04 246.542 289.409 246.372C289.786 246.202 290.217 246.117 290.7 246.117C291.397 246.117 291.966 246.291 292.407 246.638C292.855 246.985 293.108 247.445 293.165 248.019H292.098C292.062 247.736 291.913 247.488 291.65 247.275C291.387 247.056 291.038 246.946 290.604 246.946C290.199 246.946 289.868 247.052 289.612 247.265C289.356 247.47 289.228 247.761 289.228 248.136C289.228 248.405 289.303 248.625 289.452 248.795C289.609 248.965 289.797 249.096 290.018 249.188C290.245 249.273 290.562 249.372 290.967 249.485C291.458 249.62 291.852 249.754 292.151 249.889C292.45 250.016 292.706 250.218 292.919 250.494C293.133 250.763 293.239 251.132 293.239 251.599C293.239 251.96 293.143 252.3 292.951 252.619C292.759 252.938 292.475 253.196 292.098 253.395C291.721 253.593 291.276 253.692 290.764 253.692Z" fill="white"/>
<path d="M282.5 131.5V143L285 140L286.5 143.5L288 143L286.5 139.5H290.5L282.5 131.5Z" fill="white" stroke="black" stroke-width="0.5"/>
<g filter="url(#filter0_b_1479_36697)">
<path d="M285 148.541C285 146.585 286.585 145 288.541 145H358.459C360.415 145 362 146.585 362 148.541V184.459C362 186.415 360.415 188 358.459 188H288.541C286.585 188 285 186.415 285 184.459V148.541Z" fill="#1D1E26" fill-opacity="0.9"/>
</g>
<path d="M292.129 157.662C292.129 154.9 294.368 152.662 297.129 152.662C299.891 152.662 302.129 154.9 302.129 157.662C302.129 160.423 299.891 162.662 297.129 162.662C294.368 162.662 292.129 160.423 292.129 157.662Z" fill="#FF4081"/>
<path d="M314.031 154.31V161.662H313.026V156.18L310.487 161.662H309.781L307.231 156.169V161.662H306.227V154.31H307.308L310.134 160.387L312.96 154.31H314.031Z" fill="white"/>
<path d="M321.253 158.528C321.253 158.712 321.242 158.907 321.22 159.112H316.385C316.422 159.686 316.625 160.136 316.992 160.461C317.368 160.78 317.82 160.939 318.35 160.939C318.784 160.939 319.145 160.844 319.432 160.653C319.726 160.454 319.932 160.192 320.05 159.866H321.132C320.97 160.426 320.646 160.883 320.16 161.237C319.675 161.584 319.071 161.757 318.35 161.757C317.776 161.757 317.261 161.633 316.805 161.386C316.356 161.138 316.003 160.787 315.745 160.334C315.488 159.873 315.359 159.342 315.359 158.74C315.359 158.138 315.484 157.611 315.734 157.157C315.984 156.704 316.334 156.357 316.783 156.116C317.239 155.868 317.761 155.744 318.35 155.744C318.924 155.744 319.432 155.865 319.873 156.106C320.315 156.346 320.654 156.679 320.889 157.104C321.132 157.522 321.253 157.997 321.253 158.528ZM320.216 158.326C320.216 157.958 320.131 157.643 319.962 157.381C319.793 157.111 319.561 156.91 319.266 156.775C318.979 156.633 318.659 156.562 318.306 156.562C317.798 156.562 317.364 156.718 317.004 157.03C316.65 157.342 316.448 157.774 316.396 158.326H320.216Z" fill="white"/>
<path d="M322.204 158.73C322.204 158.135 322.329 157.614 322.579 157.168C322.829 156.715 323.172 156.364 323.606 156.116C324.047 155.868 324.537 155.744 325.074 155.744C325.604 155.744 326.064 155.854 326.454 156.074C326.844 156.293 327.134 156.57 327.326 156.902V155.84H328.341V161.662H327.326V160.578C327.127 160.918 326.829 161.201 326.431 161.428C326.041 161.648 325.585 161.757 325.063 161.757C324.526 161.757 324.04 161.63 323.606 161.375C323.172 161.12 322.829 160.762 322.579 160.302C322.329 159.842 322.204 159.318 322.204 158.73ZM327.326 158.74C327.326 158.301 327.234 157.919 327.05 157.593C326.866 157.267 326.615 157.019 326.299 156.849C325.99 156.672 325.648 156.584 325.272 156.584C324.897 156.584 324.555 156.669 324.246 156.839C323.937 157.009 323.69 157.257 323.506 157.582C323.322 157.908 323.23 158.291 323.23 158.73C323.23 159.176 323.322 159.565 323.506 159.898C323.69 160.224 323.937 160.475 324.246 160.653C324.555 160.823 324.897 160.908 325.272 160.908C325.648 160.908 325.99 160.823 326.299 160.653C326.615 160.475 326.866 160.224 327.05 159.898C327.234 159.565 327.326 159.179 327.326 158.74Z" fill="white"/>
<path d="M331.264 156.637V160.068C331.264 160.352 331.326 160.553 331.451 160.674C331.577 160.787 331.794 160.844 332.103 160.844H332.842V161.662H331.937C331.378 161.662 330.958 161.538 330.679 161.29C330.399 161.042 330.259 160.635 330.259 160.068V156.637H329.476V155.84H330.259V154.374H331.264V155.84H332.842V156.637H331.264Z" fill="white"/>
<path d="M298.21 172.195H294.802V173.661C294.948 173.506 295.152 173.378 295.414 173.279C295.676 173.18 295.96 173.13 296.266 173.13C296.812 173.13 297.263 173.251 297.62 173.491C297.984 173.732 298.25 174.044 298.418 174.426C298.585 174.809 298.669 175.223 298.669 175.669C298.669 176.498 298.429 177.157 297.948 177.645C297.467 178.127 296.79 178.368 295.916 178.368C295.334 178.368 294.827 178.272 294.398 178.081C293.968 177.883 293.637 177.61 293.404 177.263C293.171 176.916 293.043 176.516 293.021 176.062H294.846C294.889 176.282 294.995 176.466 295.162 176.615C295.33 176.756 295.559 176.827 295.851 176.827C296.193 176.827 296.448 176.721 296.615 176.509C296.783 176.296 296.866 176.013 296.866 175.659C296.866 175.312 296.779 175.046 296.604 174.862C296.43 174.678 296.175 174.586 295.84 174.586C295.592 174.586 295.388 174.646 295.228 174.766C295.068 174.88 294.962 175.032 294.911 175.223H293.109V170.602H298.21V172.195Z" fill="white"/>
<path d="M303.643 172.705C303.585 172.443 303.483 172.249 303.337 172.121C303.192 171.986 302.984 171.919 302.715 171.919C302.3 171.919 302.001 172.096 301.819 172.45C301.637 172.797 301.542 173.35 301.535 174.108C301.695 173.86 301.925 173.665 302.223 173.523C302.529 173.382 302.864 173.311 303.228 173.311C303.942 173.311 304.513 173.53 304.943 173.97C305.38 174.409 305.598 175.021 305.598 175.807C305.598 176.324 305.489 176.778 305.271 177.167C305.06 177.557 304.746 177.861 304.331 178.081C303.924 178.3 303.439 178.41 302.879 178.41C301.757 178.41 300.978 178.07 300.541 177.39C300.104 176.703 299.886 175.719 299.886 174.437C299.886 173.091 300.115 172.093 300.574 171.441C301.04 170.782 301.783 170.453 302.802 170.453C303.348 170.453 303.807 170.559 304.178 170.772C304.557 170.977 304.841 171.25 305.03 171.59C305.227 171.93 305.344 172.302 305.38 172.705H303.643ZM302.78 174.745C302.467 174.745 302.205 174.837 301.994 175.021C301.79 175.198 301.688 175.453 301.688 175.786C301.688 176.126 301.783 176.392 301.972 176.583C302.169 176.774 302.445 176.87 302.802 176.87C303.123 176.87 303.374 176.778 303.556 176.594C303.745 176.402 303.84 176.144 303.84 175.818C303.84 175.485 303.749 175.223 303.567 175.032C303.385 174.841 303.123 174.745 302.78 174.745Z" fill="white"/>
<path d="M307.714 178.453C307.387 178.453 307.117 178.361 306.906 178.176C306.702 177.985 306.6 177.752 306.6 177.475C306.6 177.192 306.702 176.955 306.906 176.764C307.117 176.572 307.387 176.477 307.714 176.477C308.035 176.477 308.297 176.572 308.501 176.764C308.712 176.955 308.818 177.192 308.818 177.475C308.818 177.752 308.712 177.985 308.501 178.176C308.297 178.361 308.035 178.453 307.714 178.453Z" fill="white"/>
<path d="M309.738 174.384C309.738 173.166 309.978 172.206 310.459 171.505C310.947 170.804 311.729 170.453 312.807 170.453C313.885 170.453 314.664 170.804 315.145 171.505C315.633 172.206 315.877 173.166 315.877 174.384C315.877 175.616 315.633 176.583 315.145 177.284C314.664 177.985 313.885 178.336 312.807 178.336C311.729 178.336 310.947 177.985 310.459 177.284C309.978 176.583 309.738 175.616 309.738 174.384ZM314.042 174.384C314.042 173.669 313.961 173.12 313.801 172.737C313.641 172.348 313.31 172.153 312.807 172.153C312.305 172.153 311.973 172.348 311.813 172.737C311.653 173.12 311.573 173.669 311.573 174.384C311.573 174.865 311.602 175.266 311.66 175.584C311.719 175.896 311.835 176.151 312.01 176.349C312.192 176.54 312.458 176.636 312.807 176.636C313.157 176.636 313.419 176.54 313.594 176.349C313.776 176.151 313.896 175.896 313.954 175.584C314.012 175.266 314.042 174.865 314.042 174.384Z" fill="white"/>
<path d="M316.929 172.801C316.958 172.043 317.213 171.459 317.694 171.048C318.174 170.637 318.826 170.432 319.649 170.432C320.195 170.432 320.661 170.524 321.047 170.708C321.44 170.892 321.735 171.144 321.932 171.462C322.136 171.781 322.238 172.139 322.238 172.535C322.238 173.003 322.118 173.385 321.877 173.683C321.637 173.973 321.357 174.171 321.036 174.278V174.32C321.451 174.455 321.779 174.678 322.019 174.989C322.26 175.301 322.38 175.701 322.38 176.19C322.38 176.629 322.274 177.019 322.063 177.358C321.859 177.691 321.557 177.953 321.156 178.145C320.763 178.336 320.293 178.431 319.747 178.431C318.873 178.431 318.174 178.223 317.65 177.805C317.133 177.387 316.86 176.756 316.831 175.914H318.644C318.651 176.225 318.742 176.473 318.917 176.657C319.092 176.834 319.347 176.923 319.682 176.923C319.966 176.923 320.184 176.845 320.337 176.689C320.497 176.526 320.577 176.314 320.577 176.052C320.577 175.712 320.465 175.467 320.239 175.319C320.02 175.163 319.667 175.085 319.179 175.085H318.83V173.608H319.179C319.551 173.608 319.849 173.548 320.075 173.428C320.308 173.3 320.424 173.077 320.424 172.758C320.424 172.504 320.352 172.305 320.206 172.164C320.06 172.022 319.86 171.951 319.605 171.951C319.329 171.951 319.121 172.033 318.983 172.195C318.852 172.358 318.775 172.56 318.753 172.801H316.929Z" fill="white"/>
<path d="M329.463 176.2C329.463 176.59 329.358 176.951 329.146 177.284C328.942 177.61 328.637 177.879 328.229 178.091C327.828 178.297 327.351 178.41 326.798 178.431V179.292H326.099V178.421C325.327 178.357 324.704 178.134 324.231 177.752C323.758 177.362 323.506 176.834 323.477 176.169H325.465C325.509 176.594 325.72 176.866 326.099 176.987V175.308C325.531 175.166 325.076 175.028 324.733 174.894C324.398 174.759 324.103 174.543 323.849 174.246C323.594 173.948 323.466 173.541 323.466 173.024C323.466 172.38 323.71 171.863 324.198 171.473C324.693 171.083 325.327 170.864 326.099 170.814V169.954H326.798V170.814C327.563 170.871 328.167 171.087 328.611 171.462C329.055 171.838 329.303 172.358 329.354 173.024H327.355C327.311 172.642 327.126 172.394 326.798 172.28V173.927C327.402 174.09 327.868 174.235 328.196 174.363C328.524 174.49 328.815 174.703 329.07 175C329.332 175.29 329.463 175.691 329.463 176.2ZM325.443 172.939C325.443 173.116 325.498 173.265 325.607 173.385C325.724 173.506 325.888 173.612 326.099 173.704V172.227C325.895 172.263 325.735 172.341 325.618 172.461C325.502 172.574 325.443 172.734 325.443 172.939ZM326.798 177.019C327.016 176.983 327.187 176.898 327.311 176.764C327.442 176.629 327.508 176.463 327.508 176.264C327.508 176.08 327.446 175.931 327.322 175.818C327.206 175.698 327.031 175.595 326.798 175.51V177.019Z" fill="white"/>
<defs>
<filter id="filter0_b_1479_36697" x="276.147" y="136.147" width="94.7059" height="60.7059" filterUnits="userSpaceOnUse" color-interpolation-filters="sRGB">
<feFlood flood-opacity="0" result="BackgroundImageFix"/>
<feGaussianBlur in="BackgroundImageFix" stdDeviation="4.42647"/>
<feComposite in2="SourceAlpha" operator="in" result="effect1_backgroundBlur_1479_36697"/>
<feBlend mode="normal" in="SourceGraphic" in2="effect1_backgroundBlur_1479_36697" result="shape"/>
</filter>
<linearGradient id="paint0_linear_1479_36697" x1="173.5" y1="42" x2="173.5" y2="267" gradientUnits="userSpaceOnUse">
<stop stop-color="#696AE9" stop-opacity="0.5"/>
<stop offset="1" stop-color="#1D1E26"/>
</linearGradient>
</defs>
</svg>
