<svg width="362" height="375" viewBox="0 0 362 375" fill="none" xmlns="http://www.w3.org/2000/svg">
<path d="M98.5 52.5217C98.5 49.196 101.196 46.5 104.522 46.5H286.478C289.804 46.5 292.5 49.196 292.5 52.5217V313.478C292.5 316.804 289.804 319.5 286.478 319.5H104.522C101.196 319.5 98.5 316.804 98.5 313.478V52.5217Z" fill="#23242D" stroke="url(#paint0_linear_1479_36759)"/>
<g filter="url(#filter0_d_1479_36759)">
<path d="M84 42.5217C84 38.9199 86.9199 36 90.5217 36H272.478C276.08 36 279 38.9199 279 42.5217V303.478C279 307.08 276.08 310 272.478 310H90.5217C86.9199 310 84 307.08 84 303.478V42.5217Z" fill="#23242D"/>
<path d="M84.5 42.5217C84.5 39.196 87.196 36.5 90.5217 36.5H272.478C275.804 36.5 278.5 39.196 278.5 42.5217V303.478C278.5 306.804 275.804 309.5 272.478 309.5H90.5217C87.196 309.5 84.5 306.804 84.5 303.478V42.5217Z" stroke="url(#paint1_linear_1479_36759)"/>
</g>
<path d="M106.534 61.4911H104.843L101.015 55.7067V61.4911H99.3247V53.05H101.015L104.843 58.8464V53.05H106.534V61.4911Z" fill="#EDEFFF"/>
<path d="M111.175 61.5998C110.531 61.5998 109.952 61.4589 109.437 61.1771C108.921 60.8873 108.515 60.4807 108.217 59.9574C107.927 59.4341 107.782 58.8303 107.782 58.146C107.782 57.4617 107.931 56.8579 108.229 56.3346C108.535 55.8114 108.949 55.4088 109.473 55.1271C109.996 54.8372 110.58 54.6923 111.224 54.6923C111.868 54.6923 112.451 54.8372 112.975 55.1271C113.498 55.4088 113.909 55.8114 114.207 56.3346C114.512 56.8579 114.665 57.4617 114.665 58.146C114.665 58.8303 114.508 59.4341 114.194 59.9574C113.889 60.4807 113.47 60.8873 112.939 61.1771C112.415 61.4589 111.828 61.5998 111.175 61.5998ZM111.175 60.1265C111.481 60.1265 111.767 60.054 112.033 59.9091C112.307 59.7562 112.524 59.5307 112.685 59.2329C112.846 58.935 112.926 58.5727 112.926 58.146C112.926 57.51 112.757 57.023 112.419 56.6848C112.089 56.3387 111.683 56.1656 111.2 56.1656C110.717 56.1656 110.31 56.3387 109.98 56.6848C109.658 57.023 109.497 57.51 109.497 58.146C109.497 58.782 109.654 59.2731 109.968 59.6193C110.29 59.9574 110.692 60.1265 111.175 60.1265Z" fill="#EDEFFF"/>
<path d="M118.695 59.9333L120.386 54.801H122.185L119.709 61.4911H117.657L115.193 54.801H117.004L118.695 59.9333Z" fill="#EDEFFF"/>
<path d="M124.982 59.7159L123.569 63.1092H122.482L123.267 59.7159H124.982Z" fill="#EDEFFF"/>
<path d="M128.68 54.2455V52.6877H131.59V61.4911H129.851V54.2455H128.68Z" fill="#EDEFFF"/>
<path d="M137.825 54.8855C137.744 54.5474 137.603 54.2938 137.402 54.1247C137.209 53.9557 136.927 53.8712 136.557 53.8712C136.001 53.8712 135.591 54.0966 135.325 54.5474C135.068 54.9902 134.935 55.7147 134.927 56.7211C135.12 56.3991 135.402 56.1495 135.772 55.9724C136.142 55.7872 136.545 55.6946 136.98 55.6946C137.503 55.6946 137.966 55.8073 138.368 56.0327C138.771 56.2582 139.085 56.5882 139.31 57.023C139.536 57.4497 139.648 57.9649 139.648 58.5687C139.648 59.1403 139.532 59.6515 139.298 60.1023C139.073 60.5451 138.739 60.8913 138.296 61.1409C137.853 61.3904 137.326 61.5152 136.714 61.5152C135.877 61.5152 135.216 61.3301 134.733 60.9597C134.258 60.5894 133.924 60.0742 133.731 59.414C133.546 58.7458 133.453 57.9246 133.453 56.9505C133.453 55.4773 133.707 54.3663 134.214 53.6176C134.721 52.8608 135.522 52.4824 136.617 52.4824C137.463 52.4824 138.119 52.7119 138.586 53.1708C139.053 53.6296 139.322 54.2012 139.395 54.8855H137.825ZM136.593 57.0834C136.166 57.0834 135.808 57.2081 135.518 57.4577C135.229 57.7073 135.084 58.0696 135.084 58.5445C135.084 59.0195 135.216 59.3939 135.482 59.6676C135.756 59.9413 136.138 60.0782 136.629 60.0782C137.064 60.0782 137.406 59.9454 137.656 59.6797C137.913 59.414 138.042 59.0558 138.042 58.6049C138.042 58.138 137.917 57.7677 137.668 57.4939C137.426 57.2202 137.068 57.0834 136.593 57.0834Z" fill="#EDEFFF"/>
<g filter="url(#filter1_d_1479_36759)">
<path d="M69 77.5217C69 73.9199 71.9199 71 75.5217 71H257.478C261.08 71 264 73.9199 264 77.5217V338.478C264 342.08 261.08 345 257.478 345H75.5217C71.9199 345 69 342.08 69 338.478V77.5217Z" fill="#23242D"/>
<path d="M69.5 77.5217C69.5 74.196 72.196 71.5 75.5217 71.5H257.478C260.804 71.5 263.5 74.196 263.5 77.5217V338.478C263.5 341.804 260.804 344.5 257.478 344.5H75.5217C72.196 344.5 69.5 341.804 69.5 338.478V77.5217Z" stroke="url(#paint2_linear_1479_36759)"/>
</g>
<path d="M91.5336 95.7302H89.8429L86.0149 89.9458V95.7302H84.3242V87.2891H86.0149L89.8429 93.0856V87.2891H91.5336V95.7302Z" fill="#EDEFFF"/>
<path d="M96.175 95.8389C95.5309 95.8389 94.9513 95.698 94.436 95.4162C93.9208 95.1264 93.5142 94.7199 93.2164 94.1966C92.9265 93.6733 92.7816 93.0695 92.7816 92.3852C92.7816 91.7009 92.9306 91.0971 93.2284 90.5738C93.5344 90.0505 93.949 89.648 94.4723 89.3662C94.9955 89.0764 95.5792 88.9315 96.2233 88.9315C96.8673 88.9315 97.451 89.0764 97.9743 89.3662C98.4976 89.648 98.9081 90.0505 99.206 90.5738C99.5119 91.0971 99.6649 91.7009 99.6649 92.3852C99.6649 93.0695 99.5079 93.6733 99.1939 94.1966C98.888 94.7199 98.4694 95.1264 97.938 95.4162C97.4148 95.698 96.8271 95.8389 96.175 95.8389ZM96.175 94.3656C96.4809 94.3656 96.7667 94.2932 97.0324 94.1483C97.3061 93.9953 97.5234 93.7699 97.6845 93.472C97.8455 93.1741 97.926 92.8119 97.926 92.3852C97.926 91.7492 97.7569 91.2621 97.4188 90.924C97.0887 90.5778 96.6821 90.4047 96.1991 90.4047C95.7161 90.4047 95.3095 90.5778 94.9794 90.924C94.6574 91.2621 94.4964 91.7492 94.4964 92.3852C94.4964 93.0212 94.6534 93.5123 94.9674 93.8584C95.2894 94.1966 95.6919 94.3656 96.175 94.3656Z" fill="#EDEFFF"/>
<path d="M103.695 94.1724L105.385 89.0401H107.185L104.709 95.7302H102.656L100.193 89.0401H102.004L103.695 94.1724Z" fill="#EDEFFF"/>
<path d="M109.982 93.9551L108.569 97.3484H107.482L108.267 93.9551H109.982Z" fill="#EDEFFF"/>
<path d="M114.416 93.8222C115.189 93.1782 115.805 92.6428 116.263 92.2161C116.722 91.7814 117.105 91.3305 117.411 90.8636C117.717 90.3967 117.87 89.9378 117.87 89.487C117.87 89.0764 117.773 88.7543 117.58 88.5209C117.387 88.2874 117.089 88.1707 116.686 88.1707C116.284 88.1707 115.974 88.3075 115.756 88.5813C115.539 88.8469 115.426 89.2132 115.418 89.6802H113.776C113.808 88.7141 114.094 87.9815 114.633 87.4824C115.181 86.9832 115.873 86.7336 116.71 86.7336C117.628 86.7336 118.332 86.9792 118.824 87.4703C119.315 87.9533 119.56 88.5933 119.56 89.3903C119.56 90.0183 119.391 90.6181 119.053 91.1897C118.715 91.7613 118.328 92.2604 117.894 92.6871C117.459 93.1057 116.891 93.6129 116.191 94.2086H119.753V95.6095H113.788V94.3536L114.416 93.8222Z" fill="#EDEFFF"/>
<path d="M120.613 88.4847V86.9269H123.524V95.7302H121.785V88.4847H120.613Z" fill="#EDEFFF"/>
<path d="M83.4917 106.792L250.161 107.16" stroke="#3A3C4C" stroke-width="0.603797"/>
<path d="M88.3797 120.903V121.618H86.5442V127.636H85.665V121.618H83.8198V120.903H88.3797Z" fill="#B6B8CA"/>
<path d="M91.7708 127.723C91.2749 127.723 90.824 127.611 90.4183 127.385C90.019 127.16 89.7034 126.841 89.4715 126.429C89.2461 126.01 89.1334 125.527 89.1334 124.98C89.1334 124.439 89.2493 123.962 89.4812 123.55C89.7195 123.131 90.0415 122.812 90.4472 122.593C90.853 122.368 91.3071 122.255 91.8094 122.255C92.3118 122.255 92.7658 122.368 93.1716 122.593C93.5773 122.812 93.8961 123.128 94.128 123.54C94.3663 123.952 94.4854 124.432 94.4854 124.98C94.4854 125.527 94.3631 126.01 94.1183 126.429C93.88 126.841 93.5548 127.16 93.1426 127.385C92.7304 127.611 92.2731 127.723 91.7708 127.723ZM91.7708 126.95C92.0864 126.95 92.3826 126.876 92.6596 126.728C92.9365 126.58 93.1587 126.358 93.3262 126.062C93.5 125.765 93.587 125.405 93.587 124.98C93.587 124.555 93.5033 124.194 93.3358 123.898C93.1684 123.601 92.9494 123.382 92.6789 123.241C92.4084 123.093 92.1153 123.019 91.7998 123.019C91.4777 123.019 91.1815 123.093 90.911 123.241C90.6469 123.382 90.4344 123.601 90.2734 123.898C90.1123 124.194 90.0318 124.555 90.0318 124.98C90.0318 125.411 90.1091 125.775 90.2637 126.071C90.4247 126.368 90.6372 126.59 90.9013 126.738C91.1654 126.88 91.4552 126.95 91.7708 126.95Z" fill="#B6B8CA"/>
<path d="M102.008 122.246C102.42 122.246 102.787 122.333 103.109 122.507C103.431 122.674 103.686 122.928 103.872 123.27C104.059 123.611 104.152 124.026 104.152 124.516V127.636H103.283V124.642C103.283 124.113 103.151 123.711 102.887 123.434C102.629 123.151 102.278 123.009 101.834 123.009C101.377 123.009 101.013 123.157 100.742 123.453C100.472 123.743 100.336 124.165 100.336 124.719V127.636H99.467V124.642C99.467 124.113 99.335 123.711 99.0709 123.434C98.8133 123.151 98.4623 123.009 98.0179 123.009C97.5606 123.009 97.1967 123.157 96.9262 123.453C96.6557 123.743 96.5205 124.165 96.5205 124.719V127.636H95.6413V122.342H96.5205V123.105C96.6944 122.829 96.9262 122.616 97.216 122.468C97.5123 122.32 97.8375 122.246 98.1918 122.246C98.6362 122.246 99.029 122.346 99.3704 122.545C99.7117 122.745 99.9661 123.038 100.134 123.424C100.282 123.051 100.526 122.761 100.868 122.555C101.209 122.349 101.589 122.246 102.008 122.246Z" fill="#B6B8CA"/>
<path d="M105.266 124.97C105.266 124.429 105.376 123.956 105.595 123.55C105.814 123.138 106.113 122.819 106.493 122.593C106.879 122.368 107.308 122.255 107.778 122.255C108.242 122.255 108.644 122.355 108.985 122.555C109.327 122.754 109.581 123.006 109.749 123.308V122.342H110.637V127.636H109.749V126.651C109.575 126.96 109.314 127.218 108.966 127.424C108.625 127.623 108.225 127.723 107.768 127.723C107.298 127.723 106.873 127.607 106.493 127.376C106.113 127.144 105.814 126.818 105.595 126.4C105.376 125.981 105.266 125.505 105.266 124.97ZM109.749 124.98C109.749 124.58 109.668 124.233 109.507 123.936C109.346 123.64 109.127 123.415 108.85 123.26C108.58 123.099 108.28 123.019 107.952 123.019C107.623 123.019 107.324 123.096 107.053 123.25C106.783 123.405 106.567 123.63 106.406 123.927C106.245 124.223 106.165 124.571 106.165 124.97C106.165 125.376 106.245 125.73 106.406 126.033C106.567 126.329 106.783 126.558 107.053 126.719C107.324 126.873 107.623 126.95 107.952 126.95C108.28 126.95 108.58 126.873 108.85 126.719C109.127 126.558 109.346 126.329 109.507 126.033C109.668 125.73 109.749 125.379 109.749 124.98Z" fill="#B6B8CA"/>
<path d="M113.195 123.067V126.187C113.195 126.445 113.25 126.628 113.36 126.738C113.469 126.841 113.659 126.892 113.93 126.892H114.577V127.636H113.785C113.295 127.636 112.928 127.524 112.683 127.298C112.439 127.073 112.316 126.703 112.316 126.187V123.067H111.63V122.342H112.316V121.009H113.195V122.342H114.577V123.067H113.195Z" fill="#B6B8CA"/>
<path d="M117.951 127.723C117.455 127.723 117.004 127.611 116.599 127.385C116.199 127.16 115.884 126.841 115.652 126.429C115.426 126.01 115.314 125.527 115.314 124.98C115.314 124.439 115.43 123.962 115.661 123.55C115.9 123.131 116.222 122.812 116.628 122.593C117.033 122.368 117.487 122.255 117.99 122.255C118.492 122.255 118.946 122.368 119.352 122.593C119.758 122.812 120.076 123.128 120.308 123.54C120.547 123.952 120.666 124.432 120.666 124.98C120.666 125.527 120.543 126.01 120.299 126.429C120.06 126.841 119.735 127.16 119.323 127.385C118.911 127.611 118.453 127.723 117.951 127.723ZM117.951 126.95C118.267 126.95 118.563 126.876 118.84 126.728C119.117 126.58 119.339 126.358 119.506 126.062C119.68 125.765 119.767 125.405 119.767 124.98C119.767 124.555 119.684 124.194 119.516 123.898C119.349 123.601 119.13 123.382 118.859 123.241C118.589 123.093 118.296 123.019 117.98 123.019C117.658 123.019 117.362 123.093 117.091 123.241C116.827 123.382 116.615 123.601 116.454 123.898C116.293 124.194 116.212 124.555 116.212 124.98C116.212 125.411 116.289 125.775 116.444 126.071C116.605 126.368 116.818 126.59 117.082 126.738C117.346 126.88 117.635 126.95 117.951 126.95Z" fill="#B6B8CA"/>
<path d="M126.652 124.786C126.652 124.954 126.642 125.131 126.623 125.318H122.392C122.424 125.839 122.601 126.248 122.923 126.545C123.251 126.835 123.647 126.979 124.111 126.979C124.491 126.979 124.807 126.892 125.058 126.719C125.316 126.538 125.496 126.3 125.599 126.004H126.546C126.404 126.513 126.121 126.928 125.696 127.25C125.27 127.566 124.742 127.723 124.111 127.723C123.609 127.723 123.158 127.611 122.759 127.385C122.366 127.16 122.057 126.841 121.831 126.429C121.606 126.01 121.493 125.527 121.493 124.98C121.493 124.432 121.603 123.952 121.822 123.54C122.041 123.128 122.346 122.812 122.739 122.593C123.139 122.368 123.596 122.255 124.111 122.255C124.614 122.255 125.058 122.365 125.444 122.584C125.831 122.803 126.127 123.105 126.333 123.492C126.546 123.872 126.652 124.303 126.652 124.786ZM125.744 124.603C125.744 124.268 125.67 123.981 125.522 123.743C125.374 123.498 125.171 123.315 124.913 123.192C124.662 123.064 124.382 122.999 124.073 122.999C123.628 122.999 123.248 123.141 122.933 123.424C122.623 123.708 122.446 124.101 122.401 124.603H125.744Z" fill="#B6B8CA"/>
<path d="M129.687 127.723C129.281 127.723 128.917 127.656 128.595 127.52C128.273 127.379 128.018 127.186 127.832 126.941C127.645 126.69 127.542 126.403 127.523 126.081H128.431C128.456 126.345 128.579 126.561 128.798 126.728C129.023 126.896 129.316 126.979 129.677 126.979C130.012 126.979 130.276 126.905 130.469 126.757C130.662 126.609 130.759 126.422 130.759 126.197C130.759 125.965 130.656 125.794 130.45 125.685C130.244 125.569 129.925 125.456 129.493 125.347C129.1 125.244 128.778 125.141 128.527 125.038C128.283 124.928 128.07 124.77 127.89 124.564C127.716 124.352 127.629 124.075 127.629 123.733C127.629 123.463 127.709 123.215 127.87 122.99C128.031 122.764 128.26 122.587 128.556 122.458C128.853 122.323 129.191 122.255 129.571 122.255C130.157 122.255 130.63 122.403 130.991 122.7C131.351 122.996 131.545 123.402 131.57 123.917H130.691C130.672 123.64 130.559 123.418 130.353 123.25C130.154 123.083 129.883 122.999 129.542 122.999C129.226 122.999 128.975 123.067 128.788 123.202C128.601 123.337 128.508 123.514 128.508 123.733C128.508 123.907 128.563 124.052 128.672 124.168C128.788 124.278 128.93 124.368 129.097 124.439C129.271 124.503 129.509 124.577 129.812 124.661C130.192 124.764 130.501 124.867 130.74 124.97C130.978 125.067 131.181 125.215 131.348 125.414C131.522 125.614 131.612 125.875 131.619 126.197C131.619 126.487 131.538 126.748 131.377 126.979C131.216 127.211 130.988 127.395 130.691 127.53C130.401 127.659 130.067 127.723 129.687 127.723Z" fill="#B6B8CA"/>
<path d="M228.77 125.695C228.77 126.03 228.683 126.345 228.509 126.642C228.342 126.931 228.09 127.173 227.755 127.366C227.427 127.553 227.037 127.662 226.586 127.695V128.477H225.968V127.685C225.324 127.627 224.806 127.434 224.413 127.105C224.02 126.77 223.817 126.32 223.804 125.753H225.253C225.292 126.216 225.53 126.497 225.968 126.593V124.748C225.504 124.632 225.131 124.516 224.848 124.4C224.564 124.284 224.319 124.098 224.113 123.84C223.907 123.582 223.804 123.231 223.804 122.787C223.804 122.227 224.004 121.769 224.403 121.415C224.809 121.061 225.331 120.858 225.968 120.806V120.024H226.586V120.806C227.205 120.858 227.697 121.045 228.065 121.367C228.438 121.689 228.647 122.133 228.693 122.7H227.234C227.214 122.513 227.147 122.352 227.031 122.217C226.921 122.075 226.773 121.975 226.586 121.917V123.743C227.07 123.866 227.45 123.985 227.726 124.101C228.01 124.21 228.255 124.394 228.461 124.651C228.667 124.903 228.77 125.25 228.77 125.695ZM225.215 122.719C225.215 122.932 225.279 123.106 225.408 123.241C225.537 123.37 225.723 123.476 225.968 123.56V121.888C225.736 121.921 225.553 122.008 225.418 122.149C225.282 122.291 225.215 122.481 225.215 122.719ZM226.586 126.613C226.831 126.567 227.021 126.468 227.156 126.313C227.298 126.159 227.369 125.972 227.369 125.753C227.369 125.54 227.301 125.37 227.166 125.241C227.031 125.112 226.838 125.006 226.586 124.922V126.613Z" fill="#B6B8CA"/>
<path d="M230.55 126.11C231.169 125.595 231.661 125.167 232.028 124.825C232.395 124.478 232.701 124.117 232.946 123.743C233.191 123.37 233.313 123.003 233.313 122.642C233.313 122.314 233.236 122.056 233.081 121.869C232.927 121.682 232.689 121.589 232.366 121.589C232.044 121.589 231.797 121.698 231.623 121.917C231.449 122.13 231.359 122.423 231.352 122.797H230.038C230.064 122.024 230.293 121.438 230.724 121.038C231.162 120.639 231.716 120.439 232.386 120.439C233.12 120.439 233.684 120.636 234.076 121.029C234.469 121.415 234.666 121.927 234.666 122.565C234.666 123.067 234.531 123.547 234.26 124.004C233.989 124.461 233.68 124.861 233.333 125.202C232.985 125.537 232.531 125.943 231.97 126.419H234.82V127.54H230.048V126.535L230.55 126.11Z" fill="#B6B8CA"/>
<path d="M236.426 127.704C236.181 127.704 235.979 127.63 235.817 127.482C235.663 127.327 235.586 127.137 235.586 126.912C235.586 126.687 235.663 126.5 235.817 126.352C235.979 126.197 236.181 126.12 236.426 126.12C236.664 126.12 236.861 126.197 237.015 126.352C237.17 126.5 237.247 126.687 237.247 126.912C237.247 127.137 237.17 127.327 237.015 127.482C236.861 127.63 236.664 127.704 236.426 127.704Z" fill="#B6B8CA"/>
<path d="M238.182 124.023C238.182 122.909 238.382 122.037 238.781 121.405C239.187 120.774 239.857 120.459 240.791 120.459C241.724 120.459 242.391 120.774 242.79 121.405C243.196 122.037 243.399 122.909 243.399 124.023C243.399 125.144 243.196 126.023 242.79 126.661C242.391 127.298 241.724 127.617 240.791 127.617C239.857 127.617 239.187 127.298 238.781 126.661C238.382 126.023 238.182 125.144 238.182 124.023ZM242.066 124.023C242.066 123.547 242.034 123.148 241.969 122.826C241.911 122.497 241.789 122.23 241.602 122.024C241.422 121.818 241.151 121.715 240.791 121.715C240.43 121.715 240.156 121.818 239.969 122.024C239.789 122.23 239.667 122.497 239.602 122.826C239.544 123.148 239.515 123.547 239.515 124.023C239.515 124.513 239.544 124.925 239.602 125.26C239.66 125.589 239.783 125.856 239.969 126.062C240.156 126.262 240.43 126.361 240.791 126.361C241.151 126.361 241.425 126.262 241.612 126.062C241.798 125.856 241.921 125.589 241.979 125.26C242.037 124.925 242.066 124.513 242.066 124.023Z" fill="#B6B8CA"/>
<path d="M244.428 124.023C244.428 122.909 244.627 122.037 245.027 121.405C245.432 120.774 246.102 120.459 247.036 120.459C247.97 120.459 248.637 120.774 249.036 121.405C249.442 122.037 249.644 122.909 249.644 124.023C249.644 125.144 249.442 126.023 249.036 126.661C248.637 127.298 247.97 127.617 247.036 127.617C246.102 127.617 245.432 127.298 245.027 126.661C244.627 126.023 244.428 125.144 244.428 124.023ZM248.311 124.023C248.311 123.547 248.279 123.148 248.215 122.826C248.157 122.497 248.034 122.23 247.848 122.024C247.667 121.818 247.397 121.715 247.036 121.715C246.675 121.715 246.402 121.818 246.215 122.024C246.035 122.23 245.912 122.497 245.848 122.826C245.79 123.148 245.761 123.547 245.761 124.023C245.761 124.513 245.79 124.925 245.848 125.26C245.906 125.589 246.028 125.856 246.215 126.062C246.402 126.262 246.675 126.361 247.036 126.361C247.397 126.361 247.67 126.262 247.857 126.062C248.044 125.856 248.166 125.589 248.224 125.26C248.282 124.925 248.311 124.513 248.311 124.023Z" fill="#B6B8CA"/>
<path d="M88.7368 147.534C88.7368 148.095 88.5436 148.562 88.1571 148.935C87.7771 149.302 87.1943 149.486 86.4085 149.486H85.114V152.297H84.2349V145.564H86.4085C87.1685 145.564 87.7449 145.747 88.1378 146.114C88.5371 146.481 88.7368 146.955 88.7368 147.534ZM86.4085 148.761C86.898 148.761 87.2587 148.655 87.4905 148.443C87.7224 148.23 87.8383 147.927 87.8383 147.534C87.8383 146.704 87.3617 146.288 86.4085 146.288H85.114V148.761H86.4085Z" fill="#B6B8CA"/>
<path d="M90.2835 146.143C90.116 146.143 89.9743 146.085 89.8584 145.969C89.7425 145.853 89.6845 145.712 89.6845 145.544C89.6845 145.377 89.7425 145.235 89.8584 145.119C89.9743 145.003 90.116 144.945 90.2835 144.945C90.4445 144.945 90.5797 145.003 90.6892 145.119C90.8052 145.235 90.8631 145.377 90.8631 145.544C90.8631 145.712 90.8052 145.853 90.6892 145.969C90.5797 146.085 90.4445 146.143 90.2835 146.143ZM90.7085 147.003V152.297H89.8294V147.003H90.7085Z" fill="#B6B8CA"/>
<path d="M92.8638 151.573H95.4625V152.297H91.8591V151.573L94.4288 147.718H91.8784V147.003H95.4432V147.718L92.8638 151.573Z" fill="#B6B8CA"/>
<path d="M97.2602 151.573H99.8589V152.297H96.2555V151.573L98.8252 147.718H96.2748V147.003H99.8396V147.718L97.2602 151.573Z" fill="#B6B8CA"/>
<path d="M100.671 149.631C100.671 149.09 100.781 148.616 101 148.211C101.219 147.798 101.518 147.48 101.898 147.254C102.285 147.029 102.713 146.916 103.183 146.916C103.647 146.916 104.049 147.016 104.391 147.216C104.732 147.415 104.986 147.666 105.154 147.969V147.003H106.043V152.297H105.154V151.312C104.98 151.621 104.719 151.879 104.371 152.085C104.03 152.284 103.631 152.384 103.173 152.384C102.703 152.384 102.278 152.268 101.898 152.036C101.518 151.804 101.219 151.479 101 151.061C100.781 150.642 100.671 150.165 100.671 149.631ZM105.154 149.64C105.154 149.241 105.073 148.893 104.912 148.597C104.751 148.301 104.532 148.075 104.255 147.921C103.985 147.76 103.685 147.679 103.357 147.679C103.028 147.679 102.729 147.757 102.458 147.911C102.188 148.066 101.972 148.291 101.811 148.587C101.65 148.884 101.57 149.231 101.57 149.631C101.57 150.037 101.65 150.391 101.811 150.693C101.972 150.99 102.188 151.218 102.458 151.379C102.729 151.534 103.028 151.611 103.357 151.611C103.685 151.611 103.985 151.534 104.255 151.379C104.532 151.218 104.751 150.99 104.912 150.693C105.073 150.391 105.154 150.04 105.154 149.64Z" fill="#B6B8CA"/>
<path d="M228.128 150.355C228.128 150.69 228.041 151.006 227.867 151.302C227.7 151.592 227.449 151.834 227.114 152.027C226.785 152.214 226.396 152.323 225.945 152.355V153.138H225.327V152.346C224.683 152.288 224.164 152.094 223.771 151.766C223.378 151.431 223.175 150.98 223.163 150.413H224.612C224.65 150.877 224.889 151.157 225.327 151.254V149.409C224.863 149.293 224.489 149.177 224.206 149.061C223.923 148.945 223.678 148.758 223.472 148.501C223.266 148.243 223.163 147.892 223.163 147.448C223.163 146.887 223.362 146.43 223.762 146.076C224.167 145.721 224.689 145.519 225.327 145.467V144.685H225.945V145.467C226.563 145.519 227.056 145.705 227.423 146.027C227.797 146.349 228.006 146.794 228.051 147.361H226.592C226.573 147.174 226.505 147.013 226.389 146.878C226.28 146.736 226.132 146.636 225.945 146.578V148.404C226.428 148.526 226.808 148.645 227.085 148.761C227.368 148.871 227.613 149.054 227.819 149.312C228.025 149.563 228.128 149.911 228.128 150.355ZM224.573 147.38C224.573 147.592 224.637 147.766 224.766 147.902C224.895 148.03 225.082 148.137 225.327 148.22V146.549C225.095 146.581 224.911 146.668 224.776 146.81C224.641 146.952 224.573 147.142 224.573 147.38ZM225.945 151.273C226.19 151.228 226.38 151.128 226.515 150.974C226.657 150.819 226.727 150.632 226.727 150.413C226.727 150.201 226.66 150.03 226.525 149.901C226.389 149.773 226.196 149.666 225.945 149.583V151.273Z" fill="#B6B8CA"/>
<path d="M234.217 146.424H231.087V148.075C231.223 147.908 231.416 147.773 231.667 147.67C231.918 147.56 232.185 147.506 232.469 147.506C232.984 147.506 233.406 147.618 233.734 147.844C234.063 148.069 234.301 148.359 234.449 148.713C234.597 149.061 234.671 149.434 234.671 149.834C234.671 150.574 234.459 151.17 234.034 151.621C233.615 152.072 233.016 152.297 232.237 152.297C231.503 152.297 230.917 152.114 230.479 151.747C230.041 151.379 229.793 150.9 229.735 150.307H231.049C231.107 150.565 231.235 150.771 231.435 150.925C231.641 151.08 231.902 151.157 232.218 151.157C232.598 151.157 232.884 151.038 233.077 150.8C233.271 150.562 233.367 150.246 233.367 149.853C233.367 149.454 233.267 149.151 233.068 148.945C232.875 148.732 232.588 148.626 232.208 148.626C231.937 148.626 231.712 148.694 231.532 148.829C231.351 148.964 231.223 149.145 231.145 149.37H229.851V145.235H234.217V146.424Z" fill="#B6B8CA"/>
<path d="M236.454 152.365C236.21 152.365 236.007 152.291 235.846 152.143C235.691 151.988 235.614 151.798 235.614 151.573C235.614 151.347 235.691 151.16 235.846 151.012C236.007 150.858 236.21 150.781 236.454 150.781C236.693 150.781 236.889 150.858 237.044 151.012C237.198 151.16 237.276 151.347 237.276 151.573C237.276 151.798 237.198 151.988 237.044 152.143C236.889 152.291 236.693 152.365 236.454 152.365Z" fill="#B6B8CA"/>
<path d="M242.944 146.424H239.814V148.075C239.949 147.908 240.142 147.773 240.394 147.67C240.645 147.56 240.912 147.506 241.196 147.506C241.711 147.506 242.133 147.618 242.461 147.844C242.79 148.069 243.028 148.359 243.176 148.713C243.324 149.061 243.398 149.434 243.398 149.834C243.398 150.574 243.186 151.17 242.761 151.621C242.342 152.072 241.743 152.297 240.964 152.297C240.229 152.297 239.643 152.114 239.205 151.747C238.767 151.379 238.519 150.9 238.462 150.307H239.775C239.833 150.565 239.962 150.771 240.162 150.925C240.368 151.08 240.629 151.157 240.944 151.157C241.324 151.157 241.611 151.038 241.804 150.8C241.997 150.562 242.094 150.246 242.094 149.853C242.094 149.454 241.994 149.151 241.794 148.945C241.601 148.732 241.315 148.626 240.935 148.626C240.664 148.626 240.439 148.694 240.258 148.829C240.078 148.964 239.949 149.145 239.872 149.37H238.577V145.235H242.944V146.424Z" fill="#B6B8CA"/>
<path d="M244.428 148.684C244.428 147.57 244.627 146.697 245.027 146.066C245.432 145.435 246.102 145.119 247.036 145.119C247.97 145.119 248.636 145.435 249.036 146.066C249.442 146.697 249.644 147.57 249.644 148.684C249.644 149.805 249.442 150.684 249.036 151.322C248.636 151.959 247.97 152.278 247.036 152.278C246.102 152.278 245.432 151.959 245.027 151.322C244.627 150.684 244.428 149.805 244.428 148.684ZM248.311 148.684C248.311 148.208 248.279 147.808 248.215 147.486C248.157 147.158 248.034 146.89 247.847 146.684C247.667 146.478 247.397 146.375 247.036 146.375C246.675 146.375 246.402 146.478 246.215 146.684C246.034 146.89 245.912 147.158 245.848 147.486C245.79 147.808 245.761 148.208 245.761 148.684C245.761 149.174 245.79 149.586 245.848 149.921C245.906 150.249 246.028 150.516 246.215 150.723C246.402 150.922 246.675 151.022 247.036 151.022C247.397 151.022 247.67 150.922 247.857 150.723C248.044 150.516 248.166 150.249 248.224 149.921C248.282 149.586 248.311 149.174 248.311 148.684Z" fill="#B6B8CA"/>
<path d="M85.114 176.243H87.4712V176.958H84.2349V170.225H85.114V176.243Z" fill="#B6B8CA"/>
<path d="M88.0764 174.292C88.0764 173.751 88.1859 173.277 88.4048 172.872C88.6238 172.459 88.9233 172.141 89.3033 171.915C89.6897 171.69 90.118 171.577 90.5882 171.577C91.0519 171.577 91.4544 171.677 91.7958 171.877C92.1371 172.076 92.3915 172.327 92.559 172.63V171.664H93.4477V176.958H92.559V175.973C92.3851 176.282 92.1242 176.54 91.7764 176.746C91.4351 176.945 91.0358 177.045 90.5785 177.045C90.1083 177.045 89.6833 176.929 89.3033 176.697C88.9233 176.465 88.6238 176.14 88.4048 175.722C88.1859 175.303 88.0764 174.826 88.0764 174.292ZM92.559 174.301C92.559 173.902 92.4785 173.554 92.3174 173.258C92.1564 172.962 91.9374 172.736 91.6605 172.582C91.39 172.421 91.0905 172.34 90.7621 172.34C90.4336 172.34 90.1341 172.418 89.8636 172.572C89.5931 172.727 89.3774 172.952 89.2163 173.248C89.0553 173.545 88.9748 173.892 88.9748 174.292C88.9748 174.698 89.0553 175.052 89.2163 175.354C89.3774 175.651 89.5931 175.879 89.8636 176.04C90.1341 176.195 90.4336 176.272 90.7621 176.272C91.0905 176.272 91.39 176.195 91.6605 176.04C91.9374 175.879 92.1564 175.651 92.3174 175.354C92.4785 175.052 92.559 174.701 92.559 174.301Z" fill="#B6B8CA"/>
<path d="M96.8076 177.045C96.4018 177.045 96.0379 176.977 95.7159 176.842C95.3939 176.701 95.1395 176.507 94.9527 176.263C94.7659 176.011 94.6629 175.725 94.6436 175.403H95.5517C95.5774 175.667 95.6998 175.883 95.9188 176.05C96.1442 176.217 96.4372 176.301 96.7979 176.301C97.1328 176.301 97.3969 176.227 97.5901 176.079C97.7833 175.931 97.8799 175.744 97.8799 175.519C97.8799 175.287 97.7769 175.116 97.5708 175.007C97.3647 174.891 97.0459 174.778 96.6144 174.669C96.2215 174.566 95.8995 174.462 95.6483 174.359C95.4035 174.25 95.191 174.092 95.0107 173.886C94.8368 173.673 94.7498 173.397 94.7498 173.055C94.7498 172.785 94.8303 172.537 94.9914 172.311C95.1524 172.086 95.381 171.909 95.6773 171.78C95.9735 171.645 96.3117 171.577 96.6916 171.577C97.2777 171.577 97.7511 171.725 98.1118 172.022C98.4724 172.318 98.6657 172.724 98.6914 173.239H97.8123C97.793 172.962 97.6803 172.74 97.4742 172.572C97.2745 172.405 97.004 172.321 96.6627 172.321C96.3471 172.321 96.0959 172.389 95.9091 172.524C95.7224 172.659 95.629 172.836 95.629 173.055C95.629 173.229 95.6837 173.374 95.7932 173.49C95.9091 173.599 96.0508 173.69 96.2183 173.76C96.3922 173.825 96.6305 173.899 96.9332 173.983C97.3132 174.086 97.6223 174.189 97.8606 174.292C98.0989 174.388 98.3018 174.537 98.4692 174.736C98.6431 174.936 98.7333 175.197 98.7397 175.519C98.7397 175.809 98.6592 176.069 98.4982 176.301C98.3372 176.533 98.1086 176.717 97.8123 176.852C97.5225 176.981 97.1876 177.045 96.8076 177.045Z" fill="#B6B8CA"/>
<path d="M99.6523 174.292C99.6523 173.751 99.7618 173.277 99.9808 172.872C100.2 172.459 100.499 172.141 100.879 171.915C101.266 171.69 101.694 171.577 102.164 171.577C102.628 171.577 103.03 171.677 103.372 171.877C103.713 172.076 103.967 172.327 104.135 172.63V171.664H105.024V176.958H104.135V175.973C103.961 176.282 103.7 176.54 103.352 176.746C103.011 176.945 102.612 177.045 102.154 177.045C101.684 177.045 101.259 176.929 100.879 176.697C100.499 176.465 100.2 176.14 99.9808 175.722C99.7618 175.303 99.6523 174.826 99.6523 174.292ZM104.135 174.301C104.135 173.902 104.054 173.554 103.893 173.258C103.732 172.962 103.513 172.736 103.236 172.582C102.966 172.421 102.666 172.34 102.338 172.34C102.01 172.34 101.71 172.418 101.44 172.572C101.169 172.727 100.953 172.952 100.792 173.248C100.631 173.545 100.551 173.892 100.551 174.292C100.551 174.698 100.631 175.052 100.792 175.354C100.953 175.651 101.169 175.879 101.44 176.04C101.71 176.195 102.01 176.272 102.338 176.272C102.666 176.272 102.966 176.195 103.236 176.04C103.513 175.879 103.732 175.651 103.893 175.354C104.054 175.052 104.135 174.701 104.135 174.301Z" fill="#B6B8CA"/>
<path d="M108.693 171.577C109.15 171.577 109.549 171.677 109.891 171.877C110.238 172.076 110.496 172.327 110.663 172.63V171.664H111.552V177.074C111.552 177.557 111.449 177.985 111.243 178.359C111.037 178.739 110.741 179.035 110.354 179.248C109.974 179.46 109.53 179.567 109.021 179.567C108.326 179.567 107.746 179.402 107.282 179.074C106.818 178.745 106.545 178.298 106.461 177.731H107.33C107.427 178.053 107.627 178.311 107.929 178.504C108.232 178.704 108.596 178.803 109.021 178.803C109.504 178.803 109.897 178.652 110.2 178.349C110.509 178.047 110.663 177.622 110.663 177.074V175.963C110.49 176.272 110.232 176.53 109.891 176.736C109.549 176.942 109.15 177.045 108.693 177.045C108.222 177.045 107.794 176.929 107.408 176.697C107.028 176.465 106.728 176.14 106.509 175.722C106.29 175.303 106.181 174.826 106.181 174.292C106.181 173.751 106.29 173.277 106.509 172.872C106.728 172.459 107.028 172.141 107.408 171.915C107.794 171.69 108.222 171.577 108.693 171.577ZM110.663 174.301C110.663 173.902 110.583 173.554 110.422 173.258C110.261 172.962 110.042 172.736 109.765 172.582C109.494 172.421 109.195 172.34 108.867 172.34C108.538 172.34 108.239 172.418 107.968 172.572C107.698 172.727 107.482 172.952 107.321 173.248C107.16 173.545 107.079 173.892 107.079 174.292C107.079 174.698 107.16 175.052 107.321 175.354C107.482 175.651 107.698 175.879 107.968 176.04C108.239 176.195 108.538 176.272 108.867 176.272C109.195 176.272 109.494 176.195 109.765 176.04C110.042 175.879 110.261 175.651 110.422 175.354C110.583 175.052 110.663 174.701 110.663 174.301Z" fill="#B6B8CA"/>
<path d="M115.617 171.567C116.261 171.567 116.783 171.764 117.182 172.157C117.582 172.543 117.781 173.104 117.781 173.838V176.958H116.912V173.963C116.912 173.435 116.78 173.033 116.516 172.756C116.252 172.472 115.891 172.331 115.434 172.331C114.97 172.331 114.6 172.476 114.323 172.765C114.052 173.055 113.917 173.477 113.917 174.031V176.958H113.038V171.664H113.917V172.418C114.091 172.147 114.326 171.938 114.622 171.79C114.925 171.642 115.257 171.567 115.617 171.567Z" fill="#B6B8CA"/>
<path d="M118.889 174.292C118.889 173.751 118.998 173.277 119.217 172.872C119.436 172.459 119.736 172.141 120.116 171.915C120.502 171.69 120.931 171.577 121.401 171.577C121.864 171.577 122.267 171.677 122.608 171.877C122.95 172.076 123.204 172.327 123.371 172.63V171.664H124.26V176.958H123.371V175.973C123.198 176.282 122.937 176.54 122.589 176.746C122.248 176.945 121.848 177.045 121.391 177.045C120.921 177.045 120.496 176.929 120.116 176.697C119.736 176.465 119.436 176.14 119.217 175.722C118.998 175.303 118.889 174.826 118.889 174.292ZM123.371 174.301C123.371 173.902 123.291 173.554 123.13 173.258C122.969 172.962 122.75 172.736 122.473 172.582C122.203 172.421 121.903 172.34 121.575 172.34C121.246 172.34 120.947 172.418 120.676 172.572C120.406 172.727 120.19 172.952 120.029 173.248C119.868 173.545 119.787 173.892 119.787 174.292C119.787 174.698 119.868 175.052 120.029 175.354C120.19 175.651 120.406 175.879 120.676 176.04C120.947 176.195 121.246 176.272 121.575 176.272C121.903 176.272 122.203 176.195 122.473 176.04C122.75 175.879 122.969 175.651 123.13 175.354C123.291 175.052 123.371 174.701 123.371 174.301Z" fill="#B6B8CA"/>
<path d="M228.534 175.016C228.534 175.351 228.447 175.667 228.273 175.963C228.106 176.253 227.855 176.494 227.52 176.688C227.191 176.874 226.801 176.984 226.351 177.016V177.799H225.732V177.006C225.088 176.948 224.57 176.755 224.177 176.427C223.784 176.092 223.581 175.641 223.568 175.074H225.017C225.056 175.538 225.294 175.818 225.732 175.915V174.07C225.269 173.954 224.895 173.838 224.612 173.722C224.328 173.606 224.084 173.419 223.878 173.161C223.671 172.904 223.568 172.553 223.568 172.108C223.568 171.548 223.768 171.091 224.167 170.737C224.573 170.382 225.095 170.18 225.732 170.128V169.345H226.351V170.128C226.969 170.18 227.462 170.366 227.829 170.688C228.202 171.01 228.412 171.455 228.457 172.021H226.998C226.979 171.835 226.911 171.674 226.795 171.538C226.686 171.397 226.537 171.297 226.351 171.239V173.065C226.834 173.187 227.214 173.306 227.491 173.422C227.774 173.532 228.019 173.715 228.225 173.973C228.431 174.224 228.534 174.572 228.534 175.016ZM224.979 172.041C224.979 172.253 225.043 172.427 225.172 172.562C225.301 172.691 225.488 172.798 225.732 172.881V171.21C225.501 171.242 225.317 171.329 225.182 171.471C225.046 171.613 224.979 171.803 224.979 172.041ZM226.351 175.934C226.595 175.889 226.785 175.789 226.921 175.635C227.062 175.48 227.133 175.293 227.133 175.074C227.133 174.862 227.066 174.691 226.93 174.562C226.795 174.433 226.602 174.327 226.351 174.243V175.934Z" fill="#B6B8CA"/>
<path d="M233.541 171.674C233.477 171.403 233.364 171.2 233.203 171.065C233.048 170.93 232.823 170.862 232.527 170.862C232.082 170.862 231.754 171.043 231.541 171.403C231.335 171.757 231.229 172.337 231.223 173.142C231.377 172.885 231.603 172.685 231.899 172.543C232.195 172.395 232.517 172.321 232.865 172.321C233.284 172.321 233.654 172.411 233.976 172.591C234.298 172.772 234.549 173.036 234.729 173.384C234.91 173.725 235 174.137 235 174.62C235 175.078 234.907 175.486 234.72 175.847C234.539 176.201 234.272 176.478 233.918 176.678C233.564 176.878 233.142 176.977 232.652 176.977C231.983 176.977 231.454 176.829 231.068 176.533C230.688 176.237 230.421 175.825 230.266 175.296C230.118 174.762 230.044 174.105 230.044 173.326C230.044 172.147 230.247 171.258 230.653 170.659C231.058 170.054 231.699 169.751 232.575 169.751C233.251 169.751 233.776 169.935 234.15 170.302C234.523 170.669 234.739 171.126 234.797 171.674H233.541ZM232.556 173.432C232.214 173.432 231.928 173.532 231.696 173.731C231.464 173.931 231.348 174.221 231.348 174.601C231.348 174.981 231.454 175.28 231.667 175.499C231.886 175.718 232.192 175.828 232.585 175.828C232.932 175.828 233.206 175.722 233.406 175.509C233.612 175.296 233.715 175.01 233.715 174.649C233.715 174.276 233.615 173.979 233.416 173.76C233.222 173.541 232.936 173.432 232.556 173.432Z" fill="#B6B8CA"/>
<path d="M236.822 177.026C236.578 177.026 236.375 176.952 236.214 176.804C236.059 176.649 235.982 176.459 235.982 176.234C235.982 176.008 236.059 175.821 236.214 175.673C236.375 175.519 236.578 175.441 236.822 175.441C237.061 175.441 237.257 175.519 237.412 175.673C237.566 175.821 237.644 176.008 237.644 176.234C237.644 176.459 237.566 176.649 237.412 176.804C237.257 176.952 237.061 177.026 236.822 177.026Z" fill="#B6B8CA"/>
<path d="M240.143 174.978C240.195 175.261 240.311 175.48 240.491 175.635C240.678 175.783 240.926 175.857 241.235 175.857C241.634 175.857 241.924 175.693 242.105 175.364C242.285 175.029 242.375 174.469 242.375 173.683C242.227 173.889 242.018 174.05 241.747 174.166C241.483 174.282 241.196 174.34 240.887 174.34C240.475 174.34 240.102 174.256 239.767 174.089C239.438 173.915 239.177 173.661 238.984 173.326C238.791 172.984 238.694 172.572 238.694 172.089C238.694 171.374 238.907 170.807 239.332 170.389C239.757 169.964 240.337 169.751 241.071 169.751C241.985 169.751 242.629 170.044 243.003 170.63C243.383 171.216 243.573 172.099 243.573 173.277C243.573 174.115 243.499 174.801 243.351 175.335C243.209 175.87 242.961 176.275 242.607 176.552C242.259 176.829 241.783 176.968 241.177 176.968C240.701 176.968 240.295 176.878 239.96 176.697C239.625 176.511 239.367 176.269 239.187 175.973C239.013 175.67 238.913 175.338 238.888 174.978H240.143ZM241.167 173.239C241.502 173.239 241.766 173.136 241.96 172.93C242.153 172.724 242.249 172.447 242.249 172.099C242.249 171.719 242.146 171.426 241.94 171.22C241.741 171.007 241.467 170.901 241.119 170.901C240.771 170.901 240.494 171.01 240.288 171.229C240.089 171.442 239.989 171.725 239.989 172.079C239.989 172.421 240.085 172.701 240.279 172.92C240.478 173.132 240.775 173.239 241.167 173.239Z" fill="#B6B8CA"/>
<path d="M246.191 174.978C246.242 175.261 246.358 175.48 246.539 175.635C246.725 175.783 246.973 175.857 247.282 175.857C247.682 175.857 247.972 175.693 248.152 175.364C248.332 175.029 248.422 174.469 248.422 173.683C248.274 173.889 248.065 174.05 247.795 174.166C247.53 174.282 247.244 174.34 246.935 174.34C246.523 174.34 246.149 174.256 245.814 174.089C245.486 173.915 245.225 173.661 245.032 173.326C244.838 172.984 244.742 172.572 244.742 172.089C244.742 171.374 244.954 170.807 245.379 170.389C245.804 169.964 246.384 169.751 247.118 169.751C248.033 169.751 248.677 170.044 249.05 170.63C249.43 171.216 249.62 172.099 249.62 173.277C249.62 174.115 249.546 174.801 249.398 175.335C249.256 175.87 249.009 176.275 248.654 176.552C248.307 176.829 247.83 176.968 247.225 176.968C246.748 176.968 246.342 176.878 246.007 176.697C245.672 176.511 245.415 176.269 245.234 175.973C245.061 175.67 244.961 175.338 244.935 174.978H246.191ZM247.215 173.239C247.55 173.239 247.814 173.136 248.007 172.93C248.2 172.724 248.297 172.447 248.297 172.099C248.297 171.719 248.194 171.426 247.988 171.22C247.788 171.007 247.514 170.901 247.167 170.901C246.819 170.901 246.542 171.01 246.336 171.229C246.136 171.442 246.036 171.725 246.036 172.079C246.036 172.421 246.133 172.701 246.326 172.92C246.526 173.132 246.822 173.239 247.215 173.239Z" fill="#B6B8CA"/>
<path d="M83.9067 198.247C83.9067 197.59 84.0549 197.001 84.3511 196.479C84.6474 195.951 85.0499 195.539 85.5587 195.243C86.074 194.946 86.644 194.798 87.2687 194.798C88.0029 194.798 88.6437 194.975 89.1912 195.33C89.7386 195.684 90.1379 196.186 90.3891 196.837H89.3361C89.1493 196.431 88.8788 196.118 88.5246 195.9C88.1768 195.681 87.7582 195.571 87.2687 195.571C86.7985 195.571 86.3767 195.681 86.0031 195.9C85.6296 196.118 85.3365 196.431 85.124 196.837C84.9115 197.236 84.8052 197.706 84.8052 198.247C84.8052 198.782 84.9115 199.252 85.124 199.658C85.3365 200.057 85.6296 200.366 86.0031 200.585C86.3767 200.804 86.7985 200.913 87.2687 200.913C87.7582 200.913 88.1768 200.807 88.5246 200.595C88.8788 200.376 89.1493 200.063 89.3361 199.658H90.3891C90.1379 200.302 89.7386 200.801 89.1912 201.155C88.6437 201.503 88.0029 201.677 87.2687 201.677C86.644 201.677 86.074 201.532 85.5587 201.242C85.0499 200.946 84.6474 200.537 84.3511 200.015C84.0549 199.493 83.9067 198.904 83.9067 198.247Z" fill="#B6B8CA"/>
<path d="M96.3929 196.325V201.619H95.5138V200.836C95.3463 201.107 95.1112 201.319 94.8085 201.474C94.5123 201.622 94.1838 201.696 93.8231 201.696C93.4109 201.696 93.0406 201.612 92.7121 201.445C92.3837 201.271 92.1228 201.013 91.9296 200.672C91.7428 200.331 91.6495 199.915 91.6495 199.426V196.325H92.5189V199.31C92.5189 199.831 92.6509 200.234 92.915 200.517C93.1791 200.794 93.5397 200.933 93.997 200.933C94.4672 200.933 94.8375 200.788 95.108 200.498C95.3785 200.208 95.5138 199.786 95.5138 199.232V196.325H96.3929Z" fill="#B6B8CA"/>
<path d="M97.5488 198.962C97.5488 198.415 97.6583 197.938 97.8772 197.532C98.0962 197.12 98.3989 196.801 98.7854 196.576C99.1782 196.35 99.6258 196.238 100.128 196.238C100.779 196.238 101.313 196.395 101.732 196.711C102.157 197.027 102.437 197.465 102.572 198.025H101.626C101.535 197.703 101.358 197.448 101.094 197.262C100.837 197.075 100.515 196.982 100.128 196.982C99.6258 196.982 99.2201 197.155 98.9109 197.503C98.6018 197.845 98.4472 198.331 98.4472 198.962C98.4472 199.6 98.6018 200.092 98.9109 200.44C99.2201 200.788 99.6258 200.962 100.128 200.962C100.515 200.962 100.837 200.872 101.094 200.691C101.352 200.511 101.529 200.253 101.626 199.918H102.572C102.431 200.459 102.147 200.894 101.722 201.223C101.297 201.545 100.766 201.706 100.128 201.706C99.6258 201.706 99.1782 201.593 98.7854 201.368C98.3989 201.142 98.0962 200.823 97.8772 200.411C97.6583 199.999 97.5488 199.516 97.5488 198.962Z" fill="#B6B8CA"/>
<path d="M108.441 196.325V201.619H107.561V200.836C107.394 201.107 107.159 201.319 106.856 201.474C106.56 201.622 106.231 201.696 105.871 201.696C105.459 201.696 105.088 201.612 104.76 201.445C104.431 201.271 104.17 201.013 103.977 200.672C103.79 200.331 103.697 199.915 103.697 199.426V196.325H104.567V199.31C104.567 199.831 104.699 200.234 104.963 200.517C105.227 200.794 105.587 200.933 106.045 200.933C106.515 200.933 106.885 200.788 107.156 200.498C107.426 200.208 107.561 199.786 107.561 199.232V196.325H108.441Z" fill="#B6B8CA"/>
<path d="M116.291 196.228C116.704 196.228 117.071 196.315 117.393 196.489C117.715 196.656 117.969 196.911 118.156 197.252C118.343 197.593 118.436 198.009 118.436 198.498V201.619H117.567V198.624C117.567 198.096 117.434 197.693 117.17 197.416C116.913 197.133 116.562 196.991 116.117 196.991C115.66 196.991 115.296 197.139 115.026 197.436C114.755 197.725 114.62 198.147 114.62 198.701V201.619H113.751V198.624C113.751 198.096 113.619 197.693 113.354 197.416C113.097 197.133 112.746 196.991 112.301 196.991C111.844 196.991 111.48 197.139 111.21 197.436C110.939 197.725 110.804 198.147 110.804 198.701V201.619H109.925V196.325H110.804V197.088C110.978 196.811 111.21 196.598 111.5 196.45C111.796 196.302 112.121 196.228 112.475 196.228C112.92 196.228 113.313 196.328 113.654 196.527C113.995 196.727 114.25 197.02 114.417 197.407C114.565 197.033 114.81 196.743 115.151 196.537C115.493 196.331 115.873 196.228 116.291 196.228Z" fill="#B6B8CA"/>
<path d="M120.757 197.31C120.938 196.994 121.202 196.737 121.549 196.537C121.897 196.337 122.293 196.238 122.738 196.238C123.214 196.238 123.643 196.35 124.023 196.576C124.403 196.801 124.702 197.12 124.921 197.532C125.14 197.938 125.249 198.411 125.249 198.952C125.249 199.487 125.14 199.963 124.921 200.382C124.702 200.801 124.399 201.126 124.013 201.358C123.633 201.59 123.208 201.706 122.738 201.706C122.28 201.706 121.878 201.606 121.53 201.406C121.189 201.206 120.931 200.952 120.757 200.643V201.619H119.878V194.47H120.757V197.31ZM124.351 198.952C124.351 198.553 124.271 198.205 124.11 197.909C123.948 197.613 123.73 197.387 123.453 197.233C123.182 197.078 122.883 197.001 122.554 197.001C122.232 197.001 121.933 197.081 121.656 197.242C121.385 197.397 121.166 197.626 120.999 197.928C120.838 198.225 120.757 198.569 120.757 198.962C120.757 199.361 120.838 199.712 120.999 200.015C121.166 200.311 121.385 200.54 121.656 200.701C121.933 200.855 122.232 200.933 122.554 200.933C122.883 200.933 123.182 200.855 123.453 200.701C123.73 200.54 123.948 200.311 124.11 200.015C124.271 199.712 124.351 199.358 124.351 198.952Z" fill="#B6B8CA"/>
<path d="M131.237 198.769C131.237 198.936 131.227 199.113 131.208 199.3H126.977C127.009 199.822 127.186 200.231 127.508 200.527C127.836 200.817 128.233 200.962 128.696 200.962C129.076 200.962 129.392 200.875 129.643 200.701C129.901 200.521 130.081 200.282 130.184 199.986H131.131C130.989 200.495 130.706 200.91 130.281 201.232C129.856 201.548 129.327 201.706 128.696 201.706C128.194 201.706 127.743 201.593 127.344 201.368C126.951 201.142 126.642 200.823 126.416 200.411C126.191 199.992 126.078 199.509 126.078 198.962C126.078 198.415 126.188 197.935 126.407 197.523C126.626 197.11 126.932 196.795 127.324 196.576C127.724 196.35 128.181 196.238 128.696 196.238C129.199 196.238 129.643 196.347 130.029 196.566C130.416 196.785 130.712 197.088 130.918 197.474C131.131 197.854 131.237 198.286 131.237 198.769ZM130.329 198.585C130.329 198.25 130.255 197.964 130.107 197.725C129.959 197.481 129.756 197.297 129.498 197.175C129.247 197.046 128.967 196.982 128.658 196.982C128.213 196.982 127.833 197.123 127.518 197.407C127.208 197.69 127.031 198.083 126.986 198.585H130.329Z" fill="#B6B8CA"/>
<path d="M133.277 197.184C133.431 196.882 133.65 196.647 133.934 196.479C134.223 196.312 134.574 196.228 134.987 196.228V197.136H134.755C133.769 197.136 133.277 197.671 133.277 198.74V201.619H132.397V196.325H133.277V197.184Z" fill="#B6B8CA"/>
<path d="M137.876 201.706C137.47 201.706 137.106 201.638 136.784 201.503C136.462 201.361 136.207 201.168 136.021 200.923C135.834 200.672 135.731 200.385 135.712 200.063H136.62C136.645 200.327 136.768 200.543 136.987 200.711C137.212 200.878 137.505 200.962 137.866 200.962C138.201 200.962 138.465 200.888 138.658 200.74C138.851 200.591 138.948 200.405 138.948 200.179C138.948 199.947 138.845 199.777 138.639 199.667C138.433 199.551 138.114 199.439 137.682 199.329C137.289 199.226 136.967 199.123 136.716 199.02C136.472 198.91 136.259 198.753 136.079 198.547C135.905 198.334 135.818 198.057 135.818 197.716C135.818 197.445 135.898 197.197 136.059 196.972C136.22 196.746 136.449 196.569 136.745 196.441C137.041 196.305 137.38 196.238 137.76 196.238C138.346 196.238 138.819 196.386 139.18 196.682C139.54 196.978 139.734 197.384 139.759 197.899H138.88C138.861 197.622 138.748 197.4 138.542 197.233C138.342 197.065 138.072 196.982 137.731 196.982C137.415 196.982 137.164 197.049 136.977 197.184C136.79 197.32 136.697 197.497 136.697 197.716C136.697 197.89 136.752 198.035 136.861 198.15C136.977 198.26 137.119 198.35 137.286 198.421C137.46 198.485 137.698 198.559 138.001 198.643C138.381 198.746 138.69 198.849 138.929 198.952C139.167 199.049 139.37 199.197 139.537 199.397C139.711 199.596 139.801 199.857 139.808 200.179C139.808 200.469 139.727 200.73 139.566 200.962C139.405 201.194 139.177 201.377 138.88 201.512C138.59 201.641 138.256 201.706 137.876 201.706Z" fill="#B6B8CA"/>
<path d="M230.676 199.677C230.676 200.012 230.589 200.327 230.415 200.624C230.247 200.914 229.996 201.155 229.661 201.348C229.333 201.535 228.943 201.645 228.492 201.677V202.459H227.874V201.667C227.23 201.609 226.711 201.416 226.319 201.087C225.926 200.753 225.723 200.302 225.71 199.735H227.159C227.198 200.199 227.436 200.479 227.874 200.575V198.73C227.41 198.614 227.037 198.498 226.753 198.382C226.47 198.266 226.225 198.08 226.019 197.822C225.813 197.564 225.71 197.213 225.71 196.769C225.71 196.209 225.91 195.751 226.309 195.397C226.715 195.043 227.236 194.84 227.874 194.789V194.006H228.492V194.789C229.111 194.84 229.603 195.027 229.97 195.349C230.344 195.671 230.553 196.115 230.598 196.682H229.14C229.12 196.495 229.053 196.334 228.937 196.199C228.827 196.057 228.679 195.958 228.492 195.9V197.725C228.975 197.848 229.355 197.967 229.632 198.083C229.916 198.192 230.16 198.376 230.366 198.634C230.573 198.885 230.676 199.233 230.676 199.677ZM227.12 196.701C227.12 196.914 227.185 197.088 227.314 197.223C227.442 197.352 227.629 197.458 227.874 197.542V195.871C227.642 195.903 227.459 195.99 227.323 196.131C227.188 196.273 227.12 196.463 227.12 196.701ZM228.492 200.595C228.737 200.55 228.927 200.45 229.062 200.295C229.204 200.141 229.275 199.954 229.275 199.735C229.275 199.522 229.207 199.352 229.072 199.223C228.937 199.094 228.743 198.988 228.492 198.904V200.595Z" fill="#B6B8CA"/>
<path d="M231.867 195.822V194.576H234.195V201.619H232.804V195.822H231.867Z" fill="#B6B8CA"/>
<path d="M236.285 201.686C236.04 201.686 235.837 201.612 235.676 201.464C235.521 201.31 235.444 201.12 235.444 200.894C235.444 200.669 235.521 200.482 235.676 200.334C235.837 200.179 236.04 200.102 236.285 200.102C236.523 200.102 236.719 200.179 236.874 200.334C237.029 200.482 237.106 200.669 237.106 200.894C237.106 201.12 237.029 201.31 236.874 201.464C236.719 201.612 236.523 201.686 236.285 201.686Z" fill="#B6B8CA"/>
<path d="M237.983 200.247V199.184L241.142 194.663H242.716V199.068H243.567V200.247H242.716V201.619H241.364V200.247H237.983ZM241.451 196.112L239.47 199.068H241.451V196.112Z" fill="#B6B8CA"/>
<path d="M244.428 198.006C244.428 196.891 244.627 196.019 245.027 195.388C245.432 194.756 246.102 194.441 247.036 194.441C247.97 194.441 248.637 194.756 249.036 195.388C249.442 196.019 249.644 196.891 249.644 198.006C249.644 199.126 249.442 200.005 249.036 200.643C248.637 201.281 247.97 201.599 247.036 201.599C246.102 201.599 245.432 201.281 245.027 200.643C244.627 200.005 244.428 199.126 244.428 198.006ZM248.311 198.006C248.311 197.529 248.279 197.13 248.215 196.808C248.157 196.479 248.034 196.212 247.848 196.006C247.667 195.8 247.397 195.697 247.036 195.697C246.675 195.697 246.402 195.8 246.215 196.006C246.035 196.212 245.912 196.479 245.848 196.808C245.79 197.13 245.761 197.529 245.761 198.006C245.761 198.495 245.79 198.907 245.848 199.242C245.906 199.571 246.028 199.838 246.215 200.044C246.402 200.244 246.675 200.344 247.036 200.344C247.397 200.344 247.67 200.244 247.857 200.044C248.044 199.838 248.166 199.571 248.224 199.242C248.282 198.907 248.311 198.495 248.311 198.006Z" fill="#B6B8CA"/>
<path d="M83.9067 222.908C83.9067 222.251 84.0549 221.662 84.3511 221.14C84.6474 220.612 85.0499 220.2 85.5587 219.903C86.074 219.607 86.644 219.459 87.2687 219.459C88.0029 219.459 88.6437 219.636 89.1912 219.99C89.7386 220.345 90.1379 220.847 90.3891 221.497H89.3361C89.1493 221.092 88.8788 220.779 88.5246 220.56C88.1768 220.341 87.7582 220.232 87.2687 220.232C86.7985 220.232 86.3767 220.341 86.0031 220.56C85.6296 220.779 85.3365 221.092 85.124 221.497C84.9115 221.897 84.8052 222.367 84.8052 222.908C84.8052 223.443 84.9115 223.913 85.124 224.318C85.3365 224.718 85.6296 225.027 86.0031 225.246C86.3767 225.465 86.7985 225.574 87.2687 225.574C87.7582 225.574 88.1768 225.468 88.5246 225.256C88.8788 225.037 89.1493 224.724 89.3361 224.318H90.3891C90.1379 224.962 89.7386 225.462 89.1912 225.816C88.6437 226.164 88.0029 226.338 87.2687 226.338C86.644 226.338 86.074 226.193 85.5587 225.903C85.0499 225.607 84.6474 225.198 84.3511 224.676C84.0549 224.154 83.9067 223.565 83.9067 222.908Z" fill="#B6B8CA"/>
<path d="M94.3255 220.889C94.7248 220.889 95.0855 220.976 95.4075 221.15C95.7295 221.317 95.9807 221.572 96.161 221.913C96.3478 222.254 96.4412 222.67 96.4412 223.159V226.28H95.5717V223.285C95.5717 222.757 95.4397 222.354 95.1756 222.077C94.9116 221.794 94.5509 221.652 94.0936 221.652C93.6299 221.652 93.2596 221.797 92.9826 222.087C92.7121 222.377 92.5769 222.798 92.5769 223.352V226.28H91.6978V219.131H92.5769V221.739C92.7508 221.469 92.9891 221.259 93.2918 221.111C93.6009 220.963 93.9455 220.889 94.3255 220.889Z" fill="#B6B8CA"/>
<path d="M98.3313 220.126C98.1638 220.126 98.0222 220.068 97.9062 219.952C97.7903 219.836 97.7323 219.694 97.7323 219.527C97.7323 219.359 97.7903 219.218 97.9062 219.102C98.0222 218.986 98.1638 218.928 98.3313 218.928C98.4923 218.928 98.6276 218.986 98.737 219.102C98.853 219.218 98.9109 219.359 98.9109 219.527C98.9109 219.694 98.853 219.836 98.737 219.952C98.6276 220.068 98.4923 220.126 98.3313 220.126ZM98.7564 220.985V226.28H97.8772V220.985H98.7564Z" fill="#B6B8CA"/>
<path d="M99.9262 223.623C99.9262 223.075 100.036 222.599 100.255 222.193C100.474 221.781 100.776 221.462 101.163 221.237C101.556 221.011 102.003 220.899 102.506 220.899C103.156 220.899 103.691 221.056 104.109 221.372C104.534 221.687 104.815 222.125 104.95 222.686H104.003C103.913 222.364 103.736 222.109 103.472 221.923C103.214 221.736 102.892 221.642 102.506 221.642C102.003 221.642 101.598 221.816 101.288 222.164C100.979 222.505 100.825 222.992 100.825 223.623C100.825 224.26 100.979 224.753 101.288 225.101C101.598 225.449 102.003 225.623 102.506 225.623C102.892 225.623 103.214 225.532 103.472 225.352C103.729 225.172 103.906 224.914 104.003 224.579H104.95C104.808 225.12 104.525 225.555 104.1 225.883C103.675 226.205 103.143 226.367 102.506 226.367C102.003 226.367 101.556 226.254 101.163 226.028C100.776 225.803 100.474 225.484 100.255 225.072C100.036 224.66 99.9262 224.177 99.9262 223.623Z" fill="#B6B8CA"/>
<path d="M109.079 226.28L107.002 223.942V226.28H106.123V219.131H107.002V223.333L109.04 220.985H110.267L107.775 223.623L110.277 226.28H109.079Z" fill="#B6B8CA"/>
<path d="M115.925 223.43C115.925 223.597 115.915 223.774 115.896 223.961H111.665C111.697 224.483 111.874 224.892 112.196 225.188C112.525 225.478 112.921 225.623 113.384 225.623C113.764 225.623 114.08 225.536 114.331 225.362C114.589 225.181 114.769 224.943 114.872 224.647H115.819C115.677 225.156 115.394 225.571 114.969 225.893C114.544 226.209 114.015 226.367 113.384 226.367C112.882 226.367 112.431 226.254 112.032 226.028C111.639 225.803 111.33 225.484 111.104 225.072C110.879 224.653 110.766 224.17 110.766 223.623C110.766 223.075 110.876 222.596 111.095 222.183C111.314 221.771 111.62 221.456 112.013 221.237C112.412 221.011 112.869 220.899 113.384 220.899C113.887 220.899 114.331 221.008 114.718 221.227C115.104 221.446 115.4 221.749 115.606 222.135C115.819 222.515 115.925 222.947 115.925 223.43ZM115.017 223.246C115.017 222.911 114.943 222.625 114.795 222.386C114.647 222.142 114.444 221.958 114.186 221.836C113.935 221.707 113.655 221.642 113.346 221.642C112.901 221.642 112.521 221.784 112.206 222.067C111.897 222.351 111.719 222.744 111.674 223.246H115.017Z" fill="#B6B8CA"/>
<path d="M119.665 220.889C120.309 220.889 120.831 221.085 121.23 221.478C121.629 221.865 121.829 222.425 121.829 223.159V226.28H120.959V223.285C120.959 222.757 120.827 222.354 120.563 222.077C120.299 221.794 119.939 221.652 119.481 221.652C119.018 221.652 118.647 221.797 118.37 222.087C118.1 222.377 117.965 222.798 117.965 223.352V226.28H117.086V220.985H117.965V221.739C118.139 221.469 118.374 221.259 118.67 221.111C118.973 220.963 119.304 220.889 119.665 220.889Z" fill="#B6B8CA"/>
<path d="M224.968 224.338C224.968 224.673 224.881 224.988 224.707 225.285C224.539 225.574 224.288 225.816 223.953 226.009C223.625 226.196 223.235 226.305 222.784 226.338V227.12H222.166V226.328C221.522 226.27 221.003 226.077 220.611 225.748C220.218 225.413 220.015 224.963 220.002 224.396H221.451C221.49 224.86 221.728 225.14 222.166 225.236V223.391C221.702 223.275 221.329 223.159 221.045 223.043C220.762 222.927 220.517 222.741 220.311 222.483C220.105 222.225 220.002 221.874 220.002 221.43C220.002 220.87 220.202 220.412 220.601 220.058C221.007 219.704 221.528 219.501 222.166 219.45V218.667H222.784V219.45C223.403 219.501 223.895 219.688 224.262 220.01C224.636 220.332 224.845 220.776 224.89 221.343H223.432C223.412 221.156 223.345 220.995 223.229 220.86C223.119 220.718 222.971 220.618 222.784 220.56V222.386C223.267 222.509 223.647 222.628 223.924 222.744C224.208 222.853 224.452 223.037 224.658 223.294C224.865 223.546 224.968 223.893 224.968 224.338ZM221.412 221.362C221.412 221.575 221.477 221.749 221.606 221.884C221.734 222.013 221.921 222.119 222.166 222.203V220.532C221.934 220.564 221.751 220.651 221.615 220.792C221.48 220.934 221.412 221.124 221.412 221.362ZM222.784 225.256C223.029 225.211 223.219 225.111 223.354 224.956C223.496 224.802 223.567 224.615 223.567 224.396C223.567 224.183 223.499 224.013 223.364 223.884C223.229 223.755 223.035 223.649 222.784 223.565V225.256Z" fill="#B6B8CA"/>
<path d="M226.159 220.483V219.237H228.487V226.28H227.096V220.483H226.159Z" fill="#B6B8CA"/>
<path d="M229.823 222.667C229.823 221.552 230.023 220.68 230.422 220.048C230.828 219.417 231.498 219.102 232.431 219.102C233.365 219.102 234.032 219.417 234.431 220.048C234.837 220.68 235.04 221.552 235.04 222.667C235.04 223.787 234.837 224.666 234.431 225.304C234.032 225.942 233.365 226.26 232.431 226.26C231.498 226.26 230.828 225.942 230.422 225.304C230.023 224.666 229.823 223.787 229.823 222.667ZM233.707 222.667C233.707 222.19 233.675 221.791 233.61 221.469C233.552 221.14 233.43 220.873 233.243 220.667C233.063 220.461 232.792 220.358 232.431 220.358C232.071 220.358 231.797 220.461 231.61 220.667C231.43 220.873 231.308 221.14 231.243 221.469C231.185 221.791 231.156 222.19 231.156 222.667C231.156 223.156 231.185 223.568 231.243 223.903C231.301 224.232 231.424 224.499 231.61 224.705C231.797 224.905 232.071 225.004 232.431 225.004C232.792 225.004 233.066 224.905 233.253 224.705C233.439 224.499 233.562 224.232 233.62 223.903C233.678 223.568 233.707 223.156 233.707 222.667Z" fill="#B6B8CA"/>
<path d="M236.822 226.347C236.577 226.347 236.375 226.273 236.214 226.125C236.059 225.971 235.982 225.781 235.982 225.555C235.982 225.33 236.059 225.143 236.214 224.995C236.375 224.84 236.577 224.763 236.822 224.763C237.06 224.763 237.257 224.84 237.411 224.995C237.566 225.143 237.643 225.33 237.643 225.555C237.643 225.781 237.566 225.971 237.411 226.125C237.257 226.273 237.06 226.347 236.822 226.347Z" fill="#B6B8CA"/>
<path d="M240.143 224.299C240.195 224.583 240.311 224.802 240.491 224.956C240.678 225.104 240.926 225.178 241.235 225.178C241.634 225.178 241.924 225.014 242.104 224.686C242.285 224.351 242.375 223.79 242.375 223.005C242.227 223.211 242.017 223.372 241.747 223.488C241.483 223.604 241.196 223.662 240.887 223.662C240.475 223.662 240.101 223.578 239.766 223.41C239.438 223.237 239.177 222.982 238.984 222.647C238.791 222.306 238.694 221.894 238.694 221.411C238.694 220.696 238.907 220.129 239.332 219.71C239.757 219.285 240.336 219.073 241.071 219.073C241.985 219.073 242.629 219.366 243.003 219.952C243.383 220.538 243.573 221.42 243.573 222.599C243.573 223.436 243.499 224.122 243.351 224.657C243.209 225.191 242.961 225.597 242.607 225.874C242.259 226.151 241.782 226.289 241.177 226.289C240.7 226.289 240.295 226.199 239.96 226.019C239.625 225.832 239.367 225.591 239.187 225.294C239.013 224.992 238.913 224.66 238.887 224.299H240.143ZM241.167 222.56C241.502 222.56 241.766 222.457 241.959 222.251C242.153 222.045 242.249 221.768 242.249 221.42C242.249 221.04 242.146 220.747 241.94 220.541C241.74 220.329 241.467 220.222 241.119 220.222C240.771 220.222 240.494 220.332 240.288 220.551C240.088 220.763 239.989 221.047 239.989 221.401C239.989 221.742 240.085 222.022 240.278 222.241C240.478 222.454 240.774 222.56 241.167 222.56Z" fill="#B6B8CA"/>
<path d="M246.191 224.299C246.242 224.583 246.358 224.802 246.538 224.956C246.725 225.104 246.973 225.178 247.282 225.178C247.682 225.178 247.971 225.014 248.152 224.686C248.332 224.351 248.422 223.79 248.422 223.005C248.274 223.211 248.065 223.372 247.794 223.488C247.53 223.604 247.244 223.662 246.934 223.662C246.522 223.662 246.149 223.578 245.814 223.41C245.485 223.237 245.225 222.982 245.031 222.647C244.838 222.306 244.741 221.894 244.741 221.411C244.741 220.696 244.954 220.129 245.379 219.71C245.804 219.285 246.384 219.073 247.118 219.073C248.033 219.073 248.677 219.366 249.05 219.952C249.43 220.538 249.62 221.42 249.62 222.599C249.62 223.436 249.546 224.122 249.398 224.657C249.256 225.191 249.008 225.597 248.654 225.874C248.306 226.151 247.83 226.289 247.224 226.289C246.748 226.289 246.342 226.199 246.007 226.019C245.672 225.832 245.415 225.591 245.234 225.294C245.06 224.992 244.96 224.66 244.935 224.299H246.191ZM247.215 222.56C247.55 222.56 247.814 222.457 248.007 222.251C248.2 222.045 248.297 221.768 248.297 221.42C248.297 221.04 248.194 220.747 247.987 220.541C247.788 220.329 247.514 220.222 247.166 220.222C246.819 220.222 246.542 220.332 246.336 220.551C246.136 220.763 246.036 221.047 246.036 221.401C246.036 221.742 246.133 222.022 246.326 222.241C246.525 222.454 246.822 222.56 247.215 222.56Z" fill="#B6B8CA"/>
<path d="M83.9067 247.569C83.9067 246.912 84.0549 246.322 84.3511 245.801C84.6474 245.273 85.0499 244.86 85.5587 244.564C86.074 244.268 86.644 244.12 87.2687 244.12C88.0029 244.12 88.6437 244.297 89.1912 244.651C89.7386 245.005 90.1379 245.508 90.3891 246.158H89.3361C89.1493 245.752 88.8788 245.44 88.5246 245.221C88.1768 245.002 87.7582 244.893 87.2687 244.893C86.7985 244.893 86.3767 245.002 86.0031 245.221C85.6296 245.44 85.3365 245.752 85.124 246.158C84.9115 246.557 84.8052 247.028 84.8052 247.569C84.8052 248.103 84.9115 248.573 85.124 248.979C85.3365 249.378 85.6296 249.688 86.0031 249.907C86.3767 250.125 86.7985 250.235 87.2687 250.235C87.7582 250.235 88.1768 250.129 88.5246 249.916C88.8788 249.697 89.1493 249.385 89.3361 248.979H90.3891C90.1379 249.623 89.7386 250.122 89.1912 250.476C88.6437 250.824 88.0029 250.998 87.2687 250.998C86.644 250.998 86.074 250.853 85.5587 250.563C85.0499 250.267 84.6474 249.858 84.3511 249.337C84.0549 248.815 83.9067 248.226 83.9067 247.569Z" fill="#B6B8CA"/>
<path d="M92.5769 246.506C92.7315 246.203 92.9504 245.968 93.2338 245.801C93.5236 245.633 93.8746 245.55 94.2868 245.55V246.458H94.055C93.0696 246.458 92.5769 246.992 92.5769 248.061V250.94H91.6978V245.646H92.5769V246.506Z" fill="#B6B8CA"/>
<path d="M94.9732 248.274C94.9732 247.733 95.0827 247.259 95.3017 246.854C95.5206 246.442 95.8201 246.123 96.2001 245.897C96.5865 245.672 97.0148 245.559 97.485 245.559C97.9487 245.559 98.3512 245.659 98.6926 245.859C99.0339 246.058 99.2883 246.309 99.4558 246.612V245.646H100.345V250.94H99.4558V249.955C99.2819 250.264 99.0211 250.522 98.6733 250.728C98.3319 250.927 97.9326 251.027 97.4753 251.027C97.0052 251.027 96.5801 250.911 96.2001 250.679C95.8201 250.448 95.5206 250.122 95.3017 249.704C95.0827 249.285 94.9732 248.808 94.9732 248.274ZM99.4558 248.284C99.4558 247.884 99.3753 247.536 99.2143 247.24C99.0533 246.944 98.8343 246.718 98.5573 246.564C98.2868 246.403 97.9874 246.322 97.6589 246.322C97.3304 246.322 97.0309 246.4 96.7604 246.554C96.4899 246.709 96.2742 246.934 96.1132 247.23C95.9522 247.527 95.8717 247.875 95.8717 248.274C95.8717 248.68 95.9522 249.034 96.1132 249.337C96.2742 249.633 96.4899 249.861 96.7604 250.022C97.0309 250.177 97.3304 250.254 97.6589 250.254C97.9874 250.254 98.2868 250.177 98.5573 250.022C98.8343 249.861 99.0533 249.633 99.2143 249.337C99.3753 249.034 99.4558 248.683 99.4558 248.284Z" fill="#B6B8CA"/>
<path d="M101.502 248.284C101.502 247.736 101.611 247.259 101.83 246.854C102.049 246.442 102.352 246.123 102.738 245.897C103.131 245.672 103.579 245.559 104.081 245.559C104.732 245.559 105.266 245.717 105.685 246.033C106.11 246.348 106.39 246.786 106.525 247.346H105.579C105.488 247.024 105.311 246.77 105.047 246.583C104.79 246.396 104.468 246.303 104.081 246.303C103.579 246.303 103.173 246.477 102.864 246.825C102.555 247.166 102.4 247.652 102.4 248.284C102.4 248.921 102.555 249.414 102.864 249.762C103.173 250.109 103.579 250.283 104.081 250.283C104.468 250.283 104.79 250.193 105.047 250.013C105.305 249.832 105.482 249.575 105.579 249.24H106.525C106.384 249.781 106.1 250.216 105.675 250.544C105.25 250.866 104.719 251.027 104.081 251.027C103.579 251.027 103.131 250.914 102.738 250.689C102.352 250.464 102.049 250.145 101.83 249.733C101.611 249.32 101.502 248.837 101.502 248.284Z" fill="#B6B8CA"/>
<path d="M110.655 250.94L108.578 248.602V250.94H107.698V243.791H108.578V247.994L110.616 245.646H111.843L109.35 248.284L111.852 250.94H110.655Z" fill="#B6B8CA"/>
<path d="M117.501 248.09C117.501 248.258 117.491 248.435 117.472 248.622H113.24C113.272 249.143 113.45 249.552 113.772 249.849C114.1 250.138 114.496 250.283 114.96 250.283C115.34 250.283 115.655 250.196 115.907 250.022C116.164 249.842 116.345 249.604 116.448 249.308H117.394C117.253 249.816 116.969 250.232 116.544 250.554C116.119 250.869 115.591 251.027 114.96 251.027C114.458 251.027 114.007 250.914 113.607 250.689C113.214 250.464 112.905 250.145 112.68 249.733C112.455 249.314 112.342 248.831 112.342 248.284C112.342 247.736 112.451 247.256 112.67 246.844C112.889 246.432 113.195 246.116 113.588 245.897C113.987 245.672 114.445 245.559 114.96 245.559C115.462 245.559 115.907 245.669 116.293 245.888C116.679 246.107 116.976 246.409 117.182 246.796C117.394 247.176 117.501 247.607 117.501 248.09ZM116.593 247.907C116.593 247.572 116.518 247.285 116.37 247.047C116.222 246.802 116.019 246.619 115.762 246.496C115.511 246.367 115.23 246.303 114.921 246.303C114.477 246.303 114.097 246.445 113.781 246.728C113.472 247.012 113.295 247.404 113.25 247.907H116.593Z" fill="#B6B8CA"/>
<path d="M119.54 246.506C119.695 246.203 119.914 245.968 120.197 245.801C120.487 245.633 120.838 245.55 121.25 245.55V246.458H121.018C120.033 246.458 119.54 246.992 119.54 248.061V250.94H118.661V245.646H119.54V246.506Z" fill="#B6B8CA"/>
<path d="M124.139 251.027C123.733 251.027 123.37 250.96 123.047 250.824C122.725 250.683 122.471 250.489 122.284 250.245C122.098 249.993 121.994 249.707 121.975 249.385H122.883C122.909 249.649 123.031 249.865 123.25 250.032C123.476 250.2 123.769 250.283 124.129 250.283C124.464 250.283 124.728 250.209 124.922 250.061C125.115 249.913 125.212 249.726 125.212 249.501C125.212 249.269 125.108 249.098 124.902 248.989C124.696 248.873 124.377 248.76 123.946 248.651C123.553 248.548 123.231 248.445 122.98 248.341C122.735 248.232 122.523 248.074 122.342 247.868C122.168 247.656 122.081 247.379 122.081 247.037C122.081 246.767 122.162 246.519 122.323 246.293C122.484 246.068 122.713 245.891 123.009 245.762C123.305 245.627 123.643 245.559 124.023 245.559C124.609 245.559 125.083 245.707 125.443 246.004C125.804 246.3 125.997 246.706 126.023 247.221H125.144C125.125 246.944 125.012 246.722 124.806 246.554C124.606 246.387 124.336 246.303 123.994 246.303C123.679 246.303 123.427 246.371 123.241 246.506C123.054 246.641 122.961 246.818 122.961 247.037C122.961 247.211 123.015 247.356 123.125 247.472C123.241 247.581 123.382 247.672 123.55 247.743C123.724 247.807 123.962 247.881 124.265 247.965C124.645 248.068 124.954 248.171 125.192 248.274C125.43 248.37 125.633 248.519 125.801 248.718C125.975 248.918 126.065 249.179 126.071 249.501C126.071 249.791 125.991 250.051 125.83 250.283C125.669 250.515 125.44 250.699 125.144 250.834C124.854 250.963 124.519 251.027 124.139 251.027Z" fill="#B6B8CA"/>
<path d="M227.93 248.998C227.93 249.333 227.843 249.649 227.669 249.945C227.502 250.235 227.251 250.477 226.916 250.67C226.587 250.857 226.197 250.966 225.747 250.998V251.781H225.128V250.989C224.484 250.931 223.966 250.737 223.573 250.409C223.18 250.074 222.977 249.623 222.964 249.056H224.413C224.452 249.52 224.69 249.8 225.128 249.897V248.052C224.665 247.936 224.291 247.82 224.008 247.704C223.724 247.588 223.48 247.401 223.273 247.144C223.067 246.886 222.964 246.535 222.964 246.091C222.964 245.53 223.164 245.073 223.563 244.719C223.969 244.365 224.491 244.162 225.128 244.11V243.328H225.747V244.11C226.365 244.162 226.858 244.348 227.225 244.67C227.598 244.993 227.808 245.437 227.853 246.004H226.394C226.375 245.817 226.307 245.656 226.191 245.521C226.082 245.379 225.933 245.279 225.747 245.221V247.047C226.23 247.169 226.61 247.289 226.887 247.404C227.17 247.514 227.415 247.698 227.621 247.955C227.827 248.206 227.93 248.554 227.93 248.998ZM224.375 246.023C224.375 246.236 224.439 246.409 224.568 246.545C224.697 246.673 224.884 246.78 225.128 246.863V245.192C224.897 245.224 224.713 245.311 224.578 245.453C224.442 245.595 224.375 245.785 224.375 246.023ZM225.747 249.916C225.991 249.871 226.181 249.771 226.317 249.617C226.458 249.462 226.529 249.275 226.529 249.056C226.529 248.844 226.462 248.673 226.326 248.544C226.191 248.416 225.998 248.309 225.747 248.226V249.916Z" fill="#B6B8CA"/>
<path d="M229.227 249.568V248.506L232.386 243.985H233.961V248.39H234.811V249.568H233.961V250.94H232.609V249.568H229.227ZM232.696 245.434L230.715 248.39H232.696V245.434Z" fill="#B6B8CA"/>
<path d="M236.426 251.008C236.181 251.008 235.978 250.934 235.817 250.786C235.663 250.631 235.585 250.441 235.585 250.216C235.585 249.99 235.663 249.804 235.817 249.655C235.978 249.501 236.181 249.424 236.426 249.424C236.664 249.424 236.861 249.501 237.015 249.655C237.17 249.804 237.247 249.99 237.247 250.216C237.247 250.441 237.17 250.631 237.015 250.786C236.861 250.934 236.664 251.008 236.426 251.008Z" fill="#B6B8CA"/>
<path d="M238.182 247.327C238.182 246.213 238.382 245.34 238.781 244.709C239.187 244.078 239.856 243.762 240.79 243.762C241.724 243.762 242.391 244.078 242.79 244.709C243.196 245.34 243.399 246.213 243.399 247.327C243.399 248.448 243.196 249.327 242.79 249.965C242.391 250.602 241.724 250.921 240.79 250.921C239.856 250.921 239.187 250.602 238.781 249.965C238.382 249.327 238.182 248.448 238.182 247.327ZM242.066 247.327C242.066 246.851 242.033 246.451 241.969 246.129C241.911 245.801 241.789 245.534 241.602 245.327C241.421 245.121 241.151 245.018 240.79 245.018C240.43 245.018 240.156 245.121 239.969 245.327C239.789 245.534 239.666 245.801 239.602 246.129C239.544 246.451 239.515 246.851 239.515 247.327C239.515 247.817 239.544 248.229 239.602 248.564C239.66 248.892 239.782 249.16 239.969 249.366C240.156 249.565 240.43 249.665 240.79 249.665C241.151 249.665 241.425 249.565 241.611 249.366C241.798 249.16 241.921 248.892 241.979 248.564C242.037 248.229 242.066 247.817 242.066 247.327Z" fill="#B6B8CA"/>
<path d="M244.427 247.327C244.427 246.213 244.627 245.34 245.026 244.709C245.432 244.078 246.102 243.762 247.036 243.762C247.97 243.762 248.636 244.078 249.036 244.709C249.441 245.34 249.644 246.213 249.644 247.327C249.644 248.448 249.441 249.327 249.036 249.965C248.636 250.602 247.97 250.921 247.036 250.921C246.102 250.921 245.432 250.602 245.026 249.965C244.627 249.327 244.427 248.448 244.427 247.327ZM248.311 247.327C248.311 246.851 248.279 246.451 248.214 246.129C248.156 245.801 248.034 245.534 247.847 245.327C247.667 245.121 247.397 245.018 247.036 245.018C246.675 245.018 246.401 245.121 246.215 245.327C246.034 245.534 245.912 245.801 245.848 246.129C245.79 246.451 245.761 246.851 245.761 247.327C245.761 247.817 245.79 248.229 245.848 248.564C245.906 248.892 246.028 249.16 246.215 249.366C246.401 249.565 246.675 249.665 247.036 249.665C247.397 249.665 247.67 249.565 247.857 249.366C248.044 249.16 248.166 248.892 248.224 248.564C248.282 248.229 248.311 247.817 248.311 247.327Z" fill="#B6B8CA"/>
<path d="M92.6979 268.867L90.7464 275.601H89.761L88.196 270.181L86.573 275.601L85.5972 275.611L83.7134 268.867H84.6505L86.1189 274.577L87.7419 268.867H88.7273L90.273 274.558L91.7511 268.867H92.6979Z" fill="#B6B8CA"/>
<path d="M93.3315 272.935C93.3315 272.394 93.441 271.92 93.66 271.514C93.8789 271.102 94.1784 270.783 94.5584 270.558C94.9448 270.333 95.3731 270.22 95.8433 270.22C96.307 270.22 96.7095 270.32 97.0509 270.519C97.3922 270.719 97.6466 270.97 97.8141 271.273V270.307H98.7029V275.601H97.8141V274.616C97.6402 274.925 97.3793 275.182 97.0316 275.388C96.6902 275.588 96.2909 275.688 95.8336 275.688C95.3635 275.688 94.9384 275.572 94.5584 275.34C94.1784 275.108 93.8789 274.783 93.66 274.364C93.441 273.946 93.3315 273.469 93.3315 272.935ZM97.8141 272.944C97.8141 272.545 97.7336 272.197 97.5726 271.901C97.4115 271.605 97.1926 271.379 96.9156 271.225C96.6451 271.064 96.3456 270.983 96.0172 270.983C95.6887 270.983 95.3892 271.06 95.1187 271.215C94.8482 271.37 94.6325 271.595 94.4715 271.891C94.3104 272.188 94.2299 272.535 94.2299 272.935C94.2299 273.34 94.3104 273.695 94.4715 273.997C94.6325 274.294 94.8482 274.522 95.1187 274.683C95.3892 274.838 95.6887 274.915 96.0172 274.915C96.3456 274.915 96.6451 274.838 96.9156 274.683C97.1926 274.522 97.4115 274.294 97.5726 273.997C97.7336 273.695 97.8141 273.344 97.8141 272.944Z" fill="#B6B8CA"/>
<path d="M101.261 271.031V274.152C101.261 274.409 101.316 274.593 101.425 274.703C101.535 274.806 101.725 274.857 101.995 274.857H102.642V275.601H101.85C101.361 275.601 100.994 275.488 100.749 275.263C100.504 275.037 100.382 274.667 100.382 274.152V271.031H99.6958V270.307H100.382V268.974H101.261V270.307H102.642V271.031H101.261Z" fill="#B6B8CA"/>
<path d="M108.538 272.751C108.538 272.919 108.528 273.096 108.509 273.282H104.277C104.31 273.804 104.487 274.213 104.809 274.509C105.137 274.799 105.533 274.944 105.997 274.944C106.377 274.944 106.693 274.857 106.944 274.683C107.201 274.503 107.382 274.265 107.485 273.968H108.432C108.29 274.477 108.007 274.893 107.581 275.215C107.156 275.53 106.628 275.688 105.997 275.688C105.495 275.688 105.044 275.575 104.645 275.35C104.252 275.124 103.943 274.806 103.717 274.393C103.492 273.975 103.379 273.492 103.379 272.944C103.379 272.397 103.489 271.917 103.708 271.505C103.926 271.093 104.232 270.777 104.625 270.558C105.025 270.333 105.482 270.22 105.997 270.22C106.499 270.22 106.944 270.329 107.33 270.548C107.717 270.767 108.013 271.07 108.219 271.457C108.432 271.837 108.538 272.268 108.538 272.751ZM107.63 272.567C107.63 272.233 107.556 271.946 107.408 271.708C107.259 271.463 107.057 271.279 106.799 271.157C106.548 271.028 106.268 270.964 105.958 270.964C105.514 270.964 105.134 271.106 104.818 271.389C104.509 271.672 104.332 272.065 104.287 272.567H107.63Z" fill="#B6B8CA"/>
<path d="M110.577 271.167C110.732 270.864 110.951 270.629 111.234 270.461C111.524 270.294 111.875 270.21 112.287 270.21V271.118H112.056C111.07 271.118 110.577 271.653 110.577 272.722V275.601H109.698V270.307H110.577V271.167Z" fill="#B6B8CA"/>
<path d="M228.798 273.659C228.798 273.994 228.711 274.31 228.537 274.606C228.37 274.896 228.119 275.137 227.784 275.33C227.455 275.517 227.066 275.627 226.615 275.659V276.441H225.997V275.649C225.352 275.591 224.834 275.398 224.441 275.07C224.048 274.735 223.845 274.284 223.833 273.717H225.282C225.32 274.181 225.559 274.461 225.997 274.558V272.712C225.533 272.596 225.159 272.481 224.876 272.365C224.592 272.249 224.348 272.062 224.142 271.804C223.936 271.547 223.833 271.196 223.833 270.751C223.833 270.191 224.032 269.734 224.431 269.379C224.837 269.025 225.359 268.822 225.997 268.771V267.988H226.615V268.771C227.233 268.822 227.726 269.009 228.093 269.331C228.466 269.653 228.676 270.098 228.721 270.664H227.262C227.243 270.478 227.175 270.317 227.059 270.181C226.95 270.04 226.802 269.94 226.615 269.882V271.708C227.098 271.83 227.478 271.949 227.755 272.065C228.038 272.175 228.283 272.358 228.489 272.616C228.695 272.867 228.798 273.215 228.798 273.659ZM225.243 270.684C225.243 270.896 225.307 271.07 225.436 271.205C225.565 271.334 225.752 271.44 225.997 271.524V269.853C225.765 269.885 225.581 269.972 225.446 270.114C225.311 270.255 225.243 270.445 225.243 270.684ZM226.615 274.577C226.86 274.532 227.05 274.432 227.185 274.277C227.326 274.123 227.397 273.936 227.397 273.717C227.397 273.505 227.33 273.334 227.194 273.205C227.059 273.076 226.866 272.97 226.615 272.886V274.577Z" fill="#B6B8CA"/>
<path d="M230.579 274.075C231.197 273.559 231.69 273.131 232.057 272.79C232.424 272.442 232.73 272.081 232.974 271.708C233.219 271.334 233.342 270.967 233.342 270.606C233.342 270.278 233.264 270.02 233.11 269.833C232.955 269.647 232.717 269.553 232.395 269.553C232.073 269.553 231.825 269.663 231.651 269.882C231.477 270.094 231.387 270.387 231.38 270.761H230.067C230.092 269.988 230.321 269.402 230.752 269.003C231.19 268.603 231.744 268.404 232.414 268.404C233.148 268.404 233.712 268.6 234.105 268.993C234.498 269.379 234.694 269.891 234.694 270.529C234.694 271.031 234.559 271.511 234.288 271.969C234.018 272.426 233.709 272.825 233.361 273.166C233.013 273.501 232.559 273.907 231.999 274.384H234.849V275.504H230.076V274.5L230.579 274.075Z" fill="#B6B8CA"/>
<path d="M236.454 275.669C236.21 275.669 236.007 275.595 235.846 275.446C235.691 275.292 235.614 275.102 235.614 274.876C235.614 274.651 235.691 274.464 235.846 274.316C236.007 274.162 236.21 274.084 236.454 274.084C236.693 274.084 236.889 274.162 237.044 274.316C237.198 274.464 237.276 274.651 237.276 274.876C237.276 275.102 237.198 275.292 237.044 275.446C236.889 275.595 236.693 275.669 236.454 275.669Z" fill="#B6B8CA"/>
<path d="M242.944 269.727H239.814V271.379C239.949 271.212 240.143 271.077 240.394 270.973C240.645 270.864 240.912 270.809 241.196 270.809C241.711 270.809 242.133 270.922 242.461 271.147C242.79 271.373 243.028 271.663 243.176 272.017C243.324 272.365 243.398 272.738 243.398 273.137C243.398 273.878 243.186 274.474 242.761 274.925C242.342 275.376 241.743 275.601 240.964 275.601C240.23 275.601 239.643 275.417 239.205 275.05C238.768 274.683 238.52 274.203 238.462 273.611H239.775C239.833 273.868 239.962 274.075 240.162 274.229C240.368 274.384 240.629 274.461 240.944 274.461C241.324 274.461 241.611 274.342 241.804 274.104C241.997 273.865 242.094 273.55 242.094 273.157C242.094 272.757 241.994 272.455 241.795 272.249C241.601 272.036 241.315 271.93 240.935 271.93C240.664 271.93 240.439 271.997 240.259 272.133C240.078 272.268 239.949 272.448 239.872 272.674H238.578V268.539H242.944V269.727Z" fill="#B6B8CA"/>
<path d="M244.428 271.988C244.428 270.874 244.627 270.001 245.027 269.37C245.432 268.739 246.102 268.423 247.036 268.423C247.97 268.423 248.637 268.739 249.036 269.37C249.442 270.001 249.644 270.874 249.644 271.988C249.644 273.108 249.442 273.988 249.036 274.625C248.637 275.263 247.97 275.582 247.036 275.582C246.102 275.582 245.432 275.263 245.027 274.625C244.627 273.988 244.428 273.108 244.428 271.988ZM248.311 271.988C248.311 271.511 248.279 271.112 248.215 270.79C248.157 270.461 248.034 270.194 247.848 269.988C247.667 269.782 247.397 269.679 247.036 269.679C246.675 269.679 246.402 269.782 246.215 269.988C246.035 270.194 245.912 270.461 245.848 270.79C245.79 271.112 245.761 271.511 245.761 271.988C245.761 272.477 245.79 272.89 245.848 273.224C245.906 273.553 246.028 273.82 246.215 274.026C246.402 274.226 246.675 274.326 247.036 274.326C247.397 274.326 247.67 274.226 247.857 274.026C248.044 273.82 248.166 273.553 248.224 273.224C248.282 272.89 248.311 272.477 248.311 271.988Z" fill="#B6B8CA"/>
<path d="M83.4917 289.077L250.161 289.446" stroke="#3A3C4C" stroke-width="0.603797"/>
<path d="M88.3797 303.189V303.904H86.5442V309.923H85.665V303.904H83.8198V303.189H88.3797Z" fill="#B6B8CA"/>
<path d="M91.7708 310.01C91.2749 310.01 90.824 309.897 90.4183 309.671C90.019 309.446 89.7034 309.127 89.4715 308.715C89.2461 308.296 89.1334 307.813 89.1334 307.266C89.1334 306.725 89.2493 306.248 89.4812 305.836C89.7195 305.418 90.0415 305.099 90.4472 304.88C90.853 304.654 91.3071 304.542 91.8094 304.542C92.3118 304.542 92.7658 304.654 93.1716 304.88C93.5773 305.099 93.8961 305.414 94.128 305.826C94.3663 306.239 94.4854 306.718 94.4854 307.266C94.4854 307.813 94.3631 308.296 94.1183 308.715C93.88 309.127 93.5548 309.446 93.1426 309.671C92.7304 309.897 92.2731 310.01 91.7708 310.01ZM91.7708 309.237C92.0864 309.237 92.3826 309.163 92.6596 309.015C92.9365 308.866 93.1587 308.644 93.3262 308.348C93.5 308.052 93.587 307.691 93.587 307.266C93.587 306.841 93.5033 306.48 93.3358 306.184C93.1684 305.888 92.9494 305.669 92.6789 305.527C92.4084 305.379 92.1153 305.305 91.7998 305.305C91.4777 305.305 91.1815 305.379 90.911 305.527C90.6469 305.669 90.4344 305.888 90.2734 306.184C90.1123 306.48 90.0318 306.841 90.0318 307.266C90.0318 307.697 90.1091 308.061 90.2637 308.358C90.4247 308.654 90.6372 308.876 90.9013 309.024C91.1654 309.166 91.4552 309.237 91.7708 309.237Z" fill="#B6B8CA"/>
<path d="M96.7137 305.353V308.474C96.7137 308.731 96.7684 308.915 96.8779 309.024C96.9874 309.127 97.1774 309.179 97.4479 309.179H98.0952V309.923H97.303C96.8135 309.923 96.4464 309.81 96.2017 309.585C95.9569 309.359 95.8346 308.989 95.8346 308.474V305.353H95.1486V304.629H95.8346V303.295H96.7137V304.629H98.0952V305.353H96.7137Z" fill="#B6B8CA"/>
<path d="M98.8319 307.256C98.8319 306.715 98.9414 306.242 99.1603 305.836C99.3793 305.424 99.6788 305.105 100.059 304.88C100.445 304.654 100.874 304.542 101.344 304.542C101.807 304.542 102.21 304.641 102.551 304.841C102.893 305.041 103.147 305.292 103.314 305.595V304.629H104.203V309.923H103.314V308.937C103.141 309.246 102.88 309.504 102.532 309.71C102.191 309.91 101.791 310.01 101.334 310.01C100.864 310.01 100.439 309.894 100.059 309.662C99.6788 309.43 99.3793 309.105 99.1603 308.686C98.9414 308.267 98.8319 307.791 98.8319 307.256ZM103.314 307.266C103.314 306.867 103.234 306.519 103.073 306.223C102.912 305.926 102.693 305.701 102.416 305.546C102.146 305.385 101.846 305.305 101.518 305.305C101.189 305.305 100.89 305.382 100.619 305.537C100.349 305.691 100.133 305.917 99.9718 306.213C99.8108 306.509 99.7303 306.857 99.7303 307.256C99.7303 307.662 99.8108 308.016 99.9718 308.319C100.133 308.615 100.349 308.844 100.619 309.005C100.89 309.159 101.189 309.237 101.518 309.237C101.846 309.237 102.146 309.159 102.416 309.005C102.693 308.844 102.912 308.615 103.073 308.319C103.234 308.016 103.314 307.665 103.314 307.266Z" fill="#B6B8CA"/>
<path d="M106.568 302.774V309.923H105.689V302.774H106.568Z" fill="#B6B8CA"/>
<path d="M114.796 303.624L112.11 309.923H111.222L113.946 303.711H110.217V302.957H114.796V303.624Z" fill="#B6B8CA"/>
<path d="M85.1144 319.604C85.2883 319.302 85.5459 319.05 85.8872 318.851C86.235 318.645 86.6375 318.542 87.0948 318.542C87.565 318.542 87.99 318.654 88.37 318.88C88.7565 319.105 89.0592 319.424 89.2781 319.836C89.4971 320.242 89.6066 320.715 89.6066 321.256C89.6066 321.791 89.4971 322.267 89.2781 322.686C89.0592 323.105 88.7565 323.43 88.37 323.662C87.99 323.894 87.565 324.01 87.0948 324.01C86.644 324.01 86.2447 323.91 85.8969 323.71C85.5555 323.504 85.2947 323.25 85.1144 322.947V326.434H84.2352V318.629H85.1144V319.604ZM88.7082 321.256C88.7082 320.857 88.6277 320.509 88.4666 320.213C88.3056 319.917 88.0867 319.691 87.8097 319.537C87.5392 319.382 87.2397 319.305 86.9113 319.305C86.5892 319.305 86.2898 319.385 86.0128 319.546C85.7423 319.701 85.5233 319.93 85.3559 320.232C85.1949 320.528 85.1144 320.873 85.1144 321.266C85.1144 321.665 85.1949 322.016 85.3559 322.319C85.5233 322.615 85.7423 322.844 86.0128 323.005C86.2898 323.159 86.5892 323.237 86.9113 323.237C87.2397 323.237 87.5392 323.159 87.8097 323.005C88.0867 322.844 88.3056 322.615 88.4666 322.319C88.6277 322.016 88.7082 321.662 88.7082 321.256Z" fill="#B6B8CA"/>
<path d="M91.6429 319.488C91.7975 319.186 92.0165 318.951 92.2998 318.783C92.5897 318.616 92.9407 318.532 93.3529 318.532V319.44H93.121C92.1356 319.44 91.6429 319.975 91.6429 321.044V323.923H90.7638V318.629H91.6429V319.488Z" fill="#B6B8CA"/>
<path d="M96.6766 324.01C96.1807 324.01 95.7299 323.897 95.3241 323.671C94.9248 323.446 94.6092 323.127 94.3774 322.715C94.1519 322.296 94.0392 321.813 94.0392 321.266C94.0392 320.725 94.1552 320.248 94.387 319.836C94.6253 319.418 94.9473 319.099 95.3531 318.88C95.7589 318.654 96.2129 318.542 96.7153 318.542C97.2176 318.542 97.6717 318.654 98.0774 318.88C98.4832 319.099 98.802 319.414 99.0338 319.826C99.2721 320.239 99.3913 320.718 99.3913 321.266C99.3913 321.813 99.2689 322.296 99.0242 322.715C98.7859 323.127 98.4606 323.446 98.0484 323.671C97.6363 323.897 97.179 324.01 96.6766 324.01ZM96.6766 323.237C96.9922 323.237 97.2885 323.163 97.5654 323.015C97.8424 322.866 98.0646 322.644 98.232 322.348C98.4059 322.052 98.4928 321.691 98.4928 321.266C98.4928 320.841 98.4091 320.48 98.2417 320.184C98.0742 319.888 97.8552 319.669 97.5847 319.527C97.3142 319.379 97.0212 319.305 96.7056 319.305C96.3836 319.305 96.0873 319.379 95.8168 319.527C95.5528 319.669 95.3402 319.888 95.1792 320.184C95.0182 320.48 94.9377 320.841 94.9377 321.266C94.9377 321.697 95.015 322.061 95.1695 322.358C95.3306 322.654 95.5431 322.876 95.8072 323.024C96.0712 323.166 96.361 323.237 96.6766 323.237Z" fill="#B6B8CA"/>
<path d="M100.219 321.256C100.219 320.715 100.328 320.242 100.547 319.836C100.766 319.424 101.066 319.105 101.446 318.88C101.832 318.654 102.264 318.542 102.74 318.542C103.152 318.542 103.536 318.638 103.89 318.831C104.244 319.018 104.515 319.266 104.701 319.575V316.774H105.59V323.923H104.701V322.928C104.527 323.243 104.27 323.504 103.928 323.71C103.587 323.91 103.188 324.01 102.731 324.01C102.26 324.01 101.832 323.894 101.446 323.662C101.066 323.43 100.766 323.105 100.547 322.686C100.328 322.267 100.219 321.791 100.219 321.256ZM104.701 321.266C104.701 320.867 104.621 320.519 104.46 320.223C104.299 319.926 104.08 319.701 103.803 319.546C103.532 319.385 103.233 319.305 102.904 319.305C102.576 319.305 102.276 319.382 102.006 319.537C101.735 319.691 101.52 319.917 101.359 320.213C101.198 320.509 101.117 320.857 101.117 321.256C101.117 321.662 101.198 322.016 101.359 322.319C101.52 322.615 101.735 322.844 102.006 323.005C102.276 323.159 102.576 323.237 102.904 323.237C103.233 323.237 103.532 323.159 103.803 323.005C104.08 322.844 104.299 322.615 104.46 322.319C104.621 322.016 104.701 321.665 104.701 321.266Z" fill="#B6B8CA"/>
<path d="M111.771 318.629V323.923H110.892V323.14C110.724 323.411 110.489 323.623 110.187 323.778C109.89 323.926 109.562 324 109.201 324C108.789 324 108.419 323.916 108.09 323.749C107.762 323.575 107.501 323.317 107.308 322.976C107.121 322.635 107.027 322.219 107.027 321.73V318.629H107.897V321.614C107.897 322.135 108.029 322.538 108.293 322.821C108.557 323.098 108.918 323.237 109.375 323.237C109.845 323.237 110.215 323.092 110.486 322.802C110.756 322.512 110.892 322.09 110.892 321.536V318.629H111.771Z" fill="#B6B8CA"/>
<path d="M112.927 321.266C112.927 320.718 113.036 320.242 113.255 319.836C113.474 319.424 113.777 319.105 114.163 318.88C114.556 318.654 115.004 318.542 115.506 318.542C116.157 318.542 116.691 318.699 117.11 319.015C117.535 319.331 117.815 319.769 117.95 320.329H117.004C116.913 320.007 116.736 319.752 116.472 319.566C116.215 319.379 115.893 319.285 115.506 319.285C115.004 319.285 114.598 319.459 114.289 319.807C113.98 320.149 113.825 320.635 113.825 321.266C113.825 321.904 113.98 322.396 114.289 322.744C114.598 323.092 115.004 323.266 115.506 323.266C115.893 323.266 116.215 323.176 116.472 322.995C116.73 322.815 116.907 322.557 117.004 322.222H117.95C117.809 322.763 117.525 323.198 117.1 323.527C116.675 323.849 116.144 324.01 115.506 324.01C115.004 324.01 114.556 323.897 114.163 323.671C113.777 323.446 113.474 323.127 113.255 322.715C113.036 322.303 112.927 321.82 112.927 321.266Z" fill="#B6B8CA"/>
<path d="M120.196 319.353V322.474C120.196 322.731 120.25 322.915 120.36 323.024C120.469 323.127 120.659 323.179 120.93 323.179H121.577V323.923H120.785C120.296 323.923 119.928 323.81 119.684 323.585C119.439 323.359 119.317 322.989 119.317 322.474V319.353H118.631V318.629H119.317V317.295H120.196V318.629H121.577V319.353H120.196Z" fill="#B6B8CA"/>
<path d="M124.517 324.01C124.111 324.01 123.747 323.942 123.425 323.807C123.103 323.665 122.848 323.472 122.662 323.227C122.475 322.976 122.372 322.689 122.353 322.367H123.261C123.286 322.631 123.409 322.847 123.628 323.015C123.853 323.182 124.146 323.266 124.507 323.266C124.842 323.266 125.106 323.192 125.299 323.044C125.492 322.895 125.589 322.709 125.589 322.483C125.589 322.251 125.486 322.081 125.28 321.971C125.074 321.855 124.755 321.743 124.323 321.633C123.93 321.53 123.608 321.427 123.357 321.324C123.113 321.214 122.9 321.057 122.72 320.851C122.546 320.638 122.459 320.361 122.459 320.02C122.459 319.749 122.539 319.501 122.7 319.276C122.861 319.05 123.09 318.873 123.386 318.744C123.683 318.609 124.021 318.542 124.401 318.542C124.987 318.542 125.46 318.69 125.821 318.986C126.181 319.282 126.375 319.688 126.4 320.203H125.521C125.502 319.926 125.389 319.704 125.183 319.537C124.984 319.369 124.713 319.285 124.372 319.285C124.056 319.285 123.805 319.353 123.618 319.488C123.431 319.624 123.338 319.801 123.338 320.02C123.338 320.194 123.393 320.338 123.502 320.454C123.618 320.564 123.76 320.654 123.927 320.725C124.101 320.789 124.339 320.863 124.642 320.947C125.022 321.05 125.331 321.153 125.57 321.256C125.808 321.353 126.011 321.501 126.178 321.701C126.352 321.9 126.442 322.161 126.449 322.483C126.449 322.773 126.368 323.034 126.207 323.266C126.046 323.498 125.818 323.681 125.521 323.816C125.231 323.945 124.897 324.01 124.517 324.01Z" fill="#B6B8CA"/>
<path d="M213.565 314.495C213.565 314.914 213.457 315.308 213.239 315.679C213.03 316.041 212.716 316.343 212.297 316.584C211.887 316.818 211.4 316.955 210.836 316.995V317.973H210.063V316.983C209.258 316.911 208.61 316.669 208.119 316.258C207.628 315.84 207.374 315.276 207.358 314.568H209.17C209.218 315.147 209.516 315.498 210.063 315.618V313.312C209.484 313.167 209.017 313.022 208.663 312.877C208.308 312.732 208.002 312.499 207.745 312.177C207.487 311.855 207.358 311.416 207.358 310.86C207.358 310.16 207.608 309.588 208.107 309.146C208.614 308.703 209.266 308.449 210.063 308.385V307.407H210.836V308.385C211.609 308.449 212.225 308.683 212.684 309.085C213.151 309.488 213.412 310.043 213.469 310.752H211.645C211.621 310.518 211.537 310.317 211.392 310.148C211.255 309.971 211.07 309.846 210.836 309.774V312.056C211.44 312.209 211.915 312.358 212.261 312.503C212.615 312.64 212.921 312.869 213.179 313.191C213.437 313.505 213.565 313.94 213.565 314.495ZM209.121 310.776C209.121 311.042 209.202 311.259 209.363 311.428C209.524 311.589 209.757 311.722 210.063 311.827V309.737C209.774 309.778 209.544 309.886 209.375 310.063C209.206 310.241 209.121 310.478 209.121 310.776ZM210.836 315.643C211.142 315.586 211.38 315.461 211.549 315.268C211.726 315.075 211.814 314.841 211.814 314.568C211.814 314.302 211.73 314.089 211.561 313.928C211.392 313.767 211.15 313.634 210.836 313.529V315.643Z" fill="#B6B8CA"/>
<path d="M215.284 310.438C215.324 309.633 215.606 309.013 216.129 308.578C216.66 308.135 217.357 307.914 218.218 307.914C218.806 307.914 219.309 308.019 219.728 308.228C220.146 308.429 220.46 308.707 220.67 309.061C220.887 309.407 220.996 309.802 220.996 310.245C220.996 310.752 220.863 311.182 220.597 311.537C220.34 311.883 220.03 312.116 219.667 312.237V312.285C220.134 312.43 220.497 312.688 220.754 313.058C221.02 313.429 221.153 313.904 221.153 314.483C221.153 314.966 221.04 315.397 220.815 315.775C220.597 316.154 220.271 316.452 219.836 316.669C219.41 316.878 218.895 316.983 218.291 316.983C217.381 316.983 216.64 316.754 216.069 316.295C215.497 315.836 215.195 315.159 215.163 314.266H216.805C216.821 314.66 216.954 314.978 217.204 315.22C217.461 315.453 217.812 315.57 218.254 315.57C218.665 315.57 218.979 315.457 219.196 315.232C219.422 314.998 219.535 314.701 219.535 314.338C219.535 313.855 219.382 313.509 219.076 313.3C218.77 313.09 218.295 312.986 217.651 312.986H217.3V311.597H217.651C218.794 311.597 219.365 311.215 219.365 310.45C219.365 310.104 219.261 309.834 219.051 309.641C218.85 309.448 218.556 309.351 218.17 309.351C217.792 309.351 217.498 309.456 217.288 309.665C217.087 309.866 216.97 310.124 216.938 310.438H215.284Z" fill="#B6B8CA"/>
<path d="M228.406 309.58H224.493V311.645C224.662 311.436 224.904 311.267 225.218 311.138C225.532 311.001 225.866 310.933 226.22 310.933C226.864 310.933 227.392 311.074 227.802 311.356C228.213 311.637 228.511 312 228.696 312.442C228.881 312.877 228.973 313.344 228.973 313.843C228.973 314.769 228.708 315.514 228.176 316.077C227.653 316.641 226.904 316.923 225.93 316.923C225.013 316.923 224.28 316.693 223.733 316.234C223.185 315.775 222.875 315.176 222.803 314.435H224.445C224.517 314.757 224.678 315.015 224.928 315.208C225.186 315.401 225.512 315.498 225.906 315.498C226.381 315.498 226.739 315.349 226.981 315.051C227.222 314.753 227.343 314.358 227.343 313.867C227.343 313.368 227.218 312.99 226.969 312.732C226.727 312.467 226.369 312.334 225.894 312.334C225.556 312.334 225.274 312.418 225.049 312.587C224.823 312.756 224.662 312.982 224.566 313.264H222.948V308.095H228.406V309.58Z" fill="#B6B8CA"/>
<path d="M231.202 317.007C230.896 317.007 230.643 316.915 230.441 316.729C230.248 316.536 230.152 316.299 230.152 316.017C230.152 315.735 230.248 315.502 230.441 315.316C230.643 315.123 230.896 315.027 231.202 315.027C231.5 315.027 231.746 315.123 231.939 315.316C232.132 315.502 232.229 315.735 232.229 316.017C232.229 316.299 232.132 316.536 231.939 316.729C231.746 316.915 231.5 317.007 231.202 317.007Z" fill="#B6B8CA"/>
<path d="M233.421 310.438C233.462 309.633 233.743 309.013 234.267 308.578C234.798 308.135 235.494 307.914 236.356 307.914C236.943 307.914 237.447 308.019 237.865 308.228C238.284 308.429 238.598 308.707 238.807 309.061C239.025 309.407 239.133 309.802 239.133 310.245C239.133 310.752 239 311.182 238.735 311.537C238.477 311.883 238.167 312.116 237.805 312.237V312.285C238.272 312.43 238.634 312.688 238.892 313.058C239.157 313.429 239.29 313.904 239.29 314.483C239.29 314.966 239.177 315.397 238.952 315.775C238.735 316.154 238.409 316.452 237.974 316.669C237.547 316.878 237.032 316.983 236.428 316.983C235.518 316.983 234.778 316.754 234.206 316.295C233.635 315.836 233.333 315.159 233.301 314.266H234.943C234.959 314.66 235.092 314.978 235.341 315.22C235.599 315.453 235.949 315.57 236.392 315.57C236.803 315.57 237.117 315.457 237.334 315.232C237.559 314.998 237.672 314.701 237.672 314.338C237.672 313.855 237.519 313.509 237.213 313.3C236.907 313.09 236.432 312.986 235.788 312.986H235.438V311.597H235.788C236.931 311.597 237.503 311.215 237.503 310.45C237.503 310.104 237.398 309.834 237.189 309.641C236.988 309.448 236.694 309.351 236.307 309.351C235.929 309.351 235.635 309.456 235.426 309.665C235.225 309.866 235.108 310.124 235.076 310.438H233.421Z" fill="#B6B8CA"/>
<path d="M242.099 312.261C241.294 311.843 240.892 311.195 240.892 310.317C240.892 309.882 241.001 309.488 241.218 309.134C241.443 308.771 241.777 308.486 242.22 308.276C242.671 308.059 243.218 307.95 243.863 307.95C244.507 307.95 245.05 308.059 245.493 308.276C245.944 308.486 246.278 308.771 246.495 309.134C246.721 309.488 246.833 309.882 246.833 310.317C246.833 310.76 246.725 311.15 246.507 311.488C246.29 311.818 246 312.076 245.638 312.261C246.08 312.454 246.427 312.736 246.676 313.107C246.926 313.477 247.051 313.916 247.051 314.423C247.051 314.97 246.91 315.449 246.628 315.86C246.354 316.262 245.976 316.572 245.493 316.79C245.01 317.007 244.466 317.116 243.863 317.116C243.259 317.116 242.715 317.007 242.232 316.79C241.757 316.572 241.379 316.262 241.097 315.86C240.823 315.449 240.687 314.97 240.687 314.423C240.687 313.916 240.811 313.477 241.061 313.107C241.31 312.728 241.657 312.446 242.099 312.261ZM245.191 310.559C245.191 310.164 245.07 309.858 244.829 309.641C244.595 309.423 244.273 309.315 243.863 309.315C243.46 309.315 243.138 309.423 242.896 309.641C242.663 309.858 242.546 310.168 242.546 310.571C242.546 310.933 242.667 311.223 242.909 311.44C243.158 311.657 243.476 311.766 243.863 311.766C244.249 311.766 244.567 311.657 244.817 311.44C245.066 311.215 245.191 310.921 245.191 310.559ZM243.863 312.998C243.404 312.998 243.029 313.115 242.739 313.348C242.458 313.582 242.317 313.916 242.317 314.35C242.317 314.753 242.454 315.083 242.727 315.341C243.009 315.59 243.388 315.715 243.863 315.715C244.338 315.715 244.712 315.586 244.986 315.329C245.259 315.071 245.396 314.745 245.396 314.35C245.396 313.924 245.255 313.594 244.974 313.36C244.692 313.119 244.321 312.998 243.863 312.998Z" fill="#B6B8CA"/>
<defs>
<filter id="filter0_d_1479_36759" x="51.3913" y="0.130435" width="260.217" height="339.217" filterUnits="userSpaceOnUse" color-interpolation-filters="sRGB">
<feFlood flood-opacity="0" result="BackgroundImageFix"/>
<feColorMatrix in="SourceAlpha" type="matrix" values="0 0 0 0 0 0 0 0 0 0 0 0 0 0 0 0 0 0 127 0" result="hardAlpha"/>
<feOffset dy="-3.26087"/>
<feGaussianBlur stdDeviation="16.3043"/>
<feComposite in2="hardAlpha" operator="out"/>
<feColorMatrix type="matrix" values="0 0 0 0 0.107778 0 0 0 0 0.110617 0 0 0 0 0.133333 0 0 0 1 0"/>
<feBlend mode="normal" in2="BackgroundImageFix" result="effect1_dropShadow_1479_36759"/>
<feBlend mode="normal" in="SourceGraphic" in2="effect1_dropShadow_1479_36759" result="shape"/>
</filter>
<filter id="filter1_d_1479_36759" x="36.3913" y="35.1304" width="260.217" height="339.217" filterUnits="userSpaceOnUse" color-interpolation-filters="sRGB">
<feFlood flood-opacity="0" result="BackgroundImageFix"/>
<feColorMatrix in="SourceAlpha" type="matrix" values="0 0 0 0 0 0 0 0 0 0 0 0 0 0 0 0 0 0 127 0" result="hardAlpha"/>
<feOffset dy="-3.26087"/>
<feGaussianBlur stdDeviation="16.3043"/>
<feComposite in2="hardAlpha" operator="out"/>
<feColorMatrix type="matrix" values="0 0 0 0 0.107778 0 0 0 0 0.110617 0 0 0 0 0.133333 0 0 0 1 0"/>
<feBlend mode="normal" in2="BackgroundImageFix" result="effect1_dropShadow_1479_36759"/>
<feBlend mode="normal" in="SourceGraphic" in2="effect1_dropShadow_1479_36759" result="shape"/>
</filter>
<linearGradient id="paint0_linear_1479_36759" x1="195.5" y1="46" x2="195.5" y2="320" gradientUnits="userSpaceOnUse">
<stop stop-color="#696AE9" stop-opacity="0.5"/>
<stop offset="1" stop-color="#696AE9" stop-opacity="0"/>
</linearGradient>
<linearGradient id="paint1_linear_1479_36759" x1="181.5" y1="36" x2="181.5" y2="310" gradientUnits="userSpaceOnUse">
<stop stop-color="#696AE9" stop-opacity="0.5"/>
<stop offset="1" stop-color="#696AE9" stop-opacity="0"/>
</linearGradient>
<linearGradient id="paint2_linear_1479_36759" x1="166.5" y1="71" x2="166.5" y2="345" gradientUnits="userSpaceOnUse">
<stop stop-color="#696AE9" stop-opacity="0.5"/>
<stop offset="1" stop-color="#696AE9" stop-opacity="0"/>
</linearGradient>
</defs>
</svg>
