<svg width="80" height="80" viewBox="0 0 80 80" fill="none" xmlns="http://www.w3.org/2000/svg">
<g clip-path="url(#clip0_342_4080)" filter="url(#filter0_d_342_4080)">
<path d="M33.9168 25.75H34.1668C34.6668 25.75 35.0002 25.4167 35.0002 24.9167V20.8333C35.0002 20.3333 34.6668 20 34.1668 20H24.4168C23.9168 20 23.5835 20.3333 23.5835 20.8333V24.9167C23.5835 25.4167 23.9168 25.75 24.4168 25.75H24.6668C24.6668 27.75 24.0835 29.75 23.0002 31.5C21.7502 33.5833 21.0835 35.9167 21.0835 38.25V56.75C21.0835 58.5 22.5002 60 24.3335 60H34.2502C36.0002 60 37.5002 58.5833 37.5002 56.75V38.25C37.5002 35.8333 36.8335 33.5 35.5835 31.5C34.5002 29.75 33.9168 27.8333 33.9168 25.75ZM25.2502 21.6667H33.3335V24.0833H33.0835H25.5835H25.2502V21.6667ZM35.8335 47.8333C35.4168 48.25 34.5835 48.25 34.1668 47.8333C33.0835 46.75 31.2502 46.75 30.1668 47.8333C29.7502 48.25 28.9168 48.25 28.5002 47.8333C27.4168 46.75 25.5835 46.75 24.5002 47.8333C24.0835 48.25 23.3335 48.25 22.8335 47.8333V40.3333C23.8335 40.6667 24.9168 40.4167 25.6668 39.6667C26.0835 39.25 26.9168 39.25 27.3335 39.6667C28.4168 40.75 30.2502 40.75 31.3335 39.6667C31.7502 39.25 32.5002 39.25 33.0002 39.6667C33.5002 40.1667 34.2502 40.5 35.0002 40.5C35.2502 40.5 35.5835 40.4167 35.8335 40.3333V47.8333ZM34.2502 58.3333H24.3335C23.5002 58.3333 22.7502 57.6667 22.7502 56.75V49.6667C23.7502 50 24.8335 49.75 25.5835 49C26.0002 48.5833 26.8335 48.5833 27.2502 49C28.3335 50.0833 30.1668 50.0833 31.2502 49C31.6668 48.5833 32.4168 48.5833 32.9168 49C33.4168 49.5 34.1668 49.8333 34.9168 49.8333C35.1668 49.8333 35.5002 49.75 35.7502 49.6667V56.75C35.8335 57.6667 35.0835 58.3333 34.2502 58.3333ZM35.8335 38.4167C35.4168 38.8333 34.5835 38.8333 34.1668 38.4167C33.0835 37.3333 31.2502 37.3333 30.1668 38.4167C29.7502 38.8333 28.9168 38.8333 28.5002 38.4167C27.4168 37.3333 25.5835 37.3333 24.5002 38.4167C24.0835 38.8333 23.3335 38.8333 22.8335 38.4167V38.25C22.8335 36.1667 23.4168 34.0833 24.5002 32.3333C25.7502 30.3333 26.4168 28.0833 26.4168 25.75H32.2502C32.2502 28.0833 32.9168 30.3333 34.1668 32.3333C35.2502 34.0833 35.8335 36.1667 35.8335 38.25V38.4167Z" fill="#4E96BF"/>
<path d="M58.667 34.25C58.5003 34.0833 58.2503 34 58.0003 34H39.2503C39.0003 34 38.7503 34.0833 38.5836 34.25C38.417 34.4167 38.3336 34.6667 38.417 34.9167L42.0003 59.25C42.0836 59.6667 42.417 60 42.8336 60H54.5003C54.917 60 55.2503 59.6667 55.3336 59.25L58.917 34.9167C58.917 34.6667 58.8336 34.4167 58.667 34.25ZM43.5003 58.3333L43.167 56.25H54.0003L53.7503 58.3333H43.5003ZM54.3336 54.5833H43.0003L40.2503 35.6667H57.0836L54.3336 54.5833Z" fill="#4E96BF"/>
</g>
<defs>
<filter id="filter0_d_342_4080" x="0" y="0" width="80" height="80" filterUnits="userSpaceOnUse" color-interpolation-filters="sRGB">
<feFlood flood-opacity="0" result="BackgroundImageFix"/>
<feColorMatrix in="SourceAlpha" type="matrix" values="0 0 0 0 0 0 0 0 0 0 0 0 0 0 0 0 0 0 127 0" result="hardAlpha"/>
<feOffset/>
<feGaussianBlur stdDeviation="10"/>
<feColorMatrix type="matrix" values="0 0 0 0 0.305882 0 0 0 0 0.588235 0 0 0 0 0.74902 0 0 0 0.3 0"/>
<feBlend mode="normal" in2="BackgroundImageFix" result="effect1_dropShadow_342_4080"/>
<feBlend mode="normal" in="SourceGraphic" in2="effect1_dropShadow_342_4080" result="shape"/>
</filter>
<clipPath id="clip0_342_4080">
<rect width="40" height="40" fill="white" transform="translate(20 20)"/>
</clipPath>
</defs>
</svg>
