<svg width="80" height="80" viewBox="0 0 80 80" fill="none" xmlns="http://www.w3.org/2000/svg">
<g clip-path="url(#clip0_342_4072)" filter="url(#filter0_d_342_4072)">
<path d="M38.9168 49.5835C37.0835 49.5835 35.5835 51.0835 35.5835 52.9168C35.5835 54.7502 37.0835 56.2502 38.9168 56.2502C40.7502 56.2502 42.2502 54.7502 42.2502 52.9168C42.2502 51.0835 40.7502 49.5835 38.9168 49.5835ZM38.9168 54.5835C38.0002 54.5835 37.2502 53.8335 37.2502 52.9168C37.2502 52.0002 38.0002 51.2502 38.9168 51.2502C39.8335 51.2502 40.5835 52.0002 40.5835 52.9168C40.5835 53.8335 39.8335 54.5835 38.9168 54.5835Z" fill="#E7C074"/>
<path d="M37.0837 41.9168C37.0837 40.0835 35.5837 38.5835 33.7503 38.5835C31.917 38.5835 30.417 40.0835 30.417 41.9168C30.417 43.7502 31.917 45.2502 33.7503 45.2502C35.5837 45.3335 37.0837 43.8335 37.0837 41.9168ZM33.7503 43.6668C32.8337 43.6668 32.0837 42.9168 32.0837 42.0002C32.0837 41.0835 32.8337 40.3335 33.7503 40.3335C34.667 40.3335 35.417 41.0835 35.417 42.0002C35.417 42.8335 34.667 43.6668 33.7503 43.6668Z" fill="#E7C074"/>
<path d="M42.0003 34.0835C40.167 34.0835 38.667 35.5835 38.667 37.4168C38.667 39.2502 40.167 40.7502 42.0003 40.7502C43.8337 40.7502 45.3337 39.2502 45.3337 37.4168C45.417 35.5835 43.917 34.0835 42.0003 34.0835ZM42.0003 39.0835C41.0837 39.0835 40.3337 38.3335 40.3337 37.4168C40.3337 36.5002 41.0837 35.7502 42.0003 35.7502C42.917 35.7502 43.667 36.5002 43.667 37.4168C43.7503 38.3335 43.0003 39.0835 42.0003 39.0835Z" fill="#E7C074"/>
<path d="M56.2502 29.7501C56.2502 25.5834 52.9169 22.2501 48.7502 22.2501C44.9169 22.2501 41.6669 25.1667 41.2502 28.9167H34.4169L31.6669 23.5001C31.5836 23.3334 31.4169 23.1667 31.2502 23.0834L25.0002 20.0834C24.5836 19.9167 24.0836 20.0834 23.9169 20.5001C23.7502 20.9167 23.9169 21.4167 24.3336 21.5834L30.4169 24.5001L32.6669 28.9167H25.0836C24.8336 28.9167 24.5836 29.0001 24.5002 29.1667C24.3336 29.3334 24.2502 29.5834 24.3336 29.8334L27.9169 59.2501C28.0002 59.6667 28.3336 60.0001 28.7502 60.0001H46.0002C46.4169 60.0001 46.7502 59.6667 46.8336 59.2501L49.5002 37.2501C53.2502 36.8334 56.2502 33.6667 56.2502 29.7501ZM45.1669 58.3334H29.4169L26.0836 30.5834H48.5836L45.1669 58.3334ZM49.6669 35.5001L50.3336 29.8334C50.3336 29.5834 50.2502 29.3334 50.1669 29.1667C50.0002 29.0001 49.7502 28.9167 49.5836 28.9167H43.0002C43.4169 26.0834 45.8336 23.9167 48.7502 23.9167C52.0002 23.9167 54.5836 26.5001 54.5836 29.7501C54.5836 32.6667 52.4169 35.0834 49.6669 35.5001Z" fill="#E7C074"/>
</g>
<defs>
<filter id="filter0_d_342_4072" x="0" y="0" width="80" height="80" filterUnits="userSpaceOnUse" color-interpolation-filters="sRGB">
<feFlood flood-opacity="0" result="BackgroundImageFix"/>
<feColorMatrix in="SourceAlpha" type="matrix" values="0 0 0 0 0 0 0 0 0 0 0 0 0 0 0 0 0 0 127 0" result="hardAlpha"/>
<feOffset/>
<feGaussianBlur stdDeviation="10"/>
<feColorMatrix type="matrix" values="0 0 0 0 0.905882 0 0 0 0 0.752941 0 0 0 0 0.454902 0 0 0 0.3 0"/>
<feBlend mode="normal" in2="BackgroundImageFix" result="effect1_dropShadow_342_4072"/>
<feBlend mode="normal" in="SourceGraphic" in2="effect1_dropShadow_342_4072" result="shape"/>
</filter>
<clipPath id="clip0_342_4072">
<rect width="40" height="40" fill="white" transform="translate(20 20)"/>
</clipPath>
</defs>
</svg>
