<svg width="80" height="80" viewBox="0 0 80 80" fill="none" xmlns="http://www.w3.org/2000/svg">
<g clip-path="url(#clip0_342_4060)" filter="url(#filter0_d_342_4060)">
<path d="M45.9168 32C44.5835 32 43.3335 32.6667 42.3335 33.25C42.6668 31.5833 43.7501 28.6667 46.5835 27.8333C47.0001 27.6667 47.2501 27.25 47.1668 26.8333C47.0001 26.4167 46.5835 26.1667 46.1668 26.25C44.1668 26.8333 42.9168 28.0833 42.0835 29.5C39.8335 23.8333 34.3335 20 28.2502 20C26.8335 20 25.4168 20.1667 24.0835 20.5833C23.5835 20.75 23.3335 21.1667 23.5002 21.6667C25.0835 27.1667 29.8335 31.25 35.3335 32.1667C30.0835 32.8333 26.0002 37.3333 26.0002 42.75C26.0002 48.5 30.5835 60.0833 36.6668 60.0833C37.8335 60.0833 39.0002 59.6667 40.0835 58.8333C40.7502 58.3333 41.6668 58.3333 42.3335 58.8333C43.5001 59.6667 44.6668 60.0833 45.7501 60.0833C51.8335 60.0833 56.4168 48.5 56.4168 42.75C56.5002 36.8333 51.7502 32 45.9168 32ZM40.5835 33.4167C39.9168 33 39.1668 32.5833 38.2501 32.25C39.1668 32.25 40.0002 32.0833 40.9168 31.9167C40.7502 32.5 40.6668 33 40.5835 33.4167ZM25.3335 22C26.3335 21.75 27.2502 21.6667 28.2502 21.6667C33.7502 21.6667 38.7502 25.1667 40.5835 30.3333C39.6668 30.5833 38.6668 30.6667 37.7501 30.6667C32.1668 30.6667 27.2502 27.0833 25.3335 22ZM45.9168 58.3333C45.0835 58.3333 44.2502 58 43.4168 57.4167C42.8335 57 42.0835 56.75 41.3335 56.75C40.5835 56.75 39.8335 57 39.2502 57.4167C38.4168 58 37.5835 58.3333 36.7502 58.3333C32.0002 58.3333 27.7502 47.6667 27.7502 42.6667C27.7502 37.6667 31.7502 33.6667 36.7502 33.6667C37.7502 33.6667 38.9168 34.3333 39.7502 34.8333C40.1668 35.0833 40.6668 35.25 41.2502 35.25C41.2502 35.25 41.2502 35.25 41.3335 35.25C41.3335 35.25 41.3335 35.25 41.4168 35.25C41.4168 35.25 41.4168 35.25 41.5001 35.25C42.0001 35.25 42.5835 35.0833 43.0002 34.8333C43.9168 34.3333 45.0002 33.6667 46.0002 33.6667C51.0002 33.6667 55.0002 37.6667 55.0002 42.6667C54.8335 47.6667 50.5835 58.3333 45.9168 58.3333Z" fill="#F76969"/>
<path d="M45.9168 35.3335C45.4168 35.3335 45.0835 35.6668 45.0835 36.1668C45.0835 36.6668 45.4168 37.0002 45.9168 37.0002C49.0002 37.0002 51.5835 39.5002 51.5835 42.6668C51.5835 43.1668 51.9168 43.5002 52.4168 43.5002C52.9168 43.5002 53.2502 43.1668 53.2502 42.6668C53.1668 38.6668 49.9168 35.3335 45.9168 35.3335Z" fill="#F76969"/>
</g>
<defs>
<filter id="filter0_d_342_4060" x="0" y="0" width="80" height="80" filterUnits="userSpaceOnUse" color-interpolation-filters="sRGB">
<feFlood flood-opacity="0" result="BackgroundImageFix"/>
<feColorMatrix in="SourceAlpha" type="matrix" values="0 0 0 0 0 0 0 0 0 0 0 0 0 0 0 0 0 0 127 0" result="hardAlpha"/>
<feOffset/>
<feGaussianBlur stdDeviation="10"/>
<feColorMatrix type="matrix" values="0 0 0 0 0.964706 0 0 0 0 0.411765 0 0 0 0 0.411765 0 0 0 0.3 0"/>
<feBlend mode="normal" in2="BackgroundImageFix" result="effect1_dropShadow_342_4060"/>
<feBlend mode="normal" in="SourceGraphic" in2="effect1_dropShadow_342_4060" result="shape"/>
</filter>
<clipPath id="clip0_342_4060">
<rect width="40" height="40" fill="white" transform="translate(20 20)"/>
</clipPath>
</defs>
</svg>
