<svg width="80" height="80" viewBox="0 0 80 80" fill="none" xmlns="http://www.w3.org/2000/svg">
<g clip-path="url(#clip0_342_4066)" filter="url(#filter0_d_342_4066)">
<path d="M56.8333 41.3335C55.3333 39.8335 53.5 38.8335 51.5 38.4168C46.75 37.4168 42.6667 35.2502 39.6667 32.2502C38.9167 31.5002 37.8333 31.0835 36.75 31.0835C36.25 31.0835 35.75 31.1668 35.25 31.3335L31.5833 27.6668L31.6667 27.5835C33.3333 25.8335 33.3333 23.0002 31.6667 21.3335C30.8333 20.5002 29.75 20.0835 28.5833 20.0835C27.4167 20.0835 26.25 20.5002 25.4167 21.3335C24.6667 22.0835 24.25 23.0835 24.1667 24.1668C23.0833 24.2502 22.0833 24.6668 21.25 25.5002C19.5 27.2502 19.5 30.0002 21.25 31.7502C22.0833 32.5835 23.1667 33.0002 24.3333 33.0002C25.5 33.0002 26.6667 32.5002 27.5 31.6668L27.5833 31.5835L31.1667 35.1668C30.9167 35.6668 30.75 36.1668 30.75 36.7502C30.75 37.7502 31.0833 38.5835 31.8333 39.2502C35.25 42.6668 37.5 46.7502 38.3333 51.2502C38.75 53.5002 39.9167 55.5002 41.5 57.0835C43.5 59.0002 46.1667 60.0835 49 60.0835C51.75 60.0835 54.4167 59.0835 56.4167 57.2502C58.6667 55.1668 59.9167 52.4168 59.9167 49.4168C60.0833 46.2502 58.9167 43.4168 56.8333 41.3335ZM28.0833 29.7502C27.9167 29.5835 27.75 29.5002 27.5 29.5002H27.4167C27.1667 29.5002 26.9167 29.6668 26.8333 29.9168C26.6667 30.1668 26.5833 30.3335 26.4167 30.5002C25.4167 31.5002 23.5833 31.5002 22.5833 30.5002C21.4167 29.4168 21.4167 27.6668 22.5 26.6668C23.1667 26.0002 24.0833 25.7502 24.9167 25.9168C25.1667 26.0002 25.5 25.9168 25.6667 25.6668C25.8333 25.5002 25.9167 25.1668 25.8333 24.9168C25.6667 24.0002 26 23.0835 26.5833 22.5002C27.5833 21.5002 29.4167 21.5002 30.4167 22.5002C31.5 23.5835 31.5 25.3335 30.4167 26.3335C30.25 26.5002 30.0833 26.6668 29.8333 26.7502C29.5833 26.9168 29.4167 27.0835 29.4167 27.3335C29.4167 27.5835 29.5 27.8335 29.6667 28.0002L33.75 32.0835L32.1667 33.6668L28.0833 29.7502ZM55.3333 55.9168C53.6667 57.5002 51.4167 58.3335 49.0833 58.3335C46.6667 58.3335 44.4167 57.4168 42.6667 55.8335C41.25 54.5002 40.3333 52.8335 39.9167 50.9168C39 46.1668 36.5833 41.7502 32.9167 38.0835C32.5833 37.7502 32.3333 37.2502 32.3333 36.7502C32.3333 36.2502 32.5 35.7502 32.9167 35.4168L35 33.3335C35.5 32.8335 36.0833 32.5835 36.75 32.5835C37.4167 32.5835 38 32.8335 38.5 33.3335C41.75 36.5835 46.0833 38.9168 51.1667 40.0002C52.9167 40.4168 54.4167 41.2502 55.6667 42.5002C57.5 44.3335 58.4167 46.6668 58.4167 49.2502C58.25 51.8335 57.25 54.1668 55.3333 55.9168Z" fill="#F178B6"/>
<path d="M54.3333 43.7502C53.3333 42.7502 52.0833 42.0835 50.6667 41.7502C50.25 41.6668 49.75 41.9168 49.6667 42.4168C49.5833 42.8335 49.8333 43.3335 50.3333 43.4168C51.4167 43.6668 52.4167 44.1668 53.1667 45.0002C54.25 46.0835 54.8333 47.5835 54.8333 49.0835C54.8333 50.6668 54.25 52.0835 53.1667 53.1668C52.8333 53.5002 52.8333 54.0002 53.1667 54.3335C53.3333 54.5002 53.5833 54.5835 53.75 54.5835C54 54.5835 54.1667 54.5002 54.3333 54.3335C55.75 52.9168 56.5 51.0002 56.5 49.0002C56.5833 47.0835 55.75 45.1668 54.3333 43.7502Z" fill="#F178B6"/>
</g>
<defs>
<filter id="filter0_d_342_4066" x="0" y="0" width="80" height="80" filterUnits="userSpaceOnUse" color-interpolation-filters="sRGB">
<feFlood flood-opacity="0" result="BackgroundImageFix"/>
<feColorMatrix in="SourceAlpha" type="matrix" values="0 0 0 0 0 0 0 0 0 0 0 0 0 0 0 0 0 0 127 0" result="hardAlpha"/>
<feOffset/>
<feGaussianBlur stdDeviation="10"/>
<feColorMatrix type="matrix" values="0 0 0 0 0.945098 0 0 0 0 0.470588 0 0 0 0 0.713726 0 0 0 0.3 0"/>
<feBlend mode="normal" in2="BackgroundImageFix" result="effect1_dropShadow_342_4066"/>
<feBlend mode="normal" in="SourceGraphic" in2="effect1_dropShadow_342_4066" result="shape"/>
</filter>
<clipPath id="clip0_342_4066">
<rect width="40" height="40" fill="white" transform="translate(20 20)"/>
</clipPath>
</defs>
</svg>
