<svg width="80" height="80" viewBox="0 0 80 80" fill="none" xmlns="http://www.w3.org/2000/svg">
<g clip-path="url(#clip0_345_3459)" filter="url(#filter0_d_345_3459)">
<path d="M32.7498 52.25C32.2498 52.25 31.9165 52.5833 31.9165 53.0833V54.1667C31.9165 54.6667 32.2498 55 32.7498 55C33.2498 55 33.5832 54.6667 33.5832 54.1667V53.0833C33.5832 52.6667 33.1665 52.25 32.7498 52.25Z" fill="#696AE9"/>
<path d="M37.5833 52.25C37.0833 52.25 36.75 52.5833 36.75 53.0833V54.1667C36.75 54.6667 37.0833 55 37.5833 55C38.0833 55 38.4167 54.6667 38.4167 54.1667V53.0833C38.4167 52.6667 38 52.25 37.5833 52.25Z" fill="#696AE9"/>
<path d="M42.4168 52.25C41.9168 52.25 41.5835 52.5833 41.5835 53.0833V54.1667C41.5835 54.6667 41.9168 55 42.4168 55C42.9168 55 43.2502 54.6667 43.2502 54.1667V53.0833C43.2502 52.6667 42.9168 52.25 42.4168 52.25Z" fill="#696AE9"/>
<path d="M47.2503 52.25C46.7503 52.25 46.417 52.5833 46.417 53.0833V54.1667C46.417 54.6667 46.7503 55 47.2503 55C47.7503 55 48.0837 54.6667 48.0837 54.1667V53.0833C48.0837 52.6667 47.7503 52.25 47.2503 52.25Z" fill="#696AE9"/>
<path d="M52.0834 49.75L53.3334 29.4167C53.3334 29.4167 53.3334 28.25 52.0834 28.6667L51.0834 29.1667V20.8333C51.0834 20.3333 50.7501 20 50.2501 20H29.0834C28.5834 20 28.2501 20.3333 28.2501 20.8333V31.4167V41.75L27.0834 42.4167C26.7501 42.5833 26.5834 42.9167 26.6667 43.25C26.6667 43.3333 26.6667 43.3333 26.6667 43.4167L27.5834 49.8333C27.9167 52.9167 27.5834 56 26.6667 58.9167C26.6667 59.1667 26.6667 59.4167 26.8334 59.6667C27.0001 59.9167 27.2501 60 27.5001 60H52.5001C52.7501 60 53.0001 59.8333 53.1667 59.6667C53.3334 59.4167 53.3334 59.1667 53.2501 58.9167C52.3334 55.9167 51.9167 52.9167 52.0834 49.75ZM40.5001 21.6667H49.4167V30.0833L48.5001 30.5833H40.5001V21.6667ZM50.2501 31.5833L42.1667 45.5833L30.0001 42.8333L50.2501 31.5833ZM40.5001 32.25H45.5001L40.5001 35V32.25ZM29.9167 21.6667H38.8334V30.5833H29.9167V21.6667ZM29.9167 32.25H38.8334V35.9167L29.9167 40.8333V32.25ZM51.3334 58.3333H28.6667C29.4167 55.5 29.6667 52.5833 29.3334 49.6667L28.5001 44.1667L42.4167 47.3333C42.5001 47.3333 42.5001 47.3333 42.5834 47.3333C42.9167 47.3333 43.1667 47.1667 43.3334 46.9167L51.4167 32.8333L50.4167 49.6667C50.3334 52.5833 50.5834 55.5 51.3334 58.3333Z" fill="#696AE9"/>
</g>
<defs>
<filter id="filter0_d_345_3459" x="0" y="0" width="80" height="80" filterUnits="userSpaceOnUse" color-interpolation-filters="sRGB">
<feFlood flood-opacity="0" result="BackgroundImageFix"/>
<feColorMatrix in="SourceAlpha" type="matrix" values="0 0 0 0 0 0 0 0 0 0 0 0 0 0 0 0 0 0 127 0" result="hardAlpha"/>
<feOffset/>
<feGaussianBlur stdDeviation="10"/>
<feColorMatrix type="matrix" values="0 0 0 0 0.411765 0 0 0 0 0.415686 0 0 0 0 0.913725 0 0 0 0.3 0"/>
<feBlend mode="normal" in2="BackgroundImageFix" result="effect1_dropShadow_345_3459"/>
<feBlend mode="normal" in="SourceGraphic" in2="effect1_dropShadow_345_3459" result="shape"/>
</filter>
<clipPath id="clip0_345_3459">
<rect width="40" height="40" fill="white" transform="translate(20 20)"/>
</clipPath>
</defs>
</svg>
