<svg width="80" height="80" viewBox="0 0 80 80" fill="none" xmlns="http://www.w3.org/2000/svg">
<g clip-path="url(#clip0_345_3447)" filter="url(#filter0_d_345_3447)">
<path d="M59.5 30.5C56.0833 29.1666 52.6667 30.5 50.75 31.5C52.25 30.3333 54.9167 28.6666 58 29C58.5 29.0833 58.8333 28.75 58.9167 28.25C59 27.8333 58.6667 27.4166 58.1667 27.3333C55.5 27 53.1667 27.9166 51.4167 29C52.75 27.75 54.5833 26.5 57 26.1666C57.4167 26.0833 57.75 25.6666 57.75 25.25C57.6667 24.8333 57.25 24.5 56.8333 24.5C55 24.75 53.5 25.4166 52.25 26.25C52.75 24.9166 53 23.4166 52.8333 21.8333C52.75 21.4166 52.4167 21.0833 51.9167 21.0833C51.5 21.1666 51.1667 21.5833 51.1667 22C51.5 25.0833 49.9167 27.6666 48.75 29.25C49.75 27.3333 51 23.9166 49.75 20.5C49.5833 20.0833 49.0833 19.8333 48.6667 20C48.25 20.1666 48 20.6666 48.1667 21.0833C49.5 24.6666 47.4167 28.3333 46.5833 29.5C46.1667 29.3333 45.75 29.25 45.25 29.25C43 29.25 40.1667 31.0833 36.0833 35.1666C32.5 38.75 28.1667 44.0833 24.75 49.25C18.9167 58.0833 19.9167 59.1666 20.4167 59.5833C20.5833 59.9166 21 60 21.4167 60C24.5833 60 37.9167 50.9166 44.75 44.0833C50 38.8333 51.25 35.9166 50.4167 33.5833C51.5 32.8333 55.25 30.6666 58.8333 32C59.25 32.1666 59.75 31.9166 59.9167 31.5C60.0833 31.0833 59.9167 30.6666 59.5 30.5ZM43.5833 42.9166C36.75 49.75 24.5833 57.6666 21.6667 58.3333C22.1667 55.6666 29.6667 43.9166 37.0833 36.5C40.75 32.8333 43.3333 31 45.0833 31C46 31 46.6667 31.5 47.5833 32.4166C49.25 34.0833 50.8333 35.5833 43.5833 42.9166Z" fill="#5EB38A"/>
<path d="M45.5835 36.5835C45.2502 36.2502 44.7502 36.2502 44.4168 36.5835L44.0835 36.9168C43.7502 37.2502 43.7502 37.7502 44.0835 38.0835C44.6668 38.5002 45.0835 38.2502 45.2502 38.0835L45.5835 37.7502C45.9168 37.5002 45.9168 36.9168 45.5835 36.5835Z" fill="#5EB38A"/>
<path d="M43.5835 33.6665C43.2502 33.3332 42.7502 33.3332 42.4168 33.6665L42.0835 33.9998C41.7502 34.3332 41.7502 34.8332 42.0835 35.1665C42.2502 35.3332 42.5002 35.4165 42.6668 35.4165C42.9168 35.4165 43.0835 35.3332 43.2502 35.1665L43.5835 34.8332C43.9168 34.4998 43.9168 33.9998 43.5835 33.6665Z" fill="#5EB38A"/>
<path d="M40.4998 37.75L40.1665 38.0833C39.8332 38.4167 39.8332 38.9167 40.1665 39.25C40.3332 39.4167 40.5832 39.5 40.7498 39.5C40.9998 39.5 41.1665 39.4167 41.3332 39.25L41.6665 38.9167C41.9998 38.5833 41.9998 38.0833 41.6665 37.75C41.3332 37.4167 40.8332 37.4167 40.4998 37.75Z" fill="#5EB38A"/>
<path d="M36.5833 40.1665L36.25 40.4998C35.9167 40.8332 35.9167 41.3332 36.25 41.6665C36.4167 41.8332 36.6667 41.9165 36.8333 41.9165C37.0833 41.9165 37.25 41.8332 37.4167 41.6665L37.75 41.3332C38.0833 40.9998 38.0833 40.4998 37.75 40.1665C37.4167 39.8332 36.9167 39.8332 36.5833 40.1665Z" fill="#5EB38A"/>
<path d="M35.9168 44.9165L35.5835 45.2498C35.2502 45.5832 35.2502 46.0832 35.5835 46.4165C35.7502 46.5832 36.0002 46.6665 36.1668 46.6665C36.4168 46.6665 36.5835 46.5832 36.7502 46.4165L37.0835 46.0832C37.4168 45.7498 37.4168 45.2498 37.0835 44.9165C36.7502 44.5832 36.2502 44.5832 35.9168 44.9165Z" fill="#5EB38A"/>
<path d="M30.1668 49.75L29.8335 50.0833C29.5002 50.4167 29.5002 50.9167 29.8335 51.25C30.0002 51.4167 30.2502 51.5 30.4168 51.5C30.6668 51.5 30.8335 51.4167 31.0002 51.25L31.3335 50.9167C31.6668 50.5833 31.6668 50.0833 31.3335 49.75C31.0002 49.4167 30.5002 49.4167 30.1668 49.75Z" fill="#5EB38A"/>
<path d="M30.9998 45.6665L30.6665 45.9998C30.3332 46.3332 30.3332 46.8332 30.6665 47.1665C30.8332 47.3332 31.0832 47.4165 31.2498 47.4165C31.4998 47.4165 31.6665 47.3332 31.8332 47.1665L32.1665 46.8332C32.4998 46.4998 32.4998 45.9998 32.1665 45.6665C31.8332 45.3332 31.3332 45.3332 30.9998 45.6665Z" fill="#5EB38A"/>
</g>
<defs>
<filter id="filter0_d_345_3447" x="0" y="0" width="80" height="80" filterUnits="userSpaceOnUse" color-interpolation-filters="sRGB">
<feFlood flood-opacity="0" result="BackgroundImageFix"/>
<feColorMatrix in="SourceAlpha" type="matrix" values="0 0 0 0 0 0 0 0 0 0 0 0 0 0 0 0 0 0 127 0" result="hardAlpha"/>
<feOffset/>
<feGaussianBlur stdDeviation="10"/>
<feColorMatrix type="matrix" values="0 0 0 0 0.368627 0 0 0 0 0.698039 0 0 0 0 0.541176 0 0 0 0.3 0"/>
<feBlend mode="normal" in2="BackgroundImageFix" result="effect1_dropShadow_345_3447"/>
<feBlend mode="normal" in="SourceGraphic" in2="effect1_dropShadow_345_3447" result="shape"/>
</filter>
<clipPath id="clip0_345_3447">
<rect width="40" height="40" fill="white" transform="translate(20 20)"/>
</clipPath>
</defs>
</svg>
