<svg width="155" height="32" viewBox="0 0 155 32" fill="none" xmlns="http://www.w3.org/2000/svg">
<path d="M8.0287 27.2C5.73479 27.2 3.85117 26.6585 2.37784 25.5755C0.904511 24.4739 0.111898 22.9054 0 20.8701H5.84668C5.90263 21.561 6.10778 22.0652 6.46212 22.3826C6.81647 22.7 7.27339 22.8587 7.83288 22.8587C8.33642 22.8587 8.74671 22.7374 9.06376 22.4946C9.39945 22.2332 9.5673 21.8784 9.5673 21.4303C9.5673 20.8515 9.29688 20.4033 8.75604 20.0859C8.2152 19.7685 7.33866 19.4137 6.12643 19.0216C4.8396 18.5921 3.79522 18.1813 2.99328 17.7892C2.20999 17.3784 1.51995 16.7903 0.923161 16.0247C0.34502 15.2405 0.0559491 14.2228 0.0559491 12.9718C0.0559491 11.7021 0.372994 10.6191 1.00708 9.72283C1.64117 8.8079 2.51771 8.11702 3.63669 7.65022C4.75568 7.18341 6.02386 6.95001 7.44123 6.95001C9.73515 6.95001 11.5628 7.49151 12.9242 8.57449C14.3043 9.63881 15.041 11.1419 15.1342 13.0838H9.17566C9.15701 12.4863 8.97051 12.0382 8.61617 11.7394C8.28047 11.4407 7.8422 11.2913 7.30136 11.2913C6.89107 11.2913 6.55537 11.4127 6.29428 11.6554C6.03318 11.8981 5.90263 12.2436 5.90263 12.6917C5.90263 13.0652 6.04251 13.3919 6.32225 13.672C6.62065 13.9334 6.98432 14.1668 7.41326 14.3722C7.8422 14.5589 8.47629 14.8017 9.31553 15.1004C10.5651 15.5299 11.5908 15.9593 12.3927 16.3888C13.2133 16.7996 13.9127 17.3878 14.4908 18.1533C15.0876 18.9002 15.386 19.8525 15.386 21.0102C15.386 22.1865 15.0876 23.2415 14.4908 24.1751C13.9127 25.1087 13.0641 25.8463 11.9451 26.3878C10.8448 26.9293 9.53933 27.2 8.0287 27.2Z" fill="#EDEFFF"/>
<path d="M36.9804 7.21994V11.5813H29.018V15.048H34.891V19.2137H29.018V26.9299H23.4839V7.21994H36.9804Z" fill="#EDEFFF"/>
<path d="M54.2701 27.2C52.3974 27.2 50.676 26.7759 49.1059 25.9275C47.5359 25.0608 46.2874 23.8713 45.3605 22.3591C44.4525 20.8284 43.9985 19.1041 43.9985 17.1862C43.9985 15.2683 44.4525 13.5532 45.3605 12.041C46.2874 10.5103 47.5359 9.32081 49.1059 8.47249C50.676 7.62417 52.3974 7.20002 54.2701 7.20002V17.1862L63.1512 12.041C64.0592 13.5532 64.5132 15.2683 64.5132 17.1862C64.5132 19.1041 64.0592 20.8284 63.1512 22.3591C62.2433 23.8713 61.0043 25.0608 59.4342 25.9275C57.8642 26.7759 56.1428 27.2 54.2701 27.2Z" fill="#696AE9"/>
<path d="M60.2298 6.86076C58.8275 6.09385 57.286 5.6736 55.6055 5.60001V14.655L63.6698 9.98829C62.7924 8.66831 61.6457 7.6258 60.2298 6.86076Z" fill="#ED957D"/>
<path d="M82.4777 27.2C80.6296 27.2 78.9309 26.7706 77.3815 25.9116C75.8321 25.034 74.6001 23.8297 73.6854 22.2986C72.7893 20.7488 72.3413 19.0029 72.3413 17.061C72.3413 15.1191 72.7893 13.3826 73.6854 11.8515C74.6001 10.3017 75.8321 9.09732 77.3815 8.23839C78.9309 7.37947 80.6296 6.95001 82.4777 6.95001C84.3444 6.95001 86.0431 7.37947 87.5739 8.23839C89.1233 9.09732 90.346 10.3017 91.242 11.8515C92.138 13.3826 92.5861 15.1191 92.5861 17.061C92.5861 19.0029 92.138 20.7488 91.242 22.2986C90.346 23.8297 89.1233 25.034 87.5739 25.9116C86.0245 26.7706 84.3258 27.2 82.4777 27.2ZM82.4777 22.1025C83.8777 22.1025 84.9791 21.645 85.7818 20.7301C86.6032 19.8152 87.0139 18.5921 87.0139 17.061C87.0139 15.4925 86.6032 14.2602 85.7818 13.3639C84.9791 12.449 83.8777 11.9915 82.4777 11.9915C81.059 11.9915 79.9483 12.449 79.1456 13.3639C78.3429 14.2602 77.9415 15.4925 77.9415 17.061C77.9415 18.6108 78.3429 19.8432 79.1456 20.7581C79.9483 21.6544 81.059 22.1025 82.4777 22.1025Z" fill="#EDEFFF"/>
<path d="M109.139 7.21994C111.238 7.21994 113.073 7.6393 114.643 8.47803C116.231 9.29811 117.451 10.4537 118.302 11.9447C119.153 13.4358 119.579 15.1412 119.579 17.061C119.579 18.9621 119.144 20.6582 118.274 22.1492C117.423 23.6403 116.203 24.8145 114.614 25.6719C113.044 26.5106 111.219 26.9299 109.139 26.9299H101.224V7.21994H109.139ZM108.713 22.0933C110.34 22.0933 111.616 21.6553 112.543 20.7793C113.47 19.9033 113.933 18.6639 113.933 17.061C113.933 15.4394 113.47 14.1907 112.543 13.3147C111.616 12.42 110.34 11.9727 108.713 11.9727H106.784V22.0933H108.713Z" fill="#EDEFFF"/>
<path d="M133.075 7.21994V26.9299H127.677V7.21994H133.075Z" fill="#EDEFFF"/>
<path d="M147.227 11.6093V14.8244H153.556V18.99H147.227V22.5406H154.4V26.9299H141.713V7.21994H154.4V11.6093H147.227Z" fill="#EDEFFF"/>
</svg>
